<svg viewBox="0 0 1150 948" fill="none" preserveAspectRatio="xMinYMin meet" xmlns="http://www.w3.org/2000/svg">
    <g filter="url(#filter0_f)">
    <path d="M574.882 597.252C699.08 597.252 799.763 541.905 799.763 473.631C799.763 405.356 699.08 350.009 574.882 350.009C450.683 350.009 350 405.356 350 473.631C350 541.905 450.683 597.252 574.882 597.252Z" fill="url(#paint0_linear_human)"/>
    </g>
    <g filter="url(#filter1_bdd)">
    <path d="M575.119 596.954C699.317 596.954 800 541.607 800 473.332C800 405.058 699.317 349.711 575.119 349.711C450.92 349.711 350.237 405.058 350.237 473.332C350.237 541.607 450.92 596.954 575.119 596.954Z" fill="white" fill-opacity="0.1"/>
    </g>
    <path d="M559.408 486.457L688.556 411.872C690.086 410.993 690.086 409.562 688.556 408.684L631.911 375.98C631.056 375.542 630.109 375.313 629.148 375.313C628.187 375.313 627.24 375.542 626.385 375.98L497.237 450.615C495.707 451.493 495.707 452.924 497.237 453.802L553.892 486.506C554.749 486.937 555.696 487.157 556.656 487.148C557.615 487.14 558.559 486.903 559.408 486.457Z" fill="#E0E0E0"/>
    <path d="M450.579 501.418L368.02 453.753C366.5 452.875 366.5 451.444 368.02 450.566L502.388 372.98C503.245 372.547 504.192 372.322 505.151 372.322C506.111 372.322 507.058 372.547 507.915 372.98L590.474 420.645C592.003 421.533 592.003 422.954 590.474 423.842L456.105 501.418C455.249 501.85 454.302 502.076 453.342 502.076C452.382 502.076 451.436 501.85 450.579 501.418Z" fill="#E0E0E0"/>
    <path d="M494.069 365.677L370.033 437.302C369.562 437.607 369.17 438.019 368.888 438.504C368.607 438.99 368.445 439.535 368.415 440.095V443.362C368.445 443.922 368.607 444.467 368.888 444.952C369.17 445.438 369.562 445.85 370.033 446.154L451.586 493.247C452.086 493.5 452.639 493.632 453.199 493.632C453.76 493.632 454.312 493.5 454.813 493.247L578.878 421.612C579.347 421.305 579.736 420.892 580.015 420.407C580.295 419.922 580.456 419.378 580.487 418.819V415.552C580.457 414.992 580.295 414.447 580.013 413.962C579.732 413.476 579.34 413.064 578.869 412.76L497.296 365.677C496.796 365.424 496.243 365.292 495.683 365.292C495.122 365.292 494.569 365.424 494.069 365.677V365.677Z" fill="#37474F"/>
    <path d="M451.586 486.25L370.033 439.168C369.839 439.1 369.671 438.975 369.552 438.807C369.433 438.64 369.369 438.44 369.369 438.235C369.369 438.03 369.433 437.83 369.552 437.663C369.671 437.495 369.839 437.37 370.033 437.302L494.069 365.677C494.569 365.424 495.122 365.292 495.683 365.292C496.243 365.292 496.796 365.424 497.296 365.677L578.869 412.76C579.059 412.829 579.224 412.955 579.34 413.121C579.456 413.287 579.519 413.485 579.519 413.687C579.519 413.89 579.456 414.088 579.34 414.254C579.224 414.42 579.059 414.546 578.869 414.615L454.813 486.25C454.312 486.503 453.76 486.635 453.199 486.635C452.639 486.635 452.086 486.503 451.586 486.25V486.25Z" fill="#455A64"/>
    <path d="M453.303 486.635V493.621C452.711 493.653 452.122 493.527 451.596 493.256L370.023 446.154C369.556 445.849 369.167 445.438 368.887 444.955C368.608 444.471 368.446 443.929 368.415 443.371V440.105C368.442 439.605 368.573 439.117 368.799 438.67C369.025 438.223 369.341 437.828 369.727 437.51C369.155 438.033 369.253 438.714 370.023 439.158L451.596 486.25C452.121 486.527 452.71 486.66 453.303 486.635V486.635Z" fill="#263238"/>
    <path d="M559.388 419.529L555.994 421.503L568.043 330.595L571.447 328.631L559.388 419.529Z" fill="#E0E0E0"/>
    <path d="M555.994 421.503L483.293 379.543L495.342 288.645L568.043 330.595L555.994 421.503Z" fill="#FAFAFA"/>
    <path d="M571.447 328.631L568.043 330.595L495.342 288.645L498.796 286.651L571.447 328.631Z" fill="#EBEBEB"/>
    <path d="M564.244 331.967L497.612 293.51L486.678 376.572L553.309 414.97L564.244 331.967Z" fill="#FE9417"/>
    <path opacity="0.8" d="M564.244 331.967L497.612 293.51L486.678 376.572L553.309 414.97L564.244 331.967Z" fill="white"/>
    <path d="M493.822 344.579L510.924 328.375C512.711 326.687 514.822 327.21 515.612 329.539L527.869 365.638C527.927 365.83 528.055 365.993 528.228 366.095C528.4 366.198 528.604 366.233 528.801 366.194C528.997 366.154 529.172 366.044 529.292 365.882C529.411 365.721 529.467 365.522 529.447 365.322L528.915 357.714L539.819 350.036C540.266 349.699 540.783 349.466 541.332 349.355C541.88 349.245 542.447 349.258 542.99 349.396C543.532 349.533 544.037 349.79 544.467 350.149C544.897 350.507 545.241 350.958 545.474 351.467L558.303 377.125L553.744 411.664L489.707 374.756L493.822 344.579Z" fill="#FE9417"/>
    <path d="M551.799 332.194C548.839 330.457 545.977 331.641 545.513 334.829C545.049 338.016 547.151 342.023 550.191 343.779C553.23 345.536 556.043 344.362 556.477 341.154C556.911 337.947 554.809 333.911 551.799 332.194Z" fill="#FE9417"/>
    <path d="M500.632 295.266L489.707 374.756L486.688 376.513L497.612 293.51L500.632 295.266Z" fill="#E0E0E0"/>
    <path d="M489.707 374.756L553.743 411.704L553.309 414.97L486.688 376.513L489.707 374.756Z" fill="#EBEBEB"/>
    <path d="M541.309 430.01L537.905 431.974L549.964 341.076L553.368 339.112L541.309 430.01Z" fill="#E0E0E0"/>
    <path d="M537.905 431.974L465.204 390.013L477.253 299.115L549.964 341.076L537.905 431.974Z" fill="#FAFAFA"/>
    <path d="M553.369 339.112L549.964 341.076L477.253 299.115L480.707 297.122L553.369 339.112Z" fill="#EBEBEB"/>
    <path d="M546.165 342.437L479.533 303.99L468.599 387.043L535.23 425.45L546.165 342.437Z" fill="#FE9417"/>
    <path opacity="0.8" d="M546.165 342.437L479.533 303.99L468.599 387.043L535.23 425.45L546.165 342.437Z" fill="white"/>
    <path d="M475.734 355.049L492.826 338.855C494.612 337.158 496.773 337.681 497.513 340.01L509.77 376.108C509.829 376.3 509.957 376.463 510.129 376.566C510.301 376.668 510.505 376.703 510.702 376.664C510.899 376.625 511.074 376.514 511.193 376.353C511.313 376.192 511.368 375.992 511.349 375.793L510.816 368.184L521.72 360.516C522.168 360.179 522.686 359.946 523.235 359.836C523.785 359.725 524.352 359.738 524.895 359.876C525.439 360.013 525.944 360.27 526.375 360.629C526.806 360.987 527.151 361.438 527.385 361.947L540.214 387.605L535.665 422.145L471.619 385.207L475.734 355.049Z" fill="#FE9417"/>
    <path d="M533.711 342.655C530.701 340.918 527.898 342.092 527.434 345.279C526.971 348.467 529.063 352.483 532.112 354.24C535.161 355.997 537.964 354.812 538.388 351.605C538.813 348.398 536.721 344.391 533.711 342.655Z" fill="#FE9417"/>
    <path d="M482.553 305.737L471.619 385.237L468.609 386.983L479.533 303.99L482.553 305.737Z" fill="#E0E0E0"/>
    <path d="M471.619 385.237L535.655 422.174L535.23 425.45L468.609 386.983L471.619 385.237Z" fill="#EBEBEB"/>
    <path d="M523.221 440.49L519.826 442.454L531.875 351.556L535.28 349.582L523.221 440.49Z" fill="#E0E0E0"/>
    <path d="M519.826 442.454L447.115 400.493L459.174 309.595L531.875 351.556L519.826 442.454Z" fill="#FAFAFA"/>
    <path d="M535.28 349.582L531.875 351.556L459.174 309.595L462.628 307.602L535.28 349.582Z" fill="#EBEBEB"/>
    <path d="M528.076 352.918L461.444 314.46L450.51 397.523L517.142 435.921L528.076 352.918Z" fill="#FE9417"/>
    <path opacity="0.8" d="M528.076 352.918L461.444 314.46L450.51 397.523L517.142 435.921L528.076 352.918Z" fill="white"/>
    <path d="M457.635 365.529L474.727 349.326C476.513 347.638 478.615 348.161 479.415 350.49L491.661 386.589C491.72 386.78 491.848 386.943 492.02 387.046C492.193 387.149 492.397 387.184 492.593 387.144C492.79 387.105 492.965 386.994 493.085 386.833C493.204 386.672 493.26 386.472 493.24 386.273L492.707 378.664L503.622 370.987C504.069 370.649 504.586 370.417 505.134 370.306C505.683 370.195 506.25 370.209 506.792 370.346C507.335 370.484 507.84 370.741 508.27 371.1C508.7 371.458 509.044 371.908 509.276 372.418L522.105 398.076L517.556 432.615L453.52 395.677L457.635 365.529Z" fill="#FE9417"/>
    <path d="M515.632 353.125C512.622 351.388 509.809 352.572 509.345 355.76C508.882 358.947 510.984 362.954 514.023 364.71C517.063 366.467 519.875 365.293 520.299 362.085C520.724 358.878 518.632 354.891 515.632 353.125Z" fill="#FE9417"/>
    <path d="M464.464 316.217L453.54 395.717L450.52 397.464L461.444 314.46L464.464 316.217Z" fill="#E0E0E0"/>
    <path d="M453.54 395.717L517.576 432.654L517.142 435.921L450.52 397.464L453.54 395.717Z" fill="#EBEBEB"/>
    <path d="M505.132 450.96L501.737 452.924L513.796 362.026L517.191 360.062L505.132 450.96Z" fill="#E0E0E0"/>
    <path d="M501.737 452.924L429.036 410.964L441.086 320.066L513.796 362.026L501.737 452.924Z" fill="#FAFAFA"/>
    <path d="M517.191 360.062L513.796 362.026L441.086 320.066L444.54 318.072L517.191 360.062Z" fill="#EBEBEB"/>
    <path d="M509.997 363.388L443.365 324.941L432.431 407.993L499.063 446.401L509.997 363.388Z" fill="#FE9417"/>
    <path opacity="0.8" d="M509.997 363.388L443.365 324.941L432.431 407.993L499.063 446.401L509.997 363.388Z" fill="white"/>
    <path d="M439.566 376L456.648 359.826C458.434 358.138 460.596 358.651 461.336 360.98L473.592 397.079C473.651 397.27 473.779 397.433 473.951 397.536C474.124 397.639 474.328 397.674 474.524 397.635C474.721 397.595 474.896 397.484 475.016 397.323C475.135 397.162 475.191 396.963 475.171 396.763L474.638 389.154L485.494 381.487C485.941 381.149 486.459 380.917 487.008 380.806C487.558 380.695 488.125 380.709 488.668 380.846C489.212 380.983 489.717 381.241 490.148 381.599C490.579 381.958 490.924 382.408 491.158 382.918L503.987 408.576L499.428 443.115L435.451 406.207L439.566 376Z" fill="#FE9417"/>
    <path d="M497.543 363.605C494.533 361.868 491.721 363.043 491.267 366.23C490.813 369.418 492.895 373.434 495.934 375.191C498.974 376.947 501.796 375.773 502.221 372.556C502.645 369.339 500.553 365.342 497.543 363.605Z" fill="#FE9417"/>
    <path d="M446.375 326.697L435.451 406.187L432.431 407.934L443.365 324.941L446.375 326.697Z" fill="#E0E0E0"/>
    <path d="M435.451 406.187L499.487 443.125L499.063 446.401L432.431 407.934L435.451 406.187Z" fill="#EBEBEB"/>
    <path d="M487.053 461.431L483.658 463.404L495.707 372.497L499.112 370.533L487.053 461.431Z" fill="#E0E0E0"/>
    <path d="M483.658 463.404L410.948 421.444L423.007 330.546L495.707 372.497L483.658 463.404Z" fill="#FAFAFA"/>
    <path d="M499.112 370.533L495.707 372.497L423.007 330.546L426.451 328.552L499.112 370.533Z" fill="#EBEBEB"/>
    <path d="M491.908 373.868L425.276 335.411L414.342 418.473L480.974 456.872L491.908 373.868Z" fill="#FE9417"/>
    <path opacity="0.8" d="M491.908 373.868L425.276 335.411L414.342 418.473L480.974 456.872L491.908 373.868Z" fill="white"/>
    <path d="M421.487 386.47L438.579 370.266C440.365 368.579 442.467 369.102 443.257 371.431L455.513 407.529C455.572 407.721 455.7 407.884 455.872 407.987C456.045 408.09 456.249 408.125 456.445 408.085C456.642 408.046 456.817 407.935 456.937 407.774C457.056 407.613 457.112 407.413 457.092 407.214L456.559 399.605L467.503 391.937C467.951 391.608 468.466 391.382 469.011 391.276C469.557 391.17 470.119 391.186 470.657 391.324C471.196 391.462 471.697 391.718 472.124 392.073C472.551 392.428 472.894 392.874 473.128 393.378L485.957 419.036L481.408 453.575L417.372 416.668L421.487 386.47Z" fill="#FE9417"/>
    <path d="M479.454 374.075C476.494 372.348 473.642 373.523 473.178 376.71C472.714 379.898 474.816 383.904 477.855 385.661C480.895 387.418 483.707 386.243 484.132 383.036C484.556 379.829 482.464 375.812 479.454 374.075Z" fill="#FE9417"/>
    <path d="M428.296 337.168L417.372 416.668L414.352 418.414L425.276 335.411L428.296 337.168Z" fill="#E0E0E0"/>
    <path d="M417.372 416.668L481.408 453.605L480.974 456.872L414.352 418.414L417.372 416.668Z" fill="#EBEBEB"/>
    <path d="M468.964 471.911L465.569 473.875L477.619 382.977L481.023 381.013L468.964 471.911Z" fill="#E0E0E0"/>
    <path d="M465.569 473.875L392.869 431.914L404.918 341.016L477.619 382.977L465.569 473.875Z" fill="#FAFAFA"/>
    <path d="M481.023 381.013L477.619 382.977L404.918 341.016L408.372 339.023L481.023 381.013Z" fill="#EBEBEB"/>
    <path d="M473.819 384.339L407.198 345.891L396.253 428.944L462.885 467.352L473.819 384.339Z" fill="#FE9417"/>
    <path opacity="0.8" d="M473.819 384.339L407.198 345.891L396.253 428.944L462.885 467.352L473.819 384.339Z" fill="white"/>
    <path d="M403.359 396.95L420.451 380.756C422.237 379.069 424.398 379.582 425.138 381.911L437.434 418.049C437.493 418.241 437.621 418.404 437.793 418.507C437.966 418.609 438.17 418.644 438.367 418.605C438.563 418.566 438.738 418.455 438.858 418.294C438.977 418.133 439.033 417.933 439.013 417.733L438.48 410.125L449.336 402.457C449.783 402.12 450.299 401.887 450.848 401.776C451.397 401.666 451.963 401.679 452.506 401.817C453.049 401.954 453.554 402.211 453.984 402.57C454.414 402.928 454.758 403.379 454.99 403.888L467.819 429.546L463.26 464.085L399.283 427.138L403.359 396.95Z" fill="#FE9417"/>
    <path d="M461.375 384.556C458.415 382.819 455.553 383.993 455.099 387.191C454.645 390.388 456.727 394.385 459.767 396.141C462.806 397.898 465.619 396.724 466.053 393.506C466.487 390.289 464.385 386.293 461.375 384.556Z" fill="#FE9417"/>
    <path d="M410.207 347.648L399.283 427.138L396.263 428.895L407.197 345.891L410.207 347.648Z" fill="#E0E0E0"/>
    <path d="M399.283 427.138L463.319 464.075L462.885 467.352L396.263 428.895L399.283 427.138Z" fill="#EBEBEB"/>
    <path d="M494.069 250.858L370.033 322.483C369.561 322.789 369.168 323.203 368.886 323.69C368.605 324.177 368.443 324.724 368.415 325.286V328.553C368.445 329.114 368.607 329.661 368.888 330.148C369.169 330.635 369.562 331.048 370.033 331.355L451.586 378.437C452.086 378.691 452.639 378.823 453.199 378.823C453.76 378.823 454.312 378.691 454.813 378.437L578.878 306.803C579.347 306.496 579.736 306.083 580.015 305.598C580.295 305.113 580.456 304.569 580.487 304.01V300.743C580.457 300.183 580.295 299.638 580.013 299.153C579.732 298.667 579.34 298.255 578.869 297.951L497.296 250.868C496.797 250.614 496.244 250.48 495.684 250.478C495.123 250.477 494.57 250.607 494.069 250.858V250.858Z" fill="#37474F"/>
    <path d="M451.586 371.431L370.033 324.349C369.839 324.282 369.671 324.156 369.552 323.988C369.433 323.821 369.369 323.621 369.369 323.416C369.369 323.211 369.433 323.011 369.552 322.844C369.671 322.677 369.839 322.551 370.033 322.484L494.069 250.859C494.569 250.605 495.122 250.473 495.683 250.473C496.243 250.473 496.796 250.605 497.296 250.859L578.869 297.941C579.767 298.454 579.767 299.283 578.869 299.806L454.813 371.431C454.314 371.689 453.761 371.823 453.199 371.823C452.638 371.823 452.084 371.689 451.586 371.431V371.431Z" fill="#455A64"/>
    <path d="M453.303 371.816V378.812C452.711 378.836 452.123 378.707 451.596 378.437L370.023 331.335C369.556 331.03 369.167 330.619 368.887 330.136C368.608 329.652 368.446 329.11 368.415 328.553V325.286C368.442 324.786 368.573 324.298 368.799 323.851C369.025 323.404 369.341 323.009 369.727 322.691C369.155 323.214 369.253 323.895 370.023 324.349L451.596 371.431C452.119 371.712 452.709 371.846 453.303 371.816V371.816Z" fill="#263238"/>
    <path d="M559.388 303.97L555.994 305.934L568.043 215.036L571.447 213.072L559.388 303.97Z" fill="#E0E0E0"/>
    <path d="M555.994 305.934L483.293 263.974L495.342 173.076L568.043 215.036L555.994 305.934Z" fill="#FAFAFA"/>
    <path d="M571.447 213.072L568.043 215.036L495.342 173.076L498.796 171.082L571.447 213.072Z" fill="#EBEBEB"/>
    <path d="M564.244 216.398L497.612 177.951L486.678 261.003L553.309 299.411L564.244 216.398Z" fill="#FE9417"/>
    <path opacity="0.8" d="M564.244 216.398L497.612 177.951L486.678 261.003L553.309 299.411L564.244 216.398Z" fill="white"/>
    <path d="M493.822 229.01L510.924 212.786C512.711 211.089 514.822 211.612 515.612 213.941L527.869 250.039C527.927 250.231 528.055 250.394 528.228 250.497C528.4 250.599 528.604 250.634 528.801 250.595C528.997 250.556 529.172 250.445 529.292 250.284C529.411 250.123 529.467 249.923 529.447 249.724L528.915 242.115L539.809 234.497C540.255 234.157 540.771 233.923 541.32 233.81C541.868 233.698 542.435 233.71 542.979 233.846C543.522 233.983 544.027 234.24 544.457 234.599C544.888 234.957 545.232 235.408 545.464 235.918L558.293 261.576L553.734 296.115L489.707 259.168L493.822 229.01Z" fill="#FE9417"/>
    <path d="M551.799 216.615C548.839 214.878 545.977 216.053 545.513 219.24C545.049 222.428 547.151 226.444 550.191 228.201C553.23 229.957 556.043 228.773 556.477 225.566C556.911 222.358 554.809 218.352 551.799 216.615Z" fill="#FE9417"/>
    <path d="M500.632 179.697L489.707 259.197L486.688 260.944L497.612 177.951L500.632 179.697Z" fill="#E0E0E0"/>
    <path d="M489.707 259.197L553.743 296.135L553.309 299.411L486.688 260.944L489.707 259.197Z" fill="#EBEBEB"/>
    <path d="M541.309 314.441L537.905 316.405L549.964 225.507L553.368 223.543L541.309 314.441Z" fill="#E0E0E0"/>
    <path d="M537.905 316.404L465.204 274.454L477.253 183.556L549.964 225.506L537.905 316.404Z" fill="#FAFAFA"/>
    <path d="M553.369 223.543L549.964 225.506L477.253 183.556L480.707 181.562L553.369 223.543Z" fill="#EBEBEB"/>
    <path d="M546.165 226.878L479.533 188.421L468.599 271.474L535.23 309.881L546.165 226.878Z" fill="#FE9417"/>
    <path opacity="0.8" d="M546.165 226.878L479.533 188.421L468.599 271.474L535.23 309.881L546.165 226.878Z" fill="white"/>
    <path d="M475.734 239.48L492.826 223.286C494.612 221.599 496.773 222.122 497.513 224.451L509.77 260.549C509.828 260.743 509.957 260.908 510.13 261.012C510.304 261.116 510.51 261.15 510.708 261.11C510.907 261.069 511.082 260.955 511.201 260.791C511.319 260.627 511.372 260.425 511.349 260.224L510.816 252.625L521.72 244.947C522.168 244.61 522.686 244.378 523.235 244.267C523.785 244.156 524.352 244.17 524.895 244.307C525.439 244.444 525.944 244.701 526.375 245.06C526.806 245.418 527.151 245.869 527.385 246.378L540.214 272.036L535.665 306.576L471.619 269.638L475.734 239.48Z" fill="#FE9417"/>
    <path d="M533.711 227.086C530.701 225.349 527.898 226.533 527.434 229.72C526.971 232.908 529.063 236.915 532.112 238.671C535.161 240.428 537.964 239.253 538.388 236.046C538.813 232.839 536.721 228.822 533.711 227.086Z" fill="#FE9417"/>
    <path d="M482.553 190.177L471.619 269.668L468.609 271.424L479.533 188.421L482.553 190.177Z" fill="#E0E0E0"/>
    <path d="M471.619 269.668L535.655 306.605L535.23 309.881L468.609 271.424L471.619 269.668Z" fill="#EBEBEB"/>
    <path d="M523.221 324.921L519.826 326.885L531.875 235.987L535.28 234.023L523.221 324.921Z" fill="#E0E0E0"/>
    <path d="M519.826 326.885L447.115 284.924L459.174 194.026L531.875 235.987L519.826 326.885Z" fill="#FAFAFA"/>
    <path d="M535.28 234.023L531.875 235.987L459.174 194.026L462.628 192.033L535.28 234.023Z" fill="#EBEBEB"/>
    <path d="M528.076 237.349L461.444 198.891L450.51 281.954L517.142 320.352L528.076 237.349Z" fill="#FE9417"/>
    <path opacity="0.8" d="M528.076 237.349L461.444 198.891L450.51 281.954L517.142 320.352L528.076 237.349Z" fill="white"/>
    <path d="M457.635 249.96L474.727 233.766C476.513 232.069 478.615 232.592 479.415 234.921L491.681 271.01C491.74 271.201 491.868 271.364 492.04 271.467C492.212 271.57 492.417 271.605 492.613 271.566C492.81 271.526 492.985 271.415 493.104 271.254C493.224 271.093 493.279 270.894 493.26 270.694L492.727 263.085L503.642 255.418C504.087 255.078 504.603 254.844 505.152 254.731C505.701 254.619 506.268 254.631 506.811 254.768C507.354 254.904 507.859 255.161 508.29 255.52C508.72 255.878 509.064 256.329 509.296 256.839L522.125 282.497L517.576 317.036L453.54 280.099L457.635 249.96Z" fill="#FE9417"/>
    <path d="M515.632 237.566C512.622 235.829 509.809 237.003 509.345 240.191C508.882 243.378 510.984 247.395 514.023 249.151C517.063 250.908 519.875 249.724 520.299 246.516C520.724 243.309 518.632 239.303 515.632 237.566Z" fill="#FE9417"/>
    <path d="M464.464 200.648L453.54 280.148L450.52 281.895L461.444 198.891L464.464 200.648Z" fill="#E0E0E0"/>
    <path d="M453.54 280.148L517.576 317.085L517.142 320.352L450.52 281.895L453.54 280.148Z" fill="#EBEBEB"/>
    <path d="M505.132 335.391L501.737 337.355L513.796 246.457L517.191 244.493L505.132 335.391Z" fill="#E0E0E0"/>
    <path d="M501.737 337.355L429.036 295.404L441.086 204.506L513.796 246.457L501.737 337.355Z" fill="#FAFAFA"/>
    <path d="M517.191 244.493L513.796 246.457L441.086 204.507L444.54 202.513L517.191 244.493Z" fill="#EBEBEB"/>
    <path d="M509.997 247.819L443.365 209.372L432.431 292.424L499.063 330.832L509.997 247.819Z" fill="#FE9417"/>
    <path opacity="0.8" d="M509.997 247.819L443.365 209.372L432.431 292.424L499.063 330.832L509.997 247.819Z" fill="white"/>
    <path d="M439.566 260.431L456.648 244.237C458.434 242.549 460.596 243.072 461.336 245.401L473.592 281.5C473.651 281.692 473.779 281.855 473.951 281.957C474.124 282.06 474.328 282.095 474.524 282.056C474.721 282.016 474.896 281.905 475.016 281.744C475.135 281.583 475.191 281.384 475.171 281.184L474.638 273.576L485.494 265.898C485.941 265.561 486.459 265.328 487.008 265.217C487.558 265.106 488.125 265.12 488.668 265.257C489.212 265.395 489.718 265.652 490.148 266.01C490.579 266.369 490.924 266.819 491.158 267.329L503.987 292.987L499.428 327.526L435.392 290.579L439.566 260.431Z" fill="#FE9417"/>
    <path d="M497.543 248.036C494.533 246.299 491.721 247.483 491.267 250.671C490.813 253.858 492.895 257.865 495.934 259.622C498.974 261.378 501.796 260.204 502.221 256.997C502.645 253.789 500.553 249.773 497.543 248.036Z" fill="#FE9417"/>
    <path d="M446.375 211.128L435.451 290.618L432.431 292.375L443.365 209.372L446.375 211.128Z" fill="#E0E0E0"/>
    <path d="M435.451 290.618L499.487 327.566L499.063 330.832L432.431 292.375L435.451 290.618Z" fill="#EBEBEB"/>
    <path d="M487.053 345.872L483.658 347.835L495.707 256.937L499.112 254.974L487.053 345.872Z" fill="#E0E0E0"/>
    <path d="M483.658 347.835L410.948 305.875L423.007 214.977L495.707 256.937L483.658 347.835Z" fill="#FAFAFA"/>
    <path d="M499.112 254.974L495.707 256.937L423.007 214.977L426.451 212.984L499.112 254.974Z" fill="#EBEBEB"/>
    <path d="M491.908 258.299L425.276 219.852L414.342 302.904L480.974 341.312L491.908 258.299Z" fill="#FE9417"/>
    <path opacity="0.8" d="M491.908 258.299L425.276 219.852L414.342 302.904L480.974 341.312L491.908 258.299Z" fill="white"/>
    <path d="M421.487 270.911L438.579 254.717C440.365 253.02 442.467 253.543 443.257 255.872L455.513 291.97C455.572 292.162 455.7 292.325 455.872 292.428C456.045 292.53 456.249 292.566 456.446 292.526C456.642 292.487 456.817 292.376 456.937 292.215C457.056 292.054 457.112 291.854 457.092 291.655L456.559 284.046L467.503 276.378C467.95 276.039 468.467 275.804 469.016 275.692C469.566 275.579 470.133 275.592 470.677 275.728C471.221 275.864 471.727 276.121 472.158 276.48C472.59 276.839 472.935 277.289 473.168 277.799L485.997 303.457L481.447 337.997L417.372 301.099L421.487 270.911Z" fill="#FE9417"/>
    <path d="M479.454 258.516C476.494 256.779 473.642 257.954 473.178 261.141C472.714 264.329 474.816 268.345 477.855 270.102C480.895 271.858 483.707 270.674 484.132 267.467C484.556 264.26 482.464 260.253 479.454 258.516Z" fill="#FE9417"/>
    <path d="M428.296 221.599L417.372 301.098L414.352 302.845L425.276 219.852L428.296 221.599Z" fill="#E0E0E0"/>
    <path d="M417.372 301.099L481.408 338.036L480.974 341.312L414.352 302.845L417.372 301.099Z" fill="#EBEBEB"/>
    <path d="M468.964 356.342L465.569 358.306L477.619 267.408L481.023 265.444L468.964 356.342Z" fill="#E0E0E0"/>
    <path d="M465.569 358.306L392.869 316.355L404.918 225.457L477.619 267.408L465.569 358.306Z" fill="#FAFAFA"/>
    <path d="M481.023 265.444L477.619 267.408L404.918 225.457L408.372 223.464L481.023 265.444Z" fill="#EBEBEB"/>
    <path d="M473.819 268.78L407.198 230.322L396.253 313.375L462.885 351.783L473.819 268.78Z" fill="#FE9417"/>
    <path opacity="0.8" d="M473.819 268.78L407.198 230.322L396.253 313.375L462.885 351.783L473.819 268.78Z" fill="white"/>
    <path d="M403.359 281.391L420.49 265.187C422.276 263.5 424.438 264.023 425.178 266.352L437.434 302.451C437.493 302.642 437.621 302.805 437.793 302.908C437.966 303.011 438.17 303.046 438.367 303.006C438.563 302.967 438.738 302.856 438.858 302.695C438.977 302.534 439.033 302.334 439.013 302.135L438.48 294.526L449.336 286.849C449.783 286.511 450.299 286.279 450.848 286.168C451.397 286.057 451.963 286.071 452.506 286.208C453.049 286.346 453.554 286.603 453.984 286.961C454.414 287.32 454.758 287.77 454.99 288.28L467.819 313.937L463.26 348.477L399.283 311.569L403.359 281.391Z" fill="#FE9417"/>
    <path d="M461.375 269.036C458.415 267.299 455.553 268.483 455.099 271.671C454.645 274.858 456.727 278.865 459.767 280.622C462.806 282.378 465.619 281.204 466.053 277.997C466.487 274.789 464.385 270.724 461.375 269.036Z" fill="#FE9417"/>
    <path d="M410.207 232.079L399.283 311.569L396.263 313.326L407.197 230.322L410.207 232.079Z" fill="#E0E0E0"/>
    <path d="M399.283 311.569L463.319 348.506L462.885 351.783L396.263 313.326L399.283 311.569Z" fill="#EBEBEB"/>
    <path d="M689.74 176.589V397.928C689.654 399.523 689.193 401.076 688.394 402.46C687.595 403.844 686.481 405.019 685.142 405.891L557.987 479.233C557.531 479.518 557.005 479.669 556.467 479.668C556.268 479.664 556.07 479.641 555.875 479.599C555.739 479.567 555.606 479.521 555.48 479.46L555.244 479.322L554.967 479.145C554.877 479.074 554.792 478.998 554.711 478.918C554.354 478.576 554.069 478.167 553.872 477.714C553.549 476.98 553.384 476.186 553.388 475.385V255.22C553.475 253.625 553.937 252.072 554.736 250.689C555.535 249.305 556.648 248.129 557.987 247.257L685.142 173.934C685.586 173.624 686.1 173.426 686.638 173.359C687.177 173.292 687.723 173.357 688.23 173.549C688.372 173.605 688.505 173.682 688.625 173.776V173.776C688.741 173.859 688.844 173.959 688.931 174.072C688.982 174.124 689.029 174.18 689.069 174.24C689.131 174.31 689.181 174.39 689.217 174.477C689.334 174.661 689.424 174.86 689.484 175.069C689.542 175.197 689.578 175.334 689.592 175.474C689.599 175.487 689.603 175.503 689.603 175.518C689.603 175.533 689.599 175.549 689.592 175.562C689.631 175.701 689.654 175.843 689.661 175.987C689.699 176.186 689.725 176.387 689.74 176.589V176.589Z" fill="#455A64"/>
    <path d="M688.23 173.549C687.723 173.357 687.176 173.292 686.638 173.359C686.1 173.426 685.586 173.624 685.141 173.934L557.987 247.227C556.639 248.099 555.517 249.278 554.712 250.668C553.908 252.057 553.444 253.617 553.359 255.22V270.22L547.487 266.776V251.855C547.581 250.272 548.045 248.733 548.842 247.362C549.639 245.991 550.747 244.826 552.076 243.96L679.27 170.618C679.751 170.268 680.321 170.057 680.915 170.01C681.509 169.963 682.104 170.081 682.635 170.352C683.434 170.845 687.253 173.036 688.23 173.549Z" fill="#FE9417"/>
    <path d="M689.73 176.559C689.73 173.658 687.668 172.484 685.142 173.944L557.987 247.227C556.64 248.1 555.519 249.28 554.715 250.669C553.91 252.058 553.446 253.618 553.359 255.221V270.22L689.73 191.648V176.559Z" fill="#FE9417"/>
    <g opacity="0.4">
    <path opacity="0.4" d="M685.142 173.944L557.987 247.227C556.641 248.078 555.528 249.251 554.75 250.641L548.918 247.257C549.68 245.884 550.781 244.728 552.115 243.901L679.27 170.618C679.751 170.268 680.321 170.057 680.915 170.01C681.509 169.963 682.104 170.081 682.635 170.352C683.464 170.855 687.283 173.026 688.25 173.549C687.74 173.353 687.189 173.286 686.646 173.355C686.104 173.424 685.587 173.626 685.142 173.944V173.944Z" fill="white"/>
    </g>
    <path opacity="0.15" d="M547.507 266.796V251.855C547.568 250.227 548.051 248.642 548.908 247.256L554.76 250.622C553.896 252.004 553.412 253.591 553.359 255.22V270.22L547.507 266.796Z" fill="black"/>
    <path d="M662.049 193.671C660.619 194.5 659.454 196.967 659.454 199.168C659.454 201.368 660.619 202.503 662.049 201.674C663.48 200.845 664.645 198.378 664.645 196.178C664.645 193.977 663.48 192.842 662.049 193.671Z" fill="#455A64"/>
    <path d="M671.395 188.263C669.964 189.092 668.799 191.559 668.799 193.76C668.799 195.96 669.964 197.095 671.395 196.266C672.826 195.437 673.99 192.97 673.99 190.77C673.99 188.569 672.836 187.434 671.395 188.263Z" fill="#455A64"/>
    <path d="M680.75 182.855C679.309 183.684 678.155 186.151 678.155 188.352C678.155 190.553 679.309 191.687 680.75 190.859C682.191 190.03 683.345 187.562 683.345 185.362C683.345 183.161 682.181 182.036 680.75 182.855Z" fill="#455A64"/>
    <path d="M555.076 479.233C554.908 479.125 554.711 479.016 554.503 478.898C554.079 478.641 553.595 478.365 553.082 478.099L552.313 477.664H552.253C551.829 477.427 551.424 477.181 551.04 476.973L550.053 476.401C549.868 476.286 549.677 476.18 549.48 476.085C549.179 475.924 548.911 475.706 548.691 475.444C548.438 475.17 548.231 474.857 548.079 474.516C547.723 473.753 547.541 472.921 547.546 472.079V266.816L553.359 270.22V475.404C553.379 476.203 553.543 476.992 553.842 477.733C554.039 478.186 554.324 478.596 554.681 478.937C554.75 479.03 554.837 479.108 554.938 479.164C554.978 479.197 555.025 479.22 555.076 479.233Z" fill="#37474F"/>
    <path d="M564.678 282.704C564.685 282.402 564.766 282.107 564.915 281.845L568.221 275.006C568.252 274.929 568.303 274.861 568.369 274.809C568.369 274.809 568.438 274.75 568.457 274.75C568.492 274.717 568.538 274.699 568.586 274.699C568.633 274.699 568.679 274.717 568.714 274.75C568.753 274.796 568.783 274.849 568.802 274.907C568.821 274.964 568.828 275.025 568.822 275.085V277.375C568.83 277.614 568.807 277.852 568.753 278.085C568.701 278.305 568.622 278.517 568.517 278.717L566.78 282.329L568.517 283.927C568.626 284.023 568.708 284.145 568.753 284.283C568.81 284.488 568.834 284.701 568.822 284.914V287.214C568.82 287.374 568.783 287.532 568.714 287.677C568.661 287.805 568.571 287.915 568.457 287.993H568.369C568.346 288.005 568.32 288.01 568.295 288.01C568.269 288.01 568.244 288.005 568.221 287.993L564.915 284.964C564.83 284.894 564.764 284.804 564.723 284.702C564.681 284.601 564.666 284.491 564.678 284.381V282.704Z" fill="#FE9417"/>
    <path d="M576.767 265.553C576.828 265.32 576.914 265.095 577.023 264.882C577.124 264.66 577.294 264.476 577.507 264.358L578.75 263.638C578.786 263.608 578.831 263.591 578.878 263.591C578.925 263.591 578.971 263.608 579.007 263.638C579.085 263.732 579.124 263.852 579.115 263.974C579.123 264.059 579.123 264.145 579.115 264.23L573.441 288.378C573.392 288.604 573.316 288.822 573.214 289.03C573.104 289.259 572.929 289.451 572.711 289.582L571.517 290.273C571.481 290.304 571.435 290.32 571.388 290.32C571.341 290.32 571.296 290.304 571.26 290.273C571.219 290.228 571.189 290.174 571.17 290.117C571.151 290.059 571.145 289.998 571.151 289.937C571.143 289.852 571.143 289.766 571.151 289.681L576.767 265.553Z" fill="#FE9417"/>
    <path d="M585.54 272.372C585.533 272.673 585.451 272.968 585.303 273.23L581.977 280.069C581.942 280.145 581.892 280.212 581.829 280.266C581.78 280.266 581.76 280.326 581.74 280.326C581.705 280.356 581.659 280.373 581.612 280.373C581.565 280.373 581.519 280.356 581.484 280.326C581.406 280.228 581.367 280.105 581.375 279.98V277.691C581.367 277.452 581.391 277.213 581.444 276.98C581.496 276.761 581.576 276.548 581.681 276.349L583.418 272.737L581.681 271.138C581.572 271.043 581.49 270.92 581.444 270.783C581.387 270.577 581.364 270.364 581.375 270.151V267.852C581.378 267.691 581.415 267.533 581.484 267.388C581.537 267.26 581.626 267.151 581.74 267.072H581.829C581.877 267.054 581.929 267.054 581.977 267.072L585.283 270.102C585.368 270.172 585.434 270.262 585.475 270.363C585.516 270.465 585.532 270.575 585.52 270.684L585.54 272.372Z" fill="#FE9417"/>
    <path d="M594.727 270.783C594.771 270.746 594.827 270.726 594.885 270.726C594.943 270.726 594.999 270.746 595.043 270.783C595.092 270.839 595.13 270.905 595.154 270.976C595.178 271.047 595.187 271.123 595.181 271.197V273.724C595.179 273.922 595.131 274.118 595.043 274.296C594.978 274.453 594.868 274.587 594.727 274.681L593.168 275.589C593.123 275.628 593.065 275.65 593.005 275.65C592.945 275.65 592.887 275.628 592.842 275.589C592.794 275.534 592.757 275.47 592.735 275.4C592.713 275.33 592.706 275.257 592.714 275.184V272.648C592.714 272.453 592.758 272.261 592.842 272.085C592.907 271.923 593.021 271.785 593.168 271.691L594.727 270.783Z" fill="#FE9417"/>
    <path d="M599.938 267.773C599.981 267.734 600.037 267.713 600.095 267.713C600.154 267.713 600.21 267.734 600.253 267.773C600.305 267.828 600.344 267.894 600.368 267.965C600.392 268.037 600.4 268.112 600.392 268.187V270.714C600.394 270.913 600.346 271.11 600.253 271.286C600.192 271.445 600.081 271.58 599.938 271.671L598.378 272.579C598.335 272.618 598.279 272.639 598.22 272.639C598.162 272.639 598.106 272.618 598.063 272.579C598.012 272.523 597.973 272.458 597.949 272.386C597.925 272.315 597.917 272.239 597.924 272.164V269.628C597.928 269.433 597.975 269.241 598.063 269.066C598.124 268.904 598.235 268.766 598.378 268.671L599.938 267.773Z" fill="#FE9417"/>
    <path d="M605.148 264.763C605.193 264.724 605.251 264.702 605.311 264.702C605.371 264.702 605.429 264.724 605.474 264.763C605.522 264.82 605.557 264.886 605.58 264.958C605.602 265.029 605.609 265.103 605.602 265.178V267.704C605.603 267.902 605.559 268.098 605.474 268.276C605.409 268.436 605.295 268.571 605.148 268.661L603.589 269.569C603.546 269.608 603.489 269.629 603.431 269.629C603.373 269.629 603.317 269.608 603.273 269.569C603.224 269.513 603.187 269.447 603.165 269.375C603.143 269.304 603.136 269.229 603.145 269.155V266.628C603.145 266.434 603.189 266.241 603.273 266.066C603.335 265.905 603.445 265.767 603.589 265.671L605.148 264.763Z" fill="#FE9417"/>
    <path d="M566.069 301.148L642.47 257.046C643.369 256.523 644.109 256.888 644.109 257.865C644.067 258.414 643.897 258.945 643.612 259.417C643.328 259.888 642.937 260.286 642.47 260.579L566.069 304.691C565.171 305.214 564.441 304.839 564.441 303.862C564.481 303.314 564.649 302.782 564.932 302.311C565.215 301.84 565.604 301.441 566.069 301.148Z" fill="#FE9417"/>
    <path d="M590.582 329.46L666.984 285.349C667.882 284.826 668.622 285.201 668.622 286.178C668.581 286.725 668.411 287.256 668.126 287.725C667.841 288.195 667.45 288.591 666.984 288.882L590.582 332.993C589.684 333.516 588.954 333.141 588.954 332.164C588.993 331.617 589.161 331.087 589.444 330.617C589.727 330.148 590.117 329.751 590.582 329.46V329.46Z" fill="white"/>
    <path d="M590.582 357.763L627.155 336.664C628.053 336.141 628.783 336.516 628.783 337.493C628.743 338.042 628.575 338.573 628.292 339.044C628.009 339.515 627.619 339.914 627.155 340.207L590.582 361.296C589.684 361.819 588.954 361.454 588.954 360.477C588.994 359.929 589.163 359.398 589.445 358.926C589.728 358.455 590.118 358.057 590.582 357.763V357.763Z" fill="#E0E0E0"/>
    <path d="M648.806 253.385L679.24 235.75C680.138 235.227 680.868 235.602 680.868 236.579C680.829 237.126 680.661 237.656 680.378 238.126C680.095 238.596 679.705 238.992 679.24 239.283L648.806 256.928C647.898 257.451 647.168 257.076 647.168 256.099C647.208 255.549 647.378 255.017 647.662 254.546C647.947 254.074 648.339 253.677 648.806 253.385V253.385Z" fill="#FE9417"/>
    <path d="M566.069 456.812L642.47 412.701C643.369 412.187 644.109 412.553 644.109 413.53C644.067 414.078 643.897 414.61 643.612 415.081C643.328 415.552 642.937 415.95 642.47 416.243L566.069 460.355C565.171 460.868 564.441 460.503 564.441 459.526C564.481 458.978 564.649 458.447 564.932 457.976C565.215 457.504 565.604 457.106 566.069 456.812V456.812Z" fill="#FE9417"/>
    <path d="M648.806 409.049L679.24 391.404C680.138 390.881 680.868 391.247 680.868 392.224C680.828 392.772 680.66 393.303 680.377 393.774C680.094 394.246 679.705 394.644 679.24 394.937L648.806 412.572C647.898 413.095 647.168 412.73 647.168 411.753C647.21 411.206 647.38 410.676 647.665 410.206C647.949 409.736 648.34 409.34 648.806 409.049V409.049Z" fill="#FE9417"/>
    <path d="M648.806 366.664L679.24 349.03C680.138 348.506 680.868 348.881 680.868 349.858C680.828 350.407 680.66 350.938 680.377 351.409C680.094 351.88 679.705 352.279 679.24 352.572L648.806 370.207C647.898 370.73 647.168 370.355 647.168 369.378C647.208 368.829 647.378 368.297 647.662 367.825C647.947 367.354 648.339 366.956 648.806 366.664Z" fill="#FE9417"/>
    <path d="M648.806 380.816L679.24 363.181C680.138 362.658 680.868 363.023 680.868 364C680.828 364.548 680.66 365.079 680.377 365.55C680.094 366.022 679.705 366.42 679.24 366.714L648.806 384.358C647.898 384.872 647.168 384.506 647.168 383.529C647.208 382.98 647.378 382.448 647.662 381.977C647.947 381.505 648.339 381.107 648.806 380.816Z" fill="#FE9417"/>
    <path d="M622.852 381.605L639.944 371.737C640.852 371.214 641.582 371.589 641.582 372.566C641.542 373.115 641.372 373.647 641.088 374.119C640.803 374.59 640.411 374.988 639.944 375.28L622.852 385.148C621.944 385.671 621.214 385.296 621.214 384.319C621.254 383.77 621.424 383.238 621.708 382.766C621.993 382.295 622.385 381.897 622.852 381.605V381.605Z" fill="#FE9417"/>
    <path d="M566.069 315.339L610.595 289.592C611.494 289.069 612.224 289.444 612.224 290.411C612.184 290.96 612.016 291.491 611.734 291.962C611.451 292.434 611.061 292.832 610.595 293.125L566.069 318.872C565.171 319.395 564.441 319.03 564.441 318.053C564.481 317.504 564.649 316.973 564.932 316.502C565.215 316.031 565.604 315.632 566.069 315.339Z" fill="#FE9417"/>
    <path opacity="0.6" d="M566.069 315.339L610.595 289.592C611.494 289.069 612.224 289.444 612.224 290.411C612.184 290.96 612.016 291.491 611.734 291.962C611.451 292.434 611.061 292.832 610.595 293.125L566.069 318.872C565.171 319.395 564.441 319.03 564.441 318.053C564.481 317.504 564.649 316.973 564.932 316.502C565.215 316.031 565.604 315.632 566.069 315.339Z" fill="white"/>
    <path d="M566.069 329.461L581.188 320.727C582.096 320.204 582.826 320.569 582.826 321.546C582.791 322.102 582.625 322.642 582.34 323.121C582.055 323.6 581.66 324.004 581.188 324.299L566.069 333.043C565.171 333.556 564.441 333.191 564.441 332.214C564.475 331.659 564.64 331.12 564.923 330.641C565.207 330.162 565.599 329.758 566.069 329.461V329.461Z" fill="#FE9417"/>
    <path opacity="0.6" d="M566.069 329.461L581.188 320.727C582.096 320.204 582.826 320.569 582.826 321.546C582.791 322.102 582.625 322.642 582.34 323.121C582.055 323.6 581.66 324.004 581.188 324.299L566.069 333.043C565.171 333.556 564.441 333.191 564.441 332.214C564.475 331.659 564.64 331.12 564.923 330.641C565.207 330.162 565.599 329.758 566.069 329.461V329.461Z" fill="white"/>
    <path d="M566.069 343.612L581.188 334.878C582.096 334.355 582.826 334.72 582.826 335.697C582.785 336.247 582.616 336.779 582.331 337.25C582.047 337.722 581.655 338.119 581.188 338.411L566.069 347.155C565.171 347.678 564.441 347.303 564.441 346.326C564.481 345.777 564.649 345.246 564.932 344.775C565.215 344.304 565.604 343.905 566.069 343.612V343.612Z" fill="#FE9417"/>
    <path opacity="0.6" d="M566.069 343.612L581.188 334.878C582.096 334.355 582.826 334.72 582.826 335.697C582.785 336.247 582.616 336.779 582.331 337.25C582.047 337.722 581.655 338.119 581.188 338.411L566.069 347.155C565.171 347.678 564.441 347.303 564.441 346.326C564.481 345.777 564.649 345.246 564.932 344.775C565.215 344.304 565.604 343.905 566.069 343.612V343.612Z" fill="white"/>
    <path d="M566.069 357.763L581.188 349.029C582.096 348.506 582.826 348.872 582.826 349.849C582.785 350.398 582.616 350.93 582.331 351.401C582.047 351.873 581.655 352.271 581.188 352.562L566.069 361.306C565.171 361.829 564.441 361.454 564.441 360.477C564.481 359.929 564.649 359.398 564.932 358.926C565.215 358.455 565.604 358.056 566.069 357.763V357.763Z" fill="#FE9417"/>
    <path opacity="0.6" d="M566.069 357.763L581.188 349.02C582.096 348.497 582.826 348.872 582.826 349.849C582.785 350.398 582.616 350.93 582.331 351.401C582.047 351.873 581.655 352.271 581.188 352.562L566.069 361.296C565.171 361.819 564.441 361.454 564.441 360.477C564.481 359.929 564.649 359.398 564.932 358.926C565.215 358.455 565.604 358.057 566.069 357.763V357.763Z" fill="white"/>
    <path d="M590.582 343.612L635.148 317.865C636.046 317.342 636.776 317.707 636.776 318.684C636.736 319.232 636.568 319.763 636.285 320.235C636.002 320.706 635.613 321.104 635.148 321.398L590.582 347.145C589.684 347.668 588.954 347.302 588.954 346.325C588.993 345.777 589.161 345.246 589.444 344.774C589.727 344.303 590.117 343.904 590.582 343.612V343.612Z" fill="#FE9417"/>
    <path d="M641.474 314.204L660.855 303.053C661.753 302.53 662.484 302.905 662.484 303.882C662.443 304.43 662.275 304.961 661.992 305.432C661.71 305.904 661.32 306.302 660.855 306.595L641.474 317.747C640.576 318.27 639.846 317.895 639.846 316.918C639.886 316.37 640.054 315.838 640.337 315.367C640.62 314.896 641.009 314.497 641.474 314.204Z" fill="#FE9417"/>
    <path d="M566.069 371.914L581.188 363.181C582.096 362.658 582.826 363.023 582.826 364C582.788 364.553 582.62 365.088 582.335 365.564C582.051 366.039 581.657 366.44 581.188 366.733L566.069 375.477C565.171 376 564.441 375.625 564.441 374.648C564.478 374.096 564.645 373.561 564.928 373.086C565.211 372.611 565.602 372.21 566.069 371.914V371.914Z" fill="#FE9417"/>
    <path opacity="0.6" d="M566.069 371.914L581.188 363.181C582.096 362.658 582.826 363.023 582.826 364C582.788 364.553 582.62 365.088 582.335 365.564C582.051 366.039 581.657 366.44 581.188 366.733L566.069 375.477C565.171 376 564.441 375.625 564.441 374.648C564.478 374.096 564.645 373.561 564.928 373.086C565.211 372.611 565.602 372.21 566.069 371.914V371.914Z" fill="white"/>
    <path d="M616.961 285.931L636.342 274.78C637.24 274.266 637.98 274.632 637.98 275.609C637.938 276.157 637.768 276.689 637.484 277.16C637.199 277.631 636.808 278.029 636.342 278.322L616.961 289.474C616.063 289.997 615.332 289.622 615.332 288.645C615.372 288.097 615.541 287.565 615.824 287.094C616.106 286.623 616.496 286.224 616.961 285.931V285.931Z" fill="#FE9417"/>
    <path opacity="0.6" d="M616.961 285.931L636.342 274.78C637.24 274.266 637.98 274.632 637.98 275.609C637.938 276.157 637.768 276.689 637.484 277.16C637.199 277.631 636.808 278.029 636.342 278.322L616.961 289.474C616.063 289.997 615.332 289.622 615.332 288.645C615.372 288.097 615.541 287.565 615.824 287.094C616.106 286.623 616.496 286.224 616.961 285.931V285.931Z" fill="white"/>
    <path d="M608.967 361.276L653.533 335.53C654.431 335.007 655.161 335.382 655.161 336.359C655.121 336.907 654.953 337.438 654.67 337.909C654.387 338.381 653.998 338.779 653.533 339.072L608.967 364.819C608.069 365.332 607.339 364.967 607.339 363.99C607.379 363.442 607.547 362.911 607.83 362.439C608.113 361.968 608.502 361.57 608.967 361.276V361.276Z" fill="#E0E0E0"/>
    <path d="M634.674 360.645L679.24 334.898C680.138 334.375 680.878 334.75 680.878 335.727C680.837 336.275 680.667 336.805 680.383 337.275C680.098 337.745 679.707 338.141 679.24 338.431L634.674 364.178C633.776 364.701 633.046 364.335 633.046 363.359C633.086 362.81 633.255 362.279 633.537 361.808C633.82 361.337 634.21 360.938 634.674 360.645V360.645Z" fill="white"/>
    <path d="M659.859 331.878L679.24 320.727C680.138 320.204 680.869 320.569 680.869 321.546C680.828 322.094 680.66 322.625 680.377 323.097C680.094 323.568 679.705 323.966 679.24 324.26L659.859 335.411C658.961 335.934 658.23 335.569 658.23 334.592C658.27 334.044 658.438 333.512 658.721 333.041C659.003 332.569 659.393 332.171 659.859 331.878V331.878Z" fill="#E0E0E0"/>
    <path d="M659.859 387.931L679.24 376.78C680.138 376.257 680.869 376.622 680.869 377.599C680.828 378.147 680.66 378.678 680.377 379.149C680.094 379.621 679.705 380.019 679.24 380.312L659.859 391.464C658.961 391.987 658.23 391.612 658.23 390.635C658.27 390.088 658.438 389.558 658.721 389.088C659.004 388.618 659.393 388.222 659.859 387.931V387.931Z" fill="#E0E0E0"/>
    <path d="M590.582 315.309L635.148 289.563C636.046 289.04 636.776 289.415 636.776 290.391C636.736 290.94 636.568 291.471 636.285 291.942C636.002 292.413 635.613 292.812 635.148 293.105L590.582 318.852C589.684 319.365 588.954 319 588.954 318.023C588.994 317.475 589.163 316.944 589.445 316.472C589.728 316.001 590.118 315.603 590.582 315.309Z" fill="#FE9417"/>
    <path opacity="0.6" d="M590.582 315.309L635.148 289.563C636.046 289.04 636.776 289.415 636.776 290.391C636.736 290.94 636.568 291.471 636.285 291.942C636.002 292.413 635.613 292.812 635.148 293.105L590.582 318.852C589.684 319.365 588.954 319 588.954 318.023C588.994 317.475 589.163 316.944 589.445 316.472C589.728 316.001 590.118 315.603 590.582 315.309Z" fill="white"/>
    <path d="M641.474 285.911L660.855 274.76C661.753 274.237 662.484 274.602 662.484 275.579C662.443 276.127 662.275 276.658 661.992 277.13C661.71 277.601 661.32 277.999 660.855 278.293L641.474 289.444C640.576 289.967 639.846 289.602 639.846 288.625C639.883 288.076 640.051 287.544 640.334 287.072C640.617 286.601 641.007 286.203 641.474 285.911V285.911Z" fill="#FE9417"/>
    <path opacity="0.6" d="M641.474 285.911L660.855 274.76C661.753 274.237 662.484 274.602 662.484 275.579C662.443 276.127 662.275 276.658 661.992 277.13C661.71 277.601 661.32 277.999 660.855 278.293L641.474 289.444C640.576 289.967 639.846 289.602 639.846 288.625C639.883 288.076 640.051 287.544 640.334 287.072C640.617 286.601 641.007 286.203 641.474 285.911V285.911Z" fill="white"/>
    <path opacity="0.6" d="M590.582 343.612L635.148 317.865C636.046 317.342 636.776 317.707 636.776 318.684C636.736 319.232 636.568 319.763 636.285 320.235C636.002 320.706 635.613 321.104 635.148 321.398L590.582 347.145C589.684 347.668 588.954 347.302 588.954 346.325C588.993 345.777 589.161 345.246 589.444 344.774C589.727 344.303 590.117 343.904 590.582 343.612V343.612Z" fill="white"/>
    <path opacity="0.6" d="M641.474 314.204L660.855 303.053C661.753 302.53 662.484 302.905 662.484 303.882C662.443 304.43 662.275 304.961 661.992 305.432C661.71 305.904 661.32 306.302 660.855 306.595L641.474 317.747C640.576 318.27 639.846 317.895 639.846 316.918C639.886 316.37 640.054 315.838 640.337 315.367C640.62 314.896 641.009 314.497 641.474 314.204Z" fill="white"/>
    <path d="M742.724 195.023L732.095 201.112L721.408 200.125C721.283 200.114 721.158 200.134 721.043 200.184C721.901 199.681 731.217 194.352 731.602 194.145C731.735 194.065 731.892 194.033 732.046 194.056L742.724 195.023Z" fill="#FE9417"/>
    <path opacity="0.5" d="M742.724 195.023L732.095 201.112L721.408 200.125C721.283 200.114 721.158 200.134 721.043 200.184C721.901 199.681 731.217 194.352 731.602 194.145C731.735 194.065 731.892 194.033 732.046 194.056L742.724 195.023Z" fill="white"/>
    <path d="M775.753 197.155L737.326 174.961L729.688 179.401L732.5 236.421L748.901 255.842L765.303 255.359L772.941 250.918L775.753 197.155Z" fill="#FE9417"/>
    <path opacity="0.5" d="M775.753 197.155L768.125 201.595L729.688 179.401L737.326 174.961L775.753 197.155Z" fill="white"/>
    <path opacity="0.15" d="M775.753 197.155L768.125 201.595L765.303 255.358L772.941 250.918L775.753 197.155Z" fill="black"/>
    <path d="M729.688 179.401L730.753 200.993L721.418 200.174C721.261 200.162 721.103 200.197 720.966 200.274C720.829 200.352 720.719 200.469 720.648 200.61C720.578 200.752 720.552 200.91 720.573 201.067C720.594 201.223 720.662 201.369 720.766 201.487L731.345 212.944L732.5 236.47L748.901 255.891L765.303 255.408L768.125 201.645L729.688 179.401Z" fill="#FE9417"/>
    <path opacity="0.5" d="M748.901 196.059L764.178 204.872L761.928 249.102L748.901 250.069V196.059Z" fill="white"/>
    <path d="M760.546 207.122L758.938 243.349L748.901 243.921L738.875 231.763L738.362 221.53L741.993 223.622L742.29 229.73L748.901 238.01L755.513 237.359L756.638 210.428L737.553 199.405L737.266 193.681L760.546 207.122Z" fill="white"/>
    <path d="M742.724 286.069L732.095 292.158L721.408 291.171C721.284 291.162 721.16 291.178 721.043 291.22C721.901 290.717 731.217 285.388 731.602 285.181C731.737 285.106 731.892 285.074 732.046 285.092L742.724 286.069Z" fill="#FE9417"/>
    <path d="M775.753 288.201L737.326 266.006L729.688 270.447L732.5 327.467L748.901 346.888L765.303 346.404L772.941 341.964L775.753 288.201Z" fill="#FE9417"/>
    <path opacity="0.35" d="M775.753 288.201L768.125 292.631L765.303 346.404L772.941 341.964L775.753 288.201Z" fill="black"/>
    <path d="M729.688 270.447L730.753 292.029L721.418 291.22C721.261 291.208 721.103 291.243 720.966 291.321C720.829 291.398 720.719 291.515 720.648 291.656C720.578 291.798 720.552 291.956 720.573 292.113C720.594 292.269 720.662 292.415 720.766 292.533L731.345 303.99L732.5 327.467L748.901 346.888L765.303 346.404L768.125 292.631L729.688 270.447Z" fill="#FE9417"/>
    <path opacity="0.25" d="M729.688 270.447L730.753 292.029L721.418 291.22C721.261 291.208 721.103 291.243 720.966 291.321C720.829 291.398 720.719 291.515 720.648 291.656C720.578 291.798 720.552 291.956 720.573 292.113C720.594 292.269 720.662 292.415 720.766 292.533L731.345 303.99L732.5 327.467L748.901 346.888L765.303 346.404L768.125 292.631L729.688 270.447Z" fill="black"/>
    <path opacity="0.7" d="M748.901 287.095L764.178 295.918L761.928 340.138L748.901 341.115V287.095Z" fill="#FE9417"/>
    <path d="M737.266 284.727L737.503 290.421L756.638 301.464L756.174 312.694L738.007 302.204L738.243 307.898L755.947 318.122L755.513 328.405L748.901 329.056L742.29 320.766L741.993 314.668L738.362 312.576L738.875 322.809L748.901 334.967L758.938 334.395L760.546 298.158L737.266 284.727Z" fill="white"/>
    <path d="M775.753 379.227L737.326 357.043L729.688 361.474L732.5 418.493L748.901 437.914L765.303 437.431L772.941 432.99L775.753 379.227Z" fill="#FE9417"/>
    <path opacity="0.25" d="M775.753 379.227L768.125 383.668L729.688 361.474L737.326 357.043L775.753 379.227Z" fill="black"/>
    <path opacity="0.55" d="M775.753 379.227L768.125 383.668L765.303 437.431L772.941 432.99L775.753 379.227Z" fill="black"/>
    <path d="M742.724 377.095L732.095 383.184L721.408 382.247C721.283 382.235 721.158 382.256 721.043 382.306C721.901 381.802 731.217 376.464 731.602 376.256C731.739 376.186 731.893 376.155 732.046 376.168L742.724 377.095Z" fill="#FE9417"/>
    <path opacity="0.25" d="M742.724 377.095L732.095 383.184L721.408 382.247C721.283 382.235 721.158 382.256 721.043 382.306C721.901 381.802 731.217 376.464 731.602 376.256C731.739 376.186 731.893 376.155 732.046 376.168L742.724 377.095Z" fill="black"/>
    <path d="M729.688 361.474L730.753 383.066L721.418 382.247C721.261 382.234 721.103 382.269 720.966 382.347C720.829 382.425 720.719 382.542 720.648 382.683C720.578 382.824 720.552 382.983 720.573 383.139C720.594 383.295 720.662 383.441 720.766 383.559L731.345 395.016L732.5 418.493L748.901 437.914L765.303 437.431L768.125 383.668L729.688 361.474Z" fill="#FE9417"/>
    <path opacity="0.4" d="M729.688 361.474L730.753 383.066L721.418 382.247C721.261 382.234 721.103 382.269 720.966 382.347C720.829 382.425 720.719 382.542 720.648 382.683C720.578 382.824 720.552 382.983 720.573 383.139C720.594 383.295 720.662 383.441 720.766 383.559L731.345 395.016L732.5 418.493L748.901 437.914L765.303 437.431L768.125 383.668L729.688 361.474Z" fill="black"/>
    <path opacity="0.5" d="M748.901 378.131L764.178 386.944L761.928 431.174L748.901 432.141V378.131Z" fill="#FE9417"/>
    <path d="M760.546 389.194L737.266 375.753L738.243 398.934L755.947 409.148L755.513 419.441L748.901 420.082L742.29 411.803L741.993 405.694L738.362 403.602L738.875 413.845L748.901 425.993L758.938 425.421L759.796 405.812L741.638 395.332L741.165 383.569L760.26 394.592L760.546 389.194Z" fill="white"/>
    <path d="M575.375 494.214C572.612 502.464 570.244 513.122 566.494 529.177C562.99 544.217 562.971 554.835 567.836 558.487C572.701 562.138 586.645 559.908 595.467 541.118C598.23 535.197 608.622 517.089 608.622 517.089C608.622 517.089 616.319 514.316 618.974 512.233C618.974 512.233 644.632 512.983 657.105 510.427C669.579 507.872 682.842 492.664 677.73 491.145C668.553 488.441 644.099 487.414 623.385 486.082L575.375 494.214Z" fill="#37474F"/>
    <path d="M644.888 507.21C639.273 508.513 630.954 506.776 626.267 505.414C626.546 503.776 626.493 502.097 626.109 500.48C625.848 502.679 625.139 504.802 624.026 506.717C623.257 507.151 622.605 507.516 622.132 507.763C619.013 509.352 610.447 513.733 608.859 512.352C606.468 509.263 603.07 507.108 599.257 506.263C601.941 508.069 609.717 513.645 606.954 520.079L608.642 517.118C608.642 517.118 616.339 514.345 618.993 512.263C618.993 512.263 633.352 512.677 645.796 511.829L660.599 501.595C660.599 501.595 653.493 501.151 644.888 507.21Z" fill="#263238"/>
    <path d="M630.5 524.717C628.629 526.553 626.339 527.908 623.829 528.664C623.003 528.847 622.148 528.847 621.322 528.664C618.441 528.062 613.822 528.072 612.204 533.826C610.378 540.349 603.086 543.447 601.142 547.918C600.155 550.148 599.661 556.612 600.609 560.589C601.398 563.845 607.704 561.427 610.043 557.451C612.382 553.474 617.395 548.233 620.701 545.214C626.079 542.184 632.049 537.743 634.595 535.957L630.5 524.717Z" fill="#F28F8F"/>
    <path d="M668.434 488.924C684.984 490.03 685.546 498.793 681.411 505.464C676.961 512.618 660.688 522.24 651.806 527.332C643.704 532 629.878 540.27 629.878 540.27C629.878 540.27 622.882 534.802 623.79 528.654C632.947 522.27 645.283 504.092 660.549 501.566L668.434 488.924Z" fill="#263238"/>
    <path d="M603.105 562.592C602.153 562.735 601.183 562.509 600.392 561.96C599.651 561.437 598.013 556.829 599.405 551.243C600.423 547.097 602.536 543.3 605.523 540.25C607.329 538.335 607.98 536.135 608.632 533.342C609.283 530.549 611.316 527.125 612.727 526.74C614.138 526.355 616.28 527.45 616.28 527.45L603.105 562.592Z" fill="#263238"/>
    <path d="M624.924 542.855C624.579 544.631 623.119 545.085 621.549 545.707C619.408 546.556 617.375 548.766 615.441 551.233C614.128 552.911 613.043 554.589 611.849 556.345C610.655 558.102 609.648 560.638 608.365 561.98C606.48 563.954 602.671 563.579 601.625 560.786C600.717 558.378 600.332 552.398 603.076 546.674C604.576 543.546 608.721 540.516 609.806 536.263C610.526 533.421 611.523 530.036 613.615 527.875C614.859 526.592 615.994 526.888 617.563 527.342C619.625 527.912 621.721 528.35 623.839 528.654C623.793 530.409 623.264 532.116 622.309 533.589C621.932 534.057 621.663 534.603 621.52 535.187C621.482 535.592 621.519 536 621.628 536.391C621.747 536.944 621.944 537.585 622.487 537.743C622.713 537.774 622.94 537.791 623.168 537.793C624.017 537.901 624.431 538.878 624.648 539.707C624.925 540.597 625.042 541.529 624.994 542.46C624.978 542.593 624.955 542.725 624.924 542.855Z" fill="#FE9417"/>
    <path opacity="0.4" d="M624.924 542.855C624.579 544.631 623.119 545.085 621.549 545.707C619.408 546.556 617.375 548.766 615.441 551.233C614.128 552.911 613.043 554.589 611.849 556.345C610.655 558.102 609.648 560.638 608.365 561.98C606.48 563.954 602.671 563.579 601.625 560.786C600.717 558.378 600.332 552.398 603.076 546.674C604.576 543.546 608.721 540.516 609.806 536.263C610.526 533.421 611.523 530.036 613.615 527.875C614.859 526.592 615.994 526.888 617.563 527.342C619.625 527.912 621.721 528.35 623.839 528.654C623.793 530.409 623.264 532.116 622.309 533.589C621.932 534.057 621.663 534.603 621.52 535.187C621.482 535.592 621.519 536 621.628 536.391C621.747 536.944 621.944 537.585 622.487 537.743C622.713 537.774 622.94 537.791 623.168 537.793C624.017 537.901 624.431 538.878 624.648 539.707C624.925 540.597 625.042 541.529 624.994 542.46C624.978 542.593 624.955 542.725 624.924 542.855Z" fill="black"/>
    <path d="M617.375 548.934C617.787 548.803 618.159 548.571 618.457 548.259C618.755 547.947 618.97 547.565 619.082 547.148C619.526 545.944 618.994 543.575 618.095 542.016C618.023 541.858 617.909 541.722 617.767 541.622C617.624 541.522 617.458 541.462 617.285 541.447C617.111 541.432 616.937 541.463 616.78 541.537C616.622 541.611 616.487 541.725 616.388 541.868V541.868C616.254 542.035 616.175 542.239 616.161 542.453C616.147 542.666 616.199 542.879 616.309 543.062C617.419 544.805 617.802 546.913 617.375 548.934Z" fill="#F5F5F5"/>
    <path d="M614.543 552.418C614.973 552.213 615.347 551.908 615.634 551.529C615.921 551.149 616.112 550.706 616.191 550.237C616.44 548.304 616.071 546.341 615.135 544.631C615.059 544.484 614.946 544.358 614.809 544.266C614.671 544.174 614.512 544.117 614.347 544.103C614.181 544.088 614.015 544.115 613.863 544.182C613.711 544.248 613.578 544.352 613.477 544.483C613.348 544.643 613.272 544.839 613.259 545.045C613.247 545.25 613.299 545.454 613.408 545.628C614.097 546.601 614.558 547.717 614.754 548.893C614.951 550.069 614.879 551.274 614.543 552.418Z" fill="#F5F5F5"/>
    <path d="M611.849 556.345C612.256 556.096 612.605 555.763 612.872 555.368C613.139 554.974 613.319 554.526 613.398 554.056C613.608 552.184 613.218 550.293 612.283 548.658C612.207 548.51 612.094 548.385 611.957 548.292C611.819 548.2 611.66 548.144 611.495 548.129C611.329 548.114 611.163 548.141 611.011 548.208C610.859 548.274 610.726 548.378 610.625 548.51V548.51C610.493 548.67 610.416 548.868 610.404 549.076C610.391 549.283 610.445 549.489 610.556 549.664C611.281 550.598 611.776 551.69 612 552.85C612.225 554.011 612.173 555.208 611.849 556.345V556.345Z" fill="#F5F5F5"/>
    <path d="M623.898 527.164C626.859 526.424 631.142 525.378 632.918 523.029C634.694 520.681 638.395 518.411 643.388 521.697C646.546 523.779 650.296 524.46 654.046 524.707C655.714 524.667 657.383 524.746 659.04 524.944C661.011 525.483 662.878 526.347 664.566 527.5C665.634 528.1 666.57 528.909 667.319 529.878C667.929 530.786 668.262 531.851 668.277 532.944C668.293 534.037 667.991 535.111 667.408 536.036C667.205 536.369 666.94 536.66 666.628 536.895C666.239 537.169 665.795 537.354 665.326 537.437C663.599 537.822 662.158 537.279 660.53 536.825C659.178 536.45 657.796 536.164 656.424 535.918C653.302 535.333 650.143 534.963 646.97 534.812C645.618 534.763 642.806 534.546 641.454 534.645C635.809 535.029 627.826 538.207 627.826 538.207L623.898 527.164Z" fill="#FFA8A7"/>
    <path d="M565.201 554.233C566.128 559.937 572.533 562.691 586.26 559.947C599.987 557.204 632.642 536.628 632.642 536.628C632.642 536.628 631.369 528.733 623.859 526.622C623.859 526.622 617.03 527.865 605.878 530.293C600.851 531.398 595.887 532.771 591.007 534.408C583.467 544.523 575.632 540.437 572.809 543.99C568.161 549.901 565.201 554.233 565.201 554.233Z" fill="#37474F"/>
    <path d="M668.819 536.352C669.631 535.83 670.214 535.018 670.448 534.082C670.655 533.204 668.859 528.664 664.142 525.349C660.643 522.905 656.554 521.443 652.299 521.115C649.684 520.868 647.74 519.645 645.392 517.987C643.043 516.329 639.283 515.085 637.961 515.727C636.638 516.368 635.76 518.599 635.76 518.599L668.819 536.352Z" fill="#263238"/>
    <path d="M639.421 535.878C640.852 536.983 642.253 536.362 643.842 535.799C646.013 535.029 649.003 535.345 652.082 535.927C654.174 536.322 656.099 536.914 658.151 537.408C660.204 537.901 662.632 539.184 664.487 539.381C667.191 539.608 669.816 536.826 668.77 534.043C667.862 531.635 664.211 526.878 658.369 524.381C655.191 523.02 650.079 523.464 646.457 520.987C644.04 519.329 641.059 517.424 638.059 517.187C636.283 517.039 635.632 518.026 634.744 519.378C633.569 521.168 632.284 522.881 630.895 524.51C632.091 525.806 633.62 526.748 635.316 527.233C635.906 527.341 636.467 527.569 636.964 527.904C637.256 528.19 637.496 528.524 637.674 528.891C637.951 529.375 638.217 529.997 637.911 530.47C637.763 530.641 637.605 530.803 637.438 530.954C636.875 531.605 637.211 532.602 637.586 533.372C637.968 534.223 638.495 535.001 639.145 535.671C639.233 535.745 639.325 535.814 639.421 535.878V535.878Z" fill="#FE9417"/>
    <path opacity="0.4" d="M639.421 535.878C640.852 536.983 642.253 536.362 643.842 535.799C646.013 535.029 649.003 535.345 652.082 535.927C654.174 536.322 656.099 536.914 658.151 537.408C660.204 537.901 662.632 539.184 664.487 539.381C667.191 539.608 669.816 536.826 668.77 534.043C667.862 531.635 664.211 526.878 658.369 524.381C655.191 523.02 650.079 523.464 646.457 520.987C644.04 519.329 641.059 517.424 638.059 517.187C636.283 517.039 635.632 518.026 634.744 519.378C633.569 521.168 632.284 522.881 630.895 524.51C632.091 525.806 633.62 526.748 635.316 527.233C635.906 527.341 636.467 527.569 636.964 527.904C637.256 528.19 637.496 528.524 637.674 528.891C637.951 529.375 638.217 529.997 637.911 530.47C637.763 530.641 637.605 530.803 637.438 530.954C636.875 531.605 637.211 532.602 637.586 533.372C637.968 534.223 638.495 535.001 639.145 535.671C639.233 535.745 639.325 535.814 639.421 535.878V535.878Z" fill="black"/>
    <path d="M649.082 535.483C648.688 535.657 648.255 535.727 647.826 535.689C647.396 535.652 646.983 535.506 646.625 535.266C645.49 534.654 644.336 532.523 643.98 530.756C643.931 530.589 643.927 530.411 643.969 530.242C644.011 530.073 644.097 529.917 644.218 529.792C644.34 529.666 644.492 529.575 644.66 529.528C644.828 529.481 645.006 529.479 645.174 529.523V529.523C645.383 529.56 645.576 529.66 645.726 529.81C645.876 529.96 645.976 530.153 646.013 530.362C646.326 532.405 647.428 534.244 649.082 535.483V535.483Z" fill="#F5F5F5"/>
    <path d="M653.543 536.233C653.083 536.363 652.599 536.38 652.132 536.282C651.664 536.184 651.228 535.974 650.859 535.671C649.393 534.375 648.377 532.647 647.957 530.737C647.925 530.58 647.931 530.418 647.975 530.264C648.019 530.11 648.1 529.969 648.211 529.854C648.322 529.738 648.459 529.651 648.611 529.6C648.763 529.55 648.924 529.537 649.082 529.562V529.562C649.284 529.599 649.47 529.697 649.613 529.844C649.756 529.991 649.85 530.179 649.882 530.381C650.014 531.569 650.412 532.712 651.045 533.725C651.679 534.738 652.533 535.595 653.543 536.233V536.233Z" fill="#F5F5F5"/>
    <path d="M658.151 537.457C657.681 537.538 657.2 537.518 656.738 537.397C656.277 537.276 655.847 537.058 655.477 536.756C654.087 535.486 653.136 533.806 652.763 531.96C652.724 531.8 652.725 531.632 652.768 531.472C652.811 531.312 652.893 531.165 653.007 531.046C653.121 530.926 653.263 530.836 653.42 530.786C653.578 530.735 653.746 530.725 653.908 530.756C654.112 530.791 654.299 530.889 654.444 531.036C654.59 531.183 654.685 531.371 654.717 531.576C654.79 532.756 655.139 533.903 655.735 534.924C656.332 535.946 657.159 536.813 658.151 537.457Z" fill="#F5F5F5"/>
    <path d="M600.52 531.536C600.52 531.536 591.303 533.342 584.464 537.941C584.464 537.941 591.49 529.71 602.346 528.24L600.52 531.536Z" fill="#263238"/>
    <path d="M635.04 461.253L623.553 428.806L620.523 429.891L622.339 465.733L624.313 471.062C629.454 468.378 633.648 466.404 635.04 461.253Z" fill="#FFA8A7"/>
    <path d="M608.02 420.279C615.135 420.358 621.628 422.944 624.322 428.52C627.017 434.095 635.267 459.427 635.267 459.427C635.267 459.427 628.497 467.391 618.49 466.75L608.02 420.279Z" fill="#FE9417"/>
    <path opacity="0.1" d="M608.02 420.279C615.135 420.358 621.628 422.944 624.322 428.52C627.017 434.095 635.267 459.427 635.267 459.427C635.267 459.427 628.497 467.391 618.49 466.75L608.02 420.279Z" fill="black"/>
    <path d="M593.424 420.714C583.447 422.559 576.796 424.661 574.911 426.526C570.668 435.22 576.184 464.362 576.184 464.362L577.171 478.227L575.415 494.214C586.201 503.332 619.211 498.852 625.092 486.082C625.092 486.082 623.444 444.516 623.444 437.145C623.444 429.773 619.359 420.941 608.059 420.279L593.424 420.714Z" fill="#FAFAFA"/>
    <path d="M586.161 487.947C583.27 483.516 583.388 472.247 583.388 472.247C583.388 472.247 588.441 442.839 587.276 435.832L573.944 448.641C574.793 457.059 576.184 464.431 576.184 464.431L577.171 478.296L575.415 494.283C584.04 501.576 606.875 500.204 618.688 492.773C601.349 499.651 589.043 492.378 586.161 487.947Z" fill="#EBEBEB"/>
    <path d="M587.898 397.326C587.898 397.326 589.398 408.388 590.197 410.243C590.734 411.391 591.692 412.289 592.872 412.75L593.286 405.082L587.898 397.326Z" fill="#263238"/>
    <path d="M591.993 381.901C591.191 381.744 590.362 381.772 589.572 381.984C588.782 382.196 588.05 382.586 587.434 383.125C585.382 384.931 585.993 391.118 587.918 397.276L592.25 398.105L591.993 381.901Z" fill="#263238"/>
    <path d="M593.553 398.204C592.645 398.658 591.52 396.891 590.523 395.677C589.526 394.464 586.122 392.658 584.089 396.23C582.056 399.802 584.977 405.112 587.691 406.187C592.359 408.043 593.306 405.033 593.306 405.033L592.319 422.638C596.651 432.072 613.941 428.707 608.04 422.224L608.355 417.753C610.744 418.105 613.155 418.287 615.569 418.296C619.132 418.01 620.75 415.691 622.102 411.96C624.273 405.98 625.299 401.105 624.737 388.957C624.135 375.664 608.819 374.381 600.155 378.97C591.49 383.559 593.553 398.204 593.553 398.204Z" fill="#FFA8A7"/>
    <path d="M593.247 374.747C596.243 373.723 599.345 373.038 602.494 372.704C609.283 371.717 616.191 370.927 622.526 368.293C623.273 367.883 624.126 367.708 624.974 367.789C626.573 368.115 627.125 370.118 627.066 371.737C627.017 373.248 626.71 374.74 626.158 376.148C626.678 375.716 627.348 375.508 628.021 375.569C628.695 375.63 629.316 375.955 629.75 376.474C630.16 377.012 630.442 377.636 630.573 378.3C630.705 378.964 630.683 379.649 630.51 380.302C630.114 381.769 629.368 383.117 628.337 384.233C627.306 385.348 626.02 386.197 624.589 386.707C621.721 387.708 618.672 388.082 615.648 387.802C611.423 387.607 607.229 386.972 603.135 385.908C602.158 385.585 601.133 385.435 600.105 385.464C599.589 385.481 599.088 385.644 598.66 385.934C598.233 386.224 597.895 386.629 597.688 387.102C597.125 388.73 595.813 400.01 593.484 399.931C593.049 399.931 591.619 396.97 590.612 395.845C589.359 394.464 588.727 384.664 588.638 382.858C588.615 382.717 588.561 382.582 588.48 382.464C587.119 380.214 589.171 376.76 591.135 375.733C591.82 375.366 592.525 375.037 593.247 374.747V374.747Z" fill="#263238"/>
    <path d="M589.309 382.641C588.713 383.245 587.901 383.586 587.052 383.591C586.203 383.595 585.388 383.263 584.785 382.666C584.181 382.069 583.84 381.257 583.835 380.409C583.831 379.56 584.163 378.745 584.76 378.141L589.309 382.641Z" fill="#263238"/>
    <path d="M608.345 417.753C608.345 417.753 600.559 416.411 597.924 414.793C596.375 413.83 595.151 412.424 594.411 410.756C594.703 412.394 595.324 413.955 596.237 415.345C598.053 418.059 608.128 420.714 608.128 420.714L608.345 417.753Z" fill="#F28F8F"/>
    <path d="M609.135 397.326C609.099 397.633 608.974 397.923 608.775 398.16C608.575 398.397 608.311 398.57 608.014 398.658C607.717 398.745 607.401 398.744 607.105 398.654C606.809 398.563 606.546 398.388 606.349 398.149C606.152 397.91 606.029 397.619 605.997 397.311C605.964 397.003 606.022 396.693 606.164 396.418C606.307 396.143 606.526 395.916 606.797 395.765C607.067 395.614 607.376 395.546 607.684 395.569C607.895 395.589 608.1 395.65 608.287 395.749C608.474 395.848 608.639 395.983 608.774 396.146C608.909 396.309 609.01 396.498 609.072 396.7C609.134 396.902 609.155 397.115 609.135 397.326V397.326Z" fill="#263238"/>
    <path d="M607.911 391.247L604.408 392.855C604.201 392.375 604.189 391.833 604.373 391.344C604.557 390.854 604.923 390.455 605.395 390.23C605.626 390.127 605.876 390.071 606.129 390.067C606.383 390.062 606.634 390.109 606.869 390.204C607.104 390.298 607.317 390.44 607.496 390.619C607.675 390.798 607.817 391.012 607.911 391.247V391.247Z" fill="#263238"/>
    <path d="M608.345 408.26L611.839 409.878C611.74 410.112 611.596 410.324 611.414 410.501C611.232 410.678 611.016 410.816 610.78 410.909C610.543 411.001 610.291 411.044 610.037 411.037C609.783 411.029 609.533 410.971 609.303 410.865C608.832 410.644 608.468 410.247 608.289 409.759C608.11 409.271 608.13 408.733 608.345 408.26V408.26Z" fill="#F28F8F"/>
    <path d="M623.069 393.733L620.178 391.138C620.337 390.941 620.534 390.779 620.758 390.661C620.982 390.543 621.228 390.472 621.48 390.452C621.732 390.433 621.986 390.465 622.225 390.548C622.465 390.63 622.685 390.76 622.872 390.931C623.257 391.284 623.492 391.771 623.529 392.293C623.566 392.814 623.401 393.33 623.069 393.733V393.733Z" fill="#263238"/>
    <path d="M621.816 397.839C621.78 398.146 621.655 398.436 621.456 398.673C621.256 398.91 620.992 399.083 620.695 399.171C620.398 399.259 620.082 399.257 619.786 399.167C619.49 399.076 619.227 398.901 619.03 398.662C618.833 398.423 618.71 398.132 618.677 397.824C618.645 397.516 618.703 397.206 618.845 396.931C618.987 396.656 619.207 396.429 619.478 396.278C619.748 396.127 620.057 396.059 620.365 396.082C620.79 396.125 621.18 396.333 621.452 396.662C621.724 396.991 621.854 397.414 621.816 397.839Z" fill="#263238"/>
    <path d="M613.793 396.22L613.595 405.714L618.668 404.401L613.793 396.22Z" fill="#F28F8F"/>
    <path d="M563.385 492.96C556.99 486.526 555.964 484.424 556.832 480.408C558.549 472.513 565.566 447.24 568.23 439.73C571.576 430.296 573.066 426.526 578.632 425.312C583.122 428.865 587.513 442.168 581.474 454.148L574.191 480.299" fill="#FFA8A7"/>
    <path d="M583.408 422.983C574.813 423.97 571.171 427.444 568.072 436.73C564.974 446.016 559.526 467.391 559.526 467.391C559.526 467.391 566.74 475.207 576.855 474.388L585.283 446.46C585.283 446.46 591.214 426.151 583.408 422.983Z" fill="#FE9417"/>
    <path opacity="0.1" d="M583.408 422.983C574.813 423.97 571.171 427.444 568.072 436.73C564.974 446.016 559.526 467.391 559.526 467.391C559.526 467.391 566.74 475.207 576.855 474.388L585.283 446.46C585.283 446.46 591.214 426.151 583.408 422.983Z" fill="black"/>
    <path d="M581.415 519.181V520.168C581.417 520.663 581.548 521.149 581.796 521.578C582.043 522.007 582.398 522.365 582.826 522.615L609.727 538.089C610.155 538.335 610.64 538.464 611.133 538.464C611.627 538.464 612.112 538.335 612.54 538.089L661.882 509.599C662.311 509.353 662.668 508.998 662.916 508.57C663.164 508.142 663.294 507.656 663.293 507.161V506.47L611.138 536.589L581.415 519.181Z" fill="#EBEBEB"/>
    <path d="M663.293 506.48L634.043 489.595C633.787 489.445 633.496 489.366 633.199 489.366C632.902 489.366 632.611 489.445 632.355 489.595L581.602 518.895C581.545 518.927 581.497 518.975 581.464 519.032C581.431 519.089 581.413 519.154 581.413 519.22C581.413 519.286 581.431 519.351 581.464 519.408C581.497 519.466 581.545 519.513 581.602 519.546L611.138 536.598L663.293 506.48Z" fill="#FAFAFA"/>
    <path d="M650.286 489.368C646.27 482.243 635.04 461.253 635.04 461.253L624.322 471.122C628.694 479.391 640.566 496.029 640.566 496.029C646.023 499.592 652.595 493.473 650.286 489.368Z" fill="#FFA8A7"/>
    <path d="M610.862 534.112L595.082 525.013L641.227 498.378L657.086 507.427L610.862 534.112Z" fill="#E0E0E0"/>
    <path d="M603.115 508.799L603.401 508.967L611.138 513.428L624.895 505.493L625.171 505.326L617.148 500.697L603.115 508.799Z" fill="#E0E0E0"/>
    <path d="M603.401 508.967L611.138 513.427L624.895 505.493L617.148 501.023L603.401 508.967Z" fill="#E6E6E6"/>
    <path d="M611.138 536.598V538.444C611.631 538.447 612.115 538.317 612.54 538.069L661.882 509.579C662.311 509.333 662.668 508.978 662.916 508.55C663.164 508.122 663.294 507.636 663.293 507.141V506.45L611.138 536.598Z" fill="#EBEBEB"/>
    <path d="M611.138 536.598V538.444C611.631 538.447 612.115 538.317 612.54 538.069L661.882 509.579C662.311 509.333 662.668 508.978 662.916 508.55C663.164 508.122 663.294 507.636 663.293 507.141V506.45L611.138 536.598Z" fill="#E0E0E0"/>
    <path d="M611.928 537.013C612.393 537.196 612.894 537.271 613.393 537.234C613.892 537.196 614.376 537.047 614.809 536.796L663.934 508.424C664.361 508.18 664.728 507.845 665.01 507.442C665.291 507.04 665.48 506.58 665.563 506.095L670.941 474.023C670.956 473.839 670.956 473.654 670.941 473.47C670.941 473.03 670.854 472.594 670.685 472.187C670.516 471.78 670.267 471.412 669.954 471.102L618.905 500.579C618.589 500.76 618.317 501.009 618.109 501.307C617.901 501.606 617.762 501.947 617.701 502.306L611.928 537.013Z" fill="#FE9417"/>
    <g opacity="0.7">
    <path opacity="0.7" d="M611.928 537.013C612.393 537.196 612.894 537.271 613.393 537.234C613.892 537.196 614.376 537.047 614.809 536.796L663.934 508.424C664.361 508.18 664.728 507.845 665.01 507.442C665.291 507.04 665.48 506.58 665.563 506.095L670.941 474.023C670.956 473.839 670.956 473.654 670.941 473.47C670.941 473.03 670.854 472.594 670.685 472.187C670.516 471.78 670.267 471.412 669.954 471.102L618.905 500.579C618.589 500.76 618.317 501.009 618.109 501.307C617.901 501.606 617.762 501.947 617.701 502.306L611.928 537.013Z" fill="white"/>
    </g>
    <path d="M611.138 536.599L611.474 536.796C611.62 536.878 611.772 536.951 611.928 537.013L617.74 502.306C617.801 501.947 617.941 501.606 618.149 501.307C618.357 501.009 618.628 500.76 618.944 500.579L669.993 471.102C669.79 470.898 669.561 470.723 669.313 470.579L618.155 500.115C617.84 500.296 617.57 500.545 617.363 500.844C617.157 501.143 617.019 501.484 616.961 501.842L611.138 536.599Z" fill="#FAFAFA"/>
    <path d="M639.599 507.408C639.954 505.256 642.174 502.404 644.533 501.033C646.892 499.661 648.54 500.293 648.174 502.444C647.809 504.595 645.599 507.437 643.24 508.809C640.882 510.181 639.214 509.559 639.599 507.408Z" fill="#FE9417"/>
    <path d="M574.191 480.299C574.191 480.299 577.882 486.427 582.145 492.141C586.408 497.855 591.026 503.875 594.48 504.891C597.727 505.878 601.536 506.993 602.641 508.01C605.297 510.704 607.769 513.572 610.043 516.595C611.03 518.283 613.507 521.717 610.043 522.812C606.875 523.799 604.29 522.457 601.724 520.691C600.514 519.825 599.363 518.878 598.28 517.858C595.709 518.14 593.115 517.623 590.849 516.378C588.875 515.273 585.618 513.339 585.618 513.339C582.915 511.483 569.484 499.049 563.385 492.931" fill="#FFA8A7"/>
    <defs>
    <filter id="filter0_f" x="0" y="0.00909424" width="1149.76" height="947.243" filterUnits="userSpaceOnUse" color-interpolation-filters="sRGB">
    <feFlood flood-opacity="0" result="BackgroundImageFix"/>
    <feBlend mode="normal" in="SourceGraphic" in2="BackgroundImageFix" result="shape"/>
    <feGaussianBlur stdDeviation="175" result="effect1_foregroundBlur"/>
    </filter>
    <filter id="filter1_bdd" x="300.237" y="309.711" width="549.763" height="347.243" filterUnits="userSpaceOnUse" color-interpolation-filters="sRGB">
    <feFlood flood-opacity="0" result="BackgroundImageFix"/>
    <feGaussianBlur in="BackgroundImage" stdDeviation="5"/>
    <feComposite in2="SourceAlpha" operator="in" result="effect1_backgroundBlur"/>
    <feColorMatrix in="SourceAlpha" type="matrix" values="0 0 0 0 0 0 0 0 0 0 0 0 0 0 0 0 0 0 127 0"/>
    <feOffset dy="10"/>
    <feGaussianBlur stdDeviation="25"/>
    <feColorMatrix type="matrix" values="0 0 0 0 0 0 0 0 0 0 0 0 0 0 0 0 0 0 0.15 0"/>
    <feBlend mode="normal" in2="effect1_backgroundBlur" result="effect2_dropShadow"/>
    <feColorMatrix in="SourceAlpha" type="matrix" values="0 0 0 0 0 0 0 0 0 0 0 0 0 0 0 0 0 0 127 0"/>
    <feOffset dy="5"/>
    <feColorMatrix type="matrix" values="0 0 0 0 1 0 0 0 0 1 0 0 0 0 1 0 0 0 0.1 0"/>
    <feBlend mode="normal" in2="effect2_dropShadow" result="effect3_dropShadow"/>
    <feBlend mode="normal" in="SourceGraphic" in2="effect3_dropShadow" result="shape"/>
    </filter>
    <linearGradient id="paint0_linear_human" x1="666.119" y1="358.486" x2="580.384" y2="618.423" gradientUnits="userSpaceOnUse">
    <stop stop-color="#1DBBFF"/>
    <stop offset="1" stop-color="#FF1DC0"/>
    </linearGradient>
    </defs>
    </svg>