<svg fill="none" preserveAspectRatio="xMinYMin meet" viewBox="0 0 1482 779" xmlns="http://www.w3.org/2000/svg">
                    <path d="M22.49 43.98C34.3586 43.98 43.98 34.3586 43.98 22.49C43.98 10.6214 34.3586 1 22.49 1C10.6214 1 1 10.6214 1 22.49C1 34.3586 10.6214 43.98 22.49 43.98Z" fill="#FE9417" stroke="#263238" stroke-width="1.04814" stroke-linecap="round" stroke-linejoin="round"/>
                    <path d="M27.16 6.47012C28.572 5.11608 30.2101 4.01954 32 3.23012C30.2321 2.35358 28.3507 1.72756 26.41 1.37012C24.4522 2.75393 22.5973 4.27793 20.86 5.93011C13.35 13.1101 15.43 12.3601 4.35003 16.8301C3.33465 17.2397 2.3575 17.7383 1.43002 18.3201C0.568192 22.5478 1.02187 26.938 2.73003 30.9001C6.73003 29.5801 11.95 27.4801 14.34 24.9701C18.43 20.6701 18.97 14.3701 27.16 6.47012Z" fill="#263238" stroke="#263238" stroke-width="1.04814" stroke-linecap="round" stroke-linejoin="round"/>
                    <path d="M7.25 37.6099C8.91993 39.2949 10.8558 40.6936 12.98 41.7499C16.91 38.8599 18.69 35.8399 24.33 33.1099C29.33 30.7099 37.53 29.9999 42.68 29.8099C43.5985 27.2972 44.0361 24.6343 43.97 21.9599C43.97 21.5899 43.92 21.2299 43.89 20.8599C37.8131 21.484 31.862 23.0038 26.23 25.3699C18.19 28.8199 14.4 34.6699 7.25 37.6099Z" fill="#263238" stroke="#263238" stroke-width="1.04814" stroke-linecap="round" stroke-linejoin="round"/>
                    <path d="M28.07 14.8402C31.91 16.6402 37.73 15.5102 42.26 14.1002C41.3416 11.9331 40.0711 9.93276 38.5 8.18018C32.48 9.47018 22.74 12.3402 28.07 14.8402Z" fill="#263238" stroke="#263238" stroke-width="1.04814" stroke-linecap="round" stroke-linejoin="round"/>
                    <path d="M158.38 287.458C153.38 285.678 148.01 285.158 143.44 288.038C139.57 290.478 137.76 295.928 132.91 296.628C127.14 297.458 126.31 296.268 122.74 298.748C121.723 299.439 120.908 300.389 120.381 301.5C119.854 302.611 119.632 303.842 119.74 305.068C119.74 305.068 123.59 299.938 128.63 300.848C129.273 300.886 129.884 301.144 130.36 301.578C126.61 302.768 122.3 302.418 119.74 305.068C117.205 307.945 115.026 311.118 113.25 314.518C111.7 317.358 108.25 315.898 104.1 319.108C99.95 322.318 97.87 323.608 96.5 327.738C95.13 331.868 93.5 334.058 89.83 335.898C87.5446 337.031 85.1487 337.925 82.68 338.568C82.68 338.568 88.55 340.668 92.21 338.828C95.87 336.988 97.21 335.158 100.26 331.118C103.31 327.078 113.82 327.528 113.82 327.528C113.82 327.528 106.95 329.828 103.38 334.598C99.81 339.368 99.38 343.028 93.32 344.228C88.19 345.228 84.65 344.168 82.01 346.048C79.3987 346.736 77.0886 348.269 75.44 350.408C71.59 355.488 70.74 356.408 65.26 357.518C59.78 358.628 54.71 363.948 51.9 369.348C49.09 374.748 48.8 377.508 41.63 380.418C34.46 383.328 30.69 384.418 27 388.998C25.149 391.194 23.477 393.534 22 395.998C22 395.998 30.27 387.718 40.56 385.778C50.85 383.838 59.12 375.568 60.73 370.358C62.34 365.148 69.55 367.418 76.55 363.308C77.536 362.713 78.4753 362.044 79.36 361.308C79.8137 361.016 80.2186 360.655 80.56 360.238C83.27 357.668 84.88 355.018 87.01 353.368C88.4776 352.882 90.0143 352.639 91.56 352.648C102 352.448 109.7 351.338 112.81 345.648C115.92 339.958 118.11 337.028 123.15 337.938C128.19 338.848 131.94 337.658 133.87 337.378C135.8 337.098 136.98 336.268 132.5 341.498C128.02 346.728 122.5 344.908 120.87 347.108L116.48 352.978C116.48 352.978 120.32 347.838 126 348.658C131.68 349.478 140.3 347.908 142.49 344.968C144.68 342.028 148.99 337.818 152.1 336.708C155.21 335.598 161.17 333.768 162.55 331.918C163.331 330.756 164.229 329.677 165.23 328.698C165.34 333.298 162.1 338.198 158.64 341.088C163.24 339.109 167.274 336.016 170.38 332.088C171.706 330.42 172.846 328.612 173.78 326.698C181.16 311.588 174.41 293.178 158.38 287.458Z" fill="white"/>
                    <path d="M160.55 292.598C160.55 292.598 153.77 289.858 148.41 290.748C143.05 291.638 141.22 295.508 137.86 300.188C134.5 304.868 130.86 305.328 126.78 307.238C124.035 308.428 121.802 310.554 120.48 313.238C120.21 314.108 121.42 312.238 123.89 311.438C125.924 310.92 128.024 310.715 130.12 310.828C128.596 313.526 126.155 315.587 123.24 316.638C118.24 318.568 114.75 319.418 113.05 320.798C111.928 321.818 111.012 323.043 110.35 324.408C109.79 325.188 112.78 321.668 116.84 322.918C120.9 324.168 126.84 323.478 126.84 323.478C126.84 323.478 119.09 324.888 115.99 327.738C112.89 330.588 111.71 334.358 110.34 337.738C108.97 341.118 105.99 340.518 103.73 342.678C102.194 344.292 100.964 346.173 100.1 348.228C102.858 345.899 106.006 344.077 109.4 342.848C114.73 341.008 113.93 339.488 117.29 334.848C120.65 330.208 125.82 329.848 129.88 331.118C133.94 332.388 141.29 330.208 141.29 330.208C141.29 330.208 140.01 333.308 138 333.638C135.99 333.968 138.62 335.738 141.57 334.418C144.52 333.098 145.33 330.498 148.52 331.488C151.71 332.478 152.11 333.238 155.05 331.928C157.99 330.618 162.52 326.298 166.43 324.928C170.34 323.558 173.95 312.928 171.43 305.528C168.91 298.128 160.55 292.598 160.55 292.598Z" fill="#FE9417"/>
                    <path d="M159.93 295.668L154.33 294.008C152.215 293.384 149.945 293.558 147.95 294.498L141.87 297.408C140.284 298.167 138.882 299.263 137.761 300.619C136.64 301.974 135.828 303.557 135.38 305.258L133.11 313.908C133.11 313.908 136.88 324.168 140.64 326.408C144.4 328.648 155.4 327.718 160.16 326.698C164.92 325.678 169.41 320.458 169.77 316.148C170.13 311.838 171.31 306.438 168.46 302.598C165.61 298.758 159.93 295.668 159.93 295.668Z" fill="#263238"/>
                    <path d="M160.7 305.707C160.323 306.211 159.806 306.592 159.212 306.801C158.619 307.011 157.977 307.039 157.368 306.884C156.758 306.728 156.209 306.396 155.788 305.928C155.368 305.46 155.096 304.878 155.006 304.255C154.916 303.633 155.014 302.997 155.285 302.43C155.557 301.863 155.99 301.388 156.531 301.068C157.072 300.747 157.696 300.593 158.324 300.627C158.953 300.661 159.557 300.88 160.06 301.257C160.395 301.507 160.678 301.82 160.892 302.179C161.105 302.538 161.246 302.936 161.305 303.349C161.365 303.763 161.342 304.184 161.238 304.589C161.134 304.993 160.951 305.374 160.7 305.707Z" fill="white" stroke="#263238" stroke-width="1.04814" stroke-linecap="round" stroke-linejoin="round"/>
                    <path d="M148.55 304.398C148.255 304.793 147.85 305.091 147.385 305.256C146.921 305.42 146.418 305.443 145.94 305.322C145.463 305.2 145.032 304.939 144.702 304.573C144.373 304.206 144.16 303.75 144.09 303.263C144.02 302.775 144.096 302.277 144.309 301.833C144.522 301.388 144.862 301.017 145.286 300.766C145.71 300.515 146.199 300.395 146.691 300.422C147.183 300.449 147.656 300.622 148.05 300.918C148.312 301.113 148.533 301.358 148.7 301.639C148.867 301.919 148.977 302.23 149.023 302.554C149.07 302.877 149.052 303.206 148.971 303.523C148.889 303.839 148.746 304.137 148.55 304.398Z" fill="white" stroke="#263238" stroke-width="1.04814" stroke-linecap="round" stroke-linejoin="round"/>
                    <path d="M154.96 315.238C154.682 315.61 154.3 315.892 153.862 316.047C153.424 316.203 152.95 316.225 152.5 316.111C152.049 315.996 151.642 315.751 151.331 315.406C151.02 315.061 150.818 314.632 150.751 314.172C150.684 313.712 150.755 313.242 150.954 312.823C151.154 312.403 151.474 312.052 151.873 311.814C152.272 311.576 152.733 311.462 153.197 311.485C153.661 311.509 154.107 311.67 154.48 311.948C154.728 312.132 154.937 312.363 155.095 312.629C155.253 312.894 155.357 313.188 155.402 313.493C155.446 313.799 155.43 314.11 155.355 314.409C155.279 314.709 155.145 314.99 154.96 315.238Z" fill="white" stroke="#263238" stroke-width="1.04814" stroke-linecap="round" stroke-linejoin="round"/>
                    <path d="M165.44 309.078C165.309 309.254 165.129 309.388 164.923 309.463C164.716 309.537 164.492 309.548 164.279 309.495C164.065 309.442 163.873 309.327 163.725 309.164C163.578 309.001 163.482 308.798 163.449 308.581C163.417 308.364 163.45 308.142 163.544 307.943C163.638 307.745 163.789 307.578 163.977 307.466C164.166 307.353 164.384 307.298 164.603 307.31C164.823 307.321 165.034 307.396 165.21 307.528C165.446 307.703 165.602 307.965 165.645 308.255C165.688 308.546 165.615 308.841 165.44 309.078Z" fill="white" stroke="#263238" stroke-width="1.04814" stroke-linecap="round" stroke-linejoin="round"/>
                    <path d="M146.38 314.697C146.166 314.982 145.873 315.197 145.537 315.315C145.201 315.434 144.838 315.449 144.493 315.361C144.148 315.273 143.837 315.084 143.6 314.819C143.362 314.554 143.208 314.224 143.158 313.872C143.108 313.52 143.163 313.16 143.317 312.839C143.471 312.518 143.717 312.25 144.023 312.069C144.329 311.887 144.682 311.801 145.038 311.82C145.393 311.839 145.735 311.964 146.02 312.177C146.4 312.465 146.65 312.892 146.718 313.363C146.785 313.835 146.664 314.315 146.38 314.697Z" fill="white" stroke="#263238" stroke-width="1.04814" stroke-linecap="round" stroke-linejoin="round"/>
                    <path d="M152.64 299.907C152.42 300.2 152.092 300.394 151.729 300.446C151.367 300.497 150.998 300.402 150.705 300.182C150.412 299.962 150.218 299.635 150.167 299.272C150.115 298.909 150.21 298.54 150.43 298.247C150.539 298.102 150.676 297.98 150.832 297.888C150.988 297.795 151.161 297.735 151.341 297.709C151.52 297.684 151.703 297.694 151.879 297.739C152.055 297.784 152.22 297.863 152.365 297.972C152.51 298.081 152.632 298.218 152.725 298.374C152.817 298.53 152.878 298.703 152.903 298.883C152.929 299.063 152.919 299.246 152.874 299.421C152.828 299.597 152.749 299.762 152.64 299.907Z" fill="white" stroke="#263238" stroke-width="1.04814" stroke-linecap="round" stroke-linejoin="round"/>
                    <path d="M213.251 740.82C220.933 740.82 227.161 734.592 227.161 726.91C227.161 719.228 220.933 713 213.251 713C205.569 713 199.341 719.228 199.341 726.91C199.341 734.592 205.569 740.82 213.251 740.82Z" fill="white" stroke="white" stroke-width="1.04814" stroke-linecap="round" stroke-linejoin="round"/>
                    <path d="M209.711 716.7C208.759 715.865 207.665 715.208 206.481 714.76C207.594 714.133 208.789 713.665 210.031 713.37C211.341 714.204 212.591 715.13 213.771 716.14C218.861 720.54 217.491 720.14 224.771 722.66C225.443 722.89 226.093 723.181 226.711 723.53C226.956 724.513 227.097 725.518 227.131 726.53C227.171 728.282 226.879 730.026 226.271 731.67C223.661 730.95 220.201 729.76 218.571 728.21C215.831 725.6 215.261 721.54 209.711 716.7Z" fill="#FE9417"/>
                    <path d="M223.591 736.21C222.569 737.356 221.362 738.323 220.021 739.07C217.391 737.33 216.141 735.44 212.401 733.85C209.131 732.46 203.771 732.27 200.401 732.31C199.731 730.726 199.361 729.03 199.311 727.31C199.311 727.07 199.311 726.84 199.311 726.6C203.259 726.808 207.155 727.6 210.871 728.95C216.231 730.86 218.881 734.52 223.591 736.21Z" fill="#FE9417"/>
                    <path d="M209.401 722.14C206.971 723.43 203.171 722.88 200.201 722.14C200.724 720.708 201.481 719.374 202.441 718.19C206.371 718.8 212.761 720.35 209.401 722.14Z" fill="#FE9417"/>
                    <path d="M219.461 714.21C235.461 715 248.731 719.41 248.861 724.71C249.011 730.93 232.861 736.37 212.711 736.87C192.561 737.37 176.151 732.74 176.001 726.53C175.861 720.91 189.071 715.92 206.471 714.65" stroke="white" stroke-width="1.04814" stroke-linecap="round" stroke-linejoin="round"/>
                    <path d="M221.621 714.78C231.481 715.93 238.541 719.26 238.621 723.36C238.751 728.69 227.111 733.3 212.621 733.66C198.131 734.02 186.261 729.99 186.131 724.66C186.011 720.21 194.131 716.26 205.231 714.87" stroke="white" stroke-width="1.04814" stroke-linecap="round" stroke-linejoin="round"/>
                    <path d="M248.561 729.21C248.549 728.738 248.397 728.279 248.125 727.893C247.852 727.507 247.472 727.21 247.03 727.04C246.589 726.871 246.108 726.835 245.647 726.939C245.186 727.043 244.766 727.281 244.44 727.624C244.114 727.966 243.897 728.398 243.817 728.863C243.736 729.329 243.796 729.808 243.987 730.24C244.179 730.672 244.494 731.038 244.894 731.29C245.293 731.543 245.759 731.672 246.231 731.66C246.545 731.654 246.855 731.585 247.143 731.458C247.43 731.331 247.69 731.149 247.907 730.921C248.123 730.693 248.293 730.425 248.405 730.131C248.517 729.837 248.57 729.524 248.561 729.21Z" fill="#FE9417"/>
                    <path d="M188.921 724.21C188.909 723.737 188.757 723.278 188.484 722.892C188.211 722.506 187.83 722.209 187.388 722.039C186.946 721.87 186.464 721.835 186.003 721.94C185.542 722.045 185.122 722.284 184.796 722.628C184.471 722.971 184.255 723.403 184.176 723.87C184.096 724.336 184.157 724.815 184.35 725.247C184.544 725.679 184.861 726.044 185.261 726.295C185.662 726.547 186.128 726.674 186.601 726.66C186.915 726.652 187.223 726.582 187.51 726.455C187.796 726.328 188.055 726.145 188.27 725.917C188.486 725.689 188.654 725.421 188.766 725.128C188.878 724.835 188.93 724.523 188.921 724.21Z" fill="#FE9417"/>
                    <path d="M1265.55 389.825C1266.49 377.993 1257.66 367.641 1245.82 366.701C1233.99 365.762 1223.64 374.591 1222.7 386.423C1221.76 398.254 1230.59 408.607 1242.42 409.546C1254.25 410.486 1264.61 401.656 1265.55 389.825Z" fill="white" stroke="white" stroke-width="1.04814" stroke-linecap="round" stroke-linejoin="round"/>
                    <path d="M1254.66 376.323L1265.44 390.683C1265.79 387.832 1265.55 384.941 1264.75 382.183L1254.66 376.323Z" fill="#FE9417"/>
                    <path d="M1232.63 369.993L1258.26 404.303C1260.27 402.539 1261.94 400.412 1263.16 398.033L1241.61 366.803C1238.42 367.184 1235.35 368.274 1232.63 369.993Z" fill="#FE9417"/>
                    <path d="M1243.9 409.583L1232.76 394.463L1238.76 408.903C1240.44 409.343 1242.17 409.571 1243.9 409.583Z" fill="#FE9417"/>
                    <path d="M1252.56 407.863L1227.14 374.963C1226.91 375.263 1226.7 375.583 1226.48 375.903L1245.07 409.593C1247.65 409.468 1250.19 408.883 1252.56 407.863Z" fill="#FE9417"/>
                    <path d="M1454.01 719.826C1468.76 692.68 1458.72 658.716 1431.57 643.965C1404.42 629.213 1370.46 639.261 1355.71 666.407C1340.96 693.553 1351.01 727.517 1378.15 742.268C1405.3 757.019 1439.26 746.971 1454.01 719.826Z" fill="white"/>
                    <path d="M1455.6 669.57L1385.11 660.93L1444.83 653.98C1444.02 653.14 1443.17 652.34 1442.3 651.55L1364.71 654.16C1361.63 657.318 1358.95 660.834 1356.71 664.63L1375.92 667.1L1353.56 670.76L1381.1 675.96L1349.46 685.42C1349.35 686.22 1349.26 687.01 1349.18 687.81L1425.18 684.47L1375.77 696.08L1402.36 699.39L1377.89 706.33L1459.9 703.05C1461.27 695.542 1461.08 687.832 1459.34 680.4L1437.88 677.16L1458.06 675.86C1457.36 673.717 1456.54 671.617 1455.6 669.57Z" fill="#FE9417"/>
                    <path d="M1456.59 714.38L1389.82 716.05L1425.35 720.13L1365.85 733.21C1376.14 743.234 1389.9 748.912 1404.26 749.064C1418.63 749.217 1432.5 743.833 1443 734.03L1420.16 737.59L1449.4 726.97C1452.34 723.107 1454.75 718.874 1456.59 714.38Z" fill="#FE9417"/>
                    <path d="M1378.08 644.05L1415.68 643.26L1404.12 640.18L1413.89 637.95C1401.61 635.926 1389 638.074 1378.08 644.05Z" fill="#FE9417"/>
                    <path d="M1375.81 716.05L1353.26 714.65C1355.52 720.052 1358.61 725.069 1362.41 729.52L1375.81 716.05Z" fill="#FE9417"/>
                    <path d="M1454.01 719.826C1468.76 692.68 1458.72 658.716 1431.57 643.965C1404.42 629.213 1370.46 639.261 1355.71 666.407C1340.96 693.553 1351.01 727.517 1378.15 742.268C1405.3 757.019 1439.26 746.971 1454.01 719.826Z" stroke="#263238" stroke-width="1.04814" stroke-linecap="round" stroke-linejoin="round"/>
                    <path d="M1429.02 605.31C1419.55 602.78 1407.14 615.91 1396.08 637.86C1398.07 637.553 1400.07 637.349 1402.08 637.25C1410.31 620.82 1418.72 611.19 1424.82 612.81C1435.65 615.7 1435.14 652.94 1423.66 695.98C1412.18 739.02 1394.11 771.59 1383.28 768.7C1377.7 767.21 1375.14 756.59 1375.53 740.76C1373.82 739.709 1372.17 738.567 1370.59 737.34C1370.02 759.41 1374.3 774.92 1383.15 777.28C1398.15 781.28 1420.56 746.02 1433.22 698.53C1445.88 651.04 1444.02 609.3 1429.02 605.31Z" fill="#FE9417" stroke="#263238" stroke-width="1.04814" stroke-linecap="round" stroke-linejoin="round"/>
                    <path d="M1432.78 157.56C1448.12 157.56 1460.56 145.122 1460.56 129.78C1460.56 114.438 1448.12 102 1432.78 102C1417.44 102 1405 114.438 1405 129.78C1405 145.122 1417.44 157.56 1432.78 157.56Z" fill="white"/>
                    <path d="M1425.25 103.05C1434.25 110.05 1450.84 127.63 1440.55 156.46C1447.03 154.571 1452.59 150.39 1456.21 144.698C1459.83 139.006 1461.26 132.191 1460.22 125.526C1459.18 118.86 1455.76 112.8 1450.58 108.474C1445.41 104.149 1438.83 101.855 1432.09 102.02C1429.78 102.074 1427.48 102.42 1425.25 103.05Z" fill="#FE9417"/>
                    <path d="M1432.78 157.56C1448.12 157.56 1460.56 145.122 1460.56 129.78C1460.56 114.438 1448.12 102 1432.78 102C1417.44 102 1405 114.438 1405 129.78C1405 145.122 1417.44 157.56 1432.78 157.56Z" stroke="#263238" stroke-width="1.04814" stroke-linecap="round" stroke-linejoin="round"/>
                    <path d="M1423.24 118.91C1425.54 118.91 1427.41 117.043 1427.41 114.74C1427.41 112.437 1425.54 110.57 1423.24 110.57C1420.94 110.57 1419.07 112.437 1419.07 114.74C1419.07 117.043 1420.94 118.91 1423.24 118.91Z" fill="#FE9417" stroke="#263238" stroke-width="1.04814" stroke-linecap="round" stroke-linejoin="round"/>
                    <path d="M1442.87 112.86C1444.1 112.86 1445.09 111.866 1445.09 110.64C1445.09 109.414 1444.1 108.42 1442.87 108.42C1441.64 108.42 1440.65 109.414 1440.65 110.64C1440.65 111.866 1441.64 112.86 1442.87 112.86Z" fill="#FE9417" stroke="#263238" stroke-width="1.04814" stroke-linecap="round" stroke-linejoin="round"/>
                    <path d="M1437.43 130.22C1439.42 130.22 1441.04 128.604 1441.04 126.61C1441.04 124.616 1439.42 123 1437.43 123C1435.44 123 1433.82 124.616 1433.82 126.61C1433.82 128.604 1435.44 130.22 1437.43 130.22Z" fill="#FE9417" stroke="#263238" stroke-width="1.04814" stroke-linecap="round" stroke-linejoin="round"/>
                    <path d="M1414.43 131.91C1415.97 131.91 1417.21 130.665 1417.21 129.13C1417.21 127.595 1415.97 126.35 1414.43 126.35C1412.89 126.35 1411.65 127.595 1411.65 129.13C1411.65 130.665 1412.89 131.91 1414.43 131.91Z" fill="#FE9417" stroke="#263238" stroke-width="1.04814" stroke-linecap="round" stroke-linejoin="round"/>
                    <path d="M1435.96 150.82C1438.72 150.82 1440.96 148.581 1440.96 145.82C1440.96 143.058 1438.72 140.82 1435.96 140.82C1433.2 140.82 1430.96 143.058 1430.96 145.82C1430.96 148.581 1433.2 150.82 1435.96 150.82Z" fill="#FE9417" stroke="#263238" stroke-width="1.04814" stroke-linecap="round" stroke-linejoin="round"/>
                    <path d="M1453.02 129.83C1454.09 129.83 1454.96 128.962 1454.96 127.89C1454.96 126.819 1454.09 125.95 1453.02 125.95C1451.95 125.95 1451.08 126.819 1451.08 127.89C1451.08 128.962 1451.95 129.83 1453.02 129.83Z" fill="#FE9417" stroke="#263238" stroke-width="1.04814" stroke-linecap="round" stroke-linejoin="round"/>
                    <path d="M1419.5 146.23C1421.19 146.23 1422.56 144.86 1422.56 143.17C1422.56 141.48 1421.19 140.11 1419.5 140.11C1417.81 140.11 1416.44 141.48 1416.44 143.17C1416.44 144.86 1417.81 146.23 1419.5 146.23Z" fill="#FE9417" stroke="#263238" stroke-width="1.04814" stroke-linecap="round" stroke-linejoin="round"/>
                </svg>