<svg width="180" height="180" viewBox="0 0 180 180" fill="none" xmlns="http://www.w3.org/2000/svg">
    <circle cx="90" cy="90" r="89" stroke="url(#paint0_linear__comp)" stroke-width="2"/>
    <path d="M62.7358 98.2993H65.1068V100.67H62.7358V98.2993Z" fill="url(#paint1_linear__comp)"/>
    <path d="M69.846 98.2993H72.2169V100.67H69.846V98.2993Z" fill="url(#paint2_linear__comp)"/>
    <path d="M76.9621 98.2993H79.333V100.67H76.9621V98.2993Z" fill="url(#paint3_linear__comp)"/>
    <path d="M124.379 99.4839H114.895V94.7419H122.008C124.623 94.7419 126.75 92.6152 126.75 90C126.75 87.7668 125.197 85.889 123.117 85.3883C122.604 81.9661 119.644 79.3306 116.081 79.3306C115.68 79.3306 115.285 79.377 114.895 79.4447V60.3629H110.153V53.25H69.8468V55.735C69.0167 55.878 68.2156 56.1605 67.4758 56.594C66.3876 55.9555 65.1737 55.621 63.9194 55.621C60.356 55.621 57.3957 58.2565 56.8834 61.6786C54.8031 62.1793 53.25 64.0571 53.25 66.2903C53.25 68.9056 55.3767 71.0323 57.9919 71.0323H65.1048V93.5565H55.621V119.637H53.25V126.75H126.75V119.637H124.379V99.4839ZM120.823 86.4435V87.629H122.008C123.316 87.629 124.379 88.6924 124.379 90C124.379 91.3076 123.316 92.371 122.008 92.371H103.04C101.733 92.371 100.669 91.3076 100.669 90C100.669 88.6924 101.733 87.629 103.04 87.629H104.226V86.4435C104.226 83.8283 106.352 81.7016 108.968 81.7016C109.984 81.7016 110.968 82.0385 111.809 82.6735L112.524 83.213L113.239 82.6735C114.081 82.0385 115.065 81.7016 116.081 81.7016C118.696 81.7016 120.823 83.8283 120.823 86.4435ZM112.524 80.3037C111.436 79.6652 110.222 79.3306 108.968 79.3306C105.878 79.3306 103.248 81.3149 102.269 84.0726H93.5565V86.4435H99.914C98.9253 87.3136 98.2984 88.5836 98.2984 90C98.2984 92.6152 100.425 94.7419 103.04 94.7419H112.524V99.4839H91.1855V62.7339H112.524V80.3037ZM107.782 60.3629H91.1855V55.621H107.782V60.3629ZM88.8145 55.621V60.3629H72.2177V55.621H88.8145ZM57.9919 68.6613C56.6843 68.6613 55.621 67.5979 55.621 66.2903C55.621 64.9827 56.6843 63.9194 57.9919 63.9194H59.1774V62.7339C59.1774 60.1186 61.3041 57.9919 63.9194 57.9919C64.9352 57.9919 65.9193 58.3288 66.7609 58.9638L67.4758 59.5033L68.1907 58.9638C68.6978 58.5812 69.2598 58.3213 69.8468 58.1639V60.3629H65.1048V68.6613H57.9919ZM67.4758 62.7339H88.8145V99.4839H86.4435V93.5565H67.4758V62.7339ZM57.9919 95.9274H84.0726V106.597H117.266V104.226H86.4435V101.855H122.008V104.226H119.637V106.597H122.008V119.637H119.637V108.968H110.153V119.637H107.782V108.968H98.2984V119.637H95.9274V108.968H86.4435V119.637H79.3306V103.04H76.9597V119.637H72.2177V103.04H69.8468V119.637H65.1048V103.04H62.7339V119.637H57.9919V95.9274ZM117.266 119.637H112.524V111.339H117.266V119.637ZM105.411 119.637H100.669V111.339H105.411V119.637ZM93.5565 119.637H88.8145V111.339H93.5565V119.637ZM124.379 124.379H55.621V122.008H124.379V124.379Z" fill="url(#paint4_linear__comp)"/>
    <path d="M69.846 65.1034H86.4427V67.4744H69.846V65.1034Z" fill="url(#paint5_linear__comp)"/>
    <path d="M69.846 74.5882H86.4427V76.9592H69.846V74.5882Z" fill="url(#paint6_linear__comp)"/>
    <path d="M69.846 84.073H86.4427V86.444H69.846V84.073Z" fill="url(#paint7_linear__comp)"/>
    <path d="M72.2186 69.8467H74.5896V72.2176H72.2186V69.8467Z" fill="url(#paint8_linear__comp)"/>
    <path d="M76.9621 69.8467H79.333V72.2176H76.9621V69.8467Z" fill="url(#paint9_linear__comp)"/>
    <path d="M81.7016 69.8467H84.0726V72.2176H81.7016V69.8467Z" fill="url(#paint10_linear__comp)"/>
    <path d="M72.2186 79.3296H74.5896V81.7006H72.2186V79.3296Z" fill="url(#paint11_linear__comp)"/>
    <path d="M76.9621 79.3296H79.333V81.7006H76.9621V79.3296Z" fill="url(#paint12_linear__comp)"/>
    <path d="M81.7016 79.3296H84.0726V81.7006H81.7016V79.3296Z" fill="url(#paint13_linear__comp)"/>
    <path d="M72.2186 88.8144H74.5896V91.1854H72.2186V88.8144Z" fill="url(#paint14_linear__comp)"/>
    <path d="M76.9621 88.8144H79.333V91.1854H76.9621V88.8144Z" fill="url(#paint15_linear__comp)"/>
    <path d="M81.7016 88.8144H84.0726V91.1854H81.7016V88.8144Z" fill="url(#paint16_linear__comp)"/>
    <path d="M93.557 65.1034H110.154V67.4744H93.557V65.1034Z" fill="url(#paint17_linear__comp)"/>
    <path d="M93.557 74.5882H110.154V76.9592H93.557V74.5882Z" fill="url(#paint18_linear__comp)"/>
    <path d="M95.9278 69.8467H98.2988V72.2176H95.9278V69.8467Z" fill="url(#paint19_linear__comp)"/>
    <path d="M100.671 69.8467H103.042V72.2176H100.671V69.8467Z" fill="url(#paint20_linear__comp)"/>
    <path d="M105.413 69.8467H107.784V72.2176H105.413V69.8467Z" fill="url(#paint21_linear__comp)"/>
    <path d="M95.9278 79.3296H98.2988V81.7006H95.9278V79.3296Z" fill="url(#paint22_linear__comp)"/>
    <path d="M100.671 79.3296H103.042V81.7006H100.671V79.3296Z" fill="url(#paint23_linear__comp)"/>
    <defs>
    <linearGradient id="paint0_linear__comp" x1="0" y1="0" x2="192.556" y2="17.5494" gradientUnits="userSpaceOnUse">
    <stop stop-color="#FE9417"/>
    <stop offset="1" stop-color="#F56233"/>
    </linearGradient>
    <linearGradient id="paint1_linear__comp" x1="62.7358" y1="98.2993" x2="65.2721" y2="98.5304" gradientUnits="userSpaceOnUse">
    <stop stop-color="#FE9417"/>
    <stop offset="1" stop-color="#F56233"/>
    </linearGradient>
    <linearGradient id="paint2_linear__comp" x1="69.846" y1="98.2993" x2="72.3823" y2="98.5304" gradientUnits="userSpaceOnUse">
    <stop stop-color="#FE9417"/>
    <stop offset="1" stop-color="#F56233"/>
    </linearGradient>
    <linearGradient id="paint3_linear__comp" x1="76.9621" y1="98.2993" x2="79.4984" y2="98.5304" gradientUnits="userSpaceOnUse">
    <stop stop-color="#FE9417"/>
    <stop offset="1" stop-color="#F56233"/>
    </linearGradient>
    <linearGradient id="paint4_linear__comp" x1="53.25" y1="53.25" x2="131.877" y2="60.416" gradientUnits="userSpaceOnUse">
    <stop stop-color="#FE9417"/>
    <stop offset="1" stop-color="#F56233"/>
    </linearGradient>
    <linearGradient id="paint5_linear__comp" x1="69.846" y1="65.1034" x2="82.5693" y2="73.2206" gradientUnits="userSpaceOnUse">
    <stop stop-color="#FE9417"/>
    <stop offset="1" stop-color="#F56233"/>
    </linearGradient>
    <linearGradient id="paint6_linear__comp" x1="69.846" y1="74.5882" x2="82.5693" y2="82.7054" gradientUnits="userSpaceOnUse">
    <stop stop-color="#FE9417"/>
    <stop offset="1" stop-color="#F56233"/>
    </linearGradient>
    <linearGradient id="paint7_linear__comp" x1="69.846" y1="84.073" x2="82.5693" y2="92.1902" gradientUnits="userSpaceOnUse">
    <stop stop-color="#FE9417"/>
    <stop offset="1" stop-color="#F56233"/>
    </linearGradient>
    <linearGradient id="paint8_linear__comp" x1="72.2186" y1="69.8467" x2="74.755" y2="70.0778" gradientUnits="userSpaceOnUse">
    <stop stop-color="#FE9417"/>
    <stop offset="1" stop-color="#F56233"/>
    </linearGradient>
    <linearGradient id="paint9_linear__comp" x1="76.9621" y1="69.8467" x2="79.4984" y2="70.0778" gradientUnits="userSpaceOnUse">
    <stop stop-color="#FE9417"/>
    <stop offset="1" stop-color="#F56233"/>
    </linearGradient>
    <linearGradient id="paint10_linear__comp" x1="81.7016" y1="69.8467" x2="84.2379" y2="70.0778" gradientUnits="userSpaceOnUse">
    <stop stop-color="#FE9417"/>
    <stop offset="1" stop-color="#F56233"/>
    </linearGradient>
    <linearGradient id="paint11_linear__comp" x1="72.2186" y1="79.3296" x2="74.755" y2="79.5608" gradientUnits="userSpaceOnUse">
    <stop stop-color="#FE9417"/>
    <stop offset="1" stop-color="#F56233"/>
    </linearGradient>
    <linearGradient id="paint12_linear__comp" x1="76.9621" y1="79.3296" x2="79.4984" y2="79.5608" gradientUnits="userSpaceOnUse">
    <stop stop-color="#FE9417"/>
    <stop offset="1" stop-color="#F56233"/>
    </linearGradient>
    <linearGradient id="paint13_linear__comp" x1="81.7016" y1="79.3296" x2="84.2379" y2="79.5608" gradientUnits="userSpaceOnUse">
    <stop stop-color="#FE9417"/>
    <stop offset="1" stop-color="#F56233"/>
    </linearGradient>
    <linearGradient id="paint14_linear__comp" x1="72.2186" y1="88.8144" x2="74.755" y2="89.0456" gradientUnits="userSpaceOnUse">
    <stop stop-color="#FE9417"/>
    <stop offset="1" stop-color="#F56233"/>
    </linearGradient>
    <linearGradient id="paint15_linear__comp" x1="76.9621" y1="88.8144" x2="79.4984" y2="89.0456" gradientUnits="userSpaceOnUse">
    <stop stop-color="#FE9417"/>
    <stop offset="1" stop-color="#F56233"/>
    </linearGradient>
    <linearGradient id="paint16_linear__comp" x1="81.7016" y1="88.8144" x2="84.2379" y2="89.0456" gradientUnits="userSpaceOnUse">
    <stop stop-color="#FE9417"/>
    <stop offset="1" stop-color="#F56233"/>
    </linearGradient>
    <linearGradient id="paint17_linear__comp" x1="93.557" y1="65.1034" x2="106.28" y2="73.2206" gradientUnits="userSpaceOnUse">
    <stop stop-color="#FE9417"/>
    <stop offset="1" stop-color="#F56233"/>
    </linearGradient>
    <linearGradient id="paint18_linear__comp" x1="93.557" y1="74.5882" x2="106.28" y2="82.7054" gradientUnits="userSpaceOnUse">
    <stop stop-color="#FE9417"/>
    <stop offset="1" stop-color="#F56233"/>
    </linearGradient>
    <linearGradient id="paint19_linear__comp" x1="95.9278" y1="69.8467" x2="98.4642" y2="70.0778" gradientUnits="userSpaceOnUse">
    <stop stop-color="#FE9417"/>
    <stop offset="1" stop-color="#F56233"/>
    </linearGradient>
    <linearGradient id="paint20_linear__comp" x1="100.671" y1="69.8467" x2="103.208" y2="70.0778" gradientUnits="userSpaceOnUse">
    <stop stop-color="#FE9417"/>
    <stop offset="1" stop-color="#F56233"/>
    </linearGradient>
    <linearGradient id="paint21_linear__comp" x1="105.413" y1="69.8467" x2="107.949" y2="70.0778" gradientUnits="userSpaceOnUse">
    <stop stop-color="#FE9417"/>
    <stop offset="1" stop-color="#F56233"/>
    </linearGradient>
    <linearGradient id="paint22_linear__comp" x1="95.9278" y1="79.3296" x2="98.4642" y2="79.5608" gradientUnits="userSpaceOnUse">
    <stop stop-color="#FE9417"/>
    <stop offset="1" stop-color="#F56233"/>
    </linearGradient>
    <linearGradient id="paint23_linear__comp" x1="100.671" y1="79.3296" x2="103.208" y2="79.5608" gradientUnits="userSpaceOnUse">
    <stop stop-color="#FE9417"/>
    <stop offset="1" stop-color="#F56233"/>
    </linearGradient>
    </defs>
</svg>