<svg viewBox="0 0 714 1116" fill="none" preserveAspectRatio="xMinYMin meet"  xmlns="http://www.w3.org/2000/svg">
    <path d="M263.41 574C262.92 578.47 262.41 579 258 579.69C262.47 580.19 263 580.69 263.69 585.11C264.19 580.63 264.69 580.11 269.11 579.41C264.64 578.92 264.13 578.44 263.41 574Z" fill="white"/>
    <path d="M243.41 366C242.92 370.47 242.41 371 238 371.69C242.47 372.19 243 372.69 243.69 377.11C244.19 372.63 244.69 372.11 249.11 371.41C244.64 370.92 244.13 370.44 243.41 366Z" fill="white"/>
    <path d="M356.41 53C355.92 57.47 355.41 58 351 58.69C355.47 59.19 356 59.69 356.69 64.11C357.19 59.63 357.69 59.11 362.11 58.41C357.64 57.92 357.13 57.44 356.41 53Z" fill="white"/>
    <path d="M243.41 0C242.92 4.47 242.41 5 238 5.69C242.47 6.19 243 6.68999 243.69 11.11C244.19 6.62999 244.69 6.11 249.11 5.41C244.64 4.92 244.13 4.44 243.41 0Z" fill="white"/>
    <path d="M587.41 4C586.92 8.47 586.41 9 582 9.69C586.47 10.19 587 10.69 587.69 15.11C588.19 10.63 588.69 10.11 593.11 9.41C588.64 8.92 588.13 8.44 587.41 4Z" fill="white"/>
    <path d="M388.41 811C387.92 815.47 387.41 816 383 816.69C387.47 817.19 388 817.69 388.69 822.11C389.19 817.63 389.69 817.11 394.11 816.41C389.64 815.92 389.13 815.44 388.41 811Z" fill="white"/>
    <path d="M131.205 725.682C131.418 721.866 128.498 718.6 124.682 718.386C120.866 718.173 117.6 721.093 117.386 724.909C117.173 728.725 120.093 731.991 123.909 732.205C127.725 732.418 130.991 729.498 131.205 725.682Z" fill="white"/>
    <path d="M52.2047 251.682C52.418 247.866 49.4976 244.6 45.6818 244.386C41.8659 244.173 38.5996 247.093 38.3863 250.909C38.1729 254.725 41.0933 257.991 44.9092 258.205C48.725 258.418 51.9914 255.498 52.2047 251.682Z" fill="white"/>
    <path d="M468.205 57.6817C468.418 53.8659 465.498 50.5996 461.682 50.3862C457.866 50.1729 454.6 53.0933 454.386 56.9091C454.173 60.725 457.093 63.9913 460.909 64.2046C464.725 64.418 467.991 61.4976 468.205 57.6817Z" fill="white"/>
    <path d="M248.205 57.6817C248.418 53.8659 245.498 50.5996 241.682 50.3862C237.866 50.1729 234.6 53.0933 234.386 56.9091C234.173 60.725 237.093 63.9913 240.909 64.2046C244.725 64.418 247.991 61.4976 248.205 57.6817Z" fill="white"/>
    <path d="M14.2047 21.6817C14.418 17.8659 11.4976 14.5996 7.68176 14.3862C3.86591 14.1729 0.599625 17.0933 0.386286 20.9091C0.172946 24.725 3.09334 27.9913 6.90919 28.2046C10.725 28.418 13.9914 25.4976 14.2047 21.6817Z" fill="white"/>
    <path d="M701.205 815.682C701.418 811.866 698.498 808.6 694.682 808.386C690.866 808.173 687.6 811.093 687.386 814.909C687.173 818.725 690.093 821.991 693.909 822.205C697.725 822.418 700.991 819.498 701.205 815.682Z" fill="white"/>
    <path d="M113.14 541.28C114.322 541.28 115.28 540.322 115.28 539.14C115.28 537.958 114.322 537 113.14 537C111.958 537 111 537.958 111 539.14C111 540.322 111.958 541.28 113.14 541.28Z" fill="white"/>
    <path d="M267.14 261.28C268.322 261.28 269.28 260.322 269.28 259.14C269.28 257.958 268.322 257 267.14 257C265.958 257 265 257.958 265 259.14C265 260.322 265.958 261.28 267.14 261.28Z" fill="white"/>
    <path d="M366.14 15.28C367.322 15.28 368.28 14.3219 368.28 13.14C368.28 11.9581 367.322 11 366.14 11C364.958 11 364 11.9581 364 13.14C364 14.3219 364.958 15.28 366.14 15.28Z" fill="white"/>
    <path d="M126.14 19.28C127.322 19.28 128.28 18.3219 128.28 17.14C128.28 15.9581 127.322 15 126.14 15C124.958 15 124 15.9581 124 17.14C124 18.3219 124.958 19.28 126.14 19.28Z" fill="white"/>
    <path d="M45.14 802.28C46.3219 802.28 47.28 801.322 47.28 800.14C47.28 798.958 46.3219 798 45.14 798C43.9581 798 43 798.958 43 800.14C43 801.322 43.9581 802.28 45.14 802.28Z" fill="white"/>
    <path d="M20.41 635C19.92 639.47 19.41 640 15 640.69C19.47 641.19 20 641.69 20.69 646.11C21.19 641.63 21.69 641.11 26.11 640.41C21.64 639.92 21.13 639.44 20.41 635Z" fill="white"/>
    <path d="M74.41 139C73.92 143.47 73.41 144 69 144.69C73.47 145.19 74 145.69 74.69 150.11C75.19 145.63 75.69 145.11 80.11 144.41C75.64 143.92 75.13 143.44 74.41 139Z" fill="white"/>
    <path d="M268.41 868C267.92 872.47 267.41 873 263 873.69C267.47 874.19 268 874.69 268.69 879.11C269.19 874.63 269.69 874.11 274.11 873.41C269.64 872.92 269.13 872.44 268.41 868Z" fill="white"/>
    <path d="M373.205 865.682C373.418 861.866 370.498 858.6 366.682 858.386C362.866 858.173 359.6 861.093 359.386 864.909C359.173 868.725 362.093 871.991 365.909 872.205C369.725 872.418 372.991 869.498 373.205 865.682Z" fill="white"/>
    <path d="M194.14 907.28C195.322 907.28 196.28 906.322 196.28 905.14C196.28 903.958 195.322 903 194.14 903C192.958 903 192 903.958 192 905.14C192 906.322 192.958 907.28 194.14 907.28Z" fill="white"/>
    <path d="M405.41 1050C404.92 1054.47 404.41 1055 400 1055.69C404.47 1056.19 405 1056.69 405.69 1061.11C406.19 1056.63 406.69 1056.11 411.11 1055.41C406.64 1054.92 406.13 1054.44 405.41 1050Z" fill="white"/>
    <path d="M317.41 1064C316.92 1068.47 316.41 1069 312 1069.69C316.47 1070.19 317 1070.69 317.69 1075.11C318.19 1070.63 318.69 1070.11 323.11 1069.41C318.64 1068.92 318.13 1068.44 317.41 1064Z" fill="white"/>
    <path d="M194.14 1050.28C195.322 1050.28 196.28 1049.32 196.28 1048.14C196.28 1046.96 195.322 1046 194.14 1046C192.958 1046 192 1046.96 192 1048.14C192 1049.32 192.958 1050.28 194.14 1050.28Z" fill="white"/>
    <path d="M706.41 610C705.92 614.47 705.41 615 701 615.69C705.47 616.19 706 616.69 706.69 621.11C707.19 616.63 707.69 616.11 712.11 615.41C707.64 614.92 707.13 614.44 706.41 610Z" fill="white"/>
    <path d="M671.14 430.28C672.322 430.28 673.28 429.322 673.28 428.14C673.28 426.958 672.322 426 671.14 426C669.958 426 669 426.958 669 428.14C669 429.322 669.958 430.28 671.14 430.28Z" fill="white"/>
    <path d="M98.2047 966.682C98.418 962.866 95.4976 959.6 91.6818 959.386C87.8659 959.173 84.5996 962.093 84.3863 965.909C84.1729 969.725 87.0933 972.991 90.9092 973.205C94.725 973.418 97.9914 970.498 98.2047 966.682Z" fill="white"/>
    <path d="M30.14 1115.28C31.3219 1115.28 32.28 1114.32 32.28 1113.14C32.28 1111.96 31.3219 1111 30.14 1111C28.9581 1111 28 1111.96 28 1113.14C28 1114.32 28.9581 1115.28 30.14 1115.28Z" fill="white"/>
    <path d="M5.41 771C4.92 775.47 4.41 776 0 776.69C4.47 777.19 4.99999 777.69 5.68999 782.11C6.18999 777.63 6.69 777.11 11.11 776.41C6.64 775.92 6.13 775.44 5.41 771Z" fill="white"/>
    <path d="M713.205 1085.68C713.418 1081.87 710.498 1078.6 706.682 1078.39C702.866 1078.17 699.6 1081.09 699.386 1084.91C699.173 1088.72 702.093 1091.99 705.909 1092.2C709.725 1092.42 712.991 1089.5 713.205 1085.68Z" fill="white"/>
    <path d="M509.41 1072C508.92 1076.47 508.41 1077 504 1077.69C508.47 1078.19 509 1078.69 509.69 1083.11C510.19 1078.63 510.69 1078.11 515.11 1077.41C510.64 1076.92 510.13 1076.44 509.41 1072Z" fill="white"/>
    <path d="M549.14 1020.28C550.322 1020.28 551.28 1019.32 551.28 1018.14C551.28 1016.96 550.322 1016 549.14 1016C547.958 1016 547 1016.96 547 1018.14C547 1019.32 547.958 1020.28 549.14 1020.28Z" fill="white"/>
    <path d="M598.41 879C597.92 883.47 597.41 884 593 884.69C597.47 885.19 598 885.69 598.69 890.11C599.19 885.63 599.69 885.11 604.11 884.41C599.64 883.92 599.13 883.44 598.41 879Z" fill="white"/>
    <path d="M50.41 988C49.92 992.47 49.41 993 45 993.69C49.47 994.19 50 994.69 50.69 999.11C51.19 994.63 51.69 994.11 56.11 993.41C51.64 992.92 51.13 992.44 50.41 988Z" fill="white"/>
    <path d="M480.205 1045.68C480.418 1041.87 477.498 1038.6 473.682 1038.39C469.866 1038.17 466.6 1041.09 466.386 1044.91C466.173 1048.72 469.093 1051.99 472.909 1052.2C476.725 1052.42 479.991 1049.5 480.205 1045.68Z" fill="white"/>
</svg>