<svg width="370" height="382" fill="none" preserveAspectRatio="xMinYMin meet" xmlns="http://www.w3.org/2000/svg">
  <path d="M362.479 147.293c.601-4.418-5.628-8.049-10.306-8.43-2.234-.179-4.557.162-6.669-.577-4.589-1.624-6.416-7.513-10.891-9.405-3.338-1.405-7.188-.155-10.429 1.478-3.241 1.632-6.449 3.687-10.071 3.915-3.152.203-6.571-.967-9.324.576-2.055 1.146-3.127 3.509-5.02 4.874-1.892 1.364-4.272 1.624-6.571 1.778-2.298.155-4.678.155-6.765 1.113-2.088.958-3.826 3.168-3.387 5.426l79.433-.748z" fill="#F5F5F5"/>
  <path d="M158.664 74.812c.479-3.476-4.427-6.335-8.122-6.636-1.754-.138-3.582.13-5.247-.446-3.606-1.26-5.044-5.921-8.561-7.408-2.631-1.104-5.685-.121-8.211 1.162-2.526 1.283-5.068 2.9-7.919 3.086-2.437.155-5.174-.763-7.31.447-1.624.901-2.436 2.77-3.947 3.866-1.511 1.097-3.363 1.3-5.166 1.397-1.803.097-3.679.122-5.328.87-1.649.746-3.005 2.5-2.664 4.271l62.475-.609z" fill="#FAFAFA"/>
  <path d="M120.97 51.778c.812-5.807-7.408-10.559-13.572-11.087-2.932-.235-5.986.212-8.772-.763-6.035-2.104-8.447-9.893-14.336-12.378-4.402-1.86-9.47-.203-13.734 1.941-4.264 2.144-8.487 4.849-13.255 5.182-4.142.268-8.65-1.275-12.273.755-2.704 1.511-4.125 4.622-6.61 6.498-2.486 1.876-5.621 2.185-8.643 2.347-3.021.163-6.156.195-8.934 1.454-2.778 1.259-5.028 4.175-4.459 7.148l104.588-1.097z" fill="#F5F5F5"/>
  <path d="M56.392 266.752s-6.092-1.973-8.934 12.078c-2.843 14.051-3.25 21.816-3.25 21.816s-.941 3.045-3.183 1.852c-2.242-1.194-5.994-5.312-8.764-3.615-2.77 1.698-2.94 5.539-.926 10.494 2.014 4.954 6.043 15.984 6.4 16.983.358.999.187 2.607-1.47 2.039-1.657-.569-12.126-7.261-15.01-2.096-2.883 5.166 5.012 18.047 5.849 19.493.836 1.446.714 2.161.089 2.745-.625.585-3.931-1.998-6.993-3.776-3.062-1.779-6.912-3.314-8.325-.195-1.414 3.119.812 13.807 15.562 28.102l7.26 6.173 9.032-3.046c19.006-7.748 25.081-16.821 24.935-20.24-.146-3.419-4.288-3.444-7.797-2.932-3.509.512-7.537 1.665-7.895.885-.357-.78-.195-1.502 1.113-2.518 1.308-1.015 13.442-10.014 12.703-15.878-.74-5.864-12.995-3.566-14.71-3.663-1.713-.098-1.29-1.665-.592-2.437.699-.772 8.553-9.56 12.313-13.401 3.76-3.842 5.076-7.367 3.062-10.08s-6.952-.195-9.478.073-2.29-2.907-2.29-2.907 2.517-7.351 5.124-21.459c2.607-14.108-3.947-14.53-3.947-14.53" fill="#EBEBEB"/>
  <path d="M33.65 380.883c1.958-10.347 5.735-28.687 8.894-44.452 3.16-15.764 6.01-30.051 8.017-40.358.998-5.166 1.803-9.348 2.363-12.248.276-1.438.495-2.558.642-3.33.073-.374.138-.658.178-.869.041-.211.065-.293.065-.293v.301c0 .195-.08.495-.146.869-.138.812-.333 1.901-.585 3.338-.52 2.9-1.291 7.091-2.274 12.273-1.95 10.347-4.768 24.626-7.927 40.382-3.16 15.757-6.977 34.113-8.934 44.428" fill="#E0E0E0"/>
  <path d="M37.248 304.845c.153.173.29.361.406.56.244.374.585.91.991 1.625a162.464 162.464 0 013.078 5.36l2.965 5.426.91 1.624c.125.194.228.401.308.617a3.286 3.286 0 01-.414-.56c-.244-.365-.577-.91-.983-1.624a184.336 184.336 0 01-3.046-5.385c-1.17-2.136-2.193-3.964-2.997-5.401l-.917-1.625a2.766 2.766 0 01-.301-.617zm9.543 15.123c0-.073 3.77-2.485 8.52-5.401 4.752-2.916 8.626-5.223 8.667-5.149.04.073-3.769 2.485-8.512 5.401s-8.634 5.222-8.675 5.149zm-5.945 23.984c.212-.1.436-.173.666-.219l1.843-.511c1.56-.423 3.704-1.024 6.051-1.779a151.687 151.687 0 005.962-2.047l1.803-.65a3.38 3.38 0 01.666-.211 2.766 2.766 0 01-.625.317 46.25 46.25 0 01-1.763.747 89.272 89.272 0 01-12.037 3.826c-.812.186-1.43.333-1.868.414a3.839 3.839 0 01-.698.113zM29.2 332.176c.185.114.355.253.503.414l1.291 1.202c1.08 1.031 2.567 2.436 4.183 4.061 1.616 1.624 3.078 3.054 4.126 4.126l1.227 1.267c.16.15.303.319.422.503a3.178 3.178 0 01-.504-.414l-1.291-1.21c-1.08-1.031-2.567-2.437-4.183-4.061-1.616-1.624-3.078-3.062-4.126-4.126l-1.226-1.275a2.81 2.81 0 01-.423-.487zm-7.936 20.5c.225.161.437.341.634.536l1.665 1.543a638.62 638.62 0 0110.745 10.396l1.625 1.624c.207.187.394.394.56.618a4.076 4.076 0 01-.634-.536c-.438-.398-.99-.918-1.665-1.543a473.042 473.042 0 01-5.4-5.166 638.868 638.868 0 01-5.345-5.223l-1.624-1.624a3.991 3.991 0 01-.56-.625zm14.92 14.246c.264-.117.535-.217.812-.301l2.315-.723c1.957-.617 4.654-1.47 7.602-2.501a248.123 248.123 0 007.505-2.77l2.266-.869c.26-.122.532-.217.812-.284-.26.151-.532.282-.812.39a77.85 77.85 0 01-2.226.958c-1.892.812-4.532 1.827-7.488 2.851a173.326 173.326 0 01-7.643 2.436c-.983.277-1.787.496-2.34.634a5.82 5.82 0 01-.803.179z" fill="#E0E0E0"/>
  <path d="M224.453 323.818a12.307 12.307 0 018.861 3.752 21.65 21.65 0 014.987 8.455c2.095 6.027 1.624 13.361.3 19.607-6.83-1.892-11.452-8.699-13.58-12.297-3.362-5.685-5.986-18.006-.568-19.493m24.268 38.588a10.51 10.51 0 01-1.25-10.461 13.922 13.922 0 017.878-7.31c1.624-.617 3.46-.966 4.938-.122a4.482 4.482 0 012.031 4.061 9.17 9.17 0 01-1.625 4.443c-2.924 4.613-6.595 8.553-11.996 9.397" fill="#EBEBEB"/>
  <path d="M249.363 378.39a19.955 19.955 0 01-1.145-4.061 19.446 19.446 0 01-.422-4.597c.001-1.877.123-3.751.365-5.612a21.12 21.12 0 013.761-9.487 15.905 15.905 0 012.128-2.274c.568-.455.91-.682.934-.642.024.041-1.186 1.097-2.648 3.249a22.485 22.485 0 00-3.468 9.292 50.5 50.5 0 00-.414 5.523 21.712 21.712 0 00.26 4.491c.307 1.357.524 2.733.649 4.118z" fill="#E0E0E0"/>
  <path d="M227.28 333.061c.426.57.799 1.179 1.113 1.819.674 1.202 1.624 2.94 2.777 5.109a578.316 578.316 0 018.723 17.056 389.573 389.573 0 018.025 17.422c.966 2.258 1.73 4.061 2.233 5.369.293.651.532 1.324.715 2.014a12.038 12.038 0 01-.974-1.901 1515.42 1515.42 0 00-2.437-5.271 946.82 946.82 0 00-8.203-17.324c-3.282-6.766-6.295-12.654-8.528-17.162-1.048-2.112-1.917-3.858-2.575-5.206a12.947 12.947 0 01-.869-1.925z" fill="#E0E0E0"/>
  <path d="M242.484 368.107a24.574 24.574 0 00-21.117-7.594c-1.958.268-4.208 1.089-4.703 3.014-.496 1.925 1.105 3.728 2.721 4.873a20.95 20.95 0 0023.253.219" fill="#EBEBEB"/>
  <path d="M225.59 364.534a3.506 3.506 0 011.121-.122c.715-.041 1.763 0 3.054 0 3.39.098 6.732.819 9.86 2.128a17.297 17.297 0 014.67 3.094 16.99 16.99 0 014.175 6.344c.168.339.275.704.317 1.08-.13.057-.69-1.446-2.071-3.574a17.814 17.814 0 00-2.867-3.362 18.06 18.06 0 00-4.516-2.932 31.08 31.08 0 00-9.609-2.274 37.424 37.424 0 01-4.134-.382zM42.276 153.499l-9.983-20.574-10.022 6.392-15.383-13.222 13.945 20.346 10.153-6.522 11.29 13.58zm-2.989 5.644l-13.897-6.782-2.664 7.586-13.71-.617 15.92 5.011 2.68-7.715 11.671 2.517z" fill="#E0E0E0"/>
  <path d="M308.67 359.449a2.355 2.355 0 01-.511-.105c-.333-.081-.812-.244-1.446-.382a34.263 34.263 0 00-13.515-.528 33.297 33.297 0 00-25.032 20.037c-.268.593-.414 1.072-.552 1.389-.059.165-.13.325-.212.479.025-.172.069-.341.13-.503.106-.325.236-.812.479-1.422a30.034 30.034 0 012.437-4.97 32.37 32.37 0 0130.905-15.643 29.33 29.33 0 015.433 1.007c.634.154 1.105.349 1.43.455.157.048.309.111.454.186z" fill="#263238"/>
  <path d="M305.876 358.199a12.084 12.084 0 00-2.266 12.24c.317.812.894 1.689 1.763 1.697.869.008 1.502-.983 1.803-1.86a14.2 14.2 0 00-1.015-11.249 16.239 16.239 0 005.945 7.31c1.007.674 2.437 1.226 3.379.504.942-.723.852-2.145.463-3.249a9.574 9.574 0 00-9.544-6.149 8.989 8.989 0 008.821-5.198c.552-1.291.609-3.119-.634-3.768a2.948 2.948 0 00-2.436.186 11.438 11.438 0 00-6.392 7.148 10.086 10.086 0 00.688-5.717 10.079 10.079 0 00-2.557-5.159c-.869-.901-2.111-1.673-3.313-1.324-1.511.439-2.015 2.348-1.974 3.923a13.175 13.175 0 005.296 10.088 7.479 7.479 0 00-6.945-.601c-1.462.625-2.826 2.234-2.176 3.679.649 1.446 2.55 1.511 4.061 1.235a18.691 18.691 0 007.537-3.249" fill="#FF725E"/>
  <path d="M277.92 364.599a24.977 24.977 0 008.409 6.741 24.985 24.985 0 0010.467 2.567c-.122-1.625-1.381-2.843-2.648-3.81a25.735 25.735 0 00-15.927-5.23" fill="#455A64"/>
  <path d="M305.121 366.8c.354-1.55.611-3.121.772-4.703a40.238 40.238 0 00-.228-4.759 12.618 12.618 0 01-.544 9.462z" fill="#263238"/>
  <path d="M311.205 363.405a19.354 19.354 0 00-2.364-3.038c-1.559-1.47-3.159-2.266-3.086-2.388a8.306 8.306 0 013.379 2.08 6.39 6.39 0 012.071 3.346z" fill="#263238"/>
  <path d="M310.904 352.765a6.948 6.948 0 01-1.909 3.249 5.912 5.912 0 01-3.248 1.973 17.347 17.347 0 002.932-2.266 36.352 36.352 0 002.225-2.956z" fill="#263238"/>
  <path d="M305.835 356.16a1.471 1.471 0 011.219 2.437 4.147 4.147 0 00-1.219-.666 6.11 6.11 0 000-1.771z" fill="#FAFAFA"/>
  <path d="M301.515 347.543a5.1 5.1 0 011.153 1.267 15.219 15.219 0 012.883 7.659 4.698 4.698 0 010 1.705 28.64 28.64 0 00-1.275-5.588 30.095 30.095 0 00-2.761-5.043z" fill="#263238"/>
  <path d="M13.718 349.662a6.5 6.5 0 014.654 2.031 11.546 11.546 0 012.575 4.491c1.064 3.192.771 7.058 0 10.348-3.59-1.048-5.994-4.662-7.09-6.571-1.74-3.021-3.055-9.535-.18-10.299m12.606 20.492a5.54 5.54 0 01-.593-5.523 7.302 7.302 0 014.2-3.817 3.09 3.09 0 012.607 0 2.354 2.354 0 011.04 2.152 4.754 4.754 0 01-.87 2.274c-1.567 2.437-3.533 4.468-6.384 4.874" fill="#FF725E"/>
  <path d="M27.33 380.981a4.155 4.155 0 01-.194-.666c-.122-.471-.284-1.088-.471-1.827a19.494 19.494 0 01-.812-6.189 11.97 11.97 0 011.957-5.905 8.621 8.621 0 011.25-1.43c.163-.154.31-.251.399-.325.09-.073.146-.105.154-.097a12.515 12.515 0 00-1.624 1.949 12.313 12.313 0 00-1.86 5.824c-.07 2.067.162 4.133.69 6.132.179.812.317 1.413.398 1.852.062.222.1.451.114.682z" fill="#263238"/>
  <path d="M15.148 354.536c.066.075.12.16.162.251l.406.764c.357.666.853 1.624 1.454 2.826a300.811 300.811 0 014.548 9.446 332.757 332.757 0 014.215 9.601c.512 1.234.918 2.241 1.195 2.94.13.333.227.601.308.812.045.093.078.191.098.292a1.392 1.392 0 01-.139-.268c-.097-.203-.21-.471-.357-.812-.308-.723-.739-1.706-1.267-2.916-1.072-2.436-2.567-5.848-4.272-9.567a481.848 481.848 0 00-4.483-9.471c-.569-1.186-1.04-2.152-1.381-2.859a9.207 9.207 0 01-.366-.812 2.405 2.405 0 01-.121-.227z" fill="#263238"/>
  <path d="M22.725 374.061a12.994 12.994 0 00-10.404-5.62c-1.048 0-2.282.243-2.696 1.202-.415.958.284 2.03 1.04 2.753a11.073 11.073 0 0012.117 1.941" fill="#FF725E"/>
  <path d="M14.067 371.129c.22-.023.44-.023.658 0 .254-.018.51-.018.764 0 .292.041.633.049 1.007.13.405.062.806.146 1.202.252.457.115.907.256 1.348.422 1.014.383 1.98.879 2.884 1.478a13.814 13.814 0 012.436 2.136c.313.352.606.72.877 1.105.244.332.466.68.666 1.04.173.292.33.593.471.901.116.226.217.459.3.699.094.2.165.409.212.625-.049 0-.357-.861-1.129-2.136-.203-.317-.414-.666-.682-1.007a12.28 12.28 0 00-.885-1.072 14.054 14.054 0 00-2.437-2.088 14.467 14.467 0 00-2.818-1.47 13.115 13.115 0 00-1.324-.438c-.423-.13-.813-.203-1.186-.285-1.43-.251-2.364-.243-2.364-.292z" fill="#263238"/>
  <path d="M245.546 381.541h22.076l31.668-153.328-21.167-4.377-32.577 157.705z" fill="#455A64"/>
  <path d="M340.622 332.963l-133.364-27.55-3.777-3.386 14.1-46.572 6.189.406-9.543-5.085 5.458-27.217 133.364 27.55 3.785 3.395-5.531 26.771-10.567.195 5.815 1.112 3.777 3.387-9.706 46.994z" fill="#263238"/>
  <path d="M336.845 329.577l-133.364-27.55 10.324-49.967 6.189.406-5.166-5.369 4.857-23.538 133.364 27.55-5.531 26.771-10.559.195 9.592 4.507-9.706 46.995z" fill="#455A64"/>
  <path d="M339.81 277.798h-.317l-.934-.064-3.59-.293-2.591-.227-3.078-.366c-2.201-.276-4.727-.536-7.48-.991l-4.345-.658c-1.511-.235-3.071-.544-4.687-.812-3.249-.552-6.684-1.275-10.307-2.006-7.237-1.535-15.156-3.395-23.424-5.499-16.528-4.255-31.424-8.349-42.291-11.005-2.705-.69-5.174-1.251-7.31-1.771-2.136-.519-4.061-.942-5.556-1.275l-3.508-.812-.91-.219a1.762 1.762 0 01-.309-.098c.107.005.214.021.317.049l.926.171 3.525.706c1.535.309 3.411.707 5.572 1.202 2.16.496 4.637 1.032 7.358 1.698 10.884 2.566 25.804 6.611 42.324 10.859 8.269 2.104 16.171 3.98 23.392 5.539 3.622.739 7.05 1.478 10.29 2.047 1.625.292 3.176.601 4.679.812l4.329.691c2.753.479 5.263.763 7.464 1.064l3.07.406 2.583.268 3.582.39.926.113.3.081zm6.701-4.264a2.79 2.79 0 01-.3-.194l-.812-.61c-.74-.528-1.795-1.364-3.249-2.355a119.615 119.615 0 00-12.492-7.667 118.186 118.186 0 00-20.037-8.333 114.775 114.775 0 00-26.096-4.809c-9.43-.69-18.429.228-26.624.414a104.91 104.91 0 01-11.655-.235 79.392 79.392 0 01-24.066-5.856c-1.625-.674-2.818-1.243-3.639-1.624l-.926-.472-.308-.17c.115.03.227.073.333.13l.95.422c.812.374 2.055.918 3.663 1.56a82.36 82.36 0 0014.019 4.215 80.875 80.875 0 0010.006 1.413c3.863.269 7.737.332 11.606.187 8.171-.211 17.195-1.145 26.673-.455a113.878 113.878 0 0126.202 4.873 117.06 117.06 0 0120.07 8.464 111.435 111.435 0 0112.434 7.781c1.406 1.007 2.437 1.876 3.168 2.436l.812.65a2.3 2.3 0 01.268.235zm-64.465-35.81c-.201.093-.41.167-.625.22l-1.828.544c-.812.243-1.762.511-2.908.771-1.145.26-2.436.618-3.898.878-1.462.259-3.038.609-4.768.812-1.73.203-3.565.487-5.507.706-4.226.409-8.473.574-12.719.496a114.13 114.13 0 01-12.686-1.048c-1.933-.309-3.769-.577-5.475-.95-1.705-.374-3.248-.699-4.719-1.056-1.47-.357-2.72-.723-3.849-1.048a61.165 61.165 0 01-2.876-.893l-1.803-.626a4.034 4.034 0 01-.617-.243c.221.025.439.074.65.146l1.827.536c.812.244 1.755.528 2.892.812 1.137.284 2.436.674 3.858.975 1.421.3 3.013.69 4.719.991 1.705.3 3.533.609 5.458.901 4.186.556 8.399.889 12.621.999 4.226.075 8.453-.077 12.663-.455 1.933-.211 3.776-.381 5.49-.657 1.714-.277 3.306-.512 4.76-.813 1.453-.3 2.753-.56 3.898-.812a74.187 74.187 0 002.924-.69l1.844-.447c.222-.041.448-.058.674-.049zm-35.501 47.644s.211.114.601.358l1.755 1.08c1.543.934 3.801 2.363 6.822 3.98a45.316 45.316 0 0011.598 4.491c1.224.272 2.464.462 3.712.569a5.803 5.803 0 003.753-.813 3.02 3.02 0 001.121-1.624 4.065 4.065 0 000-2.055 6.301 6.301 0 00-2.559-3.435c-10.169-6.742-24.488-11.656-40.691-12.11a96.717 96.717 0 00-6.141 0c-2.079.065-4.191.552-5.58 2.095a3.813 3.813 0 00-1.064 2.745 4.952 4.952 0 001.138 2.811c1.307 1.673 3.192 2.834 5.003 4.061 7.31 4.954 15.05 9.876 23.757 13.287 8.707 3.412 17.958 4.947 26.673 3.655a38.471 38.471 0 006.335-1.494 10.971 10.971 0 005.255-3.314 9.294 9.294 0 001.876-5.742 13.545 13.545 0 00-1.316-5.864 21.148 21.148 0 00-7.846-8.52 38.071 38.071 0 00-10.177-4.395c-3.452-.999-6.871-1.713-10.136-2.436l-9.397-2.128-28.354-6.441-7.7-1.779-1.998-.471a9.378 9.378 0 01-.682-.178l.69.13 2.014.422 7.724 1.689 28.387 6.287 9.397 2.095c3.249.739 6.693 1.438 10.169 2.437a38.354 38.354 0 0110.299 4.426 21.57 21.57 0 018.024 8.691 14.037 14.037 0 011.365 6.059 9.75 9.75 0 01-1.966 6.035 11.444 11.444 0 01-5.474 3.476 37.781 37.781 0 01-6.424 1.519c-8.821 1.316-18.186-.252-26.917-3.671-8.731-3.42-16.528-8.342-23.822-13.321-1.803-1.25-3.72-2.436-5.101-4.199a5.385 5.385 0 01-1.242-3.086 4.294 4.294 0 011.194-3.078 6.306 6.306 0 012.753-1.722 12.418 12.418 0 013.143-.52 82.718 82.718 0 016.181 0c16.301.495 30.661 5.45 40.895 12.289a6.627 6.627 0 012.672 3.638c.191.73.191 1.496 0 2.226a3.245 3.245 0 01-1.243 1.77 6.124 6.124 0 01-3.955.869 29.867 29.867 0 01-3.761-.592 45.04 45.04 0 01-11.622-4.598c-3.022-1.624-5.263-3.102-6.79-4.061-.748-.479-1.324-.812-1.722-1.12-.398-.309-.626-.423-.626-.423zm97.375 8.666a5.1 5.1 0 01-.812-.154c-.504-.138-1.259-.284-2.226-.455a27.87 27.87 0 00-8.317.065 42.625 42.625 0 00-11.736 3.785 116.58 116.58 0 00-13.044 7.765 106.135 106.135 0 01-13.166 7.716 40.785 40.785 0 01-11.923 3.574 26.08 26.08 0 01-8.39-.236 18.276 18.276 0 01-2.209-.585 4.32 4.32 0 01-.747-.276c.261.041.519.101.771.179.504.146 1.251.308 2.218.495 2.749.45 5.551.474 8.308.073a41.202 41.202 0 0011.777-3.638 109.627 109.627 0 0013.085-7.716 112.99 112.99 0 0113.125-7.765 41.675 41.675 0 0111.883-3.72 26.613 26.613 0 018.398.098c.771.128 1.533.304 2.282.527.249.067.491.157.723.268zm-2.469 13.223c0 .049-.634-.211-1.804-.471a13.908 13.908 0 00-5.027-.162 28.697 28.697 0 00-7.172 2.209 65.956 65.956 0 00-8.179 4.28c-2.826 1.673-5.523 3.306-8.122 4.549a33.494 33.494 0 01-7.155 2.574 20.54 20.54 0 01-5.101.504 11.143 11.143 0 01-1.389-.122 1.817 1.817 0 01-.479-.089c0-.057.674 0 1.868 0a22.319 22.319 0 005.028-.65 35.074 35.074 0 007.033-2.648c2.551-1.251 5.223-2.883 8.057-4.565a61.917 61.917 0 018.269-4.28 27.694 27.694 0 017.309-2.136 13.236 13.236 0 015.117.325c.45.122.892.271 1.324.447.151.058.294.137.423.235zm-42.925-67.299c0 .138-5.141-.869-11.42-2.25-6.278-1.381-11.37-2.607-11.314-2.737.057-.13 5.142.869 11.42 2.25 6.278 1.38 11.314 2.607 11.314 2.737z" fill="#263238"/>
  <path d="M261.579 270.773l-4.175-.91-1.169 5.377-7.757-1.681 1.17-5.385-14.856-3.249 1.129-5.182 16.431-14.798 8.236 1.787-15.026 13.937 5.686 1.235 1.039-4.776 7.513 1.624-1.039 4.784 4.174.91-1.356 6.327zm3.5-8.325c2.014-9.292 8.398-13.475 15.578-11.915 7.18 1.559 11.209 8.032 9.186 17.308-2.022 9.275-8.406 13.482-15.545 11.923-7.14-1.559-11.241-8.041-9.219-17.316zm16.78 3.655c1.284-5.897-.081-8.512-2.607-9.064-2.526-.553-4.873 1.25-6.189 7.147-1.316 5.897.09 8.52 2.656 9.08 2.567.561 4.857-1.259 6.14-7.163zm35.348 16.78l-4.175-.91-1.169 5.385-7.765-1.714 1.178-5.385-14.856-3.248 1.129-5.182 16.423-14.799 8.236 1.812-15.018 13.929 5.686 1.243 1.039-4.784 7.505 1.624-1.04 4.776 4.175.91-1.348 6.343zm-61.574 7.821l-.414 1.763-8.455-1.949 2.64-11.274 8.236 1.925-.415 1.754-6.132-1.437-.69 2.932 5.442 1.283-.398 1.722-5.45-1.275-.731 3.111 6.367 1.445zm9.309 4.037l-1.527-3.842a3.448 3.448 0 01-.439-.089l-2.55-.593-.772 3.249-2.095-.487 2.647-11.282 4.638 1.088c2.965.699 4.451 2.64 3.866 5.142a3.714 3.714 0 01-3.249 2.997l1.73 4.313-2.249-.496zm-.61-10.169l-2.436-.576-1.056 4.499 2.437.569c1.835.43 2.988-.187 3.321-1.625.333-1.437-.43-2.436-2.266-2.867zm12.386 12.931l-1.527-3.842a4.356 4.356 0 01-.438-.089l-2.543-.618-.812 3.29-2.095-.496 2.639-11.281 4.646 1.088c2.965.699 4.443 2.64 3.858 5.141a3.702 3.702 0 01-3.249 2.997l1.722 4.313-2.201-.503zm-.601-10.169l-2.436-.577-1.056 4.5 2.436.568c1.836.431 2.981-.187 3.314-1.624.333-1.438-.422-2.437-2.258-2.867zm5.524 5.368c.812-3.33 3.939-5.19 7.431-4.369 3.493.82 5.507 3.874 4.719 7.22-.788 3.347-3.939 5.198-7.432 4.378-3.492-.82-5.498-3.89-4.718-7.229zm10.038 2.356a4.057 4.057 0 00-1.593-4.222 4.065 4.065 0 00-6.063 1.632 4.056 4.056 0 00.74 4.451c.55.586 1.261.995 2.043 1.176a3.95 3.95 0 004.248-1.568 3.95 3.95 0 00.625-1.469zm10.396 8.39l-1.527-3.842-.446-.089-2.543-.593-.771 3.249-2.096-.488 2.648-11.281 4.638 1.088c2.964.699 4.451 2.64 3.866 5.142a3.721 3.721 0 01-3.249 2.997l1.73 4.312-2.25-.495zm-.609-10.177l-2.436-.569-1.056 4.492 2.436.577c1.844.43 2.989-.187 3.322-1.625.333-1.437-.43-2.445-2.266-2.875z" fill="white"/>
  <path d="M265.761 107.966c.107.043.21.095.308.155l.869.495a24.444 24.444 0 013.111 2.258 27.602 27.602 0 018 11.533 29.04 29.04 0 011.706 9.617 31.411 31.411 0 01-1.925 11.038 30.246 30.246 0 01-6.497 10.558 24.464 24.464 0 01-5.125 4.126 22.733 22.733 0 01-6.271 2.575 42.089 42.089 0 01-13.271.772c-4.297-.317-8.398-.877-12.329-1.056a37.169 37.169 0 00-11.071.901 20.952 20.952 0 00-8.585 4.281 14.185 14.185 0 00-4.369 6.546 13.228 13.228 0 00-.561 5.954 10.561 10.561 0 001.186 3.606c.43.763.715 1.129.69 1.145a9.431 9.431 0 01-.763-1.105 10.254 10.254 0 01-1.275-3.622c-.307-2.028-.138-4.1.495-6.051a14.4 14.4 0 014.402-6.701 21.115 21.115 0 018.699-4.386 36.998 36.998 0 0111.176-.966c3.955.17 8.065.723 12.337 1.031 4.396.44 8.834.182 13.15-.763a22.65 22.65 0 006.156-2.526 24.27 24.27 0 005.036-4.061 29.878 29.878 0 006.4-10.396 31.241 31.241 0 001.941-10.908 28.739 28.739 0 00-1.624-9.511 27.358 27.358 0 00-10.875-13.808l-.813-.528-.308-.203z" fill="#263238"/>
  <path d="M209.573 5.434c2.112 6.124 4.232 12.345 4.532 18.81.301 6.465-1.494 13.312-6.189 17.739-5.442 5.166-13.515 6.148-20.979 6.871 5.369.187 11.257 1.462 14.473 5.767 3.688 4.93 2.486 11.98 0 17.6-2.485 5.62-6.213 10.86-7.228 16.935a28.094 28.094 0 0143.12 24.155c4.621-8.715 12.548-15.846 22.043-18.519 9.495-2.672 20.443-.487 27.542 6.36a36.386 36.386 0 019.958-51.169c-4.321 3.59-11.079 3.16-15.676-.073-4.597-3.233-7.212-8.69-8.187-14.222-.975-5.53-.495-11.2 0-16.796-4.873 6.327-14.969 7.765-21.402 3.038-6.595-4.874-8.26-13.808-9.421-21.93.601 7.943-5.483 15.83-13.32 17.267-7.838 1.438-16.318-3.784-18.575-11.42" fill="#F5F5F5"/>
  <path d="M261.716 103.361c-.577 3.826.487 7.741 1.673 11.42.189.712.539 1.37 1.024 1.925a1.876 1.876 0 002.006.528c.3-.175.562-.409.769-.688.206-.28.354-.598.433-.937.488-1.424.738-2.92.739-4.426 1.21.893 2.518 1.827 4.061 1.9 1.543.073 3.159-1.153 2.924-2.639a3.836 3.836 0 00-1.421-2.063l-8.033-7.416-4.118 2.396m-42.941-77.297s-21.369 15.773-14.831 40.992l2.152.268 7.546-7.814 10.396 14.441-1.446-14.725 4.451 3.249 7.627-15.936s-11.371-8.122-9.747-16.073c.033-.033-6.652-.406-6.148-4.402zm-8.317 53.28a30.415 30.415 0 009.227 17.252l12.686-7.643s-16.487-3.005-21.913-9.609z" fill="#FF725E"/>
  <path d="M237.099 96.206s5.856 9.429 20.727 8.934c10.559-.357 17.373-13.808 14.742-26.665l-8.61 6.498-3.192-2.08v6.79s-3.468 5.012-7.951 2.185c.016 0-3.883 8.285-15.716 4.338zm5.482-72.863c-.504.22 10.16 12.784 10.25 20.305 0 0 3.517-6.863 10.688-7.156 0 0 .26-5.945 6.051-4.702 0-.017-12.37-14.75-26.989-8.447zm34.673 24.577s5.044 8.853 4.873 17.869c0 0-7.269-7.48-13.141-2.218l-1.47-3.549s3.468-.69 3.451-4.873c-.016-4.183-4.117-6.628-4.117-6.628s7.951 6.668 10.404-.6z" fill="#FF725E"/>
  <path d="M233.785 69.671c0 .114-9.259 2.437-20.744 5.214-11.485 2.778-20.817 4.873-20.841 4.8-.025-.073 9.259-2.436 20.743-5.214 11.485-2.778 20.817-4.873 20.842-4.8zm2.436-14.693c-.041.106-5.036-1.624-11.168-3.825s-11.062-4.061-11.022-4.216c.041-.154 5.036 1.625 11.168 3.826 6.132 2.2 11.063 4.11 11.022 4.215zM228.903.17c.114 0 4.004 10.933 8.699 24.505 4.694 13.572 8.406 24.618 8.292 24.618-.113 0-4.004-10.924-8.69-24.496C232.517 11.225 228.797.21 228.903.17zm30.946 31.522c.057.813.032 1.63-.074 2.437a67.856 67.856 0 01-.714 5.767 67.796 67.796 0 01-1.186 5.685 11.78 11.78 0 01-.715 2.298 16.7 16.7 0 01.422-2.371c.301-1.454.691-3.46 1.064-5.686.374-2.225.642-4.256.813-5.726.064-.81.194-1.614.39-2.404zm30.961 1.543c.057.106-7.05 4.362-15.879 9.511-8.829 5.15-16.025 9.243-16.082 9.138-.056-.106 7.042-4.354 15.871-9.503 8.829-5.15 16.025-9.243 16.09-9.146zm.081 39.506a5.808 5.808 0 01-1.178-.081c-.755-.09-1.852-.22-3.192-.406a322.765 322.765 0 01-10.502-1.625 260.49 260.49 0 01-10.429-1.998 83.46 83.46 0 01-3.143-.698 5.319 5.319 0 01-1.137-.317c.394.022.785.076 1.17.162l3.167.56 10.445 1.877 10.47 1.754 3.175.528a6.22 6.22 0 011.154.244zm-11.745 35.071c-.089.081-6.278-6.66-13.807-15.058-7.529-8.398-13.605-15.278-13.515-15.35.089-.074 6.278 6.667 13.807 15.066 7.529 8.398 13.605 15.301 13.515 15.342zm-49.244-3.013c.062-.32.163-.631.301-.926.211-.593.544-1.438.966-2.437.813-2.07 2.055-4.922 3.46-8.04a253.44 253.44 0 013.737-7.928c.503-.999.917-1.81 1.21-2.363a3.82 3.82 0 01.503-.812 4.955 4.955 0 01-.357.91l-1.08 2.436c-.967 2.128-2.234 4.873-3.623 7.968-1.389 3.094-2.623 5.864-3.573 7.992-.431.958-.813 1.762-1.097 2.436-.12.271-.27.527-.447.764zm6.295-40.887c0-.073.65-.138 1.624-.527a7.022 7.022 0 004.435-6.181c.057-1.032-.09-1.682 0-1.69.246.53.355 1.114.317 1.698a6.696 6.696 0 01-4.622 6.449 3.498 3.498 0 01-1.754.251zm6.733 11.534c-.065 0 .284-.577.471-1.568a5.054 5.054 0 00-3.696-5.905c-.958-.276-1.624-.203-1.624-.276a2.875 2.875 0 011.681 0 5.063 5.063 0 014.039 4.24 5.056 5.056 0 01-.124 2.063 2.86 2.86 0 01-.747 1.446zm15.838-6.888c0 .065-.714-.203-1.876-.34a9.414 9.414 0 00-4.459.568 9.314 9.314 0 00-3.63 2.647c-.756.902-1.072 1.568-1.137 1.535.164-.642.472-1.24.901-1.746a8.554 8.554 0 018.366-3.322c.653.08 1.28.305 1.835.658zm-.431-4.743a2.593 2.593 0 01-1.397-.309 5.199 5.199 0 01-2.493-2.38 5.132 5.132 0 01-.39-3.427c.065-.48.271-.93.593-1.291.065 0-.179.511-.301 1.348a5.444 5.444 0 00.479 3.184 5.51 5.51 0 002.275 2.298c.714.406 1.242.504 1.234.577zm-4.792-10.218a4.055 4.055 0 01-1.048.861 6.17 6.17 0 01-3.07 1.194 3.406 3.406 0 01-2.964-1.405c-.488-.771-.317-1.364-.285-1.34.116.412.294.803.528 1.162a3.248 3.248 0 002.697 1.16 7.14 7.14 0 002.94-1.022 4.487 4.487 0 011.202-.61z" fill="#263238"/>
  <path opacity=".3" d="M261.602 104.401a20.52 20.52 0 004.695-3.013l1.503 1.388c-2.047 1.471-4.419 2.851-6.141 4.695a16.4 16.4 0 01-.057-3.07z" fill="black"/>
  <path d="M266.744 100.9a8.287 8.287 0 01-2.412 2.394 8.296 8.296 0 01-3.168 1.229c0-.122 1.397-.577 2.916-1.576 1.519-.999 2.566-2.128 2.664-2.047z" fill="#263238"/>
  <path d="M263.495 101.103a4.919 4.919 0 01-.869.439 9.931 9.931 0 01-1.064.422c-.474.18-.956.334-1.446.463a22.24 22.24 0 01-3.882.715 25.504 25.504 0 01-4.833-.057 25.944 25.944 0 01-4.727-1.056 21.855 21.855 0 01-3.614-1.624c-.504-.252-.918-.544-1.3-.812a7.296 7.296 0 01-.934-.658 4.51 4.51 0 01-.747-.626c.057-.065 1.145.813 3.127 1.803a24.136 24.136 0 003.59 1.479 24.523 24.523 0 009.405 1.096 24.58 24.58 0 003.842-.617c2.152-.463 3.411-1.048 3.452-.967zm.471 13.369a7.414 7.414 0 01-1.088-3.143 7.516 7.516 0 010-3.33c.13 0 .122 1.478.43 3.249.309 1.77.772 3.175.658 3.224zm-45.297-21.588a5.89 5.89 0 01-1.38-1.154 24.35 24.35 0 01-4.963-7.115 6.258 6.258 0 01-.609-1.697c.122-.057 1.186 2.437 3.119 5.23 1.933 2.795 3.923 4.646 3.833 4.736zm-7.626-54.329c.065.05-.755 1.267-1.836 3.363a39.496 39.496 0 00-4.394 17.698c0 2.363.122 3.817.049 3.825a4.482 4.482 0 01-.171-1.015 26.396 26.396 0 01-.178-2.81c-.049-3.103.306-6.2 1.056-9.21a36.34 36.34 0 013.37-8.634 41.568 41.568 0 011.478-2.437 4.48 4.48 0 01.626-.78zm5.977-7.05c.073.09-.43.634-1.137 1.21-.706.577-1.332.967-1.405.878-.073-.09.439-.634 1.137-1.21.699-.577 1.332-.959 1.405-.878z" fill="#FAFAFA"/>
  <path d="M233.622 230.934c.186.147.341.329.455.536.349.596.5 1.287.43 1.974a4.864 4.864 0 01-1.389 2.867 10.43 10.43 0 01-3.476 2.437 10.176 10.176 0 01-5.068.812 9.677 9.677 0 01-5.361-2.437 9.487 9.487 0 01-2.899-5.791 13.104 13.104 0 011.031-6.903 22.336 22.336 0 013.793-5.865c1.479-1.705 3.022-3.248 4.256-4.873a12.959 12.959 0 002.543-5.133 11.379 11.379 0 00-3.696-11.152 16.461 16.461 0 00-2.201-1.551 8.598 8.598 0 012.307 1.421 11.507 11.507 0 013.89 6.222c.392 1.687.408 3.439.049 5.133a13.235 13.235 0 01-2.583 5.296c-1.251 1.665-2.794 3.2-4.248 4.873a22.216 22.216 0 00-3.72 5.767 12.695 12.695 0 00-1.007 6.676 9.09 9.09 0 002.754 5.564 9.33 9.33 0 005.133 2.355 10.01 10.01 0 004.913-.715c2.827-1.194 4.687-3.249 4.817-5.027a3.32 3.32 0 00-.341-1.909c-.211-.398-.406-.56-.382-.577z" fill="#263238"/>
  <path d="M69.12 339.087c2.387-11.135 16.024-91.949 16.024-91.949s-9.836 1.559-11.818 5.084c-2.217 3.874-12.776 63.417-13.961 83.617a19.44 19.44 0 00-2.916 0 10.555 10.555 0 00-6.636 2.81 8.002 8.002 0 00-1.77 8.187 7.896 7.896 0 002.834 3.63c-.154 1.73.398 3.85 1.754 4.736a4.708 4.708 0 005.247-.138 2.905 2.905 0 003.999 1.76 2.905 2.905 0 001.224-1.07c.65 1.511 2.777 1.624 4.313 1.088a9.236 9.236 0 005.685-6.741 11.446 11.446 0 00-1.9-8.723 13.842 13.842 0 00-2.08-2.291z" fill="#FF725E"/>
  <path opacity=".3" d="M71.11 327.497c-5.816-10.217-8.78-21.117-4.37-36.923 3.151-11.33 9.438-22.92 15.22-33.162" fill="black"/>
  <path d="M67.925 349.216a4.62 4.62 0 00.715-.618 2.717 2.717 0 00.585-2.363 3.171 3.171 0 00-2.64-2.282 4.42 4.42 0 00-4.004 1.795 7.422 7.422 0 00-1.503 4.329 8.679 8.679 0 00.699 3.736 9.684 9.684 0 002.047 2.883s-.082 0-.22-.13c-.2-.135-.384-.29-.552-.463a7.242 7.242 0 01-1.551-2.168 8.766 8.766 0 01-.813-3.875 7.73 7.73 0 011.56-4.58 4.805 4.805 0 014.394-1.893 3.49 3.49 0 012.875 2.607 2.859 2.859 0 01-.755 2.542c-.173.175-.374.32-.593.431-.154.041-.244.065-.244.049zm-17.991.723c.281.124.552.268.813.43a6.389 6.389 0 002.33.658 6.231 6.231 0 003.46-.674 4.873 4.873 0 001.625-1.316 2.651 2.651 0 00.536-2.039 6.551 6.551 0 00-1.965-3.411 7.92 7.92 0 00-2.851-1.762l-.496-.179.512-.13a22.892 22.892 0 003.695-1.397 3.637 3.637 0 01-.901.601 12.5 12.5 0 01-2.72 1.105v-.309a8.114 8.114 0 014.32 3.371c.41.621.686 1.321.812 2.054a3.055 3.055 0 01-.625 2.348 5.263 5.263 0 01-1.755 1.413 6.364 6.364 0 01-3.67.625 5.916 5.916 0 01-2.38-.812 3.512 3.512 0 01-.545-.398c-.135-.108-.2-.168-.195-.178z" fill="#263238"/>
  <path d="M57.343 350.077c.138.048-.35 1.21-.163 2.664.214.87.485 1.724.813 2.558a3.777 3.777 0 01-1.21-2.502 3.594 3.594 0 01.56-2.72zm5.985-5.702a3.634 3.634 0 00-.374-.991 1.972 1.972 0 00-.812-.69 2.158 2.158 0 00-1.316-.114 3.683 3.683 0 00-2.07 1.389c-.415.528-.618.901-.675.869-.057-.033.057-.439.43-1.04a3.532 3.532 0 012.226-1.624c.53-.12 1.084-.06 1.576.17.393.196.716.508.926.894.325.674.13 1.161.09 1.137z" fill="#263238"/>
  <path opacity=".3" d="M54.24 341.573a3.883 3.883 0 013.735 1.007 5.895 5.895 0 013.249-1.998 2.658 2.658 0 013.03 1.811 3.24 3.24 0 012.94.146A3.245 3.245 0 0168.81 345a4.502 4.502 0 00-5.612-.633 1.929 1.929 0 00-1.365-1.787 2.732 2.732 0 00-2.298.422 4.739 4.739 0 00-1.511 1.852 7.46 7.46 0 00-3.972-3.306" fill="black"/>
  <path d="M51.413 349.484a3.805 3.805 0 01-1.42-1.162 7.023 7.023 0 01-.618-8.504 3.855 3.855 0 011.234-1.38c.057.048-.463.544-1.015 1.519a7.308 7.308 0 00.593 8.162c.69.877 1.275 1.308 1.226 1.365z" fill="white"/>
  <path d="M227.548 190.819c-.536-1.551-1.998-3.102-3.574-2.655a2.897 2.897 0 00-2.223-3.762 2.91 2.91 0 00-1.619.163 4.704 4.704 0 00-3.249-4.158c-1.551-.487-3.533.422-4.775 1.624a7.82 7.82 0 00-4.606.106 7.98 7.98 0 00-5.222 6.498 10.558 10.558 0 002.022 6.92 27.357 27.357 0 004.256 4.629c-8.365 39.059-51.225 45.849-51.225 45.849l4.02 15.724c41.073-10.144 52.387-42.892 55.465-58.275h1.081a11.46 11.46 0 007.959-4.061 9.24 9.24 0 001.69-8.602z" fill="#FF725E"/>
  <path d="M221.96 196.042a.684.684 0 01.089.235c.059.242.075.492.049.74a2.846 2.846 0 01-1.487 2.184 3.489 3.489 0 01-3.841-.576 4.784 4.784 0 01-1.316-4.597 7.736 7.736 0 012.558-4.11 8.743 8.743 0 013.517-1.819 7.182 7.182 0 012.664-.171c.24.02.477.066.707.138.162 0 .244.073.235.081a9.804 9.804 0 00-3.525.244 8.845 8.845 0 00-3.346 1.819 7.492 7.492 0 00-2.396 3.907 4.42 4.42 0 001.162 4.215 3.176 3.176 0 003.443.609 2.756 2.756 0 001.462-1.949c.03-.316.038-.633.025-.95zm-10.827-14.36h.236c.226.041.449.101.666.179a5.91 5.91 0 012.136 1.316 6.423 6.423 0 011.836 3.248 5.109 5.109 0 010 2.242 3.08 3.08 0 01-1.422 1.974 5.403 5.403 0 01-2.112.674 8.126 8.126 0 01-5.336-1.218l.228-.203c.393.898.684 1.838.869 2.802.092.352.125.717.097 1.08a21.414 21.414 0 00-1.259-3.753l-.219-.471.455.277a7.9 7.9 0 003.167 1.08 6.496 6.496 0 003.891-.634 2.654 2.654 0 001.234-1.705 4.754 4.754 0 000-2.063 6.258 6.258 0 00-1.665-3.111 6.44 6.44 0 00-1.989-1.389c-.504-.244-.821-.325-.813-.325z" fill="#263238"/>
  <path d="M215.933 187.303a3.588 3.588 0 011.738-2.169 3.802 3.802 0 012.705-.642c-.851.274-1.682.608-2.485.999-1.243.772-1.844 1.877-1.958 1.812zm-.633 8.244c.04 0-.211.479-.959.633-.433.077-.88.023-1.283-.154a2.44 2.44 0 01-1.129-1.113 3.543 3.543 0 01-.146-2.753c.235-.666.487-1.024.536-.999a5.554 5.554 0 01-.244 1.08 3.656 3.656 0 00.228 2.477c.202.405.526.737.926.95.326.173.696.247 1.064.212a3.288 3.288 0 001.007-.333z" fill="#263238"/>
  <path opacity=".3" d="M207.373 190.283a3.884 3.884 0 003.151 2.25 5.946 5.946 0 00.512 3.793c.666 1.113 2.177 1.811 3.322 1.202a3.25 3.25 0 004.873 1.876 4.506 4.506 0 01-4.061-3.947 1.922 1.922 0 01-2.25.073 2.714 2.714 0 01-1.12-2.046 4.673 4.673 0 01.471-2.34 7.429 7.429 0 01-5.052-.966" fill="black"/>
  <path d="M102.509 342.263c2.583 10.949 5.16 21.9 7.732 32.854a18.398 18.398 0 00-11.606 2.16c-1.219.691-2.51 2.047-1.852 3.249.511.975 1.852 1.048 2.948.999 8.544-.365 17.056.358 25.65 0l-.472-33.3m23.928-5.962c-2.572 10.949-5.149 21.9-7.732 32.854a18.417 18.417 0 0111.615 2.16c1.218.691 2.501 2.047 1.851 3.249-.519.975-1.851 1.048-2.948.999-8.552-.365-17.056.358-25.649 0l.471-33.3" fill="#FF725E"/>
  <path opacity=".3" d="M104.312 349.914l1.064 4.345c6.985.382 13.759 1.438 19.623.147l-.057-3.834s-7.229-.382-11.371-1.47l1.893 3.468a51.558 51.558 0 01-11.152-2.656zm22.027 4.427s6.887 1.868 13.531.714c5.621-.966 6.409-1.981 6.409-1.981l1.746-7.326s-7.781 4.442-19.875 2.046l6.311 2.583h-8.057l-.065 3.964z" fill="black"/>
  <path d="M180.099 300.134a75.095 75.095 0 00-10.023-15.204v-.057c2.135.443 4.32.605 6.498.479a37.098 37.098 0 01-9.519-10.421c-3.322-12.256-6.88-24.569-6.953-37.093l-74.52-.577a229.845 229.845 0 01-10.298 43.859c-5.142 15.432-10.95 33.796-.69 48.911a27.459 27.459 0 006.935 6.904 100.649 100.649 0 0010.25 9.446 654.254 654.254 0 01-1.86-4.751l1.276.568a50.599 50.599 0 0025.397 10.859l-1.381-3.305c10.673 1.852 21.516 1.291 31.205-3.249 18.088-8.528 27.615-18.624 29.857-31.863 1.145-6.709-.154-12.735-2.169-18.754l5.995 4.248z" fill="#FF725E"/>
  <path d="M155.506 303.813h-.301c-.195 0-.487-.081-.812-.17a23.177 23.177 0 01-3.095-.926 25.985 25.985 0 01-9.161-5.897l.341-.227c.357.918.731 1.868 1.104 2.843.683 1.77 1.349 3.476 1.958 5.052l.463 1.202-.812-.999c-2.323-2.884-4.338-5.377-5.816-7.221l-1.624-2.104a6.301 6.301 0 01-.561-.812c.247.208.471.442.666.699l1.747 2.038 5.937 7.115-.349.203c-.609-1.575-1.276-3.248-1.966-5.043-.382-.975-.747-1.933-1.104-2.843l-.358-.926.699.707a27.222 27.222 0 008.934 5.929c.991.401 2.002.751 3.029 1.047.366.091.727.203 1.081.333zM91.13 289.072a7.313 7.313 0 01-.813-1.933 21.463 21.463 0 01-.828-10.072 7.437 7.437 0 01.512-2.046 17.308 17.308 0 01-.211 2.079 26.87 26.87 0 00-.065 5.011 27.59 27.59 0 00.877 4.939c.215.663.391 1.338.528 2.022zm2.493-6.352a4.343 4.343 0 01-.511-1.47 16.651 16.651 0 01-.471-3.711c-.017-1.25.103-2.497.357-3.72a4.769 4.769 0 01.471-1.479 50.605 50.605 0 00-.406 5.199c.096 1.736.283 3.465.56 5.181zm26.47 47.701a1.744 1.744 0 01-.447-.081c-.292-.073-.723-.162-1.267-.325a38.199 38.199 0 01-4.54-1.624 42.561 42.561 0 01-13.239-8.87l.316-.276c.171.228.342.479.52.731a28.219 28.219 0 013.639 7.456l.154.488-.438-.26a22.286 22.286 0 01-7.79-7.586 21.62 21.62 0 01-1.437-2.794 11.066 11.066 0 01-.292-.812 1.066 1.066 0 01-.082-.285c.188.324.354.661.496 1.007a24.37 24.37 0 001.519 2.721 22.729 22.729 0 007.781 7.375l-.285.236a28.277 28.277 0 00-3.614-7.31l-.504-.723.317-.276a44.195 44.195 0 0013.052 8.934 46.158 46.158 0 004.476 1.722c.536.187.958.3 1.234.398.149.036.293.088.431.154zm-38.141-75.592a.87.87 0 010 .195v.553c-.041.495-.13 1.21-.252 2.136-.26 1.843-.747 4.507-1.535 7.74-.788 3.233-1.9 7.058-3.25 11.257-1.347 4.199-2.834 8.796-4.206 13.686a102.18 102.18 0 00-3.054 13.929 48.21 48.21 0 00-.187 11.623 33.19 33.19 0 001.779 7.634c.34.861.609 1.536.812 1.974l.22.512c.03.056.052.116.064.178 0 0 0-.048-.105-.154-.106-.105-.155-.3-.26-.495-.236-.431-.528-1.097-.886-1.958a31.523 31.523 0 01-1.933-7.659 47.341 47.341 0 01.106-11.712 99.115 99.115 0 012.997-14.027c1.389-4.873 2.916-9.486 4.248-13.685 1.332-4.199 2.485-7.984 3.305-11.201.82-3.216 1.357-5.864 1.625-7.699.146-.918.26-1.625.325-2.12l.09-.552a.648.648 0 01.097-.155z" fill="#263238"/>
  <path d="M85.12 334.166a4.945 4.945 0 01-.528-.439c-.317-.301-.813-.707-1.43-1.332a29.135 29.135 0 01-4.37-5.686 37.353 37.353 0 01-4.06-9.868 47.673 47.673 0 01-1.422-12.995 70.319 70.319 0 011.673-12.955c.861-3.923 1.868-7.399 2.77-10.299a222.633 222.633 0 012.25-6.814c.276-.771.487-1.389.65-1.844.068-.218.155-.43.26-.633a5.11 5.11 0 01-.18.666c-.138.455-.332 1.08-.576 1.86-.504 1.624-1.25 3.955-2.12 6.855-.869 2.899-1.836 6.376-2.672 10.29a71.958 71.958 0 00-1.624 12.882c-.1 4.336.38 8.665 1.429 12.873a37.856 37.856 0 003.923 9.812 30.726 30.726 0 004.231 5.742c.553.642 1.064 1.056 1.365 1.389.159.152.303.317.43.496zm7.618 2.493a28.477 28.477 0 01-3.923-3.03 27.994 27.994 0 01-3.647-3.354 29.286 29.286 0 013.915 3.03 29.17 29.17 0 013.655 3.354z" fill="white"/>
  <path d="M63.287 108.632c-.609.155-15.618 7.091-12.792 26.998 2.437 17.438 12.792 17.869 12.792 17.869l19.233-16.813s-13.962-1.486-17.568-11.663c-3.663-10.356-1.665-16.391-1.665-16.391z" fill="#455A64"/>
  <path d="M71.694 132.763c0 .081-1.39.049-3.542.569a17.6 17.6 0 00-12.475 10.94c-.812 2.071-.942 3.46-1.023 3.444a3.983 3.983 0 01.08-.975c.146-.875.366-1.737.659-2.575a17.062 17.062 0 0112.662-11.127 14.382 14.382 0 012.64-.317c.333-.032.67-.018.999.041zm-5.726-6.311c0 .081-1.13-.13-2.924 0a13.87 13.87 0 00-11.24 7.31c-.813 1.624-1.114 2.688-1.195 2.664.007-.277.06-.552.154-.812.204-.699.476-1.377.812-2.023a13.398 13.398 0 0111.485-7.48 11.39 11.39 0 012.16.106c.26.04.512.119.748.235zm-14.66-3.533s0-.203.178-.544c.222-.477.495-.929.813-1.348a8.559 8.559 0 014.166-2.981 7.161 7.161 0 015.1.276c.486.212.942.485 1.357.812.293.22.43.374.414.39-.016.016-.674-.455-1.884-.893a7.375 7.375 0 00-4.873-.155 8.985 8.985 0 00-4.061 2.77c-.812.958-1.137 1.706-1.21 1.673z" fill="#263238"/>
  <path d="M59.543 112.109s-.39.43-1.097 1.194a27.37 27.37 0 00-2.696 3.46 26.45 26.45 0 00-1.3 27.468 28.18 28.18 0 002.364 3.696c.625.812.999 1.267.974 1.291a1.831 1.831 0 01-.308-.292c-.179-.203-.471-.487-.812-.902a23.694 23.694 0 01-2.494-3.655 26.044 26.044 0 011.308-27.777 24.239 24.239 0 012.834-3.403c.358-.382.675-.634.878-.812a1.44 1.44 0 01.349-.268z" fill="#FAFAFA"/>
  <path d="M177.191 110.346c.601.146 15.611 7.091 12.784 26.998-2.436 17.438-12.784 17.868-12.784 17.868l-19.233-16.804s13.954-1.486 17.568-11.663c3.655-10.364 1.665-16.399 1.665-16.399z" fill="#455A64"/>
  <path d="M168.776 134.469a4.19 4.19 0 01.975-.041c.888.032 1.771.14 2.64.325a16.996 16.996 0 0112.662 11.127c.293.838.513 1.699.658 2.575.071.317.101.642.089.966-.089 0-.235-1.364-1.031-3.443a17.582 17.582 0 00-12.443-10.933c-2.128-.519-3.558-.471-3.55-.576zm6.124-6.238c.245-.095.502-.156.764-.179a10.895 10.895 0 012.12-.113c2.365.105 4.653.873 6.603 2.217a13.58 13.58 0 014.573 5.23c.312.639.565 1.305.755 1.99.088.246.138.503.146.764-.073 0-.341-1.056-1.169-2.615a14.391 14.391 0 00-4.541-5.052 13.194 13.194 0 00-6.384-2.266c-1.762-.13-2.858.105-2.867.024zm14.263-3.598c-.065 0-.39-.715-1.202-1.714a8.93 8.93 0 00-4.061-2.761 7.306 7.306 0 00-4.873.154c-1.21.439-1.836.958-1.884.893-.049-.065.121-.17.414-.398a6.559 6.559 0 011.356-.812 7.221 7.221 0 015.109-.276 8.575 8.575 0 014.158 2.989c.32.418.592.87.813 1.348.097.178.155.375.17.577z" fill="#263238"/>
  <path d="M178.548 112.149c.143.296.254.607.333.926.124.366.222.741.292 1.121.118.501.211 1.008.276 1.519.087.614.142 1.232.163 1.852.036.714.036 1.43 0 2.144a23.676 23.676 0 01-.813 4.824 23.197 23.197 0 01-1.916 4.516c-.39.642-.74 1.267-1.146 1.803a15.6 15.6 0 01-1.153 1.47c-.327.394-.677.768-1.048 1.121a6.892 6.892 0 01-.853.812 4.129 4.129 0 01-.812.602c-.057-.065 1.048-.951 2.437-2.697.389-.473.752-.966 1.088-1.478.39-.528.723-1.154 1.105-1.787a25.216 25.216 0 001.844-4.451c.441-1.546.729-3.132.86-4.735 0-.739.09-1.438.057-2.104-.006-.61-.044-1.22-.113-1.827-.244-2.266-.691-3.606-.601-3.631z" fill="#FAFAFA"/>
  <path d="M108.357 121.831s-2.534.723-1.446-9.43l8.699 9.438s-3.533-5.815-4.484-10.892c0 0 10.998 10.177 14.815 10.892 3.817.715 29.938 2.168 45.167 15.229 15.229 13.06 22.14 25.714 23.797 39.408 2.697 22.197-1.307 41.114-11.825 53.809l-.358-3.623s-11.249 16.317-28.297 21.036c-17.048 4.719-67.47 0-67.47 0s-28.289-7.618-38.084-29.743c-9.795-22.124-4.354-25.389-4.354-25.389l-4.215 3.98s-1.105-31.855 27.428-54.418c22.49-17.755 40.627-20.297 40.627-20.297z" fill="#FF725E"/>
  <path d="M163.229 244.076s-.057.048-.187.113l-.576.301c-.512.26-1.251.65-2.242 1.121a106.458 106.458 0 01-8.569 3.647 76.174 76.174 0 01-13.564 3.752 51.853 51.853 0 01-8.414.812 41.583 41.583 0 01-9.162-.861l.163-.373 7.041 4.873.853.593-1.023-.219-1.884-.398-16.764-3.599.187-.341 3.931 4.143.454.471-.633-.155a99.62 99.62 0 01-21.654-8.024 92.513 92.513 0 01-5.75-3.184c-.658-.39-1.145-.707-1.478-.918l-.374-.252c-.09-.057-.13-.081-.122-.089l.138.065.39.219 1.511.869c1.316.756 3.249 1.836 5.791 3.087a103.052 103.052 0 0021.637 7.854l-.187.316a14184.16 14184.16 0 01-3.939-4.126l-.455-.471.642.138 16.764 3.582 1.884.406-.162.374-7.034-4.914-.812-.593 1.007.22c2.981.619 6.02.911 9.064.869a51.57 51.57 0 008.366-.764 78.178 78.178 0 0013.523-3.647c3.72-1.348 6.62-2.631 8.61-3.525l2.266-1.056.593-.268.17-.048z" fill="#263238"/>
  <path opacity=".3" d="M163.229 244.076c-13.693 6.863-29.198 11.614-42.665 8.674l7.034 4.914-18.681-3.996c1.316 1.381 2.632 2.753 3.94 4.134a100.892 100.892 0 01-29.418-12.281s14.83 15.497 32 16.326c28.33 1.356 47.79-17.771 47.79-17.771z" fill="black"/>
  <path d="M68.469 222.244a2.382 2.382 0 01-.503-.285c-.317-.203-.813-.479-1.39-.901a32.884 32.884 0 01-4.67-3.947 36.228 36.228 0 01-9.616-17.56l.414-.049v.3c.122 4.354.244 8.472.358 12.135v.974l-.39-.893a39.24 39.24 0 01-3.127-11.615 33.883 33.883 0 01-.212-3.411v-.909a1.534 1.534 0 010-.309 1.33 1.33 0 010 .309c0 .232.017.533.05.901 0 .812.121 1.941.316 3.395a40.766 40.766 0 003.249 11.485l-.366.081c-.121-3.655-.26-7.781-.406-12.126v-.268l.423-.049a36.258 36.258 0 004.004 10.234 37.145 37.145 0 009.965 11.192c.56.447 1.04.739 1.34.975.198.094.386.208.561.341zm112.344-20.119s.074-.138.252-.373l.812-1.032c.317-.463.642-1.072 1.056-1.754l.536-1.153.293-.626c.081-.227.17-.455.252-.69 1.47-3.736 2.355-9.3 2.306-15.432 0-.869 0-1.73-.089-2.559l-.106-1.624.52 1.543c.536 1.625 1.048 3.135 1.535 4.581h-.373a15.981 15.981 0 001.007-5.799 16.56 16.56 0 00-.715-4.589 22.588 22.588 0 00-1.624-3.809s.073.073.178.227c.106.154.268.374.447.69.52.893.944 1.838 1.267 2.819.499 1.502.773 3.071.812 4.654a15.85 15.85 0 01-.966 5.945l-.195.528-.179-.536-1.559-4.573.406-.081c.057.853.081 1.706.089 2.583.049 6.173-.885 11.785-2.437 15.537-.097.236-.186.471-.276.691l-.308.633-.577 1.154c-.439.682-.812 1.283-1.129 1.73l-.812.99c-.309.228-.414.342-.423.325zm-35.956-60.363a2.994 2.994 0 01-.568 0c-.366 0-.918 0-1.625-.048a40.295 40.295 0 01-5.912-.772 44.26 44.26 0 01-17.869-8.073l.276-.317.138.146c2.664 2.705 5.198 5.288 7.505 7.643l.447.455-.618-.13a19.598 19.598 0 01-6.497-2.559 19.941 19.941 0 01-4.248-3.476 18.901 18.901 0 01-2.169-2.843c-.219-.349-.357-.641-.463-.812-.105-.17-.154-.292-.138-.292.255.339.491.691.707 1.056a22.085 22.085 0 002.242 2.745 19.87 19.87 0 004.239 3.362 19.625 19.625 0 006.425 2.437l-.171.333-7.529-7.61-.138-.138.276-.317a45.337 45.337 0 0017.649 8.122c1.935.422 3.893.723 5.865.901.698.082 1.242.09 1.624.13.186-.002.371.017.552.057z" fill="#263238"/>
  <path d="M91.179 131.252a.702.702 0 01-.195.09l-.577.211c-.504.187-1.275.422-2.225.812a71.042 71.042 0 00-45.41 54.881c-.196 1.007-.277 1.795-.366 2.331 0 .243-.073.446-.106.609a.674.674 0 01-.048.203v-.211c0-.138 0-.366.056-.609.073-.536.122-1.34.293-2.356a65.271 65.271 0 011.835-8.512 69.167 69.167 0 014.662-12.045 68.425 68.425 0 0120.037-24.211 69.326 69.326 0 0110.957-6.839 65.36 65.36 0 018.025-3.395c.966-.358 1.738-.561 2.258-.723l.584-.171a.673.673 0 01.22-.065zm-36.793 88.904a6.281 6.281 0 01-.813-.812 14.9 14.9 0 01-.893-1.023c-.333-.415-.731-.869-1.105-1.422a31.994 31.994 0 01-2.477-3.996 35.646 35.646 0 01-2.225-5.303 36.254 36.254 0 01-1.3-5.613 32.587 32.587 0 01-.3-4.686c0-.666 0-1.275.073-1.803.02-.454.063-.907.13-1.357a6.36 6.36 0 01.194-1.137c.04.384.04.77 0 1.154 0 .373-.056.812-.056 1.356v1.787c.03 1.55.16 3.096.39 4.629a39.642 39.642 0 001.29 5.54 38.23 38.23 0 002.17 5.255 34.263 34.263 0 002.38 3.996c.357.56.738 1.031 1.047 1.454.309.422.593.812.812 1.064.256.284.484.591.682.917zm6.717 7.619c-.04.105-.812-.073-1.625-.642-.812-.568-1.267-1.251-1.177-1.316.089-.065.65.439 1.421.967.772.528 1.421.869 1.38.991zm49.406-104.669a9.374 9.374 0 01-3.249-8.171c.186 1.477.524 2.93 1.008 4.337a21.107 21.107 0 002.241 3.834z" fill="#FAFAFA"/>
  <path opacity=".3" d="M103.143 213.123c.487-.813.982-1.625 1.478-2.437a1.526 1.526 0 00.365 1.34c.331.351.722.639 1.154.853.812.455 1.884.812 2.712.374a2.357 2.357 0 00.813-2.551c-.155-.747-.496-1.454-.699-2.193a2.88 2.88 0 01.146-2.233 3.578 3.578 0 012.226-1.292 27.678 27.678 0 019.681-1.031 17.275 17.275 0 019.04 3.387c-.219-1.162-1.251-1.974-2.266-2.583a18.151 18.151 0 00-14.092-1.958 16.123 16.123 0 00-10.51 9.455" fill="black"/>
  <path d="M105.344 208.818a6.535 6.535 0 002.128 3.541 1.362 1.362 0 001.413.406c.528-.268.544-1.015.447-1.624a13.296 13.296 0 00-1.852-4.833m25.153 2.51a6.503 6.503 0 01-2.119 3.541 1.381 1.381 0 01-1.422.406c-.528-.268-.544-1.015-.446-1.624a13.147 13.147 0 011.859-4.833" fill="#FAFAFA"/>
  <path d="M136.435 212.473c-.26.195-1.73-1.625-4.614-3.939a25.745 25.745 0 00-5.482-3.298 20.902 20.902 0 00-7.481-1.77 17.452 17.452 0 00-7.488 1.25 14.671 14.671 0 00-5.093 3.542c-2.436 2.647-2.875 5.051-3.208 4.962-.13 0-.203-.633 0-1.722a11.106 11.106 0 012.031-4.207 14.736 14.736 0 015.45-4.353 17.86 17.86 0 018.382-1.584c2.85.132 5.643.851 8.203 2.112a22.396 22.396 0 015.62 3.939c2.843 2.704 3.891 4.93 3.68 5.068z" fill="#263238"/>
  <path opacity=".3" d="M125.6 223.007c.13.244-.56.926-1.933 1.625a15.074 15.074 0 01-11.655.463c-1.421-.569-2.16-1.194-2.055-1.454.236-.561 3.623.487 7.846.284 4.224-.203 7.513-1.462 7.797-.918z" fill="black"/>
  <path d="M88.027 163.172a98.353 98.353 0 0062.378.544s-4.004 28.484-31.14 30.052c-27.136 1.567-31.238-30.596-31.238-30.596z" fill="#FAFAFA"/>
  <path d="M108.706 168.045a32.741 32.741 0 003.151 19.493 12.027 12.027 0 003.184 4.41 5.33 5.33 0 005.141.991c1.625-.674 2.664-2.323 3.412-3.939 3.249-7.058 3.59-12.816 3.931-20.589-5.962 1.535-12.265 1.251-18.819-.366z" fill="#263238"/>
  <path opacity=".3" d="M146.376 178.791c.106.057-.236.999-1.137 2.558a27.203 27.203 0 01-4.873 5.929 33.652 33.652 0 01-4.118 3.338 34.77 34.77 0 01-5.393 2.892 30.744 30.744 0 01-27.217-1.292 35.094 35.094 0 01-5.093-3.395 33.322 33.322 0 01-3.825-3.687 26.942 26.942 0 01-4.24-6.36c-.755-1.624-1.007-2.607-.893-2.655.113-.049.657.812 1.624 2.249a35.386 35.386 0 004.621 5.743 36.313 36.313 0 003.81 3.33 35.5 35.5 0 004.922 3.045 30.362 30.362 0 0025.568 1.219 36.378 36.378 0 005.19-2.567 37.085 37.085 0 004.11-2.956 36.036 36.036 0 005.141-5.271c1.072-1.406 1.657-2.202 1.803-2.12zm-2.087-19.851a3.317 3.317 0 00-2.437.528 42.699 42.699 0 01-24.171 4.143c-8.228-1.024-16.691-3.899-22.977-9.308-1.714.909-2.145 3.314-1.405 5.1.739 1.787 2.347 3.046 3.98 4.061a40.841 40.841 0 0018.818 6.092 61.777 61.777 0 0019.81-1.876c3.184-.812 6.497-1.876 8.601-4.411a4.129 4.129 0 001.048-2.306 2.04 2.04 0 00-1.267-2.023z" fill="black"/>
  <path d="M143.225 158.754c.308.43-1.803 2.761-6.295 5.043a33.916 33.916 0 01-8.325 2.892 36.002 36.002 0 01-21.385-2.063 34.428 34.428 0 01-7.635-4.41c-3.972-3.095-5.604-5.791-5.214-6.149.39-.357 2.785 1.413 6.855 3.647a42.332 42.332 0 0034.567 3.306c4.427-1.405 7.074-2.786 7.432-2.266z" fill="#263238"/>
  <path d="M114.676 187.424s-.187-.162-.455-.511a13.663 13.663 0 01-1.024-1.543 19.938 19.938 0 01-2.607-11.786c.056-.617.151-1.23.285-1.835.097-.422.162-.658.194-.65.033.008-.105.959-.178 2.51-.2 4.034.686 8.048 2.566 11.622.699 1.365 1.276 2.137 1.219 2.193z" fill="#FAFAFA"/>
  <path d="M156.853 162.035c-.845.498-1.744.898-2.68 1.194a44.53 44.53 0 01-3.249 1.169c-1.283.398-2.721.926-4.361 1.332-1.641.407-3.42.943-5.377 1.324-.975.203-1.974.447-3.022.626l-3.248.536c-4.812.711-9.667 1.08-14.531 1.104a104.505 104.505 0 01-14.53-1.055c-2.209-.374-4.321-.691-6.254-1.154-.975-.219-1.917-.414-2.81-.633l-2.567-.699c-1.624-.422-3.086-.934-4.361-1.348-.642-.219-1.235-.406-1.78-.601l-1.461-.585a12.611 12.611 0 01-2.672-1.21c.073-.211 3.988 1.259 10.501 2.875l2.559.609c.893.203 1.835.366 2.802.561 1.925.422 4.012.682 6.205 1.031 4.766.609 9.564.923 14.368.942 4.811-.021 9.616-.352 14.384-.991l3.2-.471c1.04-.154 2.039-.381 3.006-.56 1.941-.333 3.728-.812 5.36-1.161 1.633-.35 3.095-.813 4.386-1.146a57.389 57.389 0 003.249-.95 12.871 12.871 0 012.883-.739zM370 381.541c0 .114-82.845.212-184.996.212C82.853 381.753 0 381.655 0 381.541c0-.113 82.845-.211 185.004-.211 102.159 0 184.996.098 184.996.211z" fill="#263238"/>
  <path d="M143.963 116.356l-4.402-19.81 10.494-1.08 3.411-17.681 1.519 21.84-10.656 1.064-.366 15.667zm5.946 2.608l6.79-14.182 6.92 4.362 10.526-9.154-9.511 14.044-7.009-4.451-7.716 9.381z" fill="#FF725E"/>
  <path opacity=".6" d="M143.963 116.356l-4.402-19.81 10.494-1.08 3.411-17.681 1.519 21.84-10.656 1.064-.366 15.667zm5.946 2.608l6.79-14.182 6.92 4.362 10.526-9.154-9.511 14.044-7.009-4.451-7.716 9.381z" fill="white"/>
</svg>
