<svg preserveAspectRatio="xMinYMin meet" viewBox="0 0 1156 1000"  fill="none" xmlns="http://www.w3.org/2000/svg">
  <g filter="url(#иллюстрация__filter0_f)">
    <path d="M609.783 635.616c143.475 0 259.783-63.938 259.783-142.808C869.566 413.937 753.258 350 609.783 350 466.309 350 350 413.937 350 492.808c0 78.87 116.309 142.808 259.783 142.808z" fill="url(#иллюстрация__paint0_linear)"/>
  </g>
  <g filter="url(#иллюстрация__filter1_bdd)">
    <path d="M610.057 635.271c143.474 0 259.783-63.938 259.783-142.808 0-78.871-116.309-142.808-259.783-142.808-143.474 0-259.783 63.937-259.783 142.808 0 78.87 116.309 142.808 259.783 142.808z" fill="#fff" fill-opacity=".1"/>
  </g>
  <path d="M591.908 507.625L741.1 421.464c1.767-1.015 1.767-2.668 0-3.683l-65.436-37.779a7.002 7.002 0 00-6.384 0L520.088 466.22c-1.767 1.015-1.767 2.668 0 3.682l65.448 37.78a6.978 6.978 0 006.372-.057z" fill="#E0E0E0"/>
  <path d="M466.189 524.907l-95.372-55.062c-1.756-1.014-1.756-2.667 0-3.682l155.222-89.627a7.079 7.079 0 016.384 0l95.372 55.062c1.767 1.026 1.767 2.668 0 3.694l-155.222 89.615a7.08 7.08 0 01-6.384 0z" fill="#E0E0E0"/>
  <path d="M516.429 368.1l-143.287 82.741a4.106 4.106 0 00-1.869 3.227v3.773a4.097 4.097 0 001.869 3.226l94.21 54.401a4.133 4.133 0 003.728 0l143.32-82.753a4.125 4.125 0 001.859-3.226v-3.773a4.11 4.11 0 00-1.87-3.226l-94.232-54.39a4.136 4.136 0 00-3.728 0z" fill="#37474F"/>
  <path d="M467.352 507.385l-94.21-54.389a1.142 1.142 0 010-2.155L516.429 368.1a4.133 4.133 0 013.728 0l94.232 54.39a1.137 1.137 0 01.545 1.725 1.145 1.145 0 01-.545.418L471.08 507.385a4.123 4.123 0 01-3.728 0z" fill="#455A64"/>
  <path d="M469.335 507.83v8.071a3.857 3.857 0 01-1.972-.422l-94.232-54.412a4.117 4.117 0 01-1.858-3.215v-3.773a4.172 4.172 0 011.516-2.998c-.661.604-.547 1.391.342 1.904l94.232 54.4c.607.32 1.287.474 1.972.445z" fill="#263238"/>
  <path d="M591.885 430.31l-3.921 2.28 13.919-105.017 3.933-2.268-13.931 105.005z" fill="#E0E0E0"/>
  <path d="M587.964 432.59l-83.984-48.473 13.919-105.005 83.984 48.461-13.919 105.017z" fill="#FAFAFA"/>
  <path d="M605.816 325.305l-3.933 2.268-83.984-48.461 3.99-2.303 83.927 48.496z" fill="#EBEBEB"/>
  <path d="M597.494 329.158l-76.973-44.426-12.631 95.954 76.973 44.357 12.631-95.885z" fill="#FE9417"/>
  <path opacity=".8" d="M597.494 329.158l-76.973-44.426-12.631 95.954 76.973 44.357 12.631-95.885z" fill="#fff"/>
  <path d="M516.144 343.727l19.756-18.719c2.063-1.949 4.503-1.345 5.415 1.345l14.159 41.702a.937.937 0 001.644.282.937.937 0 00.18-.647l-.616-8.79 12.597-8.869a4.324 4.324 0 015.37.13c.496.415.894.935 1.162 1.523l14.82 29.64-5.266 39.9-73.975-42.636 4.754-34.861zm66.975-14.307c-3.42-2.006-6.726-.638-7.262 3.044-.536 3.682 1.892 8.31 5.404 10.34 3.511 2.029 6.76.672 7.261-3.033.502-3.705-1.926-8.367-5.403-10.351z" fill="#FE9417"/>
  <path d="M524.01 286.761l-12.62 91.827-3.488 2.029 12.619-95.885 3.489 2.029z" fill="#E0E0E0"/>
  <path d="M511.39 378.588l73.975 42.682-.502 3.773-76.961-44.426 3.488-2.029z" fill="#EBEBEB"/>
  <path d="M571.001 442.417l-3.933 2.268 13.93-105.005 3.933-2.269-13.93 105.006z" fill="#E0E0E0"/>
  <path d="M567.068 444.685l-83.984-48.472 13.919-105.006 83.995 48.473-13.93 105.005z" fill="#FAFAFA"/>
  <path d="M584.931 337.411l-3.933 2.269-83.995-48.473 3.99-2.303 83.938 48.507z" fill="#EBEBEB"/>
  <path d="M576.609 341.253l-76.972-44.414-12.632 95.942 76.973 44.369 12.631-95.897z" fill="#FE9417"/>
  <path opacity=".8" d="M576.609 341.253l-76.972-44.414-12.632 95.942 76.973 44.369 12.631-95.897z" fill="#fff"/>
  <path d="M495.248 355.822l19.744-18.707c2.064-1.961 4.56-1.357 5.415 1.334l14.159 41.701a.933.933 0 001.644.282.93.93 0 00.18-.647l-.615-8.789 12.597-8.858a4.325 4.325 0 013.667-.74 4.34 4.34 0 012.876 2.393l14.82 29.64-5.255 39.9-73.986-42.67 4.754-34.839zm66.975-14.318c-3.477-2.006-6.715-.65-7.251 3.032-.536 3.683 1.881 8.322 5.404 10.352 3.522 2.029 6.76.661 7.25-3.044.49-3.705-1.926-8.334-5.403-10.34z" fill="#FE9417"/>
  <path d="M503.125 298.857l-12.631 91.838-3.477 2.018 12.62-95.874 3.488 2.018z" fill="#E0E0E0"/>
  <path d="M490.494 390.695l73.974 42.67-.49 3.785-76.961-44.437 3.477-2.018z" fill="#EBEBEB"/>
  <path d="M550.104 454.524l-3.921 2.268 13.919-105.005 3.933-2.28-13.931 105.017z" fill="#E0E0E0"/>
  <path d="M546.183 456.792l-83.995-48.473 13.93-105.005 83.984 48.473-13.919 105.005z" fill="#FAFAFA"/>
  <path d="M564.035 349.507l-3.933 2.28-83.984-48.473 3.99-2.303 83.927 48.496z" fill="#EBEBEB"/>
  <path d="M555.713 353.36l-76.973-44.426-12.631 95.954 76.973 44.357 12.631-95.885z" fill="#FE9417"/>
  <path opacity=".8" d="M555.713 353.36l-76.973-44.426-12.631 95.954 76.973 44.357 12.631-95.885z" fill="#fff"/>
  <path d="M474.34 367.929l19.745-18.719c2.063-1.949 4.491-1.345 5.415 1.346l14.147 41.701a.937.937 0 001.644.282.932.932 0 00.18-.647l-.615-8.789 12.608-8.87a4.324 4.324 0 015.369.131c.497.414.894.934 1.163 1.522l14.82 29.64-5.255 39.9-73.975-42.67 4.754-34.827zm66.998-14.33c-3.477-2.006-6.726-.638-7.262 3.044-.536 3.682 1.892 8.311 5.404 10.34 3.511 2.029 6.76.673 7.25-3.032.49-3.705-1.927-8.311-5.392-10.352z" fill="#FE9417"/>
  <path d="M482.229 310.963l-12.62 91.839-3.488 2.018 12.619-95.886 3.489 2.029z" fill="#E0E0E0"/>
  <path d="M469.609 402.802l73.975 42.67-.502 3.773-76.961-44.425 3.488-2.018z" fill="#EBEBEB"/>
  <path d="M529.208 466.619l-3.921 2.269 13.93-105.006 3.922-2.268-13.931 105.005z" fill="#E0E0E0"/>
  <path d="M525.287 468.888l-83.984-48.473 13.919-105.006 83.995 48.473-13.93 105.006z" fill="#FAFAFA"/>
  <path d="M543.139 361.614l-3.922 2.268-83.995-48.473 3.99-2.302 83.927 48.507z" fill="#EBEBEB"/>
  <path d="M534.828 365.455l-76.972-44.414-12.632 95.942 76.973 44.369 12.631-95.897z" fill="#FE9417"/>
  <path opacity=".8" d="M534.828 365.455l-76.972-44.414-12.632 95.942 76.973 44.369 12.631-95.897z" fill="#fff"/>
  <path d="M453.467 380.025L473.2 361.34c2.063-1.949 4.56-1.357 5.415 1.334l14.159 41.701a.933.933 0 001.644.282.936.936 0 00.18-.647l-.616-8.789 12.54-8.858a4.328 4.328 0 016.544 1.653l14.82 29.64-5.267 39.9-73.906-42.636 4.754-34.895zm66.975-14.319c-3.477-2.006-6.726-.65-7.251 3.033-.524 3.682 1.881 8.322 5.392 10.351 3.512 2.029 6.772.672 7.262-3.044.49-3.716-1.926-8.333-5.403-10.34z" fill="#FE9417"/>
  <path d="M461.333 323.07l-12.62 91.827-3.489 2.018 12.632-95.874 3.477 2.029z" fill="#E0E0E0"/>
  <path d="M448.713 414.897l73.974 42.67-.49 3.785-76.973-44.437 3.489-2.018z" fill="#EBEBEB"/>
  <path d="M508.323 478.714l-3.921 2.28 13.919-105.016 3.933-2.269-13.931 105.005z" fill="#E0E0E0"/>
  <path d="M504.402 480.994l-83.995-48.472 13.93-105.006 83.984 48.462-13.919 105.016z" fill="#FAFAFA"/>
  <path d="M522.254 373.709l-3.933 2.269-83.984-48.462 3.979-2.303 83.938 48.496z" fill="#EBEBEB"/>
  <path d="M513.932 377.562l-76.973-44.426-12.631 95.954 76.973 44.358 12.631-95.886z" fill="#FE9417"/>
  <path opacity=".8" d="M513.932 377.562l-76.973-44.426-12.631 95.954 76.973 44.358 12.631-95.886z" fill="#fff"/>
  <path d="M432.582 392.12l19.745-18.719c2.063-1.949 4.491-1.345 5.403 1.345l14.159 41.702a.937.937 0 001.644.282.937.937 0 00.18-.647l-.616-8.79 12.643-8.857a4.337 4.337 0 013.644-.709c.621.16 1.2.455 1.694.865.493.411.89.926 1.16 1.508l14.82 29.64-5.255 39.9-73.975-42.636 4.754-34.884zm66.963-14.318c-3.42-1.995-6.714-.639-7.25 3.043-.536 3.683 1.892 8.311 5.404 10.34 3.511 2.029 6.76.673 7.25-3.032.49-3.705-1.927-8.345-5.404-10.351z" fill="#FE9417"/>
  <path d="M440.448 335.166l-12.62 91.838-3.488 2.018 12.619-95.886 3.489 2.03z" fill="#E0E0E0"/>
  <path d="M427.828 427.004l73.975 42.67-.502 3.774-76.961-44.426 3.488-2.018z" fill="#EBEBEB"/>
  <path d="M487.427 490.821l-3.921 2.269 13.919-105.006 3.933-2.268-13.931 105.005z" fill="#E0E0E0"/>
  <path d="M483.506 493.09l-83.984-48.473 13.919-105.005 83.984 48.472-13.919 105.006z" fill="#FAFAFA"/>
  <path d="M501.358 385.816l-3.933 2.268-83.984-48.472 3.99-2.303 83.927 48.507z" fill="#EBEBEB"/>
  <path d="M493.036 389.658l-76.961-44.415-12.643 95.943 76.973 44.368 12.631-95.896z" fill="#FE9417"/>
  <path opacity=".8" d="M493.036 389.658l-76.961-44.415-12.643 95.943 76.973 44.368 12.631-95.896z" fill="#fff"/>
  <path d="M411.64 404.227l19.745-18.708c2.063-1.949 4.56-1.356 5.415 1.334l14.204 41.747a.933.933 0 001.644.282.93.93 0 00.18-.647l-.615-8.789 12.54-8.858a4.311 4.311 0 013.662-.74 4.329 4.329 0 012.87 2.393l14.82 29.64-5.267 39.9-73.906-42.682 4.708-34.872zm67.021-14.319c-3.42-2.006-6.726-.65-7.251 3.044-.524 3.694 1.881 8.311 5.392 10.34 3.512 2.029 6.761.673 7.262-3.044.502-3.716-1.926-8.333-5.403-10.34z" fill="#FE9417"/>
  <path d="M419.552 347.272l-12.62 91.827-3.489 2.029 12.632-95.885 3.477 2.029z" fill="#E0E0E0"/>
  <path d="M406.932 439.099l73.974 42.671-.501 3.784-76.962-44.426 3.489-2.029z" fill="#EBEBEB"/>
  <path d="M516.429 235.461l-143.287 82.741a4.101 4.101 0 00-1.869 3.238v3.773a4.117 4.117 0 001.869 3.238l94.21 54.389a4.12 4.12 0 003.728 0l143.32-82.752a4.138 4.138 0 001.859-3.226v-3.774a4.11 4.11 0 00-1.87-3.226l-94.232-54.389a4.119 4.119 0 00-3.728-.012z" fill="#37474F"/>
  <path d="M467.352 374.746l-94.21-54.389a1.142 1.142 0 010-2.155l143.287-82.741a4.133 4.133 0 013.728 0l94.232 54.39c1.037.592 1.037 1.55 0 2.154L471.08 374.746a4.062 4.062 0 01-3.728 0z" fill="#455A64"/>
  <path d="M469.335 375.191v8.083a3.995 3.995 0 01-1.972-.434l-94.232-54.412a4.117 4.117 0 01-1.858-3.215v-3.773a4.172 4.172 0 011.516-2.998c-.661.604-.547 1.391.342 1.915l94.232 54.389a3.763 3.763 0 001.972.445z" fill="#263238"/>
  <path d="M591.885 296.816l-3.921 2.269 13.919-105.006 3.933-2.268-13.931 105.005z" fill="#E0E0E0"/>
  <path d="M587.964 299.085l-83.984-48.473 13.919-105.006 83.984 48.473-13.919 105.006z" fill="#FAFAFA"/>
  <path d="M605.816 191.811l-3.933 2.268-83.984-48.473 3.99-2.302 83.927 48.507z" fill="#EBEBEB"/>
  <path d="M597.494 195.652l-76.973-44.414-12.631 95.942 76.973 44.369 12.631-95.897z" fill="#FE9417"/>
  <path opacity=".8" d="M597.494 195.652l-76.973-44.414-12.631 95.942 76.973 44.369 12.631-95.897z" fill="#fff"/>
  <path d="M516.144 210.222L535.9 191.48c2.063-1.961 4.503-1.357 5.415 1.334l14.159 41.701a.933.933 0 001.644.282.936.936 0 00.18-.647l-.616-8.789 12.586-8.801a4.31 4.31 0 016.532 1.642l14.82 29.64-5.267 39.9-73.963-42.682 4.754-34.838zm66.975-14.319c-3.42-2.006-6.726-.65-7.262 3.033-.536 3.682 1.892 8.322 5.404 10.351 3.511 2.029 6.76.661 7.261-3.044.502-3.705-1.926-8.333-5.403-10.34z" fill="#FE9417"/>
  <path d="M524.01 153.256l-12.62 91.838-3.488 2.018 12.619-95.874 3.489 2.018z" fill="#E0E0E0"/>
  <path d="M511.39 245.094l73.975 42.67-.502 3.785-76.961-44.437 3.488-2.018z" fill="#EBEBEB"/>
  <path d="M571.001 308.911l-3.933 2.269 13.93-105.005 3.933-2.269-13.93 105.005z" fill="#E0E0E0"/>
  <path d="M567.068 311.18l-83.984-48.461 13.919-105.006 83.995 48.462-13.93 105.005z" fill="#FAFAFA"/>
  <path d="M584.931 203.906l-3.933 2.269-83.995-48.462 3.99-2.303 83.938 48.496z" fill="#EBEBEB"/>
  <path d="M576.609 207.759l-76.972-44.426-12.632 95.943 76.973 44.369 12.631-95.886z" fill="#FE9417"/>
  <path opacity=".8" d="M576.609 207.759l-76.972-44.426-12.632 95.943 76.973 44.369 12.631-95.886z" fill="#fff"/>
  <path d="M495.248 222.317l19.744-18.707c2.064-1.95 4.56-1.346 5.415 1.345l14.159 41.701a.934.934 0 001.824-.376l-.615-8.778 12.597-8.869a4.327 4.327 0 015.377.13 4.32 4.32 0 011.166 1.523l14.82 29.64-5.255 39.9-73.986-42.671 4.754-34.838zm66.975-14.318c-3.477-2.007-6.715-.639-7.251 3.043-.536 3.683 1.881 8.311 5.404 10.34 3.522 2.029 6.76.673 7.25-3.032.49-3.705-1.926-8.345-5.403-10.351z" fill="#FE9417"/>
  <path d="M503.125 165.363l-12.631 91.827-3.477 2.029 12.62-95.886 3.488 2.03z" fill="#E0E0E0"/>
  <path d="M490.494 257.19l73.974 42.67-.49 3.785-76.961-44.426 3.477-2.029z" fill="#EBEBEB"/>
  <path d="M550.104 321.018l-3.921 2.269 13.919-105.006 3.933-2.268-13.931 105.005z" fill="#E0E0E0"/>
  <path d="M546.183 323.287l-83.995-48.473 13.93-105.005 83.984 48.472-13.919 105.006z" fill="#FAFAFA"/>
  <path d="M564.035 216.013l-3.933 2.268-83.984-48.472 3.99-2.303 83.927 48.507z" fill="#EBEBEB"/>
  <path d="M555.713 219.855l-76.973-44.426-12.631 95.954 76.973 44.357 12.631-95.885z" fill="#FE9417"/>
  <path opacity=".8" d="M555.713 219.855l-76.973-44.426-12.631 95.954 76.973 44.357 12.631-95.885z" fill="#fff"/>
  <path d="M474.34 234.424l19.745-18.708c2.063-1.96 4.491-1.356 5.415 1.334l14.17 41.69a.933.933 0 001.644.282.936.936 0 00.18-.647l-.616-8.789 12.609-8.858a4.304 4.304 0 013.661-.751 4.317 4.317 0 012.871 2.393l14.82 29.64-5.255 39.9-73.975-42.671 4.731-34.815zm66.998-14.319c-3.477-2.006-6.726-.649-7.262 3.033-.536 3.682 1.892 8.322 5.404 10.351 3.511 2.029 6.76.661 7.25-3.044.49-3.705-1.927-8.333-5.392-10.34z" fill="#FE9417"/>
  <path d="M482.229 177.458l-12.62 91.838-3.488 2.018 12.619-95.885 3.489 2.029z" fill="#E0E0E0"/>
  <path d="M469.609 269.296l73.975 42.671-.502 3.773-76.961-44.426 3.488-2.018z" fill="#EBEBEB"/>
  <path d="M529.208 333.114l-3.921 2.268 13.93-105.005 3.922-2.269-13.931 105.006z" fill="#E0E0E0"/>
  <path d="M525.287 335.382l-83.984-48.461 13.919-105.006 83.995 48.462-13.93 105.005z" fill="#FAFAFA"/>
  <path d="M543.139 228.108l-3.922 2.269-83.995-48.462 3.99-2.302 83.927 48.495z" fill="#EBEBEB"/>
  <path d="M534.828 231.95l-76.972-44.414-12.632 95.942 76.973 44.369 12.631-95.897z" fill="#FE9417"/>
  <path opacity=".8" d="M534.828 231.95l-76.972-44.414-12.632 95.942 76.973 44.369 12.631-95.897z" fill="#fff"/>
  <path d="M453.467 246.519l19.733-18.707c2.063-1.95 4.56-1.345 5.415 1.345l14.159 41.701a.93.93 0 00.415.528.93.93 0 001.229-.245.938.938 0 00.18-.648l-.616-8.789 12.54-8.869a4.325 4.325 0 015.377.13c.498.414.897.934 1.167 1.523l14.82 29.64-5.267 39.9-73.975-42.682 4.823-34.827zm66.975-14.318c-3.477-2.007-6.726-.639-7.251 3.044-.524 3.682 1.881 8.31 5.392 10.339 3.512 2.03 6.772.673 7.262-3.032.49-3.705-1.926-8.345-5.403-10.351z" fill="#FE9417"/>
  <path d="M461.333 189.565l-12.62 91.827-3.489 2.029 12.632-95.885 3.477 2.029z" fill="#E0E0E0"/>
  <path d="M448.713 281.392l73.974 42.681-.49 3.774-76.973-44.426 3.489-2.029z" fill="#EBEBEB"/>
  <path d="M508.323 345.22l-3.921 2.269 13.919-105.005 3.933-2.269-13.931 105.005z" fill="#E0E0E0"/>
  <path d="M504.402 347.489l-83.995-48.473 13.93-105.005 83.984 48.473-13.919 105.005z" fill="#FAFAFA"/>
  <path d="M522.254 240.215l-3.933 2.269-83.984-48.473 3.979-2.303 83.938 48.507z" fill="#EBEBEB"/>
  <path d="M513.932 244.057l-76.973-44.415-12.631 95.943 76.973 44.369 12.631-95.897z" fill="#FE9417"/>
  <path opacity=".8" d="M513.932 244.057l-76.973-44.415-12.631 95.943 76.973 44.369 12.631-95.897z" fill="#fff"/>
  <path d="M432.582 258.626l19.745-18.707c2.063-1.961 4.491-1.357 5.403 1.333l14.159 41.702a.937.937 0 001.644.282.937.937 0 00.18-.647l-.616-8.79 12.643-8.857a4.31 4.31 0 013.666-.752 4.33 4.33 0 012.878 2.393l14.82 29.64-5.256 39.9-74.02-42.624 4.754-34.873zm66.963-14.318c-3.42-2.007-6.714-.65-7.25 3.032-.536 3.682 1.892 8.322 5.404 10.351 3.511 2.029 6.76.661 7.25-3.044.49-3.705-1.927-8.333-5.404-10.339z" fill="#FE9417"/>
  <path d="M440.448 201.66l-12.62 91.839-3.488 2.017 12.619-95.874 3.489 2.018z" fill="#E0E0E0"/>
  <path d="M427.828 293.499l73.975 42.67-.502 3.785-76.961-44.438 3.488-2.017z" fill="#EBEBEB"/>
  <path d="M487.427 357.316l-3.921 2.268 13.919-105.005 3.933-2.269-13.931 105.006z" fill="#E0E0E0"/>
  <path d="M483.506 359.584l-83.984-48.461 13.919-105.005 83.984 48.461-13.919 105.005z" fill="#FAFAFA"/>
  <path d="M501.358 252.31l-3.933 2.269-83.984-48.461 3.99-2.303 83.927 48.495z" fill="#EBEBEB"/>
  <path d="M493.036 256.164l-76.961-44.426-12.643 95.942 76.973 44.369 12.631-95.885z" fill="#FE9417"/>
  <path opacity=".8" d="M493.036 256.164l-76.961-44.426-12.643 95.942 76.973 44.369 12.631-95.885z" fill="#fff"/>
  <path d="M411.64 270.733l19.79-18.719c2.064-1.949 4.56-1.345 5.415 1.345l14.159 41.701a.936.936 0 001.824-.364l-.615-8.79 12.54-8.869a4.311 4.311 0 013.662-.74 4.329 4.329 0 012.87 2.393l14.82 29.64-5.267 39.9-73.906-42.636 4.708-34.861zm67.021-14.273c-3.42-2.006-6.726-.638-7.251 3.044-.524 3.682 1.881 8.31 5.392 10.34 3.512 2.029 6.761.672 7.262-3.033.502-3.705-1.926-8.402-5.403-10.351z" fill="#FE9417"/>
  <path d="M419.552 213.767l-12.62 91.827-3.489 2.029 12.632-95.885 3.477 2.029z" fill="#E0E0E0"/>
  <path d="M406.932 305.594l73.974 42.67-.501 3.785-76.962-44.426 3.489-2.029z" fill="#EBEBEB"/>
  <path d="M742.468 149.665v255.69a11.726 11.726 0 01-5.312 9.2L590.267 499.28a3.305 3.305 0 01-1.756.502 3.5 3.5 0 01-.684-.08 2.186 2.186 0 01-.456-.16l-.274-.159-.319-.206a3.063 3.063 0 01-.296-.262 4.28 4.28 0 01-.969-1.391 6.605 6.605 0 01-.559-2.69V240.5a11.74 11.74 0 015.313-9.2l146.889-84.702a3.855 3.855 0 013.568-.444 1.8 1.8 0 01.456.262c.134.096.253.211.353.342a1.3 1.3 0 01.16.194c.071.081.129.173.171.273.135.212.238.443.308.684.067.148.109.306.125.468a.113.113 0 010 .102c.044.16.071.325.08.49.043.23.073.462.091.696z" fill="#455A64"/>
  <path d="M740.724 146.154a3.855 3.855 0 00-3.568.444l-146.889 84.668a11.737 11.737 0 00-5.347 9.234v17.328l-6.783-3.979v-17.236a11.712 11.712 0 015.301-9.12l146.935-84.725a3.725 3.725 0 013.887-.308c.923.57 5.335 3.101 6.464 3.694z" fill="#FE9417"/>
  <path d="M742.457 149.631c0-3.352-2.383-4.709-5.301-3.021l-146.889 84.656a11.762 11.762 0 00-5.347 9.234v17.328l157.537-90.767v-17.43z" fill="#FE9417"/>
  <path opacity=".4" d="M737.156 146.61l-146.889 84.656a11.054 11.054 0 00-3.74 3.944l-6.737-3.91a10.628 10.628 0 013.694-3.876l146.889-84.656a3.725 3.725 0 013.887-.308c.958.581 5.369 3.089 6.487 3.694a3.815 3.815 0 00-3.591.456z" fill="#fff"/>
  <path opacity=".15" d="M578.16 253.872v-17.259a10.884 10.884 0 011.619-5.313l6.76 3.888a10.676 10.676 0 00-1.619 5.312v17.328l-6.76-3.956z" fill="#000"/>
  <path d="M710.48 169.398c-1.653.958-2.999 3.808-2.999 6.35s1.346 3.853 2.999 2.896c1.653-.958 2.998-3.808 2.998-6.35s-1.345-3.853-2.998-2.896zm10.795-6.247c-1.653.958-2.998 3.808-2.998 6.35s1.345 3.853 2.998 2.895c1.653-.957 2.999-3.807 2.999-6.349 0-2.543-1.334-3.854-2.999-2.896zm10.808-6.247c-1.665.957-2.999 3.807-2.999 6.35 0 2.542 1.334 3.853 2.999 2.895 1.664-.957 2.998-3.807 2.998-6.35 0-2.542-1.345-3.841-2.998-2.895z" fill="#455A64"/>
  <path d="M586.904 499.28c-.194-.125-.422-.251-.662-.388a29.479 29.479 0 00-1.641-.923l-.889-.502h-.069c-.49-.273-.957-.558-1.402-.798l-1.14-.661a7.199 7.199 0 00-.661-.365 3.095 3.095 0 01-.912-.741 3.969 3.969 0 01-.707-1.071 6.555 6.555 0 01-.616-2.816v-237.12l6.715 3.933v237.029c.023.923.212 1.834.559 2.69.227.523.556.996.969 1.391.079.107.18.197.296.262a.416.416 0 00.16.08z" fill="#37474F"/>
  <path d="M597.996 272.249c.008-.348.102-.689.273-.992l3.819-7.9a.568.568 0 01.171-.228s.08-.068.103-.068a.215.215 0 01.296 0 .512.512 0 01.126.387v2.645a3.054 3.054 0 01-.354 1.55l-2.006 4.173 2.006 1.847a.924.924 0 01.274.41c.066.237.093.484.08.73v2.656a1.312 1.312 0 01-.126.536.823.823 0 01-.296.364h-.103a.19.19 0 01-.171 0l-3.819-3.499a.77.77 0 01-.273-.673v-1.938zm13.965-19.813c.07-.269.17-.529.296-.775.117-.257.313-.468.559-.605l1.436-.832a.23.23 0 01.297 0c.09.108.135.247.125.388.009.098.009.198 0 .296l-6.555 27.896c-.057.26-.145.513-.262.752a1.51 1.51 0 01-.582.639l-1.379.798a.229.229 0 01-.296 0 .5.5 0 01-.126-.388 1.626 1.626 0 010-.296l6.487-27.873zm10.134 7.877a2.118 2.118 0 01-.273.992l-3.842 7.9a.684.684 0 01-.171.228c-.057 0-.08.069-.103.069a.229.229 0 01-.296 0 .578.578 0 01-.125-.399v-2.645a3.077 3.077 0 01.353-1.551l2.006-4.172-2.006-1.847a.938.938 0 01-.274-.41 2.307 2.307 0 01-.079-.73v-2.656c.003-.185.046-.368.125-.536a.845.845 0 01.296-.365h.103a.24.24 0 01.171 0l3.819 3.5a.765.765 0 01.274.673l.022 1.949zm10.614-1.835a.283.283 0 01.365 0 .662.662 0 01.159.479v2.918c-.003.23-.057.456-.159.661a.992.992 0 01-.365.445l-1.801 1.049a.288.288 0 01-.377 0 .606.606 0 01-.148-.468v-2.93a1.5 1.5 0 01.148-.649.968.968 0 01.377-.456l1.801-1.049zm6.019-3.477a.273.273 0 01.365 0 .61.61 0 01.159.479v2.918c.003.23-.052.458-.159.661a.926.926 0 01-.365.445l-1.801 1.049a.277.277 0 01-.365 0 .618.618 0 01-.16-.479v-2.93c.005-.226.059-.448.16-.65a.958.958 0 01.365-.456l1.801-1.037zm6.019-3.477a.284.284 0 01.376 0 .647.647 0 01.149.479v2.918a1.51 1.51 0 01-.149.661.929.929 0 01-.376.445l-1.801 1.049a.277.277 0 01-.365 0 .627.627 0 01-.148-.479v-2.919c0-.225.05-.447.148-.649a.953.953 0 01.365-.456l1.801-1.049zm-45.144 42.032l88.259-50.947c1.037-.604 1.892-.182 1.892.946a4.075 4.075 0 01-.573 1.793 4.077 4.077 0 01-1.319 1.342l-88.259 50.958c-1.037.604-1.881.171-1.881-.957a4.064 4.064 0 011.881-3.135z" fill="#FE9417"/>
  <path d="M627.921 326.262l88.259-50.958c1.037-.604 1.892-.171 1.892.958a4.038 4.038 0 01-1.892 3.123l-88.259 50.958c-1.038.605-1.881.171-1.881-.957a4.012 4.012 0 011.881-3.124z" fill="#fff"/>
  <path d="M627.921 358.957l42.248-24.373c1.038-.604 1.881-.171 1.881.958a4.06 4.06 0 01-1.881 3.135l-42.248 24.362c-1.038.604-1.881.182-1.881-.947a4.063 4.063 0 011.881-3.135z" fill="#E0E0E0"/>
  <path d="M695.181 238.38l35.157-20.372c1.038-.604 1.881-.171 1.881.957a4.012 4.012 0 01-1.881 3.124l-35.157 20.383c-1.049.604-1.893.171-1.893-.957a4.044 4.044 0 011.893-3.135zm-95.578 234.999l88.259-50.958c1.037-.593 1.892-.171 1.892.958a4.067 4.067 0 01-1.892 3.135l-88.259 50.958c-1.037.593-1.881.171-1.881-.958a4.06 4.06 0 011.881-3.135zm95.578-55.176l35.157-20.383c1.038-.604 1.881-.182 1.881.946a4.046 4.046 0 01-1.881 3.135l-35.157 20.372c-1.049.604-1.893.182-1.893-.946a4.052 4.052 0 011.893-3.124zm0-48.963l35.157-20.372c1.038-.604 1.881-.171 1.881.958a4.046 4.046 0 01-1.881 3.135l-35.157 20.372c-1.049.604-1.893.171-1.893-.958a4.052 4.052 0 011.893-3.135zm0 16.348l35.157-20.372c1.038-.604 1.881-.182 1.881.946a4.046 4.046 0 01-1.881 3.135l-35.157 20.383c-1.049.593-1.893.171-1.893-.957a4.048 4.048 0 011.893-3.135zm-29.982.912l19.745-11.4c1.048-.604 1.892-.171 1.892.957a4.051 4.051 0 01-1.892 3.135l-19.745 11.4c-1.049.605-1.893.171-1.893-.957a4.048 4.048 0 011.893-3.135zm-65.596-76.551l51.437-29.743c1.037-.604 1.881-.171 1.881.946a4.04 4.04 0 01-1.881 3.135l-51.437 29.743c-1.037.604-1.881.182-1.881-.946a4.064 4.064 0 011.881-3.135z" fill="#FE9417"/>
  <path opacity=".6" d="M599.603 309.949l51.437-29.743c1.037-.604 1.881-.171 1.881.946a4.04 4.04 0 01-1.881 3.135l-51.437 29.743c-1.037.604-1.881.182-1.881-.946a4.064 4.064 0 011.881-3.135z" fill="#fff"/>
  <path d="M599.603 326.262l17.465-10.089c1.049-.604 1.892-.182 1.892.946a4.043 4.043 0 01-1.892 3.181l-17.465 10.1c-1.037.593-1.881.171-1.881-.957a4.068 4.068 0 011.881-3.181z" fill="#FE9417"/>
  <path opacity=".6" d="M599.603 326.262l17.465-10.089c1.049-.604 1.892-.182 1.892.946a4.043 4.043 0 01-1.892 3.181l-17.465 10.1c-1.037.593-1.881.171-1.881-.957a4.068 4.068 0 011.881-3.181z" fill="#fff"/>
  <path d="M599.603 342.61l17.465-10.089c1.049-.604 1.892-.183 1.892.946a4.038 4.038 0 01-1.892 3.135l-17.465 10.1c-1.037.605-1.881.171-1.881-.957a4.064 4.064 0 011.881-3.135z" fill="#FE9417"/>
  <path opacity=".6" d="M599.603 342.61l17.465-10.089c1.049-.604 1.892-.183 1.892.946a4.038 4.038 0 01-1.892 3.135l-17.465 10.1c-1.037.605-1.881.171-1.881-.957a4.064 4.064 0 011.881-3.135z" fill="#fff"/>
  <path d="M599.603 358.957l17.465-10.089c1.049-.604 1.892-.182 1.892.947a4.045 4.045 0 01-1.892 3.135l-17.465 10.1c-1.037.604-1.881.171-1.881-.958a4.064 4.064 0 011.881-3.135z" fill="#FE9417"/>
  <path opacity=".6" d="M599.603 358.957l17.465-10.1c1.049-.604 1.892-.171 1.892.958a4.045 4.045 0 01-1.892 3.135l-17.465 10.089c-1.037.604-1.881.182-1.881-.947a4.064 4.064 0 011.881-3.135z" fill="#fff"/>
  <path d="M627.921 342.61l51.482-29.743c1.038-.604 1.881-.182 1.881.946a4.063 4.063 0 01-1.881 3.135l-51.482 29.743c-1.038.604-1.881.182-1.881-.946a4.04 4.04 0 011.881-3.135zm58.79-33.972l22.389-12.882c1.038-.604 1.881-.171 1.881.957a4.063 4.063 0 01-1.881 3.135l-22.389 12.882c-1.038.605-1.881.171-1.881-.957a4.05 4.05 0 011.881-3.135zm-87.108 66.667l17.465-10.089c1.049-.604 1.892-.182 1.892.946a4.043 4.043 0 01-1.892 3.158l-17.465 10.1c-1.037.605-1.881.171-1.881-.957a4.056 4.056 0 011.881-3.158z" fill="#FE9417"/>
  <path opacity=".6" d="M599.603 375.305l17.465-10.089c1.049-.604 1.892-.182 1.892.946a4.043 4.043 0 01-1.892 3.158l-17.465 10.1c-1.037.605-1.881.171-1.881-.957a4.056 4.056 0 011.881-3.158z" fill="#fff"/>
  <path d="M658.393 275.977l22.39-12.882c1.037-.593 1.892-.171 1.892.957a4.076 4.076 0 01-1.892 3.135l-22.39 12.882c-1.037.605-1.881.171-1.881-.957a4.063 4.063 0 011.881-3.135z" fill="#FE9417"/>
  <path opacity=".6" d="M658.393 275.977l22.39-12.882c1.037-.593 1.892-.171 1.892.957a4.076 4.076 0 01-1.892 3.135l-22.39 12.882c-1.037.605-1.881.171-1.881-.957a4.063 4.063 0 011.881-3.135z" fill="#fff"/>
  <path d="M649.159 363.016l51.482-29.743c1.038-.604 1.881-.171 1.881.958a4.046 4.046 0 01-1.881 3.135l-51.482 29.742c-1.037.593-1.881.171-1.881-.957a4.067 4.067 0 01.567-1.792 4.065 4.065 0 011.314-1.343z" fill="#E0E0E0"/>
  <path d="M678.856 362.286l51.482-29.742c1.038-.605 1.893-.171 1.893.957a4.034 4.034 0 01-1.893 3.124l-51.482 29.742c-1.037.605-1.881.183-1.881-.946a4.048 4.048 0 01.568-1.791 4.046 4.046 0 011.313-1.344z" fill="#fff"/>
  <path d="M707.949 329.055l22.389-12.882c1.038-.604 1.881-.182 1.881.946a4.05 4.05 0 01-1.881 3.135l-22.389 12.882c-1.038.605-1.881.183-1.881-.946a4.04 4.04 0 011.881-3.135zm0 64.752l22.389-12.882c1.038-.604 1.881-.182 1.881.946a4.05 4.05 0 01-1.881 3.135l-22.389 12.882c-1.038.605-1.881.171-1.881-.957a4.012 4.012 0 011.881-3.124z" fill="#E0E0E0"/>
  <path d="M627.921 309.915l51.482-29.743c1.038-.604 1.881-.171 1.881.958a4.063 4.063 0 01-1.881 3.135l-51.482 29.742c-1.038.593-1.881.171-1.881-.957a4.063 4.063 0 011.881-3.135z" fill="#FE9417"/>
  <path opacity=".6" d="M627.921 309.915l51.482-29.743c1.038-.604 1.881-.171 1.881.958a4.063 4.063 0 01-1.881 3.135l-51.482 29.742c-1.038.593-1.881.171-1.881-.957a4.063 4.063 0 011.881-3.135z" fill="#fff"/>
  <path d="M686.711 275.954l22.389-12.882c1.038-.604 1.881-.182 1.881.946a4.06 4.06 0 01-1.881 3.135l-22.389 12.882c-1.038.604-1.881.183-1.881-.946a4.024 4.024 0 011.881-3.135z" fill="#FE9417"/>
  <path opacity=".6" d="M686.711 275.954l22.389-12.882c1.038-.604 1.881-.182 1.881.946a4.06 4.06 0 01-1.881 3.135l-22.389 12.882c-1.038.604-1.881.183-1.881-.946a4.024 4.024 0 011.881-3.135zm-58.79 66.656l51.482-29.743c1.038-.604 1.881-.182 1.881.946a4.063 4.063 0 01-1.881 3.135l-51.482 29.743c-1.038.604-1.881.182-1.881-.946a4.04 4.04 0 011.881-3.135zm58.79-33.972l22.389-12.882c1.038-.604 1.881-.171 1.881.957a4.063 4.063 0 01-1.881 3.135l-22.389 12.882c-1.038.605-1.881.171-1.881-.957a4.05 4.05 0 011.881-3.135z" fill="#fff"/>
  <path d="M803.675 170.96l-12.278 7.034-12.346-1.14a.86.86 0 00-.422.068c.992-.581 11.753-6.737 12.198-6.977a.774.774 0 01.513-.102l12.335 1.117z" fill="#FE9417"/>
  <path opacity=".5" d="M803.675 170.96l-12.278 7.034-12.346-1.14a.86.86 0 00-.422.068c.992-.581 11.753-6.737 12.198-6.977a.774.774 0 01.513-.102l12.335 1.117z" fill="#fff"/>
  <path d="M841.83 173.422l-44.391-25.638-8.824 5.13 3.249 65.869 18.947 22.435 18.947-.558 8.823-5.13 3.249-62.108z" fill="#FE9417"/>
  <path opacity=".5" d="M841.83 173.422l-8.812 5.13-44.403-25.638 8.824-5.13 44.391 25.638z" fill="#fff"/>
  <path opacity=".15" d="M841.83 173.422l-8.812 5.13-3.26 62.108 8.823-5.13 3.249-62.108z" fill="#000"/>
  <path d="M788.615 152.914l1.231 24.943-10.784-.946a.907.907 0 00-.889.504.913.913 0 00.137 1.012l12.22 13.235 1.334 27.178 18.947 22.435 18.947-.558 3.26-62.108-44.403-25.695z" fill="#FE9417"/>
  <path opacity=".5" d="M810.811 172.157l17.647 10.18-2.599 51.095-15.048 1.117v-62.392z" fill="#fff"/>
  <path d="M824.263 184.936l-1.858 41.85-11.594.661-11.582-14.045-.593-11.822 4.195 2.417.342 7.057 7.638 9.564 7.638-.752 1.3-31.111-22.048-12.733-.331-6.612 26.893 15.526z" fill="#fff"/>
  <path d="M803.675 276.136l-12.278 7.034-12.346-1.14a1.026 1.026 0 00-.422.057c.992-.581 11.753-6.737 12.198-6.977a.855.855 0 01.513-.102l12.335 1.128z" fill="#FE9417"/>
  <path d="M841.83 278.599l-44.391-25.639-8.824 5.13 3.249 65.869 18.947 22.436 18.947-.559 8.823-5.13 3.249-62.107z" fill="#FE9417"/>
  <path opacity=".35" d="M841.83 278.599l-8.812 5.118-3.26 62.119 8.823-5.13 3.249-62.107z" fill="#000"/>
  <path d="M788.615 258.09l1.231 24.932-10.784-.935a.915.915 0 00-.976 1.031c.025.18.102.349.224.485l12.22 13.236 1.334 27.12 18.947 22.436 18.947-.559 3.26-62.119-44.403-25.627z" fill="#FE9417"/>
  <path opacity=".25" d="M788.615 258.09l1.231 24.932-10.784-.935a.915.915 0 00-.976 1.031c.025.18.102.349.224.485l12.22 13.236 1.334 27.12 18.947 22.436 18.947-.559 3.26-62.119-44.403-25.627z" fill="#000"/>
  <path opacity=".7" d="M810.811 277.322l17.647 10.192-2.599 51.083-15.048 1.129v-62.404z" fill="#FE9417"/>
  <path d="M797.37 274.586l.274 6.578 22.105 12.756-.536 12.974-20.988-12.119.274 6.578 20.452 11.811-.502 11.878-7.638.753-7.638-9.576-.342-7.045-4.195-2.417.593 11.822 11.582 14.044 11.594-.661 1.858-41.861-26.893-15.515z" fill="#fff"/>
  <path d="M841.83 383.752l-44.391-25.627-8.824 5.119 3.249 65.869 18.947 22.435 18.947-.558 8.823-5.13 3.249-62.108z" fill="#FE9417"/>
  <path opacity=".25" d="M841.83 383.752l-8.812 5.13-44.403-25.638 8.824-5.119 44.391 25.627z" fill="#000"/>
  <path opacity=".55" d="M841.83 383.752l-8.812 5.13-3.26 62.108 8.823-5.13 3.249-62.108z" fill="#000"/>
  <path d="M803.675 381.29l-12.278 7.034-12.346-1.083a.86.86 0 00-.422.068 2648.19 2648.19 0 0112.198-6.988.95.95 0 01.513-.103l12.335 1.072z" fill="#FE9417"/>
  <path opacity=".25" d="M803.675 381.29l-12.278 7.034-12.346-1.083a.86.86 0 00-.422.068 2648.19 2648.19 0 0112.198-6.988.95.95 0 01.513-.103l12.335 1.072z" fill="#000"/>
  <path d="M788.615 363.244l1.231 24.943-10.784-.946a.907.907 0 00-.889.504.913.913 0 00.137 1.012l12.22 13.235 1.334 27.121 18.947 22.435 18.947-.558 3.26-62.108-44.403-25.638z" fill="#FE9417"/>
  <path opacity=".4" d="M788.615 363.244l1.231 24.943-10.784-.946a.907.907 0 00-.889.504.913.913 0 00.137 1.012l12.22 13.235 1.334 27.121 18.947 22.435 18.947-.558 3.26-62.108-44.403-25.638z" fill="#000"/>
  <path opacity=".5" d="M810.811 382.487l17.647 10.18-2.599 51.095-15.048 1.117v-62.392z" fill="#FE9417"/>
  <path d="M824.263 395.266L797.37 379.74l1.129 26.778 20.452 11.799-.502 11.89-7.638.741-7.638-9.564-.342-7.057-4.195-2.417.593 11.834 11.582 14.033 11.594-.661.992-22.652-20.976-12.107-.548-13.589 22.059 12.734.331-6.236z" fill="#fff"/>
  <path d="M610.353 516.585c-3.192 9.531-5.928 21.843-10.26 40.39-4.047 17.374-4.069 29.64 1.551 33.858 5.62 4.218 21.728 1.642 31.92-20.064 3.192-6.84 15.196-27.759 15.196-27.759s8.892-3.203 11.959-5.608c0 0 29.64.866 44.049-2.087 14.41-2.952 29.731-20.52 23.826-22.275-10.602-3.124-38.851-4.309-62.78-5.848l-55.461 9.393z" fill="#37474F"/>
  <path d="M690.655 531.599c-6.487 1.505-16.097-.502-21.512-2.075a14.29 14.29 0 00-.182-5.7 18.732 18.732 0 01-2.406 7.205c-.889.502-1.641.923-2.188 1.208-3.603 1.836-13.498 6.897-15.333 5.301a19.31 19.31 0 00-11.093-7.033c3.101 2.086 12.084 8.527 8.892 15.96l1.95-3.42s8.892-3.204 11.958-5.609c0 0 16.587.479 30.963-.502l17.1-11.822s-8.208-.513-18.149 6.487z" fill="#263238"/>
  <path d="M674.034 551.823a18.73 18.73 0 01-7.707 4.56 6.73 6.73 0 01-2.895 0c-3.329-.696-8.664-.684-10.534 5.962-2.109 7.535-10.533 11.115-12.779 16.279-1.14 2.576-1.71 10.043-.616 14.638.912 3.762 8.197.969 10.899-3.626 2.701-4.594 8.493-10.647 12.312-14.136 6.213-3.499 13.11-8.629 16.051-10.693l-4.731-12.984z" fill="#F28F8F"/>
  <path d="M717.855 510.475c19.118 1.277 19.768 11.4 14.991 19.106-5.141 8.265-23.94 19.38-34.2 25.263-9.359 5.392-25.33 14.945-25.33 14.945s-8.083-6.316-7.034-13.418c10.579-7.376 24.829-28.374 42.465-31.293l9.108-14.603zm-75.468 85.101a4.365 4.365 0 01-3.135-.73c-.855-.604-2.747-5.928-1.14-12.38a27.534 27.534 0 017.068-12.7c2.087-2.211 2.839-4.754 3.591-7.98.753-3.226 3.101-7.182 4.731-7.626 1.631-.445 4.104.82 4.104.82l-15.219 40.596z" fill="#263238"/>
  <path d="M667.593 572.776c-.399 2.052-2.086 2.576-3.899 3.294-2.474.981-4.822 3.534-7.057 6.384-1.516 1.938-2.77 3.876-4.149 5.906-1.38 2.029-2.542 4.959-4.024 6.509-2.178 2.28-6.578 1.847-7.787-1.379-1.048-2.782-1.493-9.69 1.676-16.302 1.733-3.614 6.521-7.114 7.775-12.027.832-3.284 1.984-7.194 4.4-9.69 1.437-1.482 2.748-1.14 4.56-.616a58.57 58.57 0 007.251 1.516 11.012 11.012 0 01-1.767 5.7 4.742 4.742 0 00-.912 1.847c-.044.467-.001.939.125 1.391.137.638.365 1.379.992 1.562.261.036.523.055.787.057.98.125 1.459 1.254 1.71 2.211a9.157 9.157 0 01.399 3.181 4.184 4.184 0 01-.08.456z" fill="#FE9417"/>
  <path opacity=".4" d="M667.593 572.776c-.399 2.052-2.086 2.576-3.899 3.294-2.474.981-4.822 3.534-7.057 6.384-1.516 1.938-2.77 3.876-4.149 5.906-1.38 2.029-2.542 4.959-4.024 6.509-2.178 2.28-6.578 1.847-7.787-1.379-1.048-2.782-1.493-9.69 1.676-16.302 1.733-3.614 6.521-7.114 7.775-12.027.832-3.284 1.984-7.194 4.4-9.69 1.437-1.482 2.748-1.14 4.56-.616a58.57 58.57 0 007.251 1.516 11.012 11.012 0 01-1.767 5.7 4.742 4.742 0 00-.912 1.847c-.044.467-.001.939.125 1.391.137.638.365 1.379.992 1.562.261.036.523.055.787.057.98.125 1.459 1.254 1.71 2.211a9.157 9.157 0 01.399 3.181 4.184 4.184 0 01-.08.456z" fill="#000"/>
  <path d="M658.872 579.798a2.967 2.967 0 001.249-.78c.345-.36.594-.802.723-1.283.513-1.391-.103-4.127-1.14-5.928a1.127 1.127 0 00-.38-.455 1.138 1.138 0 00-1.592.284 1.208 1.208 0 00-.091 1.379 9.12 9.12 0 011.231 6.783zm-3.272 4.024a3.416 3.416 0 001.904-2.519 10.65 10.65 0 00-1.22-6.475 1.135 1.135 0 00-.911-.611 1.135 1.135 0 00-1.004.44 1.143 1.143 0 00-.08 1.322 9.117 9.117 0 011.311 7.843zm-3.112 4.538a3.86 3.86 0 001.79-2.645 10.265 10.265 0 00-1.289-6.236 1.142 1.142 0 00-1.469-.52 1.138 1.138 0 00-.446.349 1.144 1.144 0 00-.08 1.334 8.695 8.695 0 011.494 7.718z" fill="#F5F5F5"/>
  <path d="M666.407 554.65c3.42-.855 8.368-2.064 10.42-4.777 2.052-2.713 6.327-5.335 12.095-1.539 3.648 2.406 7.98 3.192 12.312 3.477a40.439 40.439 0 015.769.274 21.29 21.29 0 016.384 2.952 10.551 10.551 0 013.18 2.748 6.517 6.517 0 01.103 7.113c-.235.385-.54.722-.901.992a3.74 3.74 0 01-1.505.627c-1.995.445-3.659-.182-5.54-.707-1.562-.433-3.158-.763-4.742-1.048a79.839 79.839 0 00-10.922-1.277c-1.561-.057-4.81-.308-6.372-.194-6.521.445-15.744 4.115-15.744 4.115l-4.537-12.756z" fill="#FFA8A7"/>
  <path d="M598.6 585.92c1.072 6.589 8.47 9.77 24.328 6.601 15.857-3.17 53.58-26.939 53.58-26.939s-1.471-9.12-10.146-11.559c0 0-7.889 1.436-20.771 4.241a166.364 166.364 0 00-17.18 4.753c-8.71 11.685-17.761 6.966-21.022 11.07-5.369 6.828-8.789 11.833-8.789 11.833z" fill="#37474F"/>
  <path d="M718.3 565.263a4.374 4.374 0 001.881-2.622c.239-1.014-1.835-6.258-7.285-10.089a27.581 27.581 0 00-13.68-4.89c-3.021-.285-5.266-1.699-7.98-3.614-2.713-1.916-7.056-3.352-8.584-2.611-1.527.741-2.542 3.318-2.542 3.318l38.19 20.508z" fill="#263238"/>
  <path d="M684.339 564.716c1.653 1.277 3.272.559 5.108-.091 2.508-.889 5.962-.525 9.519.148 2.416.456 4.639 1.14 7.011 1.71 2.371.57 5.175 2.052 7.318 2.28 3.124.262 6.156-2.953 4.948-6.167-1.049-2.782-5.267-8.277-12.016-11.161-3.67-1.573-9.576-1.06-13.759-3.922-2.793-1.915-6.236-4.115-9.702-4.389-2.052-.171-2.804.969-3.83 2.531a59.252 59.252 0 01-4.446 5.928 11.102 11.102 0 005.107 3.147 5.02 5.02 0 011.904.775c.337.33.615.715.821 1.14.319.558.627 1.277.273 1.824a6.264 6.264 0 01-.547.558c-.65.753-.262 1.904.171 2.793a9.263 9.263 0 001.801 2.657c.102.085.208.165.319.239z" fill="#FE9417"/>
  <path opacity=".4" d="M684.339 564.716c1.653 1.277 3.272.559 5.108-.091 2.508-.889 5.962-.525 9.519.148 2.416.456 4.639 1.14 7.011 1.71 2.371.57 5.175 2.052 7.318 2.28 3.124.262 6.156-2.953 4.948-6.167-1.049-2.782-5.267-8.277-12.016-11.161-3.67-1.573-9.576-1.06-13.759-3.922-2.793-1.915-6.236-4.115-9.702-4.389-2.052-.171-2.804.969-3.83 2.531a59.252 59.252 0 01-4.446 5.928 11.102 11.102 0 005.107 3.147 5.02 5.02 0 011.904.775c.337.33.615.715.821 1.14.319.558.627 1.277.273 1.824a6.264 6.264 0 01-.547.558c-.65.753-.262 1.904.171 2.793a9.263 9.263 0 001.801 2.657c.102.085.208.165.319.239z" fill="#000"/>
  <path d="M695.5 564.26a2.961 2.961 0 01-2.839-.251c-1.311-.707-2.644-3.169-3.055-5.21a1.14 1.14 0 011.38-1.425 1.197 1.197 0 01.969.969 9.115 9.115 0 003.545 5.917zm5.153.866a3.419 3.419 0 01-3.101-.649 10.665 10.665 0 01-3.352-5.7 1.15 1.15 0 01.293-1.021 1.152 1.152 0 011.007-.336 1.142 1.142 0 01.923.946 9.192 9.192 0 004.23 6.76zm5.324 1.414a3.855 3.855 0 01-3.09-.809 10.26 10.26 0 01-3.135-5.541 1.146 1.146 0 01.281-1.057 1.147 1.147 0 011.042-.334 1.135 1.135 0 01.934.947 8.752 8.752 0 003.968 6.794z" fill="#F5F5F5"/>
  <path d="M639.401 559.7s-10.648 2.086-18.548 7.399c0 0 8.117-9.508 20.657-11.207l-2.109 3.808z" fill="#263238"/>
  <path d="M679.278 478.509l-13.27-37.483-3.5 1.254 2.098 41.405 2.28 6.156c5.939-3.101 10.784-5.381 12.392-11.332z" fill="#FFA8A7"/>
  <path d="M648.065 431.176c8.219.092 15.72 3.078 18.832 9.519 3.113 6.441 12.643 35.705 12.643 35.705s-7.82 9.2-19.38 8.459l-12.095-53.683z" fill="#FE9417"/>
  <path opacity=".1" d="M648.065 431.176c8.219.092 15.72 3.078 18.832 9.519 3.113 6.441 12.643 35.705 12.643 35.705s-7.82 9.2-19.38 8.459l-12.095-53.683z" fill="#000"/>
  <path d="M631.204 431.678c-11.525 2.132-19.209 4.56-21.386 6.715-4.902 10.043 1.47 43.707 1.47 43.707l1.14 16.017-2.029 18.468c12.46 10.534 50.593 5.358 57.388-9.393 0 0-1.904-48.017-1.904-56.533 0-8.516-4.72-18.719-17.773-19.483l-16.906.502z" fill="#FAFAFA"/>
  <path d="M622.814 509.346c-3.341-5.118-3.204-18.137-3.204-18.137s5.837-33.972 4.492-42.066L608.7 463.94c.981 9.724 2.588 18.24 2.588 18.24l1.14 16.017-2.029 18.468c9.964 8.425 36.343 6.84 49.989-1.744-20.03 7.946-34.246-.456-37.574-5.575z" fill="#EBEBEB"/>
  <path d="M624.82 404.66s1.733 12.779 2.656 14.923a5.7 5.7 0 003.09 2.895l.478-8.858-6.224-8.96zm4.731-17.818a6.19 6.19 0 00-5.267 1.413c-2.371 2.087-1.664 9.234.559 16.348l5.004.958-.296-18.719z" fill="#263238"/>
  <path d="M631.352 405.675c-1.049.524-2.348-1.517-3.5-2.919-1.151-1.402-5.084-3.488-7.432.639-2.349 4.126 1.026 10.26 4.161 11.502 5.392 2.143 6.486-1.334 6.486-1.334l-1.14 20.338c5.005 10.898 24.978 7.011 18.16-.479l.365-5.164c2.76.407 5.544.616 8.334.627 4.115-.331 5.985-3.01 7.546-7.319 2.508-6.908 3.694-12.54 3.044-26.573-.695-15.356-18.388-16.838-28.397-11.537-10.009 5.301-7.627 22.219-7.627 22.219z" fill="#FFA8A7"/>
  <path d="M630.999 378.577a49.073 49.073 0 0110.682-2.36c7.843-1.14 15.823-2.052 23.142-5.096a4.895 4.895 0 012.827-.581c1.847.376 2.485 2.69 2.417 4.56a15.35 15.35 0 01-1.049 5.096 2.95 2.95 0 014.149.376c.474.621.799 1.343.951 2.11a5.107 5.107 0 01-.073 2.313 10.863 10.863 0 01-6.84 7.399 24.498 24.498 0 01-10.328 1.265 70.275 70.275 0 01-14.455-2.189 10.268 10.268 0 00-3.5-.513 3.17 3.17 0 00-2.793 1.893c-.65 1.881-2.166 14.911-4.857 14.82-.501 0-2.154-3.42-3.317-4.72-1.448-1.596-2.177-12.916-2.28-15.002a1.134 1.134 0 00-.182-.456c-1.574-2.6.798-6.59 3.066-7.775a24.362 24.362 0 012.44-1.14z" fill="#263238"/>
  <path d="M626.45 387.697a3.697 3.697 0 11-5.255-5.199l5.255 5.199z" fill="#263238"/>
  <path d="M648.441 428.258s-8.995-1.55-12.039-3.42a10.495 10.495 0 01-4.058-4.663 14.2 14.2 0 002.109 5.301c2.098 3.135 13.737 6.202 13.737 6.202l.251-3.42z" fill="#F28F8F"/>
  <path d="M649.353 404.66a1.826 1.826 0 01-2.345 1.534 1.823 1.823 0 01.669-3.563 1.853 1.853 0 011.259.667 1.863 1.863 0 01.417 1.362zm-1.414-7.022l-4.047 1.858a2.338 2.338 0 011.14-3.033 2.178 2.178 0 012.907 1.175z" fill="#263238"/>
  <path d="M648.441 417.291l4.035 1.87a2.16 2.16 0 01-.491.719 2.174 2.174 0 01-1.59.619 2.193 2.193 0 01-.848-.198 2.278 2.278 0 01-1.106-3.01z" fill="#F28F8F"/>
  <path d="M665.45 400.51l-3.341-2.998a2.153 2.153 0 012.366-.682c.276.095.53.246.747.443a2.362 2.362 0 01.228 3.237zm-1.448 4.743a1.826 1.826 0 01-2.345 1.534 1.821 1.821 0 01-1.281-1.551 1.828 1.828 0 01.925-1.786 1.822 1.822 0 011.025-.226 1.867 1.867 0 011.676 2.029z" fill="#263238"/>
  <path d="M654.734 403.383l-.228 10.967 5.859-1.516-5.631-9.451z" fill="#F28F8F"/>
  <path d="M596.502 515.137c-7.387-7.432-8.572-9.861-7.569-14.5 1.983-9.12 10.089-38.316 13.167-46.991 3.864-10.899 5.586-15.254 12.015-16.656 5.187 4.104 10.26 19.472 3.284 33.311l-8.414 30.21" fill="#FFA8A7"/>
  <path d="M619.633 434.3c-9.929 1.14-14.136 5.153-17.716 15.88-3.579 10.728-9.872 35.42-9.872 35.42s8.333 9.029 20.018 8.083l9.736-32.262s6.851-23.462-2.166-27.121z" fill="#FE9417"/>
  <path opacity=".1" d="M619.633 434.3c-9.929 1.14-14.136 5.153-17.716 15.88-3.579 10.728-9.872 35.42-9.872 35.42s8.333 9.029 20.018 8.083l9.736-32.262s6.851-23.462-2.166-27.121z" fill="#000"/>
  <path d="M617.33 545.427v1.14a3.299 3.299 0 001.63 2.827l31.077 17.876a3.258 3.258 0 003.249 0l57-32.912a3.24 3.24 0 001.63-2.816v-.798l-60.249 34.793-34.337-20.11z" fill="#EBEBEB"/>
  <path d="M711.916 530.755l-33.79-19.505a1.928 1.928 0 00-1.949 0l-58.63 33.847a.437.437 0 00-.16.593.428.428 0 00.16.159l34.12 19.699 60.249-34.793z" fill="#FAFAFA"/>
  <path d="M696.891 510.988c-4.64-8.231-17.613-32.479-17.613-32.479l-12.381 11.4c5.051 9.553 18.765 28.774 18.765 28.774 6.304 4.115 13.896-2.953 11.229-7.695z" fill="#FFA8A7"/>
  <path d="M651.348 562.675l-18.229-10.51 53.307-30.769 18.319 10.454-53.397 30.825zm-8.949-29.241l.33.194 8.938 5.153 15.892-9.166.319-.193-9.268-5.347-16.211 9.359z" fill="#E0E0E0"/>
  <path d="M642.729 533.628l8.938 5.153 15.892-9.166-8.949-5.164-15.881 9.177z" fill="#E6E6E6"/>
  <path d="M651.667 565.548v2.132a3.174 3.174 0 001.619-.433l57-32.912a3.24 3.24 0 001.63-2.816v-.798l-60.249 34.827z" fill="#EBEBEB"/>
  <path d="M651.667 565.548v2.132a3.174 3.174 0 001.619-.433l57-32.912a3.24 3.24 0 001.63-2.816v-.798l-60.249 34.827z" fill="#E0E0E0"/>
  <path d="M652.579 566.027a3.853 3.853 0 003.329-.251l56.749-32.775a3.842 3.842 0 001.881-2.69l6.213-37.05a4.01 4.01 0 000-.639 3.85 3.85 0 00-1.14-2.736l-58.972 34.052a2.84 2.84 0 00-1.391 1.995l-6.669 40.094z" fill="#FE9417"/>
  <path opacity=".7" d="M652.579 566.027a3.853 3.853 0 003.329-.251l56.749-32.775a3.842 3.842 0 001.881-2.69l6.213-37.05a4.01 4.01 0 000-.639 3.85 3.85 0 00-1.14-2.736l-58.972 34.052a2.84 2.84 0 00-1.391 1.995l-6.669 40.094z" fill="#fff"/>
  <path d="M651.667 565.548l.388.228c.169.095.344.179.524.251l6.715-40.094a2.845 2.845 0 011.39-1.995l58.973-34.052a3.787 3.787 0 00-.787-.604l-59.098 34.12a2.829 2.829 0 00-1.379 1.995l-6.726 40.151z" fill="#FAFAFA"/>
  <path d="M684.545 531.827c.41-2.485 2.975-5.78 5.7-7.364 2.724-1.585 4.628-.855 4.206 1.63-.422 2.485-2.975 5.768-5.7 7.353-2.724 1.584-4.651.866-4.206-1.619z" fill="#FE9417"/>
  <path d="M608.985 500.511s4.264 7.08 9.189 13.68c4.925 6.601 10.26 13.555 14.25 14.729 3.75 1.14 8.151 2.428 9.428 3.602a98.531 98.531 0 018.55 9.918c1.14 1.95 4.001 5.917 0 7.182-3.66 1.14-6.647-.41-9.611-2.451a38.447 38.447 0 01-3.978-3.271 14.541 14.541 0 01-8.584-1.71c-2.28-1.277-6.042-3.512-6.042-3.512-3.124-2.143-18.639-16.507-25.685-23.575" fill="#FFA8A7"/>
  <defs>
    <filter id="иллюстрация__filter0_f" x="0" y="0" width="1219.57" height="985.616" filterUnits="userSpaceOnUse" color-interpolation-filters="sRGB">
      <feFlood flood-opacity="0" result="BackgroundImageFix"/>
      <feBlend in="SourceGraphic" in2="BackgroundImageFix" result="shape"/>
      <feGaussianBlur stdDeviation="175" result="effect1_foregroundBlur"/>
    </filter>
    <filter id="иллюстрация__filter1_bdd" x="300.274" y="309.655" width="619.566" height="385.616" filterUnits="userSpaceOnUse" color-interpolation-filters="sRGB">
      <feFlood flood-opacity="0" result="BackgroundImageFix"/>
      <feGaussianBlur in="BackgroundImage" stdDeviation="5"/>
      <feComposite in2="SourceAlpha" operator="in" result="effect1_backgroundBlur"/>
      <feColorMatrix in="SourceAlpha" values="0 0 0 0 0 0 0 0 0 0 0 0 0 0 0 0 0 0 127 0"/>
      <feOffset dy="10"/>
      <feGaussianBlur stdDeviation="25"/>
      <feColorMatrix values="0 0 0 0 0 0 0 0 0 0 0 0 0 0 0 0 0 0 0.15 0"/>
      <feBlend in2="effect1_backgroundBlur" result="effect2_dropShadow"/>
      <feColorMatrix in="SourceAlpha" values="0 0 0 0 0 0 0 0 0 0 0 0 0 0 0 0 0 0 127 0"/>
      <feOffset dy="5"/>
      <feColorMatrix values="0 0 0 0 1 0 0 0 0 1 0 0 0 0 1 0 0 0 0.1 0"/>
      <feBlend in2="effect2_dropShadow" result="effect3_dropShadow"/>
      <feBlend in="SourceGraphic" in2="effect3_dropShadow" result="shape"/>
    </filter>
    <linearGradient id="иллюстрация__paint0_linear" x1="715.181" y1="359.792" x2="616.139" y2="660.072" gradientUnits="userSpaceOnUse">
      <stop stop-color="#1DBBFF"/>
      <stop offset="1" stop-color="#FF1DC0"/>
    </linearGradient>
  </defs>
</svg>
