<svg viewBox="0 0 710 1073" fill="none" preserveAspectRatio="xMinYMin meet" xmlns="http://www.w3.org/2000/svg">
    <path d="M46.49 43.98C58.3586 43.98 67.98 34.3586 67.98 22.49C67.98 10.6214 58.3586 1 46.49 1C34.6214 1 25 10.6214 25 22.49C25 34.3586 34.6214 43.98 46.49 43.98Z" fill="#FE9417" stroke="#263238" stroke-width="1.04814" stroke-linecap="round" stroke-linejoin="round"/>
    <path d="M51.16 6.47012C52.572 5.11608 54.2101 4.01954 56 3.23012C54.2321 2.35358 52.3507 1.72756 50.41 1.37012C48.4522 2.75393 46.5973 4.27793 44.86 5.93011C37.35 13.1101 39.43 12.3601 28.35 16.8301C27.3347 17.2397 26.3575 17.7383 25.43 18.3201C24.5682 22.5478 25.0219 26.938 26.73 30.9001C30.73 29.5801 35.95 27.4801 38.34 24.9701C42.43 20.6701 42.97 14.3701 51.16 6.47012Z" fill="#263238" stroke="#263238" stroke-width="1.04814" stroke-linecap="round" stroke-linejoin="round"/>
    <path d="M31.25 37.6104C32.9199 39.2954 34.8558 40.6941 36.98 41.7504C40.91 38.8604 42.69 35.8404 48.33 33.1104C53.33 30.7104 61.53 30.0003 66.68 29.8103C67.5985 27.2977 68.0361 24.6348 67.97 21.9603C67.97 21.5903 67.92 21.2304 67.89 20.8604C61.8131 21.4845 55.862 23.0042 50.23 25.3703C42.19 28.8203 38.4 34.6704 31.25 37.6104Z" fill="#263238" stroke="#263238" stroke-width="1.04814" stroke-linecap="round" stroke-linejoin="round"/>
    <path d="M52.07 14.8397C55.91 16.6397 61.73 15.5097 66.26 14.0997C65.3416 11.9326 64.0711 9.93227 62.5 8.17969C56.48 9.46969 46.74 12.3397 52.07 14.8397Z" fill="#263238" stroke="#263238" stroke-width="1.04814" stroke-linecap="round" stroke-linejoin="round"/>
    <path d="M136.38 418.458C131.38 416.678 126.01 416.158 121.44 419.038C117.57 421.478 115.76 426.928 110.91 427.628C105.14 428.458 104.31 427.268 100.74 429.748C99.7228 430.439 98.9085 431.389 98.3811 432.5C97.8537 433.611 97.6324 434.842 97.74 436.068C97.74 436.068 101.59 430.938 106.63 431.848C107.273 431.886 107.884 432.144 108.36 432.578C104.61 433.768 100.3 433.418 97.74 436.068C95.2048 438.945 93.0257 442.118 91.25 445.518C89.7 448.358 86.25 446.898 82.1 450.108C77.95 453.318 75.87 454.608 74.5 458.738C73.13 462.868 71.5 465.058 67.83 466.898C65.5446 468.031 63.1487 468.925 60.68 469.568C60.68 469.568 66.55 471.668 70.21 469.828C73.87 467.988 75.21 466.158 78.26 462.118C81.31 458.078 91.82 458.528 91.82 458.528C91.82 458.528 84.95 460.828 81.38 465.598C77.81 470.368 77.38 474.028 71.32 475.228C66.19 476.228 62.65 475.168 60.01 477.048C57.3987 477.736 55.0886 479.269 53.44 481.408C49.59 486.488 48.74 487.408 43.26 488.518C37.78 489.628 32.71 494.948 29.9 500.348C27.09 505.748 26.8 508.508 19.63 511.418C12.46 514.328 8.69 515.418 5 519.998C3.14903 522.194 1.47701 524.534 0 526.998C0 526.998 8.27001 518.718 18.56 516.778C28.85 514.838 37.12 506.568 38.73 501.358C40.34 496.148 47.55 498.418 54.55 494.308C55.536 493.713 56.4753 493.044 57.36 492.308C57.8137 492.016 58.2186 491.655 58.56 491.238C61.27 488.668 62.88 486.018 65.01 484.368C66.4776 483.882 68.0143 483.639 69.56 483.648C80 483.448 87.7 482.338 90.81 476.648C93.92 470.958 96.11 468.028 101.15 468.938C106.19 469.848 109.94 468.658 111.87 468.378C113.8 468.098 114.98 467.268 110.5 472.498C106.02 477.728 100.5 475.908 98.87 478.108L94.48 483.978C94.48 483.978 98.32 478.838 104 479.658C109.68 480.478 118.3 478.908 120.49 475.968C122.68 473.028 126.99 468.818 130.1 467.708C133.21 466.598 139.17 464.768 140.55 462.918C141.331 461.756 142.229 460.677 143.23 459.698C143.34 464.298 140.1 469.198 136.64 472.088C141.24 470.109 145.274 467.016 148.38 463.088C149.706 461.42 150.846 459.612 151.78 457.698C159.16 442.588 152.41 424.178 136.38 418.458Z" fill="white"/>
    <path d="M138.55 423.597C138.55 423.597 131.77 420.857 126.41 421.747C121.05 422.637 119.22 426.507 115.86 431.187C112.5 435.867 108.86 436.327 104.78 438.237C102.035 439.427 99.8024 441.554 98.48 444.237C98.21 445.107 99.42 443.237 101.89 442.437C103.924 441.92 106.024 441.714 108.12 441.827C106.596 444.525 104.155 446.587 101.24 447.637C96.24 449.567 92.75 450.417 91.05 451.797C89.928 452.817 89.0115 454.043 88.35 455.407C87.79 456.187 90.78 452.667 94.84 453.917C98.9 455.167 104.84 454.477 104.84 454.477C104.84 454.477 97.09 455.887 93.99 458.737C90.89 461.587 89.71 465.357 88.34 468.737C86.97 472.117 83.99 471.517 81.73 473.677C80.1936 475.292 78.9637 477.172 78.1 479.227C80.8576 476.898 84.0063 475.077 87.4 473.847C92.73 472.007 91.93 470.487 95.29 465.847C98.65 461.207 103.82 460.847 107.88 462.117C111.94 463.387 119.29 461.207 119.29 461.207C119.29 461.207 118.01 464.307 116 464.637C113.99 464.967 116.62 466.737 119.57 465.417C122.52 464.097 123.33 461.497 126.52 462.487C129.71 463.477 130.11 464.237 133.05 462.927C135.99 461.617 140.52 457.297 144.43 455.927C148.34 454.557 151.95 443.927 149.43 436.527C146.91 429.127 138.55 423.597 138.55 423.597Z" fill="#FE9417"/>
    <path d="M137.93 426.667L132.33 425.007C130.215 424.384 127.945 424.558 125.95 425.497L119.87 428.407C118.284 429.167 116.882 430.263 115.761 431.618C114.64 432.974 113.828 434.556 113.38 436.257L111.11 444.907C111.11 444.907 114.88 455.167 118.64 457.407C122.4 459.647 133.4 458.717 138.16 457.697C142.92 456.677 147.41 451.457 147.77 447.147C148.13 442.837 149.31 437.437 146.46 433.597C143.61 429.757 137.93 426.667 137.93 426.667Z" fill="#263238"/>
    <path d="M138.7 436.708C138.323 437.212 137.806 437.592 137.212 437.802C136.619 438.011 135.977 438.04 135.368 437.884C134.758 437.729 134.209 437.396 133.788 436.928C133.368 436.46 133.096 435.878 133.006 435.256C132.916 434.633 133.014 433.998 133.285 433.431C133.557 432.863 133.99 432.389 134.531 432.068C135.072 431.747 135.696 431.594 136.324 431.628C136.953 431.661 137.557 431.881 138.06 432.258C138.395 432.507 138.678 432.82 138.892 433.179C139.105 433.538 139.246 433.936 139.305 434.35C139.365 434.763 139.342 435.185 139.238 435.589C139.134 435.994 138.951 436.374 138.7 436.708Z" fill="white" stroke="#263238" stroke-width="1.04814" stroke-linecap="round" stroke-linejoin="round"/>
    <path d="M126.55 435.397C126.255 435.792 125.85 436.091 125.385 436.255C124.921 436.42 124.418 436.443 123.94 436.321C123.463 436.2 123.032 435.939 122.703 435.572C122.373 435.206 122.16 434.75 122.09 434.262C122.02 433.774 122.096 433.277 122.309 432.832C122.522 432.388 122.862 432.016 123.286 431.765C123.71 431.514 124.199 431.395 124.691 431.422C125.183 431.449 125.656 431.621 126.05 431.917C126.312 432.112 126.533 432.357 126.7 432.638C126.867 432.919 126.977 433.23 127.023 433.553C127.07 433.877 127.052 434.206 126.971 434.522C126.889 434.839 126.746 435.136 126.55 435.397Z" fill="white" stroke="#263238" stroke-width="1.04814" stroke-linecap="round" stroke-linejoin="round"/>
    <path d="M132.96 446.238C132.682 446.61 132.3 446.892 131.862 447.047C131.424 447.203 130.95 447.225 130.5 447.111C130.049 446.996 129.642 446.751 129.331 446.406C129.02 446.061 128.818 445.632 128.751 445.172C128.684 444.712 128.755 444.242 128.954 443.823C129.154 443.403 129.474 443.052 129.873 442.814C130.272 442.576 130.733 442.462 131.197 442.485C131.661 442.509 132.107 442.67 132.48 442.948C132.728 443.132 132.937 443.363 133.095 443.629C133.253 443.894 133.357 444.188 133.402 444.493C133.446 444.799 133.43 445.11 133.355 445.409C133.279 445.709 133.145 445.99 132.96 446.238Z" fill="white" stroke="#263238" stroke-width="1.04814" stroke-linecap="round" stroke-linejoin="round"/>
    <path d="M143.44 440.077C143.309 440.254 143.129 440.388 142.923 440.462C142.716 440.537 142.492 440.548 142.279 440.495C142.065 440.441 141.873 440.326 141.725 440.163C141.578 440.001 141.482 439.798 141.449 439.581C141.417 439.363 141.45 439.141 141.544 438.943C141.638 438.744 141.789 438.578 141.977 438.465C142.166 438.352 142.384 438.298 142.603 438.309C142.823 438.32 143.034 438.396 143.21 438.527C143.446 438.703 143.602 438.964 143.645 439.255C143.688 439.545 143.615 439.841 143.44 440.077Z" fill="white" stroke="#263238" stroke-width="1.04814" stroke-linecap="round" stroke-linejoin="round"/>
    <path d="M124.38 445.697C124.166 445.982 123.873 446.197 123.537 446.315C123.201 446.434 122.838 446.449 122.493 446.361C122.148 446.273 121.837 446.084 121.6 445.819C121.362 445.554 121.208 445.224 121.158 444.872C121.108 444.52 121.163 444.16 121.317 443.839C121.471 443.518 121.717 443.25 122.023 443.069C122.329 442.887 122.682 442.801 123.038 442.82C123.393 442.839 123.735 442.964 124.02 443.177C124.4 443.465 124.65 443.892 124.718 444.363C124.785 444.835 124.664 445.315 124.38 445.697Z" fill="white" stroke="#263238" stroke-width="1.04814" stroke-linecap="round" stroke-linejoin="round"/>
    <path d="M130.64 430.907C130.42 431.2 130.092 431.394 129.729 431.446C129.367 431.497 128.998 431.402 128.705 431.182C128.412 430.962 128.218 430.635 128.167 430.272C128.115 429.909 128.21 429.54 128.43 429.247C128.539 429.102 128.675 428.98 128.832 428.888C128.988 428.795 129.161 428.735 129.341 428.709C129.52 428.684 129.703 428.694 129.879 428.739C130.055 428.784 130.22 428.863 130.365 428.972C130.51 429.081 130.632 429.218 130.725 429.374C130.817 429.53 130.878 429.703 130.903 429.883C130.929 430.063 130.919 430.246 130.873 430.421C130.828 430.597 130.749 430.762 130.64 430.907Z" fill="white" stroke="#263238" stroke-width="1.04814" stroke-linecap="round" stroke-linejoin="round"/>
    <path d="M83.2511 1048.82C90.9333 1048.82 97.1611 1042.59 97.1611 1034.91C97.1611 1027.23 90.9333 1021 83.2511 1021C75.5688 1021 69.3411 1027.23 69.3411 1034.91C69.3411 1042.59 75.5688 1048.82 83.2511 1048.82Z" fill="white" stroke="white" stroke-width="1.04814" stroke-linecap="round" stroke-linejoin="round"/>
    <path d="M79.7111 1024.7C78.7593 1023.87 77.6652 1023.21 76.4811 1022.76C77.5936 1022.13 78.7886 1021.67 80.0311 1021.37C81.3414 1022.2 82.5912 1023.13 83.7711 1024.14C88.8611 1028.54 87.4911 1028.14 94.7711 1030.66C95.4432 1030.89 96.0927 1031.18 96.7111 1031.53C96.9564 1032.51 97.0972 1033.52 97.1311 1034.53C97.1706 1036.28 96.8788 1038.03 96.2711 1039.67C93.6611 1038.95 90.2011 1037.76 88.5711 1036.21C85.8311 1033.6 85.2611 1029.54 79.7111 1024.7Z" fill="#FE9417"/>
    <path d="M93.591 1044.21C92.5691 1045.36 91.3624 1046.32 90.021 1047.07C87.391 1045.33 86.141 1043.44 82.401 1041.85C79.131 1040.46 73.771 1040.27 70.401 1040.31C69.7305 1038.73 69.3609 1037.03 69.311 1035.31C69.311 1035.07 69.311 1034.84 69.311 1034.6C73.2593 1034.81 77.155 1035.6 80.871 1036.95C86.231 1038.86 88.881 1042.52 93.591 1044.21Z" fill="#FE9417"/>
    <path d="M79.4011 1030.14C76.9711 1031.43 73.171 1030.88 70.201 1030.14C70.7241 1028.71 71.4811 1027.37 72.4411 1026.19C76.3711 1026.8 82.7611 1028.35 79.4011 1030.14Z" fill="#FE9417"/>
    <path d="M89.4611 1022.21C105.461 1023 118.731 1027.41 118.861 1032.71C119.011 1038.93 102.861 1044.37 82.7111 1044.87C62.5611 1045.37 46.1511 1040.74 46.0011 1034.53C45.8611 1028.91 59.0711 1023.92 76.4711 1022.65" stroke="white" stroke-width="1.04814" stroke-linecap="round" stroke-linejoin="round"/>
    <path d="M91.6211 1022.78C101.481 1023.93 108.541 1027.26 108.621 1031.36C108.751 1036.69 97.1111 1041.3 82.6211 1041.66C68.1311 1042.02 56.2611 1037.99 56.1311 1032.66C56.0111 1028.21 64.1311 1024.26 75.2311 1022.87" stroke="white" stroke-width="1.04814" stroke-linecap="round" stroke-linejoin="round"/>
    <path d="M118.561 1037.21C118.549 1036.74 118.397 1036.28 118.125 1035.89C117.852 1035.51 117.472 1035.21 117.03 1035.04C116.589 1034.87 116.108 1034.84 115.647 1034.94C115.186 1035.04 114.766 1035.28 114.44 1035.62C114.114 1035.97 113.897 1036.4 113.817 1036.86C113.736 1037.33 113.796 1037.81 113.987 1038.24C114.179 1038.67 114.494 1039.04 114.894 1039.29C115.293 1039.54 115.759 1039.67 116.231 1039.66C116.545 1039.65 116.855 1039.58 117.143 1039.46C117.43 1039.33 117.69 1039.15 117.907 1038.92C118.123 1038.69 118.293 1038.42 118.405 1038.13C118.517 1037.84 118.57 1037.52 118.561 1037.21Z" fill="#FE9417"/>
    <path d="M58.9211 1032.21C58.909 1031.74 58.7569 1031.28 58.4839 1030.89C58.211 1030.51 57.8296 1030.21 57.3879 1030.04C56.9462 1029.87 56.4642 1029.84 56.0029 1029.94C55.5416 1030.04 55.1217 1030.28 54.7964 1030.63C54.4712 1030.97 54.2552 1031.4 54.1758 1031.87C54.0964 1032.34 54.1571 1032.82 54.3504 1033.25C54.5436 1033.68 54.8606 1034.04 55.2613 1034.3C55.6619 1034.55 56.1282 1034.67 56.6011 1034.66C56.9145 1034.65 57.2233 1034.58 57.5098 1034.45C57.7962 1034.33 58.0547 1034.14 58.2703 1033.92C58.4858 1033.69 58.6543 1033.42 58.766 1033.13C58.8777 1032.84 58.9304 1032.52 58.9211 1032.21Z" fill="#FE9417"/>
    <path d="M637.546 31.8243C638.486 19.9929 629.656 9.64011 617.825 8.70065C605.993 7.76119 595.641 16.5908 594.701 28.4222C593.762 40.2535 602.591 50.6063 614.423 51.5458C626.254 52.4852 636.607 43.6556 637.546 31.8243Z" fill="white" stroke="white" stroke-width="1.04814" stroke-linecap="round" stroke-linejoin="round"/>
    <path d="M626.661 18.3223L637.441 32.6823C637.785 29.8314 637.551 26.9402 636.751 24.1823L626.661 18.3223Z" fill="#FE9417"/>
    <path d="M604.631 11.9927L630.261 46.3027C632.273 44.5391 633.936 42.412 635.161 40.0327L613.611 8.80273C610.417 9.18359 607.349 10.2735 604.631 11.9927Z" fill="#FE9417"/>
    <path d="M615.901 51.5829L604.76 36.4629L610.76 50.9029C612.439 51.343 614.166 51.5715 615.901 51.5829Z" fill="#FE9417"/>
    <path d="M624.56 49.8629L599.14 16.9629C598.91 17.2629 598.7 17.5829 598.48 17.9029L617.07 51.5929C619.65 51.4685 622.187 50.8825 624.56 49.8629Z" fill="#FE9417"/>
    <path d="M682.013 1013.83C696.764 986.68 686.716 952.716 659.571 937.965C632.425 923.213 598.461 933.261 583.709 960.407C568.958 987.553 579.006 1021.52 606.152 1036.27C633.297 1051.02 667.262 1040.97 682.013 1013.83Z" fill="white"/>
    <path d="M683.6 963.571L613.11 954.931L672.83 947.981C672.02 947.141 671.17 946.341 670.3 945.551L592.71 948.161C589.635 951.319 586.949 954.834 584.71 958.631L603.92 961.101L581.56 964.761L609.1 969.961L577.46 979.421C577.35 980.221 577.26 981.011 577.18 981.811L653.18 978.471L603.77 990.081L630.36 993.391L605.89 1000.33L687.9 997.051C689.27 989.542 689.079 981.832 687.34 974.401L665.88 971.161L686.06 969.861C685.364 967.718 684.543 965.617 683.6 963.571Z" fill="#FE9417"/>
    <path d="M684.59 1008.38L617.82 1010.05L653.35 1014.13L593.85 1027.21C604.141 1037.23 617.896 1042.91 632.261 1043.06C646.626 1043.22 660.498 1037.83 671 1028.03L648.16 1031.59L677.4 1020.97C680.337 1017.11 682.755 1012.87 684.59 1008.38Z" fill="#FE9417"/>
    <path d="M606.08 938.05L643.68 937.26L632.12 934.18L641.89 931.95C629.607 929.926 617 932.074 606.08 938.05Z" fill="#FE9417"/>
    <path d="M603.81 1010.05L581.26 1008.65C583.52 1014.05 586.607 1019.07 590.41 1023.52L603.81 1010.05Z" fill="#FE9417"/>
    <path d="M682.013 1013.83C696.764 986.68 686.716 952.716 659.571 937.965C632.425 923.213 598.461 933.261 583.709 960.407C568.958 987.553 579.006 1021.52 606.152 1036.27C633.297 1051.02 667.262 1040.97 682.013 1013.83Z" stroke="#263238" stroke-width="1.04814" stroke-linecap="round" stroke-linejoin="round"/>
    <path d="M657.02 899.31C647.55 896.78 635.14 909.91 624.08 931.86C626.068 931.553 628.071 931.349 630.08 931.25C638.31 914.82 646.72 905.19 652.82 906.81C663.65 909.7 663.14 946.94 651.66 989.98C640.18 1033.02 622.11 1065.59 611.28 1062.7C605.7 1061.21 603.14 1050.59 603.53 1034.76C601.824 1033.71 600.175 1032.57 598.59 1031.34C598.02 1053.41 602.3 1068.92 611.15 1071.28C626.15 1075.28 648.56 1040.02 661.22 992.53C673.88 945.04 672.02 903.3 657.02 899.31Z" fill="#FE9417" stroke="#263238" stroke-width="1.04814" stroke-linecap="round" stroke-linejoin="round"/>
    <path d="M637.78 618.56C653.122 618.56 665.56 606.122 665.56 590.78C665.56 575.438 653.122 563 637.78 563C622.438 563 610 575.438 610 590.78C610 606.122 622.438 618.56 637.78 618.56Z" fill="white"/>
    <path d="M630.25 564.05C639.25 571.05 655.84 588.63 645.55 617.46C652.026 615.571 657.592 611.39 661.212 605.698C664.832 600.006 666.256 593.191 665.22 586.526C664.185 579.86 660.759 573.8 655.583 569.474C650.407 565.149 643.833 562.855 637.09 563.02C634.776 563.074 632.478 563.42 630.25 564.05Z" fill="#FE9417"/>
    <path d="M637.78 618.56C653.122 618.56 665.56 606.122 665.56 590.78C665.56 575.438 653.122 563 637.78 563C622.438 563 610 575.438 610 590.78C610 606.122 622.438 618.56 637.78 618.56Z" stroke="#263238" stroke-width="1.04814" stroke-linecap="round" stroke-linejoin="round"/>
    <path d="M628.24 579.91C630.543 579.91 632.41 578.043 632.41 575.74C632.41 573.437 630.543 571.57 628.24 571.57C625.937 571.57 624.07 573.437 624.07 575.74C624.07 578.043 625.937 579.91 628.24 579.91Z" fill="#FE9417" stroke="#263238" stroke-width="1.04814" stroke-linecap="round" stroke-linejoin="round"/>
    <path d="M647.87 573.86C649.096 573.86 650.09 572.866 650.09 571.64C650.09 570.414 649.096 569.42 647.87 569.42C646.644 569.42 645.65 570.414 645.65 571.64C645.65 572.866 646.644 573.86 647.87 573.86Z" fill="#FE9417" stroke="#263238" stroke-width="1.04814" stroke-linecap="round" stroke-linejoin="round"/>
    <path d="M642.43 591.22C644.424 591.22 646.04 589.604 646.04 587.61C646.04 585.616 644.424 584 642.43 584C640.436 584 638.82 585.616 638.82 587.61C638.82 589.604 640.436 591.22 642.43 591.22Z" fill="#FE9417" stroke="#263238" stroke-width="1.04814" stroke-linecap="round" stroke-linejoin="round"/>
    <path d="M619.43 592.91C620.965 592.91 622.21 591.665 622.21 590.13C622.21 588.594 620.965 587.35 619.43 587.35C617.895 587.35 616.65 588.594 616.65 590.13C616.65 591.665 617.895 592.91 619.43 592.91Z" fill="#FE9417" stroke="#263238" stroke-width="1.04814" stroke-linecap="round" stroke-linejoin="round"/>
    <path d="M640.96 611.82C643.721 611.82 645.96 609.582 645.96 606.82C645.96 604.059 643.721 601.82 640.96 601.82C638.199 601.82 635.96 604.059 635.96 606.82C635.96 609.582 638.199 611.82 640.96 611.82Z" fill="#FE9417" stroke="#263238" stroke-width="1.04814" stroke-linecap="round" stroke-linejoin="round"/>
    <path d="M658.02 590.83C659.092 590.83 659.96 589.962 659.96 588.89C659.96 587.819 659.092 586.95 658.02 586.95C656.949 586.95 656.08 587.819 656.08 588.89C656.08 589.962 656.949 590.83 658.02 590.83Z" fill="#FE9417" stroke="#263238" stroke-width="1.04814" stroke-linecap="round" stroke-linejoin="round"/>
    <path d="M624.5 607.23C626.19 607.23 627.56 605.86 627.56 604.17C627.56 602.48 626.19 601.11 624.5 601.11C622.81 601.11 621.44 602.48 621.44 604.17C621.44 605.86 622.81 607.23 624.5 607.23Z" fill="#FE9417" stroke="#263238" stroke-width="1.04814" stroke-linecap="round" stroke-linejoin="round"/>
</svg>