<svg preserveAspectRatio="xMinYMin meet" viewBox="0 0 223 199" fill="none" xmlns="http://www.w3.org/2000/svg">
    <path d="M170.796 9.5641C187.564 20.4353 190.766 42.8697 198.69 61.1915C206.099 78.3217 214.918 94.7016 215.681 113.344C216.524 133.983 216.663 157.043 203.253 172.778C189.904 188.44 166.797 189.913 146.671 194.315C128.548 198.279 110.329 201.037 92.2072 197.066C73.7141 193.015 56.3299 184.748 42.7763 171.554C28.8466 157.994 20.6936 140.268 14.8358 121.749C8.32236 101.157 1.43967 79.5951 7.09577 58.7524C13.062 36.7669 26.3276 15.0923 46.6125 4.65244C66.3258 -5.49322 89.6424 3.98595 111.805 4.86252C131.923 5.65823 153.912 -1.38219 170.796 9.5641Z" fill="#FFDFB9"/>
    <path d="M62.2891 49.924V29.9844L119.332 39.154L62.2891 49.924Z" fill="white" stroke="#2E353A" stroke-width="0.5" stroke-linecap="round" stroke-linejoin="round"/>
    <path d="M65.0801 33.5715L62.2891 49.9237L119.332 39.1537L65.0801 33.5715Z" fill="#FE9417" stroke="#2E353A" stroke-width="0.5" stroke-linecap="round" stroke-linejoin="round"/>
    <path d="M65.0801 33.5715L70.2679 43.9395L119.332 39.1537L65.0801 33.5715Z" fill="white" stroke="#2E353A" stroke-width="0.5" stroke-linecap="round" stroke-linejoin="round"/>
    <path d="M62.2889 29.9842L56.3047 24L119.332 39.1538L62.2889 29.9842Z" fill="white" stroke="#2E353A" stroke-width="0.5" stroke-linecap="round" stroke-linejoin="round"/>
    <path d="M82.7153 49.5527L87.6635 48.5476" stroke="black" stroke-width="0.5" stroke-linecap="round" stroke-linejoin="round"/>
    <path d="M65.335 53.086L77.775 50.5578" stroke="black" stroke-width="0.5" stroke-linecap="round" stroke-linejoin="round"/>
    <path d="M55.4156 48.6944C55.4156 48.6944 10.5727 56.4259 2.06807 96.6298C-6.4366 136.834 38.4062 139.153 46.1377 119.824C53.8692 100.496 19.8506 92.7641 12.119 111.32C4.38753 129.875 -11.4373 173.242 59.2813 163.121C130 153 131 70.3197 222 111.32" stroke="black" stroke-width="0.5" stroke-linecap="round" stroke-linejoin="round" stroke-dasharray="2 4"/>
    <path d="M38.3495 6.00822L110.5 78.1561L182.354 6.30512C183.613 4.96486 185.13 3.89269 186.813 3.15291C188.497 2.41314 190.313 2.021 192.152 2C196.089 2 199.865 3.56405 202.649 6.34807C205.433 9.1321 206.998 12.908 206.998 16.8453C207.032 18.6653 206.695 20.4732 206.005 22.1581C205.316 23.8429 204.29 25.3692 202.989 26.6431L130.393 98.4941L202.989 171.087C205.436 173.481 206.871 176.722 206.998 180.143C206.998 184.08 205.433 187.856 202.649 190.64C199.865 193.424 196.089 194.988 192.152 194.988C190.26 195.067 188.372 194.751 186.609 194.061C184.845 193.371 183.245 192.322 181.908 190.98L110.5 118.832L38.498 190.832C37.2436 192.127 35.745 193.162 34.0888 193.875C32.4326 194.588 30.6514 194.967 28.8482 194.988C24.9109 194.988 21.1348 193.424 18.3506 190.64C15.5665 187.856 14.0024 184.08 14.0024 180.143C13.9678 178.323 14.3055 176.515 14.9948 174.83C15.6841 173.145 16.7104 171.619 18.0108 170.345L90.6066 98.4941L18.0108 25.9009C15.564 23.5072 14.1292 20.2658 14.0024 16.8453C14.0024 12.908 15.5665 9.1321 18.3506 6.34807C21.1348 3.56405 24.9109 2 28.8482 2C32.4112 2.04454 35.8257 3.48452 38.3495 6.00822Z" fill="#C21414" fill-opacity="0.41"/>
</svg>