<svg width="265" height="375" viewBox="0 0 265 375" fill="none" xmlns="http://www.w3.org/2000/svg">
    <path d="M187.714 340.531C187.714 353.961 161.144 364.851 128.374 364.851C95.6037 364.851 69.0037 353.971 69.0037 340.531C69.0037 327.091 95.5737 316.201 128.344 316.201C161.114 316.201 187.714 327.101 187.714 340.531Z" fill="#FE9417"/>
    <path d="M187.714 340.531C187.714 353.961 161.144 364.851 128.374 364.851C95.6037 364.851 69.0037 353.971 69.0037 340.531C69.0037 327.091 95.5737 316.201 128.344 316.201C161.114 316.201 187.714 327.101 187.714 340.531Z" fill="#FE9417"/>
    <path opacity="0.9" d="M128.374 366.861C163.83 366.861 192.574 355.077 192.574 340.541C192.574 326.005 163.83 314.221 128.374 314.221C92.9171 314.221 64.1738 326.005 64.1738 340.541C64.1738 355.077 92.9171 366.861 128.374 366.861Z" fill="white"/>
    <path d="M67.9338 318.971C68.1229 312.106 70.9831 305.585 75.9059 300.796C80.8287 296.007 87.4258 293.327 94.2938 293.327C101.162 293.327 107.759 296.007 112.682 300.796C117.604 305.585 120.465 312.106 120.654 318.971C120.654 319.221 120.654 319.451 120.654 319.701C120.654 319.951 120.654 320.191 120.654 320.441C120.354 324.091 117.784 327.671 112.934 330.441C102.654 336.391 85.9338 336.391 75.6238 330.441C70.8038 327.641 68.2338 324.061 67.9338 320.441C67.9338 320.191 67.9338 319.961 67.9338 319.701C67.9338 319.441 67.9138 319.221 67.9338 318.971Z" fill="#FE9417"/>
    <path opacity="0.8" d="M67.9338 318.971C68.1229 312.106 70.9831 305.585 75.9059 300.796C80.8287 296.007 87.4258 293.327 94.2938 293.327C101.162 293.327 107.759 296.007 112.682 300.796C117.604 305.585 120.465 312.106 120.654 318.971C120.654 319.221 120.654 319.451 120.654 319.701C120.654 319.951 120.654 320.191 120.654 320.441C120.354 324.091 117.784 327.671 112.934 330.441C102.654 336.391 85.9338 336.391 75.6238 330.441C70.8038 327.641 68.2338 324.061 67.9338 320.441C67.9338 320.191 67.9338 319.961 67.9338 319.701C67.9338 319.441 67.9138 319.221 67.9338 318.971Z" fill="white"/>
    <path opacity="0.3" d="M82.8537 295.961C86.8144 294.039 91.1938 293.142 95.5911 293.35C99.9884 293.559 104.263 294.868 108.024 297.156C111.785 299.444 114.911 302.639 117.118 306.449C119.324 310.258 120.54 314.56 120.654 318.961C120.654 319.211 120.654 319.441 120.654 319.691C120.654 319.941 120.654 320.181 120.654 320.431C120.354 324.081 117.784 327.661 112.934 330.431C108.841 332.669 104.344 334.073 99.7038 334.561C106.544 333.381 110.974 325.741 108.874 317.311C106.434 307.531 96.5437 293.431 82.8537 295.961Z" fill="white"/>
    <path opacity="0.1" d="M67.9337 320.441C67.9337 320.191 67.9337 319.961 67.9337 319.701C67.9337 319.441 67.9337 319.221 67.9337 318.971C68.0292 315.35 68.8738 311.787 70.4142 308.509C71.9545 305.23 74.1573 302.306 76.8837 299.921C74.0237 302.861 67.6537 313.921 74.5737 322.421C79.1237 327.991 100.744 335.931 118.574 325.721C117.047 327.666 115.142 329.282 112.974 330.471C102.694 336.421 85.9737 336.421 75.6637 330.471C70.8037 327.671 68.2337 324.091 67.9337 320.441Z" fill="#FE9417"/>
    <path opacity="0.5" d="M94.5637 299.271C93.3837 301.961 95.6437 305.551 99.6237 307.271C103.604 308.991 107.784 308.271 108.964 305.561C110.144 302.851 107.874 299.281 103.904 297.561C99.9337 295.841 95.7437 296.581 94.5637 299.271Z" fill="white"/>
    <path opacity="0.5" d="M109.834 310.211C109.224 311.611 110.114 313.351 111.834 314.111C113.554 314.871 115.444 314.341 116.054 312.941C116.664 311.541 115.784 309.791 114.054 309.041C112.324 308.291 110.454 308.811 109.834 310.211Z" fill="white"/>
    <path d="M178.154 318.531C178.03 312.676 175.617 307.102 171.433 303.005C167.248 298.908 161.625 296.614 155.769 296.614C149.912 296.614 144.289 298.908 140.105 303.005C135.92 307.102 133.507 312.676 133.384 318.531C133.384 318.751 133.384 318.941 133.384 319.161C133.384 319.381 133.384 319.571 133.384 319.781C133.634 322.881 135.824 325.921 139.934 328.301C148.674 333.351 162.864 333.351 171.624 328.301C175.714 325.921 177.894 322.881 178.154 319.781C178.154 319.571 178.154 319.371 178.154 319.161C178.154 318.951 178.174 318.781 178.154 318.531Z" fill="#FE9417"/>
    <path opacity="0.8" d="M178.154 318.531C178.03 312.676 175.617 307.102 171.433 303.005C167.248 298.908 161.625 296.614 155.769 296.614C149.912 296.614 144.289 298.908 140.105 303.005C135.92 307.102 133.507 312.676 133.384 318.531C133.384 318.751 133.384 318.941 133.384 319.161C133.384 319.381 133.384 319.571 133.384 319.781C133.634 322.881 135.824 325.921 139.934 328.301C148.674 333.351 162.864 333.351 171.624 328.301C175.714 325.921 177.894 322.881 178.154 319.781C178.154 319.571 178.154 319.371 178.154 319.161C178.154 318.951 178.174 318.781 178.154 318.531Z" fill="white"/>
    <path opacity="0.3" d="M165.484 299.021C162.122 297.39 158.405 296.627 154.672 296.803C150.94 296.979 147.311 298.089 144.118 300.029C140.924 301.97 138.269 304.681 136.394 307.913C134.518 311.145 133.484 314.796 133.384 318.531C133.384 318.751 133.384 318.941 133.384 319.161C133.384 319.381 133.384 319.571 133.384 319.781C133.634 322.881 135.824 325.921 139.934 328.301C143.409 330.207 147.231 331.401 151.174 331.811C145.364 330.811 141.604 324.321 143.384 317.161C145.464 308.881 153.864 296.871 165.484 299.021Z" fill="white"/>
    <path opacity="0.1" d="M178.154 319.811C178.154 319.601 178.154 319.401 178.154 319.191C178.154 318.981 178.154 318.781 178.154 318.561C178.072 315.485 177.355 312.46 176.047 309.676C174.739 306.891 172.869 304.407 170.554 302.381C172.984 304.881 178.394 314.311 172.554 321.501C168.684 326.221 150.334 332.971 135.224 324.301C136.521 325.941 138.137 327.302 139.974 328.301C148.714 333.351 162.904 333.351 171.664 328.301C175.714 325.951 177.894 322.911 178.154 319.811Z" fill="#FE9417"/>
    <path opacity="0.5" d="M155.544 301.831C156.544 304.111 154.614 307.171 151.244 308.651C147.874 310.131 144.314 309.491 143.304 307.201C142.294 304.911 144.234 301.871 147.614 300.381C150.994 298.891 154.534 299.531 155.544 301.831Z" fill="white"/>
    <path opacity="0.5" d="M142.574 311.121C142.922 311.617 143.109 312.209 143.108 312.815C143.108 313.421 142.92 314.012 142.57 314.508C142.22 315.003 141.726 315.378 141.155 315.581C140.584 315.785 139.964 315.806 139.38 315.644C138.796 315.481 138.276 315.142 137.892 314.672C137.509 314.203 137.279 313.627 137.236 313.022C137.193 312.417 137.337 311.814 137.65 311.294C137.963 310.775 138.429 310.365 138.984 310.121C139.594 309.784 140.312 309.7 140.983 309.887C141.654 310.074 142.226 310.517 142.574 311.121Z" fill="white"/>
    <path d="M200.004 321.141C199.863 317.31 198.242 313.683 195.482 311.022C192.722 308.362 189.037 306.875 185.204 306.875C181.37 306.875 177.686 308.362 174.926 311.022C172.166 313.683 170.545 317.31 170.404 321.141C170.394 321.277 170.394 321.414 170.404 321.551C170.394 321.691 170.394 321.831 170.404 321.971C170.574 324.021 172.014 326.031 174.734 327.601C180.514 330.941 189.894 330.941 195.684 327.601C198.394 326.031 199.834 324.021 200.004 321.971C200.004 321.831 200.004 321.701 200.004 321.551C200.004 321.401 200.004 321.281 200.004 321.141Z" fill="#FE9417"/>
    <path opacity="0.9" d="M200.004 321.141C199.863 317.31 198.242 313.683 195.482 311.022C192.722 308.362 189.037 306.875 185.204 306.875C181.37 306.875 177.686 308.362 174.926 311.022C172.166 313.683 170.545 317.31 170.404 321.141C170.394 321.277 170.394 321.414 170.404 321.551C170.394 321.691 170.394 321.831 170.404 321.971C170.574 324.021 172.014 326.031 174.734 327.601C180.514 330.941 189.894 330.941 195.684 327.601C198.394 326.031 199.834 324.021 200.004 321.971C200.004 321.831 200.004 321.701 200.004 321.551C200.004 321.401 200.004 321.281 200.004 321.141Z" fill="white"/>
    <path opacity="0.5" d="M191.634 308.221C189.41 307.143 186.951 306.64 184.482 306.759C182.013 306.877 179.614 307.612 177.503 308.898C175.391 310.183 173.636 311.977 172.398 314.116C171.16 316.255 170.477 318.67 170.414 321.141C170.404 321.277 170.404 321.414 170.414 321.551C170.404 321.691 170.404 321.831 170.414 321.971C170.584 324.021 172.024 326.031 174.744 327.601C177.042 328.859 179.568 329.648 182.174 329.921C178.334 329.261 175.844 324.971 177.024 320.231C178.394 314.741 184.004 306.801 191.634 308.221Z" fill="white"/>
    <path opacity="0.1" d="M200.004 321.971C200.004 321.831 200.004 321.701 200.004 321.551C200.004 321.401 200.004 321.281 200.004 321.141C199.952 319.109 199.481 317.11 198.621 315.269C197.76 313.428 196.529 311.784 195.004 310.441C196.604 312.101 200.184 318.331 196.294 323.081C193.744 326.211 181.604 330.671 171.614 324.941C172.471 326.029 173.539 326.934 174.754 327.601C180.534 330.941 189.914 330.941 195.704 327.601C198.404 326.031 199.844 324.021 200.004 321.971Z" fill="#FE9417"/>
    <path opacity="0.5" d="M185.064 310.081C185.724 311.591 184.454 313.611 182.214 314.591C179.974 315.571 177.634 315.141 176.974 313.591C176.314 312.041 177.584 310.061 179.814 309.081C182.044 308.101 184.404 308.531 185.064 310.081Z" fill="white"/>
    <path opacity="0.5" d="M176.484 316.221C176.584 316.661 176.528 317.122 176.324 317.525C176.121 317.928 175.784 318.247 175.371 318.428C174.958 318.609 174.494 318.641 174.061 318.517C173.627 318.394 173.249 318.123 172.994 317.751C172.894 317.311 172.95 316.85 173.153 316.447C173.356 316.044 173.693 315.725 174.106 315.544C174.52 315.362 174.983 315.331 175.417 315.455C175.851 315.578 176.228 315.849 176.484 316.221Z" fill="white"/>
    <path d="M231.554 327.581C231.437 322.323 229.266 317.321 225.506 313.644C221.747 309.968 216.697 307.909 211.439 307.909C206.18 307.909 201.131 309.968 197.371 313.644C193.612 317.321 191.441 322.323 191.324 327.581C191.324 327.781 191.324 327.951 191.324 328.141C191.324 328.331 191.324 328.511 191.324 328.701C191.554 331.491 193.514 334.221 197.214 336.361C205.064 340.901 217.824 340.901 225.684 336.361C229.364 334.221 231.334 331.491 231.554 328.701C231.564 328.514 231.564 328.327 231.554 328.141C231.564 327.954 231.564 327.767 231.554 327.581Z" fill="#FE9417"/>
    <path opacity="0.7" d="M231.554 327.581C231.437 322.323 229.266 317.321 225.506 313.644C221.747 309.968 216.697 307.909 211.439 307.909C206.18 307.909 201.131 309.968 197.371 313.644C193.612 317.321 191.441 322.323 191.324 327.581C191.324 327.781 191.324 327.951 191.324 328.141C191.324 328.331 191.324 328.511 191.324 328.701C191.554 331.491 193.514 334.221 197.214 336.361C205.064 340.901 217.824 340.901 225.684 336.361C229.364 334.221 231.334 331.491 231.554 328.701C231.564 328.514 231.564 328.327 231.554 328.141C231.564 327.954 231.564 327.767 231.554 327.581Z" fill="white"/>
    <path opacity="0.3" d="M220.174 310.021C217.15 308.557 213.808 307.875 210.452 308.036C207.097 308.197 203.836 309.197 200.966 310.943C198.097 312.69 195.711 315.128 194.026 318.034C192.342 320.94 191.413 324.223 191.324 327.581C191.324 327.781 191.324 327.951 191.324 328.141C191.324 328.331 191.324 328.511 191.324 328.701C191.554 331.491 193.514 334.221 197.214 336.361C200.338 338.07 203.771 339.141 207.314 339.511C202.094 338.611 198.714 332.781 200.314 326.351C202.184 318.881 209.724 308.091 220.174 310.021Z" fill="white"/>
    <path opacity="0.1" d="M231.554 328.701C231.564 328.514 231.564 328.328 231.554 328.141C231.564 327.954 231.564 327.768 231.554 327.581C231.482 324.817 230.838 322.098 229.663 319.595C228.487 317.092 226.805 314.861 224.724 313.041C226.914 315.291 231.724 323.761 226.494 330.221C223.014 334.471 206.494 340.531 192.944 332.741C194.109 334.223 195.561 335.454 197.214 336.361C205.064 340.901 217.824 340.901 225.684 336.361C229.364 334.221 231.334 331.531 231.554 328.701Z" fill="#FE9417"/>
    <path opacity="0.5" d="M211.234 312.531C212.144 314.581 210.404 317.321 207.374 318.651C204.344 319.981 201.144 319.411 200.244 317.351C199.344 315.291 201.074 312.561 204.114 311.231C207.154 309.901 210.334 310.531 211.234 312.531Z" fill="white"/>
    <path opacity="0.5" d="M199.584 320.901C199.897 321.346 200.064 321.878 200.064 322.422C200.063 322.967 199.894 323.498 199.579 323.943C199.265 324.387 198.821 324.724 198.308 324.906C197.795 325.088 197.238 325.108 196.713 324.961C196.189 324.814 195.722 324.509 195.378 324.087C195.034 323.665 194.828 323.147 194.79 322.604C194.752 322.061 194.883 321.519 195.164 321.053C195.446 320.587 195.865 320.219 196.364 320.001C196.911 319.697 197.556 319.622 198.158 319.79C198.761 319.958 199.273 320.357 199.584 320.901Z" fill="white"/>
    <path d="M152.454 250.971C152.459 254.455 151.706 257.898 150.247 261.062C148.788 264.225 146.658 267.034 144.004 269.291C142.244 270.743 140.823 272.563 139.841 274.622C138.858 276.681 138.337 278.929 138.314 281.211V338.821C138.314 340.281 137.314 341.751 135.414 342.821C134.282 343.453 133.056 343.902 131.784 344.151C129.566 344.601 127.281 344.601 125.064 344.151C123.796 343.895 122.575 343.446 121.444 342.821C119.514 341.711 118.554 340.241 118.554 338.821V281.101C118.524 278.841 118.001 276.616 117.022 274.579C116.042 272.543 114.63 270.745 112.884 269.311C110.185 267.041 108.022 264.203 106.549 261C105.076 257.796 104.33 254.307 104.364 250.781C104.515 244.482 107.129 238.494 111.646 234.101C116.163 229.709 122.222 227.262 128.522 227.287C134.822 227.312 140.862 229.806 145.344 234.234C149.826 238.662 152.393 244.671 152.494 250.971H152.454Z" fill="#FE9417"/>
    <path opacity="0.5" d="M152.454 250.971C152.459 254.455 151.706 257.898 150.247 261.062C148.788 264.225 146.658 267.034 144.004 269.291C142.244 270.743 140.823 272.563 139.841 274.622C138.858 276.681 138.337 278.929 138.314 281.211V338.821C138.314 340.281 137.314 341.751 135.414 342.821C134.282 343.453 133.056 343.902 131.784 344.151C129.566 344.601 127.281 344.601 125.064 344.151C123.796 343.895 122.575 343.446 121.444 342.821C119.514 341.711 118.554 340.241 118.554 338.821V281.101C118.524 278.841 118.001 276.616 117.022 274.579C116.042 272.543 114.63 270.745 112.884 269.311C110.185 267.041 108.022 264.203 106.549 261C105.076 257.796 104.33 254.307 104.364 250.781C104.515 244.482 107.129 238.494 111.646 234.101C116.163 229.709 122.222 227.262 128.522 227.287C134.822 227.312 140.862 229.806 145.344 234.234C149.826 238.662 152.393 244.671 152.494 250.971H152.454Z" fill="white"/>
    <path d="M141.814 250.971C141.814 253.113 141.3 255.223 140.315 257.125C139.33 259.027 137.903 260.665 136.154 261.901C134.763 262.933 133.637 264.281 132.87 265.833C132.103 267.386 131.717 269.099 131.744 270.831V340.251C131.754 341.148 131.411 342.012 130.787 342.656C130.163 343.301 129.31 343.673 128.414 343.691H128.354C127.457 343.673 126.604 343.301 125.981 342.656C125.357 342.012 125.013 341.148 125.024 340.251V270.661C125.039 268.955 124.647 267.27 123.88 265.747C123.113 264.223 121.993 262.904 120.614 261.901C118.823 260.621 117.374 258.919 116.396 256.947C115.417 254.974 114.939 252.792 115.004 250.591C115.142 247.206 116.541 243.995 118.926 241.59C121.312 239.184 124.51 237.758 127.894 237.591C129.694 237.525 131.489 237.822 133.172 238.465C134.855 239.107 136.392 240.081 137.691 241.33C138.989 242.578 140.024 244.075 140.732 245.731C141.44 247.388 141.808 249.17 141.814 250.971Z" fill="#FE9417"/>
    <path opacity="0.7" d="M141.814 250.971C141.814 253.113 141.3 255.223 140.315 257.125C139.33 259.027 137.903 260.665 136.154 261.901C134.763 262.933 133.637 264.281 132.87 265.833C132.103 267.386 131.717 269.099 131.744 270.831V340.251C131.754 341.148 131.411 342.012 130.787 342.656C130.163 343.301 129.31 343.673 128.414 343.691H128.354C127.457 343.673 126.604 343.301 125.981 342.656C125.357 342.012 125.013 341.148 125.024 340.251V270.661C125.039 268.955 124.647 267.27 123.88 265.747C123.113 264.223 121.993 262.904 120.614 261.901C118.823 260.621 117.374 258.919 116.396 256.947C115.417 254.974 114.939 252.792 115.004 250.591C115.142 247.206 116.541 243.995 118.926 241.59C121.312 239.184 124.51 237.758 127.894 237.591C129.694 237.525 131.489 237.822 133.172 238.465C134.855 239.107 136.392 240.081 137.691 241.33C138.989 242.578 140.024 244.075 140.732 245.731C141.44 247.388 141.808 249.17 141.814 250.971Z" fill="white"/>
    <path opacity="0.8" d="M140.584 267.561C143.395 267.561 145.674 265.282 145.674 262.471C145.674 259.66 143.395 257.381 140.584 257.381C137.773 257.381 135.494 259.66 135.494 262.471C135.494 265.282 137.773 267.561 140.584 267.561Z" fill="white"/>
    <path opacity="0.7" d="M134.594 247.371C134.594 246.611 134.819 245.868 135.242 245.236C135.664 244.605 136.264 244.112 136.967 243.822C137.669 243.532 138.441 243.456 139.187 243.605C139.932 243.754 140.616 244.121 141.153 244.659C141.689 245.197 142.054 245.882 142.201 246.628C142.348 247.373 142.271 248.146 141.979 248.847C141.686 249.549 141.193 250.148 140.56 250.568C139.927 250.989 139.184 251.213 138.424 251.211C137.407 251.208 136.433 250.802 135.715 250.083C134.997 249.363 134.594 248.387 134.594 247.371Z" fill="white"/>
    <path opacity="0.8" d="M127.274 241.261C127.274 240.885 127.385 240.518 127.594 240.205C127.803 239.893 128.099 239.649 128.447 239.505C128.794 239.362 129.176 239.324 129.544 239.397C129.913 239.471 130.252 239.652 130.517 239.917C130.783 240.183 130.964 240.522 131.037 240.89C131.111 241.259 131.073 241.641 130.929 241.988C130.785 242.335 130.542 242.632 130.229 242.841C129.917 243.049 129.55 243.161 129.174 243.161C128.67 243.161 128.187 242.961 127.83 242.604C127.474 242.248 127.274 241.765 127.274 241.261Z" fill="white"/>
    <path opacity="0.7" d="M112.104 243.531C112.104 242.512 112.406 241.517 112.972 240.67C113.538 239.823 114.342 239.163 115.283 238.773C116.224 238.383 117.259 238.281 118.258 238.48C119.257 238.679 120.175 239.169 120.895 239.889C121.616 240.61 122.106 241.527 122.305 242.526C122.504 243.525 122.402 244.561 122.012 245.502C121.622 246.443 120.962 247.247 120.115 247.813C119.268 248.379 118.272 248.681 117.254 248.681C116.577 248.682 115.907 248.55 115.281 248.292C114.656 248.033 114.088 247.654 113.609 247.175C113.131 246.697 112.751 246.129 112.493 245.503C112.235 244.878 112.102 244.208 112.104 243.531Z" fill="white"/>
    <path opacity="0.8" d="M111.244 252.851C111.242 253.33 111.382 253.8 111.647 254.199C111.913 254.599 112.29 254.91 112.733 255.095C113.176 255.279 113.663 255.328 114.133 255.235C114.604 255.142 115.036 254.911 115.375 254.572C115.714 254.233 115.945 253.801 116.038 253.331C116.131 252.86 116.082 252.373 115.898 251.93C115.713 251.488 115.401 251.11 115.002 250.845C114.602 250.579 114.133 250.439 113.654 250.441C113.015 250.441 112.402 250.695 111.95 251.147C111.498 251.599 111.244 252.212 111.244 252.851Z" fill="white"/>
    <path opacity="0.7" d="M111.504 262.091C111.502 261.16 111.776 260.25 112.292 259.476C112.807 258.701 113.541 258.098 114.401 257.741C115.26 257.384 116.206 257.29 117.118 257.471C118.031 257.652 118.869 258.1 119.527 258.757C120.185 259.415 120.633 260.254 120.814 261.166C120.995 262.079 120.901 263.025 120.544 263.884C120.187 264.743 119.583 265.477 118.809 265.993C118.034 266.509 117.124 266.783 116.194 266.781C114.95 266.781 113.757 266.287 112.877 265.407C111.998 264.528 111.504 263.335 111.504 262.091Z" fill="white"/>
    <path opacity="0.7" d="M123.164 268.941C123.162 268.299 123.35 267.671 123.706 267.137C124.061 266.603 124.567 266.186 125.159 265.939C125.752 265.693 126.404 265.628 127.033 265.753C127.663 265.877 128.241 266.186 128.695 266.64C129.148 267.094 129.457 267.672 129.582 268.301C129.707 268.931 129.642 269.583 129.395 270.175C129.149 270.768 128.732 271.274 128.198 271.629C127.663 271.984 127.035 272.173 126.394 272.171C125.537 272.171 124.716 271.831 124.11 271.225C123.504 270.619 123.164 269.798 123.164 268.941Z" fill="white"/>
    <path opacity="0.7" d="M106.654 247.371C106.654 247.044 106.751 246.725 106.932 246.454C107.113 246.183 107.371 245.971 107.672 245.846C107.974 245.721 108.306 245.689 108.626 245.752C108.946 245.816 109.24 245.973 109.47 246.204C109.701 246.435 109.858 246.729 109.922 247.049C109.986 247.369 109.953 247.701 109.828 248.002C109.703 248.304 109.492 248.561 109.22 248.743C108.949 248.924 108.63 249.021 108.304 249.021C108.087 249.022 107.872 248.98 107.671 248.898C107.47 248.815 107.288 248.694 107.134 248.54C106.981 248.387 106.859 248.204 106.777 248.004C106.694 247.803 106.652 247.588 106.654 247.371Z" fill="white"/>
    <path opacity="0.8" d="M142.504 240.531C142.504 240.102 142.631 239.682 142.869 239.325C143.108 238.968 143.447 238.69 143.843 238.526C144.24 238.362 144.676 238.319 145.097 238.403C145.518 238.486 145.905 238.693 146.208 238.996C146.512 239.3 146.718 239.687 146.802 240.107C146.886 240.528 146.843 240.965 146.679 241.361C146.514 241.758 146.236 242.097 145.879 242.335C145.522 242.574 145.103 242.701 144.674 242.701C144.098 242.701 143.546 242.472 143.139 242.065C142.732 241.658 142.504 241.106 142.504 240.531Z" fill="white"/>
    <path opacity="0.7" d="M144.664 251.211C144.664 250.78 144.792 250.358 145.031 250C145.271 249.641 145.611 249.362 146.009 249.197C146.408 249.032 146.846 248.989 147.269 249.073C147.692 249.157 148.08 249.364 148.385 249.669C148.69 249.974 148.898 250.363 148.982 250.785C149.066 251.208 149.023 251.647 148.858 252.045C148.693 252.443 148.413 252.784 148.055 253.023C147.696 253.263 147.275 253.391 146.844 253.391C146.266 253.391 145.711 253.161 145.302 252.752C144.893 252.343 144.664 251.789 144.664 251.211Z" fill="white"/>
    <path opacity="0.8" d="M124.214 253.391C124.212 252.957 124.339 252.532 124.579 252.17C124.819 251.809 125.16 251.527 125.561 251.36C125.962 251.193 126.403 251.148 126.828 251.233C127.254 251.317 127.645 251.525 127.952 251.832C128.259 252.139 128.468 252.53 128.552 252.956C128.636 253.382 128.592 253.823 128.425 254.224C128.258 254.624 127.976 254.966 127.614 255.206C127.253 255.446 126.828 255.573 126.394 255.571C125.816 255.571 125.261 255.341 124.852 254.932C124.443 254.524 124.214 253.969 124.214 253.391Z" fill="white"/>
    <path d="M254.274 331.071C254.274 327.819 252.982 324.701 250.683 322.401C248.384 320.102 245.265 318.811 242.014 318.811C238.762 318.811 235.644 320.102 233.345 322.401C231.045 324.701 229.754 327.819 229.754 331.071C229.754 331.191 229.754 331.291 229.754 331.411C229.754 331.531 229.754 331.631 229.754 331.751C229.894 333.451 231.094 335.121 233.344 336.421C238.134 339.181 245.904 339.181 250.694 336.421C252.944 335.121 254.134 333.421 254.274 331.751C254.274 331.631 254.274 331.531 254.274 331.411C254.274 331.291 254.284 331.191 254.274 331.071Z" fill="#FE9417"/>
    <path opacity="0.5" d="M254.274 331.071C254.274 327.819 252.982 324.701 250.683 322.401C248.384 320.102 245.265 318.811 242.014 318.811C238.762 318.811 235.644 320.102 233.345 322.401C231.045 324.701 229.754 327.819 229.754 331.071C229.754 331.191 229.754 331.291 229.754 331.411C229.754 331.531 229.754 331.631 229.754 331.751C229.894 333.451 231.094 335.121 233.344 336.421C238.134 339.181 245.904 339.181 250.694 336.421C252.944 335.121 254.134 333.421 254.274 331.751C254.274 331.631 254.274 331.531 254.274 331.411C254.274 331.291 254.284 331.191 254.274 331.071Z" fill="white"/>
    <path opacity="0.5" d="M247.334 320.361C245.49 319.469 243.453 319.054 241.408 319.153C239.363 319.252 237.375 319.862 235.626 320.927C233.878 321.992 232.424 323.479 231.398 325.251C230.372 327.023 229.807 329.024 229.754 331.071C229.754 331.191 229.754 331.291 229.754 331.411C229.754 331.531 229.754 331.631 229.754 331.751C229.894 333.451 231.094 335.121 233.344 336.421C235.246 337.463 237.337 338.116 239.494 338.341C236.314 337.791 234.254 334.241 235.234 330.341C236.374 325.761 241.004 319.191 247.334 320.361Z" fill="white"/>
    <path opacity="0.2" d="M254.274 331.751C254.274 331.631 254.274 331.531 254.274 331.411C254.274 331.291 254.274 331.191 254.274 331.071C254.231 329.387 253.839 327.73 253.123 326.205C252.407 324.68 251.382 323.32 250.114 322.211C251.444 323.581 254.414 328.741 251.184 332.671C249.074 335.261 239.014 338.961 230.744 334.211C231.453 335.115 232.337 335.866 233.344 336.421C238.134 339.181 245.904 339.181 250.694 336.421C252.944 335.121 254.134 333.451 254.274 331.751Z" fill="#FE9417"/>
    <path opacity="0.5" d="M241.894 321.901C242.444 323.151 241.384 324.831 239.534 325.641C237.684 326.451 235.744 326.101 235.194 324.851C234.644 323.601 235.694 321.921 237.544 321.111C239.394 320.301 241.344 320.651 241.894 321.901Z" fill="white"/>
    <path opacity="0.5" d="M234.784 326.991C234.972 327.262 235.073 327.584 235.072 327.914C235.072 328.245 234.969 328.567 234.779 328.837C234.589 329.107 234.321 329.312 234.01 329.425C233.699 329.537 233.362 329.551 233.043 329.465C232.724 329.379 232.439 329.197 232.227 328.943C232.015 328.69 231.887 328.377 231.858 328.048C231.83 327.719 231.904 327.389 232.069 327.104C232.235 326.818 232.484 326.59 232.784 326.451C232.95 326.354 233.134 326.291 233.325 326.266C233.516 326.241 233.71 326.254 233.896 326.304C234.082 326.355 234.256 326.441 234.408 326.559C234.561 326.677 234.688 326.823 234.784 326.991Z" fill="white"/>
    <path d="M235.914 341.161C235.806 336.754 233.98 332.563 230.826 329.484C227.671 326.405 223.437 324.682 219.029 324.682C214.62 324.682 210.387 326.405 207.232 329.484C204.077 332.563 202.251 336.754 202.144 341.161C202.144 341.321 202.144 341.471 202.144 341.631C202.144 341.791 202.144 341.941 202.144 342.101C202.334 344.441 203.984 346.741 207.084 348.531C213.674 352.341 224.384 352.341 230.984 348.531C234.074 346.741 235.724 344.441 235.914 342.101C235.914 341.941 235.914 341.791 235.914 341.631C235.914 341.471 235.924 341.321 235.914 341.161Z" fill="#FE9417"/>
    <path opacity="0.6" d="M235.914 341.161C235.806 336.754 233.98 332.563 230.826 329.484C227.671 326.405 223.437 324.682 219.029 324.682C214.62 324.682 210.387 326.405 207.232 329.484C204.077 332.563 202.251 336.754 202.144 341.161C202.144 341.321 202.144 341.471 202.144 341.631C202.144 341.791 202.144 341.941 202.144 342.101C202.334 344.441 203.984 346.741 207.084 348.531C213.674 352.341 224.384 352.341 230.984 348.531C234.074 346.741 235.724 344.441 235.914 342.101C235.914 341.941 235.914 341.791 235.914 341.631C235.914 341.471 235.924 341.321 235.914 341.161Z" fill="white"/>
    <path opacity="0.5" d="M226.354 326.421C223.816 325.196 221.011 324.626 218.197 324.763C215.382 324.9 212.646 325.74 210.239 327.205C207.832 328.671 205.83 330.716 204.416 333.153C203.002 335.591 202.221 338.344 202.144 341.161C202.144 341.321 202.144 341.471 202.144 341.631C202.144 341.791 202.144 341.941 202.144 342.101C202.334 344.441 203.984 346.741 207.084 348.531C209.706 349.967 212.589 350.864 215.564 351.171C211.184 350.421 208.344 345.531 209.694 340.121C211.254 333.861 217.594 324.801 226.354 326.421Z" fill="white"/>
    <path opacity="0.1" d="M235.914 342.101C235.914 341.941 235.914 341.791 235.914 341.631C235.914 341.471 235.914 341.321 235.914 341.161C235.85 338.841 235.307 336.56 234.32 334.461C233.332 332.361 231.92 330.489 230.174 328.961C232.014 330.851 236.094 337.961 231.664 343.371C228.744 346.941 214.894 352.031 203.504 345.491C204.489 346.716 205.705 347.735 207.084 348.491C213.674 352.301 224.384 352.301 230.984 348.491C234.074 346.741 235.724 344.441 235.914 342.101Z" fill="#FE9417"/>
    <path opacity="0.3" d="M218.854 328.531C219.614 330.261 218.164 332.531 215.614 333.681C213.064 334.831 210.384 334.311 209.614 332.591C208.844 330.871 210.304 328.591 212.854 327.441C215.404 326.291 218.104 326.821 218.854 328.531Z" fill="white"/>
    <path opacity="0.3" d="M209.074 335.531C209.339 335.905 209.482 336.351 209.483 336.81C209.484 337.268 209.343 337.716 209.079 338.091C208.816 338.466 208.443 338.75 208.011 338.905C207.579 339.059 207.11 339.077 206.669 338.954C206.227 338.831 205.834 338.575 205.544 338.22C205.254 337.865 205.081 337.429 205.048 336.971C205.016 336.514 205.126 336.058 205.363 335.666C205.601 335.273 205.954 334.964 206.374 334.781C206.832 334.527 207.372 334.463 207.877 334.604C208.382 334.744 208.812 335.077 209.074 335.531Z" fill="white"/>
    <path d="M206.004 349.381C205.655 344.061 203.295 339.072 199.404 335.428C195.513 331.783 190.38 329.755 185.049 329.755C179.717 329.755 174.585 331.783 170.694 335.428C166.802 339.072 164.443 344.061 164.094 349.381C164.084 349.577 164.084 349.774 164.094 349.971C164.084 350.164 164.084 350.358 164.094 350.551C164.334 353.451 166.374 356.301 170.224 358.551C178.404 363.271 191.694 363.271 199.884 358.551C203.714 356.321 205.764 353.471 206.004 350.551C206.004 350.351 206.004 350.171 206.004 349.971C206.004 349.771 206.004 349.581 206.004 349.381Z" fill="#FE9417"/>
    <path opacity="0.8" d="M206.004 349.381C205.655 344.061 203.295 339.072 199.404 335.428C195.513 331.783 190.38 329.755 185.049 329.755C179.717 329.755 174.585 331.783 170.694 335.428C166.802 339.072 164.443 344.061 164.094 349.381C164.084 349.577 164.084 349.774 164.094 349.971C164.084 350.164 164.084 350.358 164.094 350.551C164.334 353.451 166.374 356.301 170.224 358.551C178.404 363.271 191.694 363.271 199.884 358.551C203.714 356.321 205.764 353.471 206.004 350.551C206.004 350.351 206.004 350.171 206.004 349.971C206.004 349.771 206.004 349.581 206.004 349.381Z" fill="white"/>
    <path opacity="0.3" d="M194.104 331.091C190.954 329.567 187.473 328.857 183.979 329.026C180.484 329.194 177.088 330.235 174.099 332.054C171.111 333.873 168.625 336.412 166.871 339.439C165.116 342.465 164.147 345.883 164.054 349.381C164.044 349.577 164.044 349.774 164.054 349.971C164.044 350.164 164.044 350.357 164.054 350.551C164.294 353.451 166.334 356.301 170.184 358.551C173.44 360.326 177.015 361.441 180.704 361.831C175.264 360.891 171.704 354.831 173.424 348.111C175.364 340.321 183.224 329.081 194.104 331.091Z" fill="white"/>
    <path opacity="0.1" d="M206.004 350.531C206.004 350.331 206.004 350.151 206.004 349.951C206.004 349.751 206.004 349.561 206.004 349.361C205.927 346.482 205.254 343.651 204.029 341.045C202.804 338.44 201.052 336.116 198.884 334.221C201.164 336.561 206.224 345.381 200.724 352.111C197.104 356.531 179.924 362.841 165.784 354.731C166.995 356.276 168.505 357.562 170.224 358.511C178.404 363.231 191.694 363.231 199.884 358.511C203.674 356.301 205.724 353.451 206.004 350.531Z" fill="#FE9417"/>
    <path opacity="0.3" d="M184.794 333.721C185.734 335.861 183.934 338.721 180.794 340.101C177.654 341.481 174.304 340.891 173.364 338.751C172.424 336.611 174.234 333.751 177.364 332.371C180.494 330.991 183.854 331.591 184.794 333.721Z" fill="white"/>
    <path opacity="0.3" d="M172.654 342.421C172.982 342.884 173.158 343.438 173.159 344.005C173.16 344.573 172.985 345.127 172.658 345.591C172.332 346.055 171.869 346.407 171.335 346.598C170.801 346.79 170.22 346.811 169.673 346.659C169.126 346.507 168.64 346.19 168.28 345.75C167.921 345.311 167.706 344.771 167.666 344.205C167.625 343.639 167.761 343.074 168.054 342.588C168.348 342.102 168.784 341.719 169.304 341.491C169.873 341.178 170.542 341.101 171.168 341.274C171.794 341.448 172.327 341.86 172.654 342.421Z" fill="white"/>
    <path d="M131.004 345.271C130.85 340.724 128.936 336.415 125.665 333.252C122.394 330.09 118.023 328.323 113.474 328.323C108.924 328.323 104.553 330.09 101.282 333.252C98.0115 336.415 96.0973 340.724 95.9437 345.271C95.9159 345.603 95.9159 345.938 95.9437 346.271C96.1437 348.701 97.8537 351.081 101.074 352.941C107.914 356.941 119.074 356.941 125.884 352.941C129.094 351.081 130.804 348.701 131.004 346.271C131.004 346.101 131.004 345.951 131.004 345.781C131.004 345.611 131.004 345.441 131.004 345.271Z" fill="#FE9417"/>
    <path opacity="0.8" d="M131.004 345.271C130.85 340.724 128.936 336.415 125.665 333.252C122.394 330.09 118.023 328.323 113.474 328.323C108.924 328.323 104.553 330.09 101.282 333.252C98.0115 336.415 96.0973 340.724 95.9437 345.271C95.9159 345.603 95.9159 345.938 95.9437 346.271C96.1437 348.701 97.8537 351.081 101.074 352.941C107.914 356.941 119.074 356.941 125.884 352.941C129.094 351.081 130.804 348.701 131.004 346.271C131.004 346.101 131.004 345.951 131.004 345.781C131.004 345.611 131.004 345.441 131.004 345.271Z" fill="white"/>
    <path opacity="0.3" d="M121.004 329.971C118.369 328.694 115.457 328.098 112.532 328.238C109.608 328.377 106.765 329.248 104.265 330.77C101.764 332.292 99.6844 334.417 98.2168 336.95C96.7492 339.483 95.9402 342.344 95.8637 345.27C95.8359 345.603 95.8359 345.938 95.8637 346.27C96.0637 348.7 97.7737 351.081 100.994 352.941C103.714 354.435 106.706 355.37 109.794 355.691C105.244 354.901 102.304 349.821 103.694 344.221C105.354 337.691 111.924 328.291 121.004 329.971Z" fill="white"/>
    <path opacity="0.1" d="M131.004 346.251C131.004 346.081 131.004 345.931 131.004 345.761C131.004 345.591 131.004 345.441 131.004 345.271C130.934 342.859 130.365 340.487 129.332 338.307C128.299 336.126 126.825 334.183 125.004 332.601C126.904 334.601 131.144 341.941 126.534 347.601C123.534 351.301 109.134 356.601 97.3037 349.801C98.32 351.089 99.5851 352.161 101.024 352.951C107.864 356.951 119.024 356.951 125.834 352.951C129.004 351.061 130.754 348.681 131.004 346.251Z" fill="#FE9417"/>
    <path opacity="0.3" d="M113.244 332.171C114.034 333.961 112.524 336.351 109.874 337.511C107.224 338.671 104.454 338.161 103.664 336.381C102.874 334.601 104.384 332.201 107.034 331.041C109.684 329.881 112.464 330.381 113.244 332.171Z" fill="white"/>
    <path opacity="0.3" d="M103.084 339.451C103.358 339.838 103.505 340.301 103.505 340.776C103.506 341.251 103.359 341.714 103.086 342.102C102.812 342.491 102.425 342.785 101.978 342.944C101.531 343.104 101.046 343.121 100.588 342.994C100.131 342.866 99.724 342.6 99.4238 342.233C99.1235 341.865 98.9444 341.413 98.911 340.94C98.8777 340.466 98.9917 339.994 99.2375 339.587C99.4833 339.181 99.8487 338.861 100.284 338.671C100.759 338.407 101.32 338.341 101.844 338.487C102.368 338.633 102.813 338.979 103.084 339.451Z" fill="white"/>
    <path d="M160.094 348.901C159.95 344.915 158.266 341.141 155.395 338.372C152.525 335.603 148.692 334.056 144.704 334.056C140.715 334.056 136.883 335.603 134.012 338.372C131.142 341.141 129.457 344.915 129.314 348.901C129.314 349.051 129.314 349.191 129.314 349.331C129.314 349.471 129.314 349.611 129.314 349.761C129.494 351.891 130.994 353.981 133.824 355.621C139.824 359.091 149.584 359.091 155.604 355.621C158.414 353.981 159.914 351.891 160.094 349.761C160.094 349.611 160.094 349.481 160.094 349.331C160.094 349.181 160.104 349.051 160.094 348.901Z" fill="#FE9417"/>
    <path opacity="0.8" d="M160.094 348.901C159.95 344.915 158.266 341.141 155.395 338.372C152.525 335.603 148.692 334.056 144.704 334.056C140.715 334.056 136.883 335.603 134.012 338.372C131.142 341.141 129.457 344.915 129.314 348.901C129.314 349.051 129.314 349.191 129.314 349.331C129.314 349.471 129.314 349.611 129.314 349.761C129.494 351.891 130.994 353.981 133.824 355.621C139.824 359.091 149.584 359.091 155.604 355.621C158.414 353.981 159.914 351.891 160.094 349.761C160.094 349.611 160.094 349.481 160.094 349.331C160.094 349.181 160.104 349.051 160.094 348.901Z" fill="white"/>
    <path opacity="0.3" d="M151.384 335.471C149.071 334.35 146.514 333.826 143.947 333.949C141.38 334.071 138.884 334.835 136.689 336.171C134.493 337.507 132.668 339.372 131.379 341.596C130.091 343.82 129.381 346.332 129.314 348.901C129.314 349.051 129.314 349.191 129.314 349.331C129.314 349.471 129.314 349.611 129.314 349.761C129.494 351.891 130.994 353.981 133.824 355.621C136.21 356.931 138.835 357.751 141.544 358.031C137.544 357.341 134.964 352.881 136.194 347.961C137.614 342.251 143.394 333.991 151.384 335.471Z" fill="white"/>
    <path opacity="0.1" d="M160.094 349.761C160.094 349.611 160.094 349.481 160.094 349.331C160.094 349.181 160.094 349.051 160.094 348.901C160.037 346.787 159.543 344.707 158.643 342.793C157.742 340.88 156.456 339.173 154.864 337.781C156.534 339.501 160.254 345.981 156.214 350.921C153.554 354.171 140.934 358.811 130.554 352.851C131.448 353.983 132.56 354.925 133.824 355.621C139.824 359.091 149.584 359.091 155.604 355.621C158.414 353.981 159.914 351.891 160.094 349.761Z" fill="#FE9417"/>
    <path opacity="0.3" d="M144.544 337.401C145.234 338.971 143.914 341.071 141.544 342.091C139.174 343.111 136.774 342.661 136.084 341.091C135.394 339.521 136.724 337.421 139.084 336.401C141.444 335.381 143.854 335.831 144.544 337.401Z" fill="white"/>
    <path opacity="0.3" d="M135.634 343.791C135.773 344.248 135.729 344.742 135.511 345.168C135.292 345.594 134.917 345.917 134.464 346.071C134.159 346.135 133.842 346.111 133.549 346.003C133.257 345.894 133.002 345.705 132.812 345.457C132.623 345.21 132.508 344.913 132.48 344.603C132.453 344.292 132.513 343.98 132.656 343.703C132.798 343.425 133.016 343.194 133.285 343.036C133.553 342.877 133.861 342.798 134.173 342.807C134.484 342.816 134.787 342.913 135.045 343.088C135.304 343.262 135.508 343.505 135.634 343.791Z" fill="white"/>
    <path d="M264.654 333.941C264.654 331.976 263.873 330.091 262.483 328.701C261.094 327.311 259.209 326.531 257.244 326.531C255.278 326.531 253.394 327.311 252.004 328.701C250.614 330.091 249.834 331.976 249.834 333.941V334.351C249.939 334.962 250.191 335.538 250.569 336.03C250.947 336.521 251.44 336.913 252.004 337.171C253.628 337.999 255.425 338.43 257.249 338.43C259.072 338.43 260.869 337.999 262.494 337.171C263.056 336.912 263.547 336.52 263.924 336.029C264.3 335.537 264.551 334.961 264.654 334.351C264.659 334.284 264.659 334.217 264.654 334.151C264.659 334.081 264.659 334.011 264.654 333.941Z" fill="#FE9417"/>
    <path opacity="0.2" d="M264.654 333.941C264.654 331.976 263.873 330.091 262.483 328.701C261.094 327.311 259.209 326.531 257.244 326.531C255.278 326.531 253.394 327.311 252.004 328.701C250.614 330.091 249.834 331.976 249.834 333.941V334.351C249.939 334.962 250.191 335.538 250.569 336.03C250.947 336.521 251.44 336.913 252.004 337.171C253.628 337.999 255.425 338.43 257.249 338.43C259.072 338.43 260.869 337.999 262.494 337.171C263.056 336.912 263.547 336.52 263.924 336.029C264.3 335.537 264.551 334.961 264.654 334.351C264.659 334.284 264.659 334.217 264.654 334.151C264.659 334.081 264.659 334.011 264.654 333.941Z" fill="white"/>
    <path opacity="0.5" d="M260.464 327.471C259.35 326.933 258.118 326.682 256.882 326.742C255.647 326.802 254.445 327.17 253.388 327.814C252.331 328.457 251.452 329.355 250.831 330.425C250.211 331.495 249.868 332.704 249.834 333.941V334.351C249.939 334.962 250.191 335.538 250.569 336.03C250.947 336.521 251.44 336.913 252.004 337.171C253.154 337.802 254.419 338.196 255.724 338.331C253.804 338.001 252.554 335.861 253.144 333.491C253.834 330.741 256.614 326.761 260.464 327.471Z" fill="white"/>
    <path opacity="0.05" d="M264.654 334.351C264.659 334.284 264.659 334.217 264.654 334.151C264.659 334.081 264.659 334.011 264.654 333.941C264.626 332.923 264.388 331.922 263.955 331.002C263.521 330.081 262.901 329.26 262.134 328.591C262.944 329.411 264.734 332.531 262.784 334.911C261.504 336.481 255.434 338.711 250.434 335.841C250.859 336.388 251.394 336.841 252.004 337.171C253.628 337.999 255.425 338.43 257.249 338.43C259.072 338.43 260.869 337.999 262.494 337.171C263.056 336.912 263.547 336.52 263.924 336.029C264.3 335.537 264.551 334.961 264.654 334.351Z" fill="#455A64"/>
    <path opacity="0.3" d="M257.174 328.401C257.504 329.161 256.864 330.171 255.744 330.661C254.624 331.151 253.454 330.941 253.124 330.181C252.794 329.421 253.424 328.421 254.544 327.931C255.664 327.441 256.834 327.651 257.174 328.401Z" fill="white"/>
    <path opacity="0.3" d="M252.874 331.531C252.896 331.741 252.85 331.953 252.744 332.135C252.638 332.318 252.477 332.463 252.284 332.548C252.091 332.634 251.875 332.656 251.668 332.611C251.462 332.567 251.275 332.458 251.134 332.301C251.112 332.09 251.157 331.879 251.263 331.696C251.369 331.513 251.53 331.368 251.724 331.283C251.917 331.197 252.132 331.175 252.339 331.22C252.546 331.264 252.733 331.373 252.874 331.531Z" fill="white"/>
    <path d="M10.3737 324.821C10.3737 321.569 11.6654 318.451 13.9646 316.151C16.2638 313.852 19.3822 312.561 22.6337 312.561C25.8853 312.561 29.0037 313.852 31.3029 316.151C33.6021 318.451 34.8937 321.569 34.8937 324.821C34.8937 324.931 34.8937 325.041 34.8937 325.161C34.8937 325.281 34.8937 325.381 34.8937 325.501C34.7637 327.201 33.5637 328.861 31.3137 330.171C26.5237 332.931 18.7537 332.931 13.9537 330.171C11.7137 328.861 10.5137 327.171 10.3737 325.501C10.3737 325.381 10.3737 325.281 10.3737 325.161C10.3737 325.041 10.3637 324.931 10.3737 324.821Z" fill="#FE9417"/>
    <path opacity="0.5" d="M10.3737 324.821C10.3737 321.569 11.6654 318.451 13.9646 316.151C16.2638 313.852 19.3822 312.561 22.6337 312.561C25.8853 312.561 29.0037 313.852 31.3029 316.151C33.6021 318.451 34.8937 321.569 34.8937 324.821C34.8937 324.931 34.8937 325.041 34.8937 325.161C34.8937 325.281 34.8937 325.381 34.8937 325.501C34.7637 327.201 33.5637 328.861 31.3137 330.171C26.5237 332.931 18.7537 332.931 13.9537 330.171C11.7137 328.861 10.5137 327.171 10.3737 325.501C10.3737 325.381 10.3737 325.281 10.3737 325.161C10.3737 325.041 10.3637 324.931 10.3737 324.821Z" fill="white"/>
    <path opacity="0.5" d="M17.3137 314.111C19.157 313.219 21.1944 312.804 23.2395 312.903C25.2847 313.002 27.2725 313.612 29.0212 314.677C30.7698 315.742 32.2235 317.229 33.2494 319.001C34.2753 320.773 34.8406 322.774 34.8937 324.821C34.8937 324.931 34.8937 325.041 34.8937 325.161C34.8937 325.281 34.8937 325.381 34.8937 325.501C34.7637 327.201 33.5637 328.861 31.3137 330.171C29.4086 331.215 27.3144 331.867 25.1537 332.091C28.3337 331.541 30.3937 327.991 29.4137 324.091C28.2837 319.531 23.6837 312.941 17.3137 314.111Z" fill="white"/>
    <path opacity="0.2" d="M10.3737 325.531C10.3737 325.411 10.3737 325.311 10.3737 325.191C10.3737 325.071 10.3737 324.961 10.3737 324.851C10.4195 323.165 10.8137 321.506 11.5313 319.98C12.2489 318.453 13.2746 317.092 14.5437 315.981C13.2137 317.351 10.2437 322.521 13.4637 326.451C15.5837 329.041 25.6337 332.741 33.9137 327.991C33.202 328.893 32.3182 329.644 31.3137 330.201C26.5237 332.961 18.7537 332.961 13.9537 330.201C11.7137 328.861 10.5137 327.201 10.3737 325.531Z" fill="#FE9417"/>
    <path opacity="0.3" d="M22.7637 315.651C22.2137 316.901 23.2637 318.581 25.1137 319.391C26.9637 320.201 28.9137 319.851 29.4637 318.601C30.0137 317.351 28.9537 315.671 27.1037 314.861C25.2537 314.051 23.3137 314.401 22.7637 315.651Z" fill="white"/>
    <path opacity="0.3" d="M29.8637 320.741C29.7524 321.106 29.7872 321.499 29.9607 321.839C30.1342 322.179 30.4329 322.437 30.7937 322.561C31.0379 322.614 31.2921 322.596 31.5267 322.51C31.7613 322.424 31.9667 322.274 32.119 322.075C32.2713 321.877 32.3643 321.64 32.3872 321.391C32.4101 321.143 32.3618 320.893 32.2482 320.67C32.1345 320.448 31.96 320.262 31.745 320.135C31.53 320.007 31.2833 319.944 31.0335 319.951C30.7838 319.959 30.5413 320.037 30.3343 320.177C30.1272 320.316 29.964 320.512 29.8637 320.741Z" fill="white"/>
    <path d="M36.6737 329.531C36.7839 324.887 38.706 320.47 42.0293 317.225C45.3526 313.979 49.8136 312.163 54.4587 312.163C59.1039 312.163 63.5648 313.979 66.8882 317.225C70.2115 320.47 72.1336 324.887 72.2437 329.531C72.2437 329.701 72.2437 329.851 72.2437 330.021C72.2437 330.191 72.2437 330.351 72.2437 330.521C72.0337 332.981 70.3037 335.401 67.0337 337.291C60.0937 341.291 48.8137 341.291 41.8637 337.291C38.6137 335.401 36.8637 332.981 36.6737 330.521C36.6638 330.354 36.6638 330.187 36.6737 330.021C36.6637 329.858 36.6637 329.694 36.6737 329.531Z" fill="#FE9417"/>
    <path opacity="0.7" d="M36.6737 329.531C36.7839 324.887 38.706 320.47 42.0293 317.225C45.3526 313.979 49.8136 312.163 54.4587 312.163C59.1039 312.163 63.5648 313.979 66.8882 317.225C70.2115 320.47 72.1336 324.887 72.2437 329.531C72.2437 329.701 72.2437 329.851 72.2437 330.021C72.2437 330.191 72.2437 330.351 72.2437 330.521C72.0337 332.981 70.3037 335.401 67.0337 337.291C60.0937 341.291 48.8137 341.291 41.8637 337.291C38.6137 335.401 36.8637 332.981 36.6737 330.521C36.6638 330.354 36.6638 330.187 36.6737 330.021C36.6637 329.858 36.6637 329.694 36.6737 329.531Z" fill="white"/>
    <path opacity="0.3" d="M46.7337 313.971C49.41 312.678 52.3678 312.076 55.3366 312.221C58.3054 312.366 61.1905 313.253 63.728 314.801C66.2656 316.348 68.3746 318.508 69.8623 321.081C71.3499 323.654 72.1687 326.559 72.2437 329.531C72.2437 329.701 72.2437 329.851 72.2437 330.021C72.2437 330.191 72.2437 330.351 72.2437 330.521C72.0337 332.981 70.3037 335.401 67.0337 337.291C64.2768 338.806 61.2433 339.751 58.1137 340.071C62.7237 339.281 65.7137 334.131 64.2937 328.441C62.6437 321.811 56.0037 312.271 46.7337 313.971Z" fill="white"/>
    <path opacity="0.1" d="M36.6737 330.531C36.6638 330.364 36.6638 330.197 36.6737 330.031C36.6637 329.867 36.6637 329.704 36.6737 329.541C36.7319 327.099 37.2951 324.696 38.3277 322.483C39.3603 320.269 40.8401 318.294 42.6737 316.681C40.7437 318.681 36.4437 326.161 41.1137 331.871C44.1837 335.621 58.7637 340.981 70.7737 334.101C69.7423 335.411 68.4566 336.5 66.9937 337.301C60.0537 341.301 48.7737 341.301 41.8237 337.301C38.6137 335.371 36.8737 332.951 36.6737 330.531Z" fill="#FE9417"/>
    <path opacity="0.5" d="M54.6337 316.211C53.8437 318.021 55.3737 320.441 58.0537 321.621C60.7337 322.801 63.5637 322.291 64.3537 320.471C65.1437 318.651 63.6237 316.241 60.9337 315.061C58.2437 313.881 55.4337 314.391 54.6337 316.211Z" fill="white"/>
    <path opacity="0.5" d="M64.9438 323.591C64.6645 323.985 64.5141 324.456 64.5132 324.939C64.5122 325.422 64.6608 325.893 64.9385 326.289C65.2162 326.684 65.6093 326.983 66.0641 327.146C66.5188 327.309 67.0128 327.327 67.4782 327.198C67.9437 327.069 68.3579 326.799 68.6639 326.426C68.9698 326.052 69.1526 325.593 69.1872 325.111C69.2218 324.629 69.1064 324.148 68.8569 323.735C68.6074 323.321 68.2361 322.995 67.7938 322.801C67.31 322.533 66.7402 322.465 66.2072 322.613C65.6741 322.761 65.2204 323.112 64.9438 323.591Z" fill="white"/>
    <path d="M21.0037 339.941C21.1544 335.564 22.9988 331.418 26.148 328.375C29.2971 325.332 33.5049 323.632 37.8837 323.632C42.2626 323.632 46.4704 325.332 49.6195 328.375C52.7687 331.418 54.6131 335.564 54.7638 339.941C54.7904 340.253 54.7904 340.568 54.7638 340.881C54.5738 343.221 52.9238 345.511 49.8238 347.311C43.2338 351.121 32.5337 351.121 25.9337 347.311C22.8437 345.511 21.1937 343.221 21.0037 340.881C20.9771 340.568 20.9771 340.253 21.0037 339.941Z" fill="#FE9417"/>
    <path opacity="0.6" d="M21.0037 339.941C21.1544 335.564 22.9988 331.418 26.148 328.375C29.2971 325.332 33.5049 323.632 37.8837 323.632C42.2626 323.632 46.4704 325.332 49.6195 328.375C52.7687 331.418 54.6131 335.564 54.7638 339.941C54.7904 340.253 54.7904 340.568 54.7638 340.881C54.5738 343.221 52.9238 345.511 49.8238 347.311C43.2338 351.121 32.5337 351.121 25.9337 347.311C22.8437 345.511 21.1937 343.221 21.0037 340.881C20.9771 340.568 20.9771 340.253 21.0037 339.941Z" fill="white"/>
    <path opacity="0.5" d="M30.5637 325.201C33.1012 323.971 35.9067 323.396 38.7235 323.531C41.5403 323.665 44.2784 324.504 46.687 325.971C49.0957 327.437 51.0981 329.485 52.5109 331.925C53.9236 334.366 54.7016 337.122 54.7737 339.941C54.8004 340.254 54.8004 340.568 54.7737 340.881C54.5837 343.221 52.9337 345.511 49.8337 347.311C47.2141 348.745 44.3346 349.643 41.3637 349.951C45.7437 349.191 48.5737 344.301 47.2337 338.901C45.6737 332.641 39.3337 323.581 30.5637 325.201Z" fill="white"/>
    <path opacity="0.15" d="M21.0037 340.881C20.9771 340.568 20.9771 340.253 21.0037 339.941C21.0618 337.621 21.6011 335.339 22.5874 333.239C23.5738 331.139 24.9857 329.267 26.7337 327.741C24.9037 329.621 20.8237 336.741 25.2537 342.151C28.1737 345.721 42.0137 350.801 53.4137 344.271C52.4274 345.498 51.2071 346.518 49.8238 347.271C43.2338 351.081 32.5337 351.081 25.9337 347.271C22.8537 345.531 21.2037 343.221 21.0037 340.881Z" fill="#FE9417"/>
    <path opacity="0.3" d="M38.0637 327.321C37.3137 329.041 38.7637 331.321 41.3137 332.461C43.8637 333.601 46.5337 333.091 47.3137 331.371C48.0937 329.651 46.6137 327.371 44.0637 326.231C41.5137 325.091 38.8237 325.601 38.0637 327.321Z" fill="white"/>
    <path opacity="0.3" d="M47.8537 334.331C47.5915 334.704 47.4509 335.148 47.4512 335.604C47.4514 336.06 47.5925 336.504 47.8552 336.876C48.1178 337.249 48.4892 337.531 48.9184 337.684C49.3476 337.837 49.8136 337.854 50.2527 337.732C50.6917 337.61 51.0823 337.355 51.371 337.003C51.6597 336.65 51.8324 336.217 51.8654 335.763C51.8983 335.308 51.79 334.854 51.5552 334.464C51.3204 334.073 50.9706 333.765 50.5537 333.581C50.0952 333.327 49.5554 333.264 49.0504 333.404C48.5455 333.544 48.1158 333.877 47.8537 334.331Z" fill="white"/>
    <path d="M56.8337 347.351C57.1826 342.03 59.5421 337.042 63.4335 333.397C67.325 329.753 72.457 327.725 77.7887 327.725C83.1204 327.725 88.2525 329.753 92.144 333.397C96.0354 337.042 98.3949 342.03 98.7437 347.351C98.7437 347.551 98.7437 347.731 98.7437 347.931C98.7437 348.131 98.7437 348.321 98.7437 348.521C98.5037 351.421 96.4537 354.271 92.6037 356.521C84.4337 361.251 71.1437 361.251 62.9537 356.521C59.1137 354.301 57.0737 351.451 56.8337 348.521C56.8237 348.324 56.8237 348.127 56.8337 347.931C56.8237 347.737 56.8237 347.544 56.8337 347.351Z" fill="#FE9417"/>
    <path opacity="0.8" d="M56.8337 347.351C57.1826 342.03 59.5421 337.042 63.4335 333.397C67.325 329.753 72.457 327.725 77.7887 327.725C83.1204 327.725 88.2525 329.753 92.144 333.397C96.0354 337.042 98.3949 342.03 98.7437 347.351C98.7437 347.551 98.7437 347.731 98.7437 347.931C98.7437 348.131 98.7437 348.321 98.7437 348.521C98.5037 351.421 96.4537 354.271 92.6037 356.521C84.4337 361.251 71.1437 361.251 62.9537 356.521C59.1137 354.301 57.0737 351.451 56.8337 348.521C56.8237 348.324 56.8237 348.127 56.8337 347.931C56.8237 347.737 56.8237 347.544 56.8337 347.351Z" fill="white"/>
    <path opacity="0.3" d="M68.6937 329.061C71.8427 327.532 75.3249 326.818 78.8214 326.983C82.318 327.149 85.717 328.19 88.7072 330.01C91.6973 331.83 94.183 334.371 95.9364 337.401C97.6899 340.43 98.6551 343.851 98.7437 347.351C98.7437 347.551 98.7437 347.731 98.7437 347.931C98.7437 348.131 98.7437 348.321 98.7437 348.521C98.5037 351.421 96.4537 354.271 92.6037 356.521C89.3544 358.304 85.7808 359.42 82.0937 359.801C87.5237 358.871 91.0937 352.801 89.3737 346.091C87.4337 338.291 79.5737 327.051 68.6937 329.061Z" fill="white"/>
    <path opacity="0.1" d="M56.8337 348.531C56.8237 348.334 56.8237 348.137 56.8337 347.941C56.8237 347.747 56.8237 347.554 56.8337 347.361C56.9167 344.475 57.5966 341.639 58.8307 339.03C60.0648 336.42 61.8261 334.095 64.0037 332.201C61.7237 334.551 56.6537 343.371 62.1637 350.101C65.7837 354.521 82.9637 360.831 97.1037 352.721C95.8826 354.287 94.3505 355.585 92.6037 356.531C84.4337 361.261 71.1437 361.261 62.9537 356.531C59.1137 354.271 57.0737 351.421 56.8337 348.531Z" fill="#FE9417"/>
    <path opacity="0.3" d="M78.0037 331.691C77.0637 333.831 78.8637 336.691 82.0037 338.071C85.1437 339.451 88.4937 338.851 89.4337 336.721C90.3737 334.591 88.5637 331.721 85.4337 330.341C82.3037 328.961 78.9337 329.531 78.0037 331.691Z" fill="white"/>
    <path opacity="0.3" d="M90.1438 340.391C89.8159 340.854 89.6395 341.408 89.6388 341.975C89.638 342.543 89.8128 343.097 90.1394 343.561C90.4659 344.025 90.9281 344.377 91.4625 344.568C91.9969 344.759 92.5774 344.781 93.1243 344.629C93.6713 344.477 94.1578 344.16 94.5172 343.72C94.8766 343.281 95.0913 342.741 95.1317 342.175C95.1722 341.609 95.0365 341.044 94.7432 340.558C94.45 340.072 94.0135 339.689 93.4937 339.461C92.9255 339.143 92.2547 339.062 91.6274 339.236C91.0001 339.411 90.4669 339.825 90.1438 340.391Z" fill="white"/>
    <path d="M169.154 361.221C168.993 356.254 166.907 351.545 163.337 348.088C159.767 344.632 154.993 342.699 150.024 342.699C145.055 342.699 140.28 344.632 136.71 348.088C133.14 351.545 131.054 356.254 130.894 361.221C130.894 361.401 130.894 361.571 130.894 361.751C130.894 361.931 130.894 362.101 130.894 362.281C131.114 364.931 132.984 367.531 136.494 369.561C143.964 373.881 156.094 373.881 163.574 369.561C167.074 367.561 168.934 364.931 169.154 362.281C169.154 362.101 169.154 361.931 169.154 361.751C169.154 361.571 169.164 361.401 169.154 361.221Z" fill="#FE9417"/>
    <path opacity="0.9" d="M169.154 361.221C168.993 356.254 166.907 351.545 163.337 348.088C159.767 344.632 154.993 342.699 150.024 342.699C145.055 342.699 140.28 344.632 136.71 348.088C133.14 351.545 131.054 356.254 130.894 361.221C130.894 361.401 130.894 361.571 130.894 361.751C130.894 361.931 130.894 362.101 130.894 362.281C131.114 364.931 132.984 367.531 136.494 369.561C143.964 373.881 156.094 373.881 163.574 369.561C167.074 367.561 168.934 364.931 169.154 362.281C169.154 362.101 169.154 361.931 169.154 361.751C169.154 361.571 169.164 361.401 169.154 361.221Z" fill="white"/>
    <path opacity="0.5" d="M158.324 344.531C155.449 343.139 152.27 342.49 149.08 342.644C145.889 342.797 142.788 343.748 140.059 345.409C137.331 347.07 135.063 349.388 133.461 352.152C131.86 354.916 130.977 358.038 130.894 361.231C130.894 361.411 130.894 361.581 130.894 361.761C130.894 361.941 130.894 362.111 130.894 362.291C131.114 364.941 132.984 367.541 136.494 369.571C139.461 371.202 142.725 372.222 146.094 372.571C141.094 371.711 137.924 366.171 139.444 360.051C141.214 352.941 148.394 342.681 158.324 344.531Z" fill="white"/>
    <path opacity="0.1" d="M169.154 362.281C169.154 362.101 169.154 361.931 169.154 361.751C169.154 361.571 169.154 361.401 169.154 361.221C169.087 358.591 168.474 356.004 167.355 353.623C166.237 351.243 164.636 349.12 162.654 347.391C164.734 349.531 169.364 357.581 164.334 363.721C161.034 367.721 145.334 373.531 132.434 366.121C133.542 367.529 134.923 368.698 136.494 369.561C143.964 373.881 156.094 373.881 163.574 369.561C167.074 367.531 168.934 364.931 169.154 362.281Z" fill="#FE9417"/>
    <path opacity="0.5" d="M149.834 346.921C150.684 348.871 149.044 351.481 146.154 352.751C143.264 354.021 140.234 353.461 139.374 351.511C138.514 349.561 140.164 346.951 143.054 345.681C145.944 344.411 149.004 344.971 149.834 346.921Z" fill="white"/>
    <path opacity="0.5" d="M138.744 354.861C139.043 355.284 139.203 355.789 139.203 356.307C139.204 356.825 139.044 357.33 138.746 357.753C138.448 358.177 138.026 358.498 137.538 358.672C137.05 358.846 136.521 358.866 136.022 358.727C135.523 358.588 135.079 358.299 134.751 357.898C134.423 357.497 134.227 357.004 134.19 356.488C134.153 355.971 134.277 355.456 134.544 355.012C134.811 354.569 135.21 354.219 135.684 354.011C136.204 353.724 136.815 353.652 137.387 353.811C137.959 353.97 138.446 354.347 138.744 354.861Z" fill="white"/>
    <path d="M89.2537 363.301C89.3651 358.549 91.331 354.029 94.7311 350.708C98.1312 347.387 102.696 345.527 107.449 345.527C112.202 345.527 116.766 347.387 120.166 350.708C123.566 354.029 125.532 358.549 125.644 363.301C125.644 363.471 125.644 363.631 125.644 363.801C125.644 363.971 125.644 364.141 125.644 364.311C125.434 366.831 123.644 369.311 120.314 371.241C113.214 375.341 101.684 375.341 94.5637 371.241C91.2337 369.301 89.4637 366.831 89.2537 364.311C89.2537 364.141 89.2537 363.981 89.2537 363.801C89.2537 363.621 89.2437 363.471 89.2537 363.301Z" fill="#FE9417"/>
    <path opacity="0.9" d="M89.2537 363.301C89.3651 358.549 91.331 354.029 94.7311 350.708C98.1312 347.387 102.696 345.527 107.449 345.527C112.202 345.527 116.766 347.387 120.166 350.708C123.566 354.029 125.532 358.549 125.644 363.301C125.644 363.471 125.644 363.631 125.644 363.801C125.644 363.971 125.644 364.141 125.644 364.311C125.434 366.831 123.644 369.311 120.314 371.241C113.214 375.341 101.684 375.341 94.5637 371.241C91.2337 369.301 89.4637 366.831 89.2537 364.311C89.2537 364.141 89.2537 363.981 89.2537 363.801C89.2537 363.621 89.2437 363.471 89.2537 363.301Z" fill="white"/>
    <path opacity="0.5" d="M99.5537 347.411C102.289 346.091 105.312 345.476 108.346 345.624C111.379 345.772 114.328 346.677 116.922 348.257C119.516 349.837 121.674 352.041 123.197 354.669C124.72 357.297 125.562 360.264 125.644 363.301C125.644 363.471 125.644 363.631 125.644 363.801C125.644 363.971 125.644 364.141 125.644 364.311C125.434 366.831 123.644 369.311 120.314 371.241C117.489 372.787 114.386 373.756 111.184 374.091C115.904 373.271 118.964 368.001 117.514 362.181C115.824 355.431 109.004 345.671 99.5537 347.411Z" fill="white"/>
    <path opacity="0.1" d="M89.2537 364.311C89.2537 364.141 89.2537 363.981 89.2537 363.801C89.2537 363.621 89.2537 363.471 89.2537 363.301C89.3201 360.801 89.9035 358.342 90.9671 356.079C92.0308 353.816 93.5516 351.797 95.4337 350.151C93.4337 352.151 89.0637 359.841 93.8337 365.681C96.9837 369.521 111.904 375.001 124.174 367.961C123.123 369.305 121.81 370.421 120.314 371.241C113.214 375.341 101.684 375.341 94.5637 371.241C91.2337 369.301 89.4637 366.831 89.2537 364.311Z" fill="#FE9417"/>
    <path opacity="0.5" d="M107.634 349.701C106.824 351.551 108.384 354.041 111.134 355.241C113.884 356.441 116.764 355.921 117.574 354.071C118.384 352.221 116.824 349.731 114.084 348.521C111.344 347.311 108.444 347.841 107.634 349.701Z" fill="white"/>
    <path opacity="0.5" d="M118.174 357.251C117.889 357.654 117.736 358.135 117.735 358.628C117.735 359.121 117.887 359.603 118.171 360.006C118.455 360.41 118.857 360.715 119.322 360.881C119.786 361.047 120.291 361.065 120.766 360.933C121.242 360.8 121.664 360.524 121.976 360.142C122.289 359.76 122.475 359.291 122.51 358.799C122.544 358.307 122.426 357.816 122.171 357.394C121.915 356.971 121.536 356.639 121.084 356.441C120.589 356.169 120.008 356.101 119.464 356.252C118.92 356.404 118.457 356.762 118.174 357.251Z" fill="white"/>
    <path d="M136.464 369.661C136.464 367.696 135.683 365.811 134.293 364.421C132.904 363.032 131.019 362.251 129.054 362.251C127.088 362.251 125.204 363.032 123.814 364.421C122.424 365.811 121.644 367.696 121.644 369.661V370.071C121.75 370.682 122.003 371.257 122.381 371.748C122.759 372.239 123.251 372.632 123.814 372.891C125.44 373.714 127.236 374.143 129.059 374.143C130.881 374.143 132.678 373.714 134.304 372.891C134.866 372.632 135.356 372.239 135.732 371.748C136.109 371.257 136.36 370.681 136.464 370.071C136.469 370.001 136.469 369.931 136.464 369.861C136.469 369.794 136.469 369.728 136.464 369.661Z" fill="#FE9417"/>
    <path opacity="0.9" d="M136.464 369.661C136.464 367.696 135.683 365.811 134.293 364.421C132.904 363.032 131.019 362.251 129.054 362.251C127.088 362.251 125.204 363.032 123.814 364.421C122.424 365.811 121.644 367.696 121.644 369.661V370.071C121.75 370.682 122.003 371.257 122.381 371.748C122.759 372.239 123.251 372.632 123.814 372.891C125.44 373.714 127.236 374.143 129.059 374.143C130.881 374.143 132.678 373.714 134.304 372.891C134.866 372.632 135.356 372.239 135.732 371.748C136.109 371.257 136.36 370.681 136.464 370.071C136.469 370.001 136.469 369.931 136.464 369.861C136.469 369.794 136.469 369.728 136.464 369.661Z" fill="white"/>
    <path opacity="0.6" d="M132.274 363.191C131.16 362.653 129.928 362.402 128.692 362.462C127.457 362.522 126.255 362.89 125.198 363.533C124.141 364.177 123.262 365.074 122.641 366.145C122.021 367.215 121.678 368.424 121.644 369.661V370.071C121.75 370.681 122.003 371.257 122.381 371.748C122.759 372.239 123.251 372.631 123.814 372.891C124.964 373.521 126.229 373.916 127.534 374.051C125.614 373.721 124.364 371.571 124.954 369.201C125.644 366.451 128.424 362.531 132.274 363.191Z" fill="white"/>
    <path opacity="0.1" d="M136.464 370.071C136.469 370.001 136.469 369.931 136.464 369.861C136.469 369.794 136.469 369.727 136.464 369.661C136.436 368.642 136.198 367.64 135.764 366.717C135.331 365.795 134.711 364.972 133.944 364.301C134.754 365.131 136.544 368.301 134.594 370.631C133.314 372.191 127.244 374.431 122.244 371.561C122.673 372.105 123.207 372.557 123.814 372.891C125.44 373.714 127.236 374.143 129.059 374.143C130.881 374.143 132.678 373.714 134.304 372.891C134.866 372.632 135.356 372.239 135.732 371.748C136.109 371.257 136.36 370.681 136.464 370.071Z" fill="#FE9417"/>
    <path opacity="0.5" d="M129.004 364.121C129.334 364.881 128.694 365.891 127.574 366.381C126.454 366.871 125.284 366.651 124.954 365.901C124.624 365.151 125.254 364.131 126.374 363.641C127.494 363.151 128.644 363.371 129.004 364.121Z" fill="white"/>
    <path opacity="0.5" d="M124.684 367.201C124.808 367.368 124.877 367.57 124.881 367.779C124.885 367.987 124.823 368.192 124.705 368.364C124.587 368.535 124.418 368.666 124.222 368.737C124.026 368.808 123.812 368.816 123.612 368.76C123.411 368.704 123.232 368.586 123.102 368.424C122.971 368.261 122.894 368.062 122.882 367.854C122.871 367.646 122.924 367.439 123.036 367.263C123.147 367.087 123.311 366.949 123.504 366.871C123.704 366.759 123.941 366.731 124.162 366.793C124.383 366.855 124.57 367.001 124.684 367.201Z" fill="white"/>
    <path d="M0.00373655 327.691C0.0741889 325.774 0.885196 323.959 2.2662 322.628C3.64721 321.297 5.4906 320.553 7.40874 320.553C9.32687 320.553 11.1703 321.297 12.5513 322.628C13.9323 323.959 14.7433 325.774 14.8137 327.691C14.8187 327.76 14.8187 327.831 14.8137 327.901C14.8187 327.967 14.8187 328.034 14.8137 328.101C14.713 328.713 14.4621 329.291 14.0834 329.784C13.7048 330.276 13.2102 330.666 12.6437 330.921C11.0197 331.744 9.22451 332.173 7.40373 332.173C5.58295 332.173 3.7878 331.744 2.16374 330.921C1.5997 330.664 1.10753 330.273 0.730787 329.781C0.354042 329.289 0.104332 328.712 0.00373655 328.101C-0.00124552 328.034 -0.00124552 327.967 0.00373655 327.901C-0.00123593 327.831 -0.00123593 327.76 0.00373655 327.691Z" fill="#FE9417"/>
    <path opacity="0.2" d="M0.00373655 327.691C0.0741889 325.774 0.885196 323.959 2.2662 322.628C3.64721 321.297 5.4906 320.553 7.40874 320.553C9.32687 320.553 11.1703 321.297 12.5513 322.628C13.9323 323.959 14.7433 325.774 14.8137 327.691C14.8187 327.76 14.8187 327.831 14.8137 327.901C14.8187 327.967 14.8187 328.034 14.8137 328.101C14.713 328.713 14.4621 329.291 14.0834 329.784C13.7048 330.276 13.2102 330.666 12.6437 330.921C11.0197 331.744 9.22451 332.173 7.40373 332.173C5.58295 332.173 3.7878 331.744 2.16374 330.921C1.5997 330.664 1.10753 330.273 0.730787 329.781C0.354042 329.289 0.104332 328.712 0.00373655 328.101C-0.00124552 328.034 -0.00124552 327.967 0.00373655 327.901C-0.00123593 327.831 -0.00123593 327.76 0.00373655 327.691Z" fill="white"/>
    <path opacity="0.5" d="M4.19373 321.221C5.30724 320.682 6.53802 320.431 7.77354 320.491C9.00906 320.551 10.2099 320.919 11.2663 321.563C12.3226 322.206 13.2008 323.105 13.8205 324.175C14.4402 325.246 14.7817 326.454 14.8137 327.691C14.8187 327.761 14.8187 327.831 14.8137 327.901C14.8187 327.967 14.8187 328.034 14.8137 328.101C14.713 328.714 14.4621 329.292 14.0834 329.784C13.7048 330.276 13.2101 330.667 12.6437 330.921C11.4976 331.553 10.2358 331.947 8.93372 332.081C10.8537 331.751 12.0937 329.611 11.5037 327.241C10.8237 324.531 8.00373 320.531 4.19373 321.221Z" fill="white"/>
    <path opacity="0.05" d="M0.00373655 328.101C-0.00124552 328.034 -0.00124552 327.967 0.00373655 327.901C-0.00123593 327.831 -0.00123593 327.761 0.00373655 327.691C0.0291254 326.674 0.26532 325.673 0.697371 324.752C1.12942 323.832 1.74792 323.01 2.51373 322.341C1.71373 323.161 -0.076263 326.281 1.86374 328.661C3.14374 330.231 9.22374 332.461 14.2237 329.591C13.7937 330.138 13.2559 330.59 12.6437 330.921C11.0197 331.744 9.22451 332.173 7.40373 332.173C5.58295 332.173 3.7878 331.744 2.16374 330.921C1.5997 330.664 1.10753 330.273 0.730787 329.781C0.354042 329.289 0.104332 328.712 0.00373655 328.101Z" fill="#455A64"/>
    <path opacity="0.3" d="M7.48375 322.151C7.15375 322.911 7.79375 323.921 8.90375 324.411C10.0137 324.901 11.2038 324.691 11.5338 323.931C11.8638 323.171 11.2238 322.171 10.1138 321.671C9.00376 321.171 7.81375 321.401 7.48375 322.151Z" fill="white"/>
    <path opacity="0.3" d="M11.7737 325.231C11.6504 325.398 11.5824 325.6 11.5791 325.808C11.5758 326.016 11.6374 326.22 11.7554 326.391C11.8735 326.562 12.0419 326.693 12.2374 326.764C12.4329 326.835 12.6457 326.843 12.8462 326.787C13.0466 326.732 13.2247 326.615 13.3557 326.454C13.4867 326.292 13.5641 326.094 13.577 325.886C13.59 325.678 13.5378 325.472 13.4279 325.295C13.318 325.119 13.1557 324.981 12.9637 324.901C12.7618 324.789 12.5238 324.76 12.3011 324.822C12.0785 324.884 11.8891 325.031 11.7737 325.231Z" fill="white"/>
    <path d="M152.744 197.861L156.804 148.611L173.174 158.061C181.034 162.601 184.554 174.221 183.254 191.381L181.184 218.971L176.774 203.681C174.364 195.361 168.244 192.491 159.414 195.551L152.744 197.861Z" fill="#263238"/>
    <path d="M104.004 197.861L99.9437 148.611L83.5737 158.061C75.7137 162.601 72.1937 174.221 73.4937 191.381L75.5637 218.971L80.0037 203.681C82.4037 195.361 88.5237 192.491 97.3537 195.551L104.004 197.861Z" fill="#263238"/>
    <path d="M152.574 221.681L149.494 208.111H107.264L104.184 221.681C103.374 225.791 105.694 230.061 111.184 233.211C120.694 238.701 136.124 238.701 145.634 233.211C151.064 230.061 153.374 225.791 152.574 221.681Z" fill="#37474F"/>
    <path d="M128.384 222.091C140.158 222.091 149.704 216.579 149.704 209.781C149.704 202.982 140.158 197.471 128.384 197.471C116.609 197.471 107.064 202.982 107.064 209.781C107.064 216.579 116.609 222.091 128.384 222.091Z" fill="#455A64"/>
    <path d="M104.204 221.681C103.394 225.791 105.714 230.061 111.204 233.211C120.714 238.701 136.144 238.701 145.654 233.211C151.104 230.061 153.414 225.791 152.654 221.681L151.794 217.801C152.644 221.521 150.534 225.511 145.454 228.441C136.074 233.861 120.864 233.861 111.454 228.441C106.394 225.521 104.274 221.551 105.104 217.841L104.204 221.681Z" fill="#263238"/>
    <path d="M106.124 213.151C105.284 216.801 107.324 220.681 112.244 223.521C121.164 228.671 135.614 228.671 144.534 223.521C149.434 220.691 151.474 216.841 150.674 213.201L149.514 208.111C150.384 211.791 148.364 215.661 143.464 218.491C135.144 223.291 121.634 223.291 113.314 218.491C108.414 215.661 106.394 211.791 107.264 208.111L106.124 213.151Z" fill="#263238"/>
    <path opacity="0.1" d="M144.174 208.111H141.004C142.004 212.701 144.854 224.961 145.224 227.761C145.674 231.211 138.024 237.031 117.904 235.941C126.964 238.441 138.134 237.541 145.634 233.211C147.513 232.173 149.179 230.789 150.544 229.131L144.174 208.111Z" fill="white"/>
    <path d="M128.384 222.091C140.158 222.091 149.704 216.579 149.704 209.781C149.704 202.982 140.158 197.471 128.384 197.471C116.609 197.471 107.064 202.982 107.064 209.781C107.064 216.579 116.609 222.091 128.384 222.091Z" fill="#455A64"/>
    <path d="M170.864 109.801C170.864 57.2008 148.644 11.7308 132.114 1.20076L131.674 0.910767L131.594 0.860767C130.623 0.296974 129.521 0 128.399 0C127.276 0 126.174 0.296974 125.204 0.860767L125.124 0.910767L124.684 1.20076C108.154 11.7308 85.9337 57.2008 85.9337 109.801C85.9337 160.431 100.124 205.301 101.474 209.461L101.584 209.781C102.584 212.721 105.094 215.531 109.044 217.781C119.744 223.951 137.044 223.951 147.774 217.781C151.864 215.421 154.384 212.491 155.344 209.431C156.674 205.291 170.864 160.421 170.864 109.801Z" fill="#FE9417"/>
    <path d="M144.204 13.8508C140.104 7.98077 135.954 3.64076 132.114 1.20076L131.674 0.910767L131.594 0.860767C130.623 0.296974 129.521 0 128.399 0C127.276 0 126.174 0.296974 125.204 0.860767L125.124 0.910767L124.684 1.20076C120.844 3.65076 116.684 7.98077 112.584 13.8608C109.973 17.638 107.608 21.5795 105.504 25.6608C106.224 28.3808 108.394 30.9908 112.024 33.0808C121.074 38.3108 135.744 38.3108 144.794 33.0808C148.414 30.9908 150.594 28.3808 151.314 25.6608C149.202 21.5742 146.827 17.6292 144.204 13.8508Z" fill="#455A64"/>
    <path opacity="0.15" d="M85.9137 109.801C85.9137 160.431 100.104 205.301 101.454 209.461L101.564 209.781C102.564 212.721 105.074 215.531 109.024 217.781C110.927 218.853 112.938 219.721 115.024 220.371C108.104 195.481 100.024 153.221 100.024 111.061C100.024 52.7709 114.374 11.4609 124.744 1.1709C108.134 11.7309 85.9137 57.2009 85.9137 109.801Z" fill="black"/>
    <path opacity="0.35" d="M170.864 109.801C170.864 160.431 156.674 205.301 155.324 209.461L155.214 209.781C154.214 212.721 151.704 215.531 147.744 217.781C155.744 188.451 164.934 153.221 164.934 111.061C164.934 52.7709 142.484 11.4609 132.114 1.1709C148.644 11.7309 170.864 57.2009 170.864 109.801Z" fill="white"/>
    <path d="M176.234 183.991L160.874 155.651L156.804 157.991L149.744 202.531L156.414 207.921C165.24 215.059 171.365 224.998 173.774 236.091L178.184 256.531C178.184 256.531 180.124 243.581 182.244 227.901C184.144 213.811 184.094 197.601 176.234 183.991Z" fill="#455A64"/>
    <path d="M149.744 202.531L156.804 157.971L172.174 186.311C180.034 199.931 181.554 215.611 180.254 231.311L178.184 256.531L173.774 236.151C171.365 225.057 165.24 215.119 156.414 207.981L149.744 202.531Z" fill="#37474F"/>
    <path d="M80.5137 183.991L95.8737 155.651L99.9437 157.991L107.004 202.531L100.334 207.921C91.5146 215.069 85.4006 225.014 83.0037 236.111L78.5637 256.531C78.5637 256.531 76.6237 243.581 74.5037 227.901C72.6037 213.811 72.6537 197.601 80.5137 183.991Z" fill="#455A64"/>
    <path d="M107.004 202.531L99.9438 157.971L84.5738 186.331C76.7138 199.951 75.1937 215.631 76.4937 231.331L78.5637 256.531L83.0037 236.111C85.4128 225.017 91.5373 215.079 100.364 207.941L107.004 202.531Z" fill="#37474F"/>
    <path d="M146.936 83.3009C147.783 73.0578 140.167 64.0672 129.924 63.2197C119.681 62.3721 110.69 69.9887 109.843 80.2317C108.995 90.4747 116.612 99.4654 126.855 100.313C137.098 101.16 146.088 93.5439 146.936 83.3009Z" fill="#37474F"/>
    <path d="M128.384 96.561C136.552 96.561 143.174 89.9393 143.174 81.771C143.174 73.6027 136.552 66.981 128.384 66.981C120.215 66.981 113.594 73.6027 113.594 81.771C113.594 89.9393 120.215 96.561 128.384 96.561Z" fill="#FE9417"/>
    <path opacity="0.7" d="M128.384 96.561C136.552 96.561 143.174 89.9393 143.174 81.771C143.174 73.6027 136.552 66.981 128.384 66.981C120.215 66.981 113.594 73.6027 113.594 81.771C113.594 89.9393 120.215 96.561 128.384 96.561Z" fill="white"/>
    <path d="M141.654 126.361C141.654 128.985 140.875 131.551 139.417 133.733C137.959 135.915 135.887 137.616 133.462 138.621C131.037 139.625 128.369 139.888 125.795 139.376C123.221 138.864 120.856 137.6 119 135.744C117.145 133.888 115.881 131.524 115.369 128.95C114.857 126.376 115.119 123.707 116.124 121.283C117.128 118.858 118.829 116.785 121.011 115.327C123.194 113.869 125.759 113.091 128.384 113.091C131.903 113.091 135.278 114.489 137.767 116.978C140.256 119.466 141.654 122.841 141.654 126.361Z" fill="#37474F"/>
    <path d="M137.769 128.569C138.993 123.382 135.78 118.185 130.593 116.961C125.406 115.736 120.209 118.949 118.985 124.136C117.76 129.323 120.973 134.52 126.16 135.745C131.347 136.969 136.544 133.756 137.769 128.569Z" fill="#FE9417"/>
    <path opacity="0.7" d="M137.769 128.569C138.993 123.382 135.78 118.185 130.593 116.961C125.406 115.736 120.209 118.949 118.985 124.136C117.76 129.323 120.973 134.52 126.16 135.745C131.347 136.969 136.544 133.756 137.769 128.569Z" fill="white"/>
    <path d="M70.4237 61.8107C70.4061 61.9654 70.33 62.1075 70.211 62.2079C70.092 62.3083 69.9392 62.3594 69.7837 62.3507H69.1937C68.446 62.3135 67.71 62.5482 67.1218 63.0114C66.5336 63.4746 66.1329 64.1351 65.9937 64.8707L65.8737 65.4507C65.8471 65.6043 65.7628 65.7419 65.638 65.8352C65.5132 65.9285 65.3574 65.9705 65.2026 65.9526C65.0477 65.9347 64.9057 65.8582 64.8055 65.7389C64.7053 65.6195 64.6545 65.4663 64.6637 65.3107V64.7107C64.7009 63.963 64.4662 63.227 64.003 62.6388C63.5398 62.0506 62.8794 61.6499 62.1437 61.5107L61.5637 61.3907C61.4114 61.3637 61.2755 61.279 61.1842 61.1541C61.0929 61.0293 61.0533 60.874 61.0737 60.7207C61.089 60.5669 61.163 60.4249 61.2803 60.3243C61.3977 60.2237 61.5494 60.1722 61.7037 60.1807H62.3037C63.0515 60.2179 63.7875 59.9832 64.3757 59.52C64.9639 59.0568 65.3646 58.3964 65.5037 57.6607L65.6137 57.0807C65.6452 56.9288 65.7325 56.7941 65.8584 56.7034C65.9843 56.6127 66.1396 56.5725 66.2937 56.5907C66.4476 56.606 66.5896 56.68 66.6902 56.7973C66.7908 56.9147 66.8422 57.0664 66.8337 57.2207V57.8207C66.7982 58.5666 67.0323 59.3003 67.4932 59.8879C67.954 60.4754 68.6109 60.8775 69.3437 61.0207L69.9337 61.1407C70.0849 61.17 70.2194 61.2553 70.3102 61.3795C70.4011 61.5038 70.4417 61.6578 70.4237 61.8107ZM65.5737 62.8107C66.0264 62.1992 66.6339 61.7194 67.3337 61.4207C66.7197 60.9664 66.2396 60.3549 65.9437 59.6507C65.4925 60.2701 64.8804 60.7543 64.1737 61.0507C64.7935 61.5058 65.2775 62.1212 65.5737 62.8307V62.8107Z" fill="#FE9417"/>
    <path d="M55.5937 28.7108C55.5032 29.4851 55.1851 30.2151 54.6796 30.8085C54.1741 31.4019 53.504 31.832 52.754 32.0444C52.0039 32.2568 51.2078 32.242 50.4662 32.0017C49.7246 31.7615 49.071 31.3067 48.5879 30.6949C48.1049 30.083 47.8142 29.3417 47.7527 28.5646C47.6911 27.7875 47.8614 27.0096 48.2421 26.3294C48.6228 25.6492 49.1967 25.0971 49.8912 24.7431C50.5857 24.3892 51.3696 24.2491 52.1437 24.3408C53.1804 24.4636 54.126 24.9927 54.7728 25.8121C55.4197 26.6314 55.7149 27.674 55.5937 28.7108ZM49.0037 27.9308C48.9459 28.4631 49.0471 29.0006 49.2944 29.4755C49.5418 29.9503 49.9242 30.3413 50.3936 30.599C50.8629 30.8567 51.398 30.9696 51.9315 30.9234C52.4649 30.8773 52.9727 30.6741 53.3908 30.3397C53.8089 30.0052 54.1186 29.5544 54.2807 29.0441C54.4428 28.5338 54.4501 27.9869 54.3017 27.4725C54.1533 26.958 53.8559 26.499 53.4469 26.1535C53.0379 25.8079 52.5357 25.5913 52.0037 25.5308C51.2878 25.4522 50.5699 25.6607 50.0075 26.1106C49.4452 26.5605 49.0842 27.2151 49.0037 27.9308Z" fill="#FE9417"/>
    <path d="M85.2437 14.6009C85.2237 14.762 85.1412 14.9088 85.014 15.0098C84.8869 15.1108 84.7252 15.1578 84.5637 15.1409L82.5637 14.9009C82.4836 14.891 82.4062 14.8655 82.336 14.8257C82.2658 14.786 82.204 14.7328 82.1544 14.6692C82.054 14.5407 82.0088 14.3776 82.0287 14.2159C82.0486 14.0541 82.1319 13.9068 82.2604 13.8065C82.3889 13.7062 82.5519 13.661 82.7137 13.6809L84.7137 13.9209C84.8741 13.9408 85.0201 14.0237 85.1194 14.1512C85.2188 14.2787 85.2635 14.4404 85.2437 14.6009Z" fill="#FE9417"/>
    <path d="M86.3137 15.9609L86.0738 17.9609C86.0552 18.1226 85.9731 18.2704 85.8456 18.3717C85.718 18.473 85.5555 18.5194 85.3938 18.5009C85.232 18.4823 85.0842 18.4002 84.9829 18.2727C84.8816 18.1452 84.8352 17.9826 84.8538 17.8209L85.0937 15.8209C85.1029 15.7408 85.1278 15.6632 85.167 15.5927C85.2061 15.5223 85.2588 15.4602 85.3219 15.41C85.3851 15.3599 85.4574 15.3227 85.535 15.3005C85.6125 15.2783 85.6936 15.2717 85.7737 15.2809C85.8538 15.2901 85.9314 15.3149 86.0019 15.3541C86.0723 15.3932 86.1345 15.4459 86.1846 15.509C86.2347 15.5722 86.2719 15.6446 86.2941 15.7221C86.3163 15.7996 86.3229 15.8808 86.3137 15.9609Z" fill="#FE9417"/>
    <path d="M89.8337 15.1508C89.825 15.2311 89.8005 15.3089 89.7615 15.3797C89.7225 15.4504 89.6699 15.5127 89.6066 15.563C89.5433 15.6132 89.4707 15.6504 89.393 15.6723C89.3152 15.6943 89.2339 15.7006 89.1537 15.6908L87.1537 15.4408C87.0734 15.4321 86.9956 15.4076 86.9249 15.3686C86.8541 15.3296 86.7918 15.277 86.7416 15.2137C86.6913 15.1504 86.6542 15.0778 86.6322 15.0001C86.6103 14.9223 86.604 14.841 86.6137 14.7608C86.6337 14.5978 86.7176 14.4493 86.847 14.3481C86.9764 14.2468 87.1406 14.201 87.3037 14.2208L89.3037 14.4708C89.4641 14.4908 89.6101 14.5736 89.7094 14.7011C89.8088 14.8286 89.8535 14.9904 89.8337 15.1508Z" fill="#FE9417"/>
    <path d="M86.8637 11.3708L86.6237 13.3708C86.6139 13.4509 86.5883 13.5282 86.5486 13.5985C86.5088 13.6687 86.4556 13.7304 86.392 13.7801C86.3284 13.8298 86.2556 13.8665 86.1779 13.888C86.1001 13.9096 86.0188 13.9156 85.9387 13.9058C85.8586 13.8959 85.7812 13.8704 85.711 13.8306C85.6408 13.7909 85.579 13.7377 85.5294 13.6741C85.4797 13.6105 85.443 13.5377 85.4214 13.4599C85.3999 13.3821 85.3939 13.3009 85.4037 13.2208L85.6437 11.2208C85.6529 11.1407 85.6778 11.0631 85.717 10.9927C85.7561 10.9222 85.8087 10.8601 85.8719 10.8099C85.935 10.7598 86.0074 10.7226 86.085 10.7004C86.1625 10.6782 86.2436 10.6716 86.3237 10.6808C86.4038 10.69 86.4813 10.7148 86.5518 10.754C86.6223 10.7931 86.6844 10.8458 86.7346 10.9089C86.7847 10.9721 86.8219 11.0445 86.8441 11.122C86.8662 11.1995 86.8729 11.2807 86.8637 11.3608V11.3708Z" fill="#FE9417"/>
    <path d="M191.564 61.3006C191.708 61.3607 191.825 61.4742 191.888 61.6176C191.951 61.7609 191.957 61.9232 191.904 62.0706L191.714 62.6306C191.463 63.3369 191.478 64.11 191.753 64.8068C192.029 65.5036 192.548 66.0769 193.214 66.4206L193.744 66.7006C193.878 66.7732 193.982 66.893 194.033 67.037C194.085 67.1809 194.082 67.339 194.024 67.4806C193.964 67.6253 193.85 67.7414 193.707 67.8047C193.563 67.868 193.401 67.8737 193.254 67.8206L192.694 67.6306C191.987 67.3825 191.215 67.3976 190.519 67.6732C189.823 67.9487 189.249 68.4662 188.904 69.1306L188.624 69.6606C188.55 69.7937 188.43 69.8954 188.286 69.9469C188.143 69.9984 187.986 69.9962 187.844 69.9406C187.701 69.8786 187.586 69.7649 187.523 69.6221C187.46 69.4794 187.453 69.3182 187.504 69.1706L187.694 68.6106C187.944 67.9043 187.93 67.1312 187.654 66.4344C187.378 65.7376 186.86 65.1643 186.194 64.8206L185.664 64.5406C185.59 64.5084 185.524 64.4621 185.468 64.4042C185.412 64.3464 185.369 64.2781 185.34 64.2033C185.31 64.1286 185.296 64.0488 185.298 63.9686C185.299 63.8883 185.317 63.8091 185.349 63.7356C185.381 63.6621 185.427 63.5956 185.485 63.54C185.543 63.4843 185.611 63.4406 185.686 63.4114C185.761 63.3821 185.841 63.3679 185.921 63.3695C186.001 63.3711 186.08 63.3884 186.154 63.4206L186.714 63.6106C187.42 63.8609 188.193 63.8468 188.89 63.5711C189.587 63.2953 190.16 62.7765 190.504 62.1106L190.784 61.5806C190.853 61.4426 190.972 61.3365 191.118 61.2843C191.263 61.2322 191.423 61.238 191.564 61.3006ZM191.184 66.3006C190.727 65.6899 190.44 64.9686 190.354 64.2106C189.743 64.6678 189.022 64.9542 188.264 65.0406C188.721 65.6513 189.007 66.3726 189.094 67.1306C189.699 66.6555 190.421 66.3516 191.184 66.2506V66.3006Z" fill="#FE9417"/>
    <path d="M177.614 23.3509C178.387 23.6432 179.046 24.176 179.494 24.8709C179.914 25.5241 180.133 26.2872 180.121 27.0641C180.109 27.841 179.868 28.5971 179.428 29.2373C178.987 29.8775 178.367 30.3732 177.646 30.662C176.925 30.9509 176.134 31.02 175.374 30.8607C174.613 30.7014 173.917 30.3208 173.372 29.7667C172.827 29.2126 172.458 28.5099 172.312 27.7468C172.166 26.9837 172.248 26.1943 172.549 25.478C172.85 24.7617 173.356 24.1503 174.004 23.7209C174.53 23.3704 175.134 23.1536 175.763 23.0891C176.392 23.0246 177.027 23.1145 177.614 23.3509ZM175.204 29.5309C175.344 29.5815 175.488 29.6216 175.634 29.6509C176.157 29.7595 176.7 29.7112 177.195 29.5121C177.691 29.313 178.116 28.972 178.419 28.5319C178.721 28.0917 178.887 27.5721 178.895 27.0382C178.903 26.5043 178.753 25.9799 178.464 25.5309C178.267 25.2321 178.013 24.9751 177.717 24.7744C177.42 24.5738 177.087 24.4335 176.737 24.3615C176.386 24.2896 176.025 24.2874 175.674 24.355C175.322 24.4227 174.987 24.5589 174.689 24.7559C174.39 24.9529 174.133 25.2068 173.932 25.5031C173.732 25.7994 173.591 26.1323 173.519 26.4829C173.447 26.8334 173.445 27.1947 173.513 27.5461C173.581 27.8975 173.717 28.2321 173.914 28.5309C174.235 28.9845 174.684 29.3325 175.204 29.5309Z" fill="#FE9417"/>
    <path d="M209.554 34.6609L211.454 35.4309C211.603 35.4971 211.721 35.6178 211.785 35.7684C211.848 35.919 211.851 36.088 211.794 36.2409C211.723 36.3798 211.602 36.4867 211.455 36.5405C211.309 36.5942 211.148 36.5908 211.004 36.5309L209.114 35.7609C208.963 35.7013 208.841 35.584 208.777 35.4349C208.712 35.2858 208.709 35.1171 208.769 34.9659C208.828 34.8148 208.946 34.6935 209.095 34.6288C209.244 34.5641 209.413 34.5613 209.564 34.6209L209.554 34.6609Z" fill="#FE9417"/>
    <path d="M209.654 31.1607C209.729 31.1904 209.798 31.2348 209.856 31.2913C209.913 31.3477 209.96 31.4151 209.991 31.4896C210.023 31.564 210.039 31.644 210.04 31.7249C210.04 31.8058 210.025 31.886 209.994 31.9608L209.224 33.8608C209.158 34.0101 209.037 34.1285 208.886 34.1917C208.736 34.2549 208.567 34.2581 208.414 34.2007C208.339 34.1701 208.272 34.125 208.215 34.0682C208.158 34.0113 208.113 33.9438 208.082 33.8694C208.052 33.7951 208.036 33.7154 208.036 33.6349C208.036 33.5545 208.053 33.4749 208.084 33.4008L208.854 31.5008C208.916 31.3505 209.035 31.2307 209.184 31.1671C209.334 31.1035 209.502 31.1012 209.654 31.1607Z" fill="#FE9417"/>
    <path d="M205.274 32.911L207.174 33.691C207.322 33.7551 207.44 33.874 207.504 34.0229C207.567 34.1719 207.571 34.3395 207.514 34.491C207.446 34.6387 207.325 34.7556 207.175 34.8185C207.025 34.8815 206.857 34.8859 206.704 34.831L204.814 34.051C204.663 33.9913 204.541 33.874 204.477 33.7249C204.412 33.5758 204.409 33.4071 204.469 33.256C204.528 33.1048 204.646 32.9835 204.795 32.9188C204.944 32.8541 205.113 32.8513 205.264 32.911H205.274Z" fill="#FE9417"/>
    <path d="M207.914 35.4406C208.065 35.5046 208.184 35.6257 208.246 35.7775C208.308 35.9293 208.307 36.0994 208.244 36.2506L207.474 38.1406C207.445 38.2167 207.401 38.2862 207.345 38.3449C207.289 38.4037 207.221 38.4503 207.147 38.4821C207.072 38.5139 206.991 38.5302 206.91 38.5299C206.829 38.5297 206.748 38.5129 206.674 38.4806C206.599 38.4509 206.53 38.4066 206.472 38.3501C206.414 38.2936 206.368 38.2262 206.336 38.1518C206.305 38.0773 206.288 37.9973 206.288 37.9165C206.287 37.8356 206.303 37.7554 206.334 37.6806L207.114 35.7806C207.143 35.7054 207.188 35.6368 207.244 35.5788C207.301 35.5209 207.368 35.4748 207.443 35.4431C207.517 35.4115 207.597 35.395 207.678 35.3945C207.759 35.3941 207.839 35.4098 207.914 35.4406Z" fill="#FE9417"/>
</svg>
