<svg width="180" height="180" viewBox="0 0 180 180" fill="none" xmlns="http://www.w3.org/2000/svg">
    <circle cx="90" cy="90" r="89" stroke="url(#paint0_linear__es)" stroke-width="2"/>
    <path d="M125.25 80.0971C125.25 77.8012 123.382 75.9335 121.086 75.9335H112.562L102.052 57.7292C100.822 55.5996 98.0885 54.8669 95.959 56.0967C94.927 56.6923 94.1889 57.6542 93.8806 58.8051C93.5722 59.9558 93.7305 61.1579 94.3262 62.1896L102.261 75.9336H96.5054C95.753 75.9336 95.1431 76.5436 95.1431 77.2959C95.1431 78.0482 95.753 78.6582 96.5054 78.6582H103.834L106.322 82.9665C106.918 83.9982 107.879 84.7363 109.03 85.0447C109.414 85.1477 109.804 85.1986 110.192 85.1986C110.965 85.1986 111.727 84.9959 112.414 84.5992C113.446 84.0037 114.184 83.0418 114.493 81.8908C114.786 80.7959 114.656 79.655 114.13 78.6582H121.086C121.88 78.6582 122.525 79.3037 122.525 80.0972V87.5726C122.525 88.3661 121.88 89.0116 121.086 89.0116H59.6637C58.8702 89.0116 58.2246 88.3661 58.2246 87.5726V80.0972C58.2246 79.3037 58.8702 78.6582 59.6637 78.6582H66.6201C66.0938 79.655 65.9639 80.7959 66.2573 81.8908C66.5657 83.0418 67.3038 84.0037 68.3354 84.5991C69.0226 84.9959 69.7854 85.1986 70.5584 85.1986C70.9458 85.1986 71.3357 85.1477 71.7199 85.0447C72.8706 84.7363 73.8325 83.9982 74.4281 82.9665L76.9156 78.6582L84.0629 78.6581C84.8153 78.6581 85.4252 78.048 85.4252 77.2958C85.4252 76.5434 84.8152 75.9335 84.0629 75.9335L78.4886 75.9336L86.4236 62.1897C87.0195 61.1579 87.1778 59.9559 86.8694 58.8051C86.561 57.6542 85.8229 56.6923 84.7912 56.0968C82.6612 54.8669 79.928 55.5997 78.6984 57.7292L68.1884 75.9333H59.6637C57.3679 75.9333 55.5 77.8012 55.5 80.0971V87.5724C55.5 87.6916 55.5063 87.8092 55.5161 87.9258C55.4932 88.0795 55.4948 88.2394 55.5279 88.4004L61.9893 119.81C62.6377 122.961 65.4435 125.249 68.6611 125.249H112.087C115.305 125.249 118.111 122.962 118.759 119.81L125.222 88.4006C125.255 88.2396 125.257 88.0796 125.234 87.9258C125.244 87.8092 125.25 87.6915 125.25 87.5724V80.0971ZM111.861 81.1855C111.741 81.6333 111.454 82.0076 111.052 82.2393C110.651 82.471 110.183 82.5327 109.735 82.4127C109.287 82.2927 108.913 82.0055 108.681 81.6039L96.6857 60.8271C96.454 60.4258 96.3924 59.958 96.5125 59.5102C96.6323 59.0624 96.9196 58.6882 97.3213 58.4564C97.5939 58.2991 97.8918 58.2243 98.1862 58.2243C98.7864 58.2243 99.3711 58.5356 99.6922 59.0917L111.688 79.8686C111.919 80.2699 111.981 80.7378 111.861 81.1855ZM69.0624 79.8686L81.0579 59.0916C81.379 58.5353 81.9635 58.2242 82.5638 58.2242C82.8581 58.2242 83.1563 58.2991 83.4289 58.4564C83.8304 58.688 84.1175 59.0623 84.2375 59.5101C84.3576 59.9578 84.296 60.4257 84.0641 60.8271L72.0685 81.604C71.8368 82.0055 71.4625 82.2928 71.0147 82.4128C70.5672 82.5329 70.0993 82.4714 69.6975 82.2393C69.2962 82.0077 69.009 81.6335 68.889 81.1857C68.769 80.7379 68.8306 80.2701 69.0624 79.8686ZM116.091 119.261C115.701 121.152 114.018 122.524 112.088 122.524H68.6611C66.7306 122.524 65.047 121.152 64.6581 119.261L58.9842 91.6798C59.2056 91.7163 59.4323 91.7362 59.6637 91.7362H121.086C121.318 91.7362 121.544 91.7163 121.766 91.6799L116.091 119.261Z" fill="url(#paint1_linear__es)"/>
    <path d="M91.3385 76.3317C91.0851 76.0783 90.7336 75.9326 90.3753 75.9326C90.017 75.9326 89.6656 76.0782 89.4122 76.3317C89.1588 76.5851 89.013 76.9366 89.013 77.2949C89.013 77.6531 89.1588 78.0046 89.4122 78.2579C89.6656 78.5114 90.017 78.6572 90.3753 78.6572C90.7336 78.6572 91.0851 78.5114 91.3385 78.2579C91.5919 78.0046 91.7376 77.6531 91.7376 77.2949C91.7376 76.9366 91.5919 76.5851 91.3385 76.3317Z" fill="url(#paint2_linear__es)"/>
    <path d="M69.9335 116.392L67.9385 96.5027C67.8634 95.7539 67.1955 95.2067 66.447 95.2831C65.6985 95.3583 65.1524 96.026 65.2275 96.7746L67.2225 116.664C67.2929 117.367 67.8851 117.891 68.5763 117.891C68.6218 117.891 68.6677 117.888 68.7139 117.884C69.4625 117.809 70.0085 117.141 69.9335 116.392Z" fill="url(#paint3_linear__es)"/>
    <path d="M79.4753 95.276C78.7229 95.276 78.113 95.886 78.113 96.6383V116.528C78.113 117.28 78.7229 117.89 79.4753 117.89C80.2277 117.89 80.8376 117.28 80.8376 116.528V96.6383C80.8376 95.886 80.2277 95.276 79.4753 95.276Z" fill="url(#paint4_linear__es)"/>
    <path d="M90.3753 95.276C89.6229 95.276 89.013 95.886 89.013 96.6383V110.67C89.013 111.422 89.6229 112.032 90.3753 112.032C91.1277 112.032 91.7376 111.422 91.7376 110.67V96.6383C91.7376 95.886 91.1277 95.276 90.3753 95.276Z" fill="url(#paint5_linear__es)"/>
    <path d="M91.3385 115.566C91.0851 115.313 90.7336 115.167 90.3753 115.167C90.017 115.167 89.6656 115.313 89.4122 115.566C89.1588 115.82 89.013 116.171 89.013 116.53C89.013 116.888 89.1588 117.239 89.4122 117.493C89.6656 117.746 90.017 117.892 90.3753 117.892C90.7336 117.892 91.0851 117.746 91.3385 117.493C91.5919 117.239 91.7376 116.888 91.7376 116.53C91.7376 116.171 91.5919 115.82 91.3385 115.566Z" fill="url(#paint6_linear__es)"/>
    <path d="M101.274 95.276C100.521 95.276 99.9113 95.886 99.9113 96.6383V116.528C99.9113 117.28 100.521 117.89 101.274 117.89C102.026 117.89 102.636 117.28 102.636 116.528V96.6383C102.636 95.886 102.026 95.276 101.274 95.276Z" fill="url(#paint7_linear__es)"/>
    <path d="M114.389 95.2833C113.64 95.2064 112.97 95.7486 112.892 96.4969L110.819 116.387C110.741 117.135 111.284 117.805 112.032 117.883C112.08 117.888 112.128 117.89 112.175 117.89C112.864 117.89 113.455 117.369 113.529 116.669L115.602 96.7795C115.68 96.0312 115.137 95.3613 114.389 95.2833Z" fill="url(#paint8_linear__es)"/>
    <defs>
    <linearGradient id="paint0_linear__es" x1="0" y1="0" x2="192.556" y2="17.5494" gradientUnits="userSpaceOnUse">
    <stop stop-color="#FE9417"/>
    <stop offset="1" stop-color="#F56233"/>
    </linearGradient>
    <linearGradient id="paint1_linear__es" x1="55.5" y1="55.5" x2="130.115" y2="62.3005" gradientUnits="userSpaceOnUse">
    <stop stop-color="#FE9417"/>
    <stop offset="1" stop-color="#F56233"/>
    </linearGradient>
    <linearGradient id="paint2_linear__es" x1="89.013" y1="75.9326" x2="91.9277" y2="76.1982" gradientUnits="userSpaceOnUse">
    <stop stop-color="#FE9417"/>
    <stop offset="1" stop-color="#F56233"/>
    </linearGradient>
    <linearGradient id="paint3_linear__es" x1="65.2206" y1="95.276" x2="70.3097" y2="95.3728" gradientUnits="userSpaceOnUse">
    <stop stop-color="#FE9417"/>
    <stop offset="1" stop-color="#F56233"/>
    </linearGradient>
    <linearGradient id="paint4_linear__es" x1="78.113" y1="95.276" x2="81.0515" y2="95.3083" gradientUnits="userSpaceOnUse">
    <stop stop-color="#FE9417"/>
    <stop offset="1" stop-color="#F56233"/>
    </linearGradient>
    <linearGradient id="paint5_linear__es" x1="89.013" y1="95.276" x2="91.9513" y2="95.3195" gradientUnits="userSpaceOnUse">
    <stop stop-color="#FE9417"/>
    <stop offset="1" stop-color="#F56233"/>
    </linearGradient>
    <linearGradient id="paint6_linear__es" x1="89.013" y1="115.167" x2="91.9277" y2="115.433" gradientUnits="userSpaceOnUse">
    <stop stop-color="#FE9417"/>
    <stop offset="1" stop-color="#F56233"/>
    </linearGradient>
    <linearGradient id="paint7_linear__es" x1="99.9113" y1="95.276" x2="102.85" y2="95.3083" gradientUnits="userSpaceOnUse">
    <stop stop-color="#FE9417"/>
    <stop offset="1" stop-color="#F56233"/>
    </linearGradient>
    <linearGradient id="paint8_linear__es" x1="110.811" y1="95.276" x2="115.985" y2="95.3761" gradientUnits="userSpaceOnUse">
    <stop stop-color="#FE9417"/>
    <stop offset="1" stop-color="#F56233"/>
    </linearGradient>
    </defs>
</svg>